<svg width="38" height="38" viewBox="0 0 38 38" fill="none" xmlns="http://www.w3.org/2000/svg">
<mask id="mask0_1_275" style="mask-type:alpha" maskUnits="userSpaceOnUse" x="1" y="1" width="36" height="36">
<path d="M16.0058 2.96404C17.6428 1.32704 20.2969 1.32705 21.9339 2.96404L34.9757 16.0058C36.6127 17.6428 36.6127 20.2969 34.9757 21.9339L21.9339 34.9757C20.2969 36.6127 17.6428 36.6127 16.0058 34.9757L2.96403 21.9339C1.32704 20.2969 1.32704 17.6428 2.96403 16.0058L16.0058 2.96404Z" fill="#C4C4C4"/>
</mask>
<g mask="url(#mask0_1_275)">
<path d="M18.5746 19.3651H-0.395207L18.5746 38.3349V19.3651Z" fill="#EB2448"/>
<path d="M18.5387 18.5387V-0.431122L-0.43116 18.5387H18.5387Z" fill="#CEE2F3"/>
<path d="M19.5627 19.5627H38.5325L19.5627 38.5325V19.5627Z" fill="#3E66F1"/>
<path d="M19.3651 18.5747V-0.395203L38.3349 18.5747H19.3651Z" fill="#0085FF"/>
</g>
</svg>
