<svg width="160" height="30" viewBox="0 0 160 30" fill="none" xmlns="http://www.w3.org/2000/svg">
<path d="M2.88804 23.4698V7.03805H6.03356L13.0288 18.6342H11.3622L18.24 7.03805H21.3621L21.409 23.4698H17.841L17.8175 12.5075H18.4748L12.9819 21.7328H11.2683L5.65797 12.5075H6.45609V23.4698H2.88804ZM29.392 23.4698V16.7563L30.2606 19.0567L23.0306 7.03805H27.0681L32.608 16.2633H30.284L35.8474 7.03805H39.5797L32.3497 19.0567L33.1948 16.7563V23.4698H29.392ZM41.0333 23.4698V7.03805H48.1459C49.617 7.03805 50.8846 7.28061 51.9487 7.76574C53.0129 8.23522 53.8345 8.91597 54.4135 9.80798C54.9925 10.7 55.282 11.7641 55.282 13.0004C55.282 14.2211 54.9925 15.2774 54.4135 16.1694C53.8345 17.0458 53.0129 17.7187 51.9487 18.1882C50.8846 18.6577 49.617 18.8924 48.1459 18.8924H43.146L44.8361 17.2258V23.4698H41.0333ZM51.4792 23.4698L47.3713 17.5075H51.4323L55.5872 23.4698H51.4792ZM44.8361 17.6483L43.146 15.8643H47.9347C49.1084 15.8643 49.9847 15.6139 50.5637 15.1131C51.1428 14.5967 51.4323 13.8925 51.4323 13.0004C51.4323 12.0928 51.1428 11.3886 50.5637 10.8878C49.9847 10.387 49.1084 10.1366 47.9347 10.1366H43.146L44.8361 8.32912V17.6483ZM61.4694 23.4698V10.1366H56.2113V7.03805H70.5304V10.1366H65.2722V23.4698H61.4694ZM69.5916 23.4698L76.9155 7.03805H80.6714L88.0187 23.4698H84.0281L78.0188 8.96291H79.5211L73.4883 23.4698H69.5916ZM73.2536 19.9487L74.2629 17.0614H82.7136L83.7464 19.9487H73.2536Z" fill="#3B4357"/>
<path d="M95.4117 25.0698L100.692 9.99785H102.916L97.6357 25.0698H95.4117ZM108.129 23.4698V12.2698H110.273L115.041 20.1738H113.905L118.593 12.2698H120.737L120.753 23.4698H118.321L118.305 15.9978H118.769L115.009 22.2858H113.857L110.017 15.9978H110.561V23.4698H108.129ZM129.455 22.7658C128.004 22.7658 126.772 22.5738 125.759 22.1898C124.756 21.8058 123.993 21.2512 123.471 20.5258C122.948 19.7898 122.687 18.8938 122.687 17.8378C122.687 16.7818 122.948 15.8912 123.471 15.1658C123.993 14.4298 124.756 13.8698 125.759 13.4858C126.772 13.1018 128.004 12.9098 129.455 12.9098C129.476 12.9098 129.535 12.9098 129.631 12.9098C129.737 12.9098 129.839 12.9098 129.935 12.9098C130.041 12.9098 130.1 12.9098 130.111 12.9098C131.551 12.9098 132.767 13.1018 133.759 13.4858C134.761 13.8698 135.519 14.4298 136.031 15.1658C136.543 15.9018 136.799 16.7925 136.799 17.8378C136.799 18.8725 136.543 19.7632 136.031 20.5098C135.529 21.2458 134.788 21.8058 133.807 22.1898C132.836 22.5738 131.647 22.7658 130.239 22.7658C130.207 22.7658 130.132 22.7658 130.015 22.7658C129.897 22.7658 129.78 22.7658 129.663 22.7658C129.556 22.7658 129.487 22.7658 129.455 22.7658ZM129.695 20.7658C129.727 20.7658 129.769 20.7658 129.823 20.7658C129.876 20.7658 129.913 20.7658 129.935 20.7658C130.916 20.7658 131.727 20.6592 132.367 20.4458C133.017 20.2218 133.503 19.8965 133.823 19.4698C134.143 19.0325 134.303 18.4832 134.303 17.8218C134.303 17.1605 134.137 16.6165 133.807 16.1898C133.476 15.7632 132.991 15.4485 132.351 15.2458C131.721 15.0325 130.927 14.9258 129.967 14.9258C129.945 14.9258 129.903 14.9258 129.839 14.9258C129.785 14.9258 129.737 14.9258 129.695 14.9258C128.681 14.9258 127.844 15.0272 127.183 15.2298C126.521 15.4325 126.025 15.7525 125.695 16.1898C125.364 16.6165 125.199 17.1658 125.199 17.8378C125.199 18.5098 125.375 19.0645 125.727 19.5018C126.079 19.9285 126.585 20.2485 127.247 20.4618C127.919 20.6645 128.735 20.7658 129.695 20.7658ZM128.559 23.9658V11.7898H130.943V23.9658H128.559ZM138.738 23.4698V12.2698H146.642L146.626 14.3818H140.706L141.298 13.7898L141.314 23.4698H138.738ZM148.222 23.4698V12.2698H158.43V23.4698H155.854V13.7898L156.446 14.3818H150.206L150.798 13.7898V23.4698H148.222Z" fill="#3B4357"/>
</svg>
