<?xml version="1.0" standalone="no"?>
<!DOCTYPE svg PUBLIC "-//W3C//DTD SVG 1.1//EN" "http://www.w3.org/Graphics/SVG/1.1/DTD/svg11.dtd" >
<svg xmlns="http://www.w3.org/2000/svg">
<metadata>Generated by IcoMoon</metadata>
<defs>
<font id="icomoon" horiz-adv-x="1024">
<font-face units-per-em="1024" ascent="960" descent="-64" />
<missing-glyph horiz-adv-x="1024" />
<glyph unicode="&#x20;" horiz-adv-x="512" d="" />
<glyph unicode="&#xe900;" glyph-name="risk" horiz-adv-x="983" d="M576.975 953.080l55.443-22.703-53.555-321.333 309.178 84.322-531.517-722.32-54.381 26.288 98.196 360.055-270.060-40.509 446.695 636.201zM262.946 398.905l221.46 33.219-79.571-291.762 329.148 447.303-231.494-63.135 47.108 282.635-286.652-408.259z" />
<glyph unicode="&#xe901;" glyph-name="FA" d="M489.451 897.37c12.476 12.395 32.623 12.395 45.099 0 42.449-42.162 83.712-55.949 132.762-60.46 25.502-2.345 52.8-2.141 84.301-1.76 1.237 0.015 2.475 0.030 3.725 0.045 30.089 0.369 63.437 0.777 99.759-1.227 16.964-0.936 30.238-14.963 30.238-31.951v-387.46c0-147.648-93.871-264.683-181.457-342.212-44.343-39.258-88.546-69.709-121.604-90.334-16.559-10.334-30.409-18.257-40.196-23.633-4.898-2.688-8.785-4.745-11.49-6.153-1.353-0.704-2.415-1.246-3.157-1.621l-1.22-0.61c0 0-0.051-0.026-14.208 28.672-14.157-28.698-14.178-28.685-14.178-28.685l-0.115 0.055-1.135 0.567c-0.742 0.375-1.805 0.917-3.157 1.621-2.705 1.408-6.592 3.465-11.49 6.153-9.788 5.376-23.637 13.299-40.196 23.633-33.059 20.625-77.259 51.076-121.605 90.334-87.584 77.53-181.456 194.564-181.456 342.212v387.46c0 16.988 13.274 31.015 30.237 31.951 36.321 2.004 69.67 1.595 99.762 1.227 1.246-0.015 2.487-0.030 3.722-0.045 31.502-0.382 58.799-0.586 84.301 1.76 49.049 4.511 90.313 18.298 132.762 60.46zM512-21.333l-14.178-28.685c8.922-4.407 19.413-4.416 28.335-0.013l-14.157 28.698zM512 14.878c8.845 4.877 21.38 12.062 36.395 21.431 30.942 19.307 72.073 47.676 113.062 83.959 83.081 73.545 159.876 174.455 159.876 294.289v356.657c-22.788 0.503-44.518 0.238-65.754-0.021l-3.191-0.039c-30.976-0.375-61.581-0.676-90.94 2.024-52.412 4.82-101.534 19.286-149.449 58.409-47.915-39.124-97.038-53.589-149.45-58.409-29.356-2.7-59.963-2.4-90.937-2.024-1.063 0.013-2.128 0.026-3.194 0.039-21.233 0.259-42.963 0.524-65.752 0.021v-356.657c0-119.834 76.794-220.745 159.877-294.289 40.987-36.284 82.12-64.653 113.062-83.959 15.014-9.37 27.55-16.555 36.395-21.431zM450.667 266.667c42.449 0 77.329 34.786 77.329 78.281 0 6.426-0.755 12.625-2.172 18.534l-0.149 0.653-6.985 32.111c-3.712 17.071 6.95 33.963 23.957 37.956l31.202 7.322 7.292 31.62c2.743 11.883 11.998 21.175 23.872 23.962l31.198 7.322 7.292 31.62c2.743 11.895 12.019 21.193 23.906 23.969l25.92 6.052v20.596l-31.97-0.003-156.992-158.444c-8.303-8.38-20.544-11.511-31.851-8.149-6.895 2.052-14.217 3.162-21.85 3.162-42.451 0-77.333-34.786-77.333-78.281s34.883-78.281 77.333-78.281zM591.996 344.947c0-78.319-63.014-142.281-141.329-142.281-78.317 0-141.333 63.962-141.333 142.281s63.017 142.281 141.333 142.281c6.98 0 13.854-0.512 20.587-1.502l154.031 155.456c6.007 6.064 14.191 9.476 22.729 9.477l77.316 0.009c8.491 0.001 16.631-3.371 22.63-9.373 6.003-6.002 9.374-14.143 9.374-22.631l-0.009-77.988c0-14.868-10.244-27.779-24.725-31.158l-31.215-7.292-7.287-31.595c-2.743-11.883-11.998-21.175-23.872-23.962l-31.198-7.322-7.296-31.62c-2.739-11.883-11.998-21.175-23.868-23.962l-19.942-4.681 0.226-1.041c2.522-10.654 3.849-21.739 3.849-33.097zM426.667 341.333c0 11.78 9.553 21.333 21.333 21.333s21.333-9.553 21.333-21.333c0-11.78-9.553-21.333-21.333-21.333s-21.333 9.553-21.333 21.333z" />
<glyph unicode="&#xe902;" glyph-name="access" d="M96 490.667c0 64.801 52.532 117.333 117.333 117.333h597.333c64.802 0 117.333-52.532 117.333-117.333v-341.333c0-64.802-52.531-117.333-117.333-117.333h-597.333c-64.801 0-117.333 52.531-117.333 117.333v341.333zM213.333 544c-29.455 0-53.333-23.876-53.333-53.333v-341.333c0-29.457 23.878-53.333 53.333-53.333h597.333c29.457 0 53.333 23.876 53.333 53.333v341.333c0 29.457-23.876 53.333-53.333 53.333h-597.333zM266.667 661.333c0 111.93 90.737 202.667 202.667 202.667h85.333c111.932 0 202.667-90.737 202.667-202.667v-85.333c0-17.673-14.327-32-32-32s-32 14.327-32 32v85.333c0 76.584-62.084 138.667-138.667 138.667h-85.333c-76.584 0-138.667-62.083-138.667-138.667v-85.333c0-17.673-14.327-32-32-32s-32 14.327-32 32v85.333zM684.796 427.093c12.019-12.958 11.255-33.203-1.702-45.222l-184-170.667c-12.599-11.686-32.188-11.332-44.356 0.806l-93.335 93.090c-12.513 12.48-12.539 32.742-0.059 45.257 12.48 12.51 32.742 12.535 45.255 0.055l71.542-71.351 161.434 149.734c12.958 12.019 33.203 11.255 45.222-1.702z" />
<glyph unicode="&#xe903;" glyph-name="add-strock" d="M928 448c0 17.673-14.327 32-32 32h-768c-17.673 0-32-14.327-32-32s14.327-32 32-32h768c17.673 0 32 14.327 32 32zM928 704c0 17.673-14.327 32-32 32h-768c-17.673 0-32-14.327-32-32s14.327-32 32-32h768c17.673 0 32 14.327 32 32zM629.333 192c0-17.673-14.327-32-32-32h-469.333c-17.673 0-32 14.327-32 32s14.327 32 32 32h469.333c17.673 0 32-14.327 32-32zM693.333 192c0-17.673 14.327-32 32-32h256c17.673 0 32 14.327 32 32s-14.327 32-32 32h-256c-17.673 0-32-14.327-32-32zM853.333 352c-17.673 0-32-14.327-32-32v-256c0-17.673 14.327-32 32-32s32 14.327 32 32v256c0 17.673-14.327 32-32 32z" />
<glyph unicode="&#xe904;" glyph-name="add-user" d="M138.667 149.333c0 111.932 90.737 202.667 202.667 202.667h341.333c17.673 0 32-14.327 32-32s-14.327-32-32-32h-341.333c-76.584 0-138.667-62.084-138.667-138.667v-85.333c0-17.673-14.327-32-32-32s-32 14.327-32 32v85.333zM309.333 661.333c0 111.93 90.737 202.667 202.667 202.667 111.932 0 202.667-90.737 202.667-202.667s-90.735-202.667-202.667-202.667c-111.93 0-202.667 90.737-202.667 202.667zM512 800c-76.582 0-138.667-62.083-138.667-138.667s62.084-138.667 138.667-138.667c76.582 0 138.667 62.083 138.667 138.667s-62.084 138.667-138.667 138.667zM1013.333 192c0-17.673-14.327-32-32-32h-256c-17.673 0-32 14.327-32 32s14.327 32 32 32h256c17.673 0 32-14.327 32-32zM853.333 352c17.673 0 32-14.327 32-32v-256c0-17.673-14.327-32-32-32s-32 14.327-32 32v256c0 17.673 14.327 32 32 32z" />
<glyph unicode="&#xe905;" glyph-name="add" d="M469.333 490.667h-128c-23.564 0-42.667-19.102-42.667-42.667s19.103-42.667 42.667-42.667h128v-128c0-23.565 19.102-42.667 42.667-42.667s42.667 19.102 42.667 42.667v128h128c23.565 0 42.667 19.102 42.667 42.667s-19.102 42.667-42.667 42.667h-128v128c0 23.564-19.102 42.667-42.667 42.667s-42.667-19.103-42.667-42.667v-128zM512 21.333c-235.642 0-426.667 191.027-426.667 426.667 0 235.642 191.025 426.667 426.667 426.667 235.639 0 426.667-191.025 426.667-426.667 0-235.639-191.027-426.667-426.667-426.667z" />
<glyph unicode="&#xe906;" glyph-name="addarticle" d="M96 874.667c0 17.673 14.327 32 32 32h768c17.673 0 32-14.327 32-32v-341.333c0-17.673-14.327-32-32-32h-768c-17.673 0-32 14.327-32 32v341.333zM160 842.667v-277.333h704v277.333h-704zM757.333 21.333c0-17.673-14.327-32-32-32h-597.333c-17.673 0-32 14.327-32 32v341.333c0 17.673 14.327 32 32 32h597.333c17.673 0 32-14.327 32-32s-14.327-32-32-32h-565.333v-277.333h565.333c17.673 0 32-14.327 32-32zM693.333 192c0 17.673 14.327 32 32 32h256c17.673 0 32-14.327 32-32s-14.327-32-32-32h-256c-17.673 0-32 14.327-32 32zM853.333 32c-17.673 0-32 14.327-32 32v256c0 17.673 14.327 32 32 32s32-14.327 32-32v-256c0-17.673-14.327-32-32-32zM853.333 352c17.673 0 32-14.327 32-32v-256c0-17.673-14.327-32-32-32s-32 14.327-32 32v256c0 17.673 14.327 32 32 32z" />
<glyph unicode="&#xe907;" glyph-name="add-favorite" d="M512.009 876.677l-98.872-237.721c-8.91-21.42-29.054-36.056-52.179-37.91l-256.64-20.575 195.532-167.496c17.619-15.091 25.313-38.771 19.93-61.338l-59.738-250.436 219.719 134.204c19.797 12.092 44.698 12.092 64.499 0l112.047-68.442c15.083-9.212 19.84-28.907 10.628-43.989s-28.907-19.84-43.989-10.628l-110.938 67.759-222.983-136.196c-29.159-17.809-67.235-8.61-85.045 20.548-8.52 13.948-11.174 30.703-7.381 46.605l60.626 254.157-198.438 169.984c-25.949 22.228-28.965 61.284-6.737 87.233 10.633 12.414 25.748 20.115 42.041 21.421l260.454 20.88 100.342 241.254c13.124 31.548 49.335 46.486 80.883 33.364 15.091-6.277 27.085-18.272 33.365-33.364l100.339-241.254 260.454-20.88c34.061-2.731 59.456-32.554 56.725-66.613-1.306-16.293-9.007-31.407-21.419-42.041l-199.428-170.833c-13.423-11.494-33.626-9.937-45.12 3.486-11.499 13.423-9.937 33.626 3.482 45.12l195.533 167.496-256.64 20.575c-23.125 1.854-43.268 16.49-52.177 37.91l-98.876 237.721zM1013.342 192.004c0-17.673-14.323-32-32-32h-256c-17.673 0-32 14.327-32 32s14.327 32 32 32h256c17.677 0 32-14.327 32-32zM853.342 352.004c17.677 0 32-14.327 32-32v-256c0-17.673-14.323-32-32-32-17.673 0-32 14.327-32 32v256c0 17.673 14.327 32 32 32z" />
<glyph unicode="&#xe908;" glyph-name="add-file" d="M256 800c-5.891 0-10.667-4.776-10.667-10.667v-682.667c0-5.892 4.776-10.667 10.667-10.667h448c17.673 0 32-14.327 32-32s-14.327-32-32-32h-448c-41.237 0-74.667 33.429-74.667 74.667v682.667c0 41.237 33.429 74.667 74.667 74.667h298.667c8.486 0 16.627-3.372 22.626-9.373l256-256c6.003-6.001 9.374-14.141 9.374-22.627v-106.667c0-17.673-14.327-32-32-32s-32 14.327-32 32v74.667h-224c-17.673 0-32 14.327-32 32v224h-266.667zM586.667 754.745l146.743-146.745h-146.743v146.745zM810.667 394.667c17.673 0 32-14.327 32-32v-256c0-17.673-14.327-32-32-32s-32 14.327-32 32v256c0 17.673 14.327 32 32 32zM650.667 234.667c0 17.673 14.327 32 32 32h256c17.673 0 32-14.327 32-32s-14.327-32-32-32h-256c-17.673 0-32 14.327-32 32z" />
<glyph unicode="&#xe909;" glyph-name="addhelp" d="M512 842.667c-217.968 0-394.667-176.698-394.667-394.667 0-217.967 176.698-394.667 394.667-394.667 63.066 0 122.59 14.767 175.39 41.007 15.825 7.863 35.029 1.412 42.897-14.417 7.863-15.825 1.412-35.029-14.417-42.897-61.449-30.537-130.701-47.693-203.87-47.693-253.315 0-458.667 205.35-458.667 458.667 0 253.315 205.352 458.667 458.667 458.667 253.316 0 458.667-205.352 458.667-458.667 0-26.010-2.167-51.537-6.34-76.407-2.923-17.429-19.426-29.188-36.855-26.261-17.429 2.923-29.188 19.422-26.261 36.851 3.588 21.385 5.457 43.371 5.457 65.818 0 217.968-176.7 394.667-394.667 394.667zM486.942 384.111v14.451c0 16.555 3.008 30.323 9.028 41.31s16.555 22.349 31.607 34.091c17.907 14.144 29.423 25.131 34.539 32.96 5.269 7.825 7.902 17.156 7.902 27.991 0 12.642-4.215 22.349-12.642 29.122s-20.544 10.159-36.348 10.159c-14.298 0-27.541-2.032-39.731-6.095s-24.081-8.954-35.669-14.673l-18.961 39.732c30.549 17.007 63.283 25.51 98.202 25.51 29.495 0 52.898-7.224 70.208-21.672 17.306-14.448 25.963-34.389 25.963-59.823 0-11.287-1.655-21.37-4.966-30.249-3.311-8.73-8.354-17.084-15.125-25.058-6.622-7.979-18.138-18.364-34.543-31.155-13.995-10.987-23.403-20.092-28.215-27.315-4.668-7.223-7.002-16.93-7.002-29.124v-10.159h-44.245zM477.687 312.098c0 22.724 11.059 34.091 33.182 34.091 10.837 0 19.115-3.012 24.836-9.033 5.717-5.867 8.576-14.221 8.576-25.058 0-10.684-2.935-19.187-8.802-25.51-5.722-6.17-13.922-9.254-24.61-9.254-10.684 0-18.884 3.008-24.606 9.028-5.717 6.174-8.576 14.75-8.576 25.737zM1013.333 192c0-17.673-14.327-32-32-32h-256c-17.673 0-32 14.327-32 32s14.327 32 32 32h256c17.673 0 32-14.327 32-32zM853.333 352c17.673 0 32-14.327 32-32v-256c0-17.673-14.327-32-32-32s-32 14.327-32 32v256c0 17.673 14.327 32 32 32z" />
<glyph unicode="&#xe90a;" glyph-name="add-note" d="M138.667 704c0 64.801 52.532 117.333 117.333 117.333h512c64.802 0 117.333-52.532 117.333-117.333v-256c0-17.673-14.327-32-32-32s-32 14.327-32 32v256c0 29.455-23.876 53.333-53.333 53.333h-512c-29.455 0-53.333-23.878-53.333-53.333v-512c0-29.457 23.878-53.333 53.333-53.333h384c17.673 0 32-14.327 32-32s-14.327-32-32-32h-384c-64.801 0-117.333 52.531-117.333 117.333v512zM1013.333 192c0-17.673-14.327-32-32-32h-256c-17.673 0-32 14.327-32 32s14.327 32 32 32h256c17.673 0 32-14.327 32-32zM853.333 352c17.673 0 32-14.327 32-32v-256c0-17.673-14.327-32-32-32s-32 14.327-32 32v256c0 17.673 14.327 32 32 32zM224 789.333c0 64.801 52.532 117.333 117.333 117.333h42.667c64.802 0 117.333-52.532 117.333-117.333v-241.231c0-49.393-40.043-89.436-89.436-89.436s-89.436 40.043-89.436 89.436v134.564c0 17.673 14.327 32 32 32s32-14.327 32-32v-134.564c0-14.048 11.388-25.436 25.436-25.436s25.436 11.388 25.436 25.436v241.231c0 29.455-23.878 53.333-53.333 53.333h-42.667c-29.455 0-53.333-23.878-53.333-53.333v-1.939c0-17.673-14.327-32-32-32s-32 14.327-32 32v1.939z" />
<glyph unicode="&#xe90b;" glyph-name="addreputation" d="M512 906.667c17.673 0 32-14.327 32-32v-752.943c0-17.673-14.327-32-32-32s-32 14.327-32 32v752.943c0 17.673 14.327 32 32 32zM124.441 774.272c0 17.673 14.327 32 32 32h711.109c17.677 0 32-14.327 32-32s-14.323-32-32-32h-711.109c-17.673 0-32 14.327-32 32zM317.627 89.728c-5.891 0-10.667-4.774-10.667-10.667v-25.724h333.044c17.673 0 32-14.327 32-32 0-17.677-14.327-32-32-32h-365.044c-17.673 0-32 14.323-32 32v57.724c0 41.237 33.429 74.667 74.667 74.667h215.71c17.673 0 32-14.327 32-32s-14.327-32-32-32h-215.71zM53.333 422.912c0 17.673 14.327 32 32 32h284.445c17.673 0 32-14.327 32-32 0-99.093-76.303-182.588-174.223-182.588s-174.222 83.494-174.222 182.588zM121.354 390.912c13.145-50.867 56.846-86.588 106.201-86.588s93.057 35.721 106.202 86.588h-212.403zM622.225 422.912c0 17.673 14.327 32 32 32h284.446c17.673 0 32-14.327 32-32 0-78.289-47.249-146.249-115.273-171.866-16.538-6.229-34.995 2.129-41.225 18.667-6.229 16.542 2.129 34.995 18.667 41.225 33.254 12.523 59.964 42.189 69.781 79.974h-212.339c5.687-21.888 17.054-41.101 32.115-55.817 12.642-12.348 12.877-32.61 0.529-45.252s-32.61-12.877-45.252-0.529c-34.287 33.493-55.45 81.143-55.45 133.598zM227.555 781.184c12.729 0 24.248-7.544 29.335-19.213l142.222-326.276-58.668-25.57-112.888 258.976-112.888-258.976-58.668 25.57 142.222 326.276c5.086 11.669 16.605 19.213 29.334 19.213zM796.45 781.184c12.727 0 24.247-7.544 29.333-19.213l142.221-326.276-58.667-25.57-112.887 258.976-112.892-258.976-58.667 25.57 142.221 326.276c5.086 11.669 16.606 19.213 29.338 19.213zM928 149.333c0-17.673-14.327-32-32-32h-256c-17.673 0-32 14.327-32 32s14.327 32 32 32h256c17.673 0 32-14.327 32-32zM768 309.333c17.673 0 32-14.327 32-32v-256c0-17.673-14.327-32-32-32s-32 14.327-32 32v256c0 17.673 14.327 32 32 32z" />
<glyph unicode="&#xe90c;" glyph-name="alert" d="M145.99 443.294c0 206.187 167.147 373.334 373.332 373.334 206.187 0 373.333-167.147 373.333-373.334s-167.147-373.333-373.333-373.333c-206.185 0-373.332 167.147-373.332 373.333zM519.322 752.628c-170.839 0-309.332-138.493-309.332-309.334s138.493-309.333 309.332-309.333c170.842 0 309.333 138.492 309.333 309.333 0 170.84-138.492 309.334-309.333 309.334zM105.373 670.828c-12.497 12.497-12.497 32.758 0 45.255l138.544 138.544c12.497 12.497 32.758 12.497 45.255 0s12.497-32.758 0-45.255l-138.544-138.544c-12.497-12.497-32.758-12.497-45.255 0zM925.943 670.828c12.497 12.497 12.497 32.758 0 45.255l-138.543 138.544c-12.497 12.497-32.759 12.497-45.257 0-12.493-12.497-12.493-32.758 0-45.255l138.547-138.544c12.497-12.497 32.755-12.497 45.252 0zM519.322 645.961c17.673 0 32-14.327 32-32v-172.433l120.836-148.719c11.145-13.717 9.062-33.873-4.655-45.018s-33.873-9.058-45.018 4.659l-128 157.538c-4.634 5.705-7.164 12.83-7.164 20.177v183.796c0 17.673 14.327 32 32 32z" />
<glyph unicode="&#xe90d;" glyph-name="aligncenter" d="M224 448c0 17.673 14.327 32 32 32h469.333c17.673 0 32-14.327 32-32s-14.327-32-32-32h-469.333c-17.673 0-32 14.327-32 32zM96 704c0 17.673 14.327 32 32 32h768c17.673 0 32-14.327 32-32s-14.327-32-32-32h-768c-17.673 0-32 14.327-32 32zM181.333 192c0 17.673 14.327 32 32 32h554.667c17.673 0 32-14.327 32-32s-14.327-32-32-32h-554.667c-17.673 0-32 14.327-32 32z" />
<glyph unicode="&#xe90e;" glyph-name="alignleft" d="M96 448c0 17.673 14.327 32 32 32h469.333c17.673 0 32-14.327 32-32s-14.327-32-32-32h-469.333c-17.673 0-32 14.327-32 32zM96 704c0 17.673 14.327 32 32 32h768c17.673 0 32-14.327 32-32s-14.327-32-32-32h-768c-17.673 0-32 14.327-32 32zM96 192c0 17.673 14.327 32 32 32h554.667c17.673 0 32-14.327 32-32s-14.327-32-32-32h-554.667c-17.673 0-32 14.327-32 32z" />
<glyph unicode="&#xe90f;" glyph-name="amazing" d="M575.475 815.871c-17.062-30.020-39.245-69.048-69.453-100.141-47.194-48.58-67.366-112.204-72.401-141.581l102.345-381.952 362.483 97.126c38.955 10.441 61.845 50.189 51.571 88.533l-62.908 234.775c-10.274 38.343-49.975 61.323-88.926 50.886l-95.539-25.6c-16.367-4.385-36.774-8.838-54.473-4.595-10.462 2.508-21.299 8.325-28.941 19.343-7.172 10.336-9.165 21.873-9.314 31.566-0.307 19.63 6.387 42.309 12.139 60.885 1.263 4.082 2.53 8.108 3.785 12.085 5.103 16.196 9.958 31.601 13.235 46.865 4.109 19.128 4.57 33.313 1.758 43.327-2.227 7.91-6.938 15.295-20.676 21.287-3.486 1.52-4.945 1.357-5.077 1.342-0.132-0.013-1.071-0.104-3.149-1.569-5.508-3.882-12.774-12.677-23.168-29.696-4.066-6.657-8.474-14.413-13.291-22.887zM551.957 130.223c10.406-62.652-28.57-124.006-91.17-140.779l-67.439-18.069c-66.575-17.839-135.224 21.35-153.076 87.97l-95.86 357.756c-17.851 66.62 22.006 134.884 88.582 152.723l142.667 38.227c11.084 41.859 36.292 102.695 84.46 152.275 23.919 24.621 40.333 53.402 56.815 82.304 5.628 9.868 11.268 19.751 17.212 29.487 10.522 17.225 23.595 36.438 40.905 48.643 9.28 6.543 20.386 11.549 33.318 12.911 12.937 1.363 25.515-1.152 37.376-6.326 30.592-13.344 49.062-35.462 56.7-62.635 7.044-25.070 4.045-51.551-0.794-74.084-3.977-18.511-9.988-37.541-15.155-53.901-1.152-3.657-2.266-7.18-3.302-10.534-3.793-12.25-6.413-21.751-7.881-29.052 3.106 0.644 6.673 1.501 10.765 2.598l95.539 25.599c72.785 19.503 147.806-23.343 167.313-96.14l62.908-234.777c19.507-72.798-24.043-147.413-96.828-166.916l-363.055-97.28zM673.963 684.372c-0.004-0.001-0.009 0.032-0.013 0.1l0.013-0.1zM376.007 541.886l-126.448-33.879c-32.746-8.777-51.946-42.172-43.327-74.342l95.86-357.756c8.62-32.166 41.946-51.49 74.692-42.714l67.44 18.069c32.747 8.772 51.947 42.172 43.328 74.338l-111.545 416.284zM426.871 146.001c6.101-22.758-7.407-46.157-30.168-52.254-22.761-6.101-46.157 7.407-52.256 30.17s7.409 46.157 30.17 52.254c22.761 6.101 46.157-7.407 52.254-30.17zM175.618 923.569c8.116 20.447 31.88 31.966 53.813 22.407 10.136-4.417 17.737-12.641 21.614-22.407l-37.713-14.97zM213.332 845.109l-7.376-18.583c-5.493-13.839-18.408-24.285-34.345-25.624l-22.502-1.89 18.258-16.387c11.361-10.197 15.86-25.604 12.608-39.886l-5.088-22.352 16.696 10.686c13.278 8.497 30.221 8.497 43.499 0l16.696-10.686-5.088 22.352c-3.252 14.283 1.247 29.689 12.608 39.886l18.258 16.387-22.502 1.89c-15.937 1.339-28.852 11.786-34.345 25.624l-7.376 18.583zM175.618 923.569v0zM151.758 863.46l-61.162-5.138c-11.174-0.939-21.163-6.448-27.962-14.766-13.796-16.876-12.156-42.016 4.34-56.823l47.644-42.763-14.657-64.385c-2.31-10.148-0.734-20.907 4.586-30.033 11.302-19.387 36.795-26.62 56.762-13.841l52.023 33.295 52.023-33.295c9.276-5.936 20.647-7.887 31.512-5.172 22.697 5.673 34.534 28.41 29.836 49.046l-14.657 64.385 47.644 42.763c8.041 7.218 12.729 17.165 13.521 27.52 1.616 21.122-13.518 42.084-37.143 44.068l-61.162 5.138-23.86 60.11-29.743-11.806z" />
<glyph unicode="&#xe910;" glyph-name="anti-plagiarism" d="M489.451 897.37c12.476 12.395 32.623 12.395 45.099 0 42.449-42.162 83.712-55.949 132.762-60.46 25.502-2.345 52.8-2.141 84.301-1.76 1.237 0.015 2.475 0.030 3.725 0.045 30.089 0.369 63.437 0.777 99.759-1.227 16.964-0.936 30.238-14.963 30.238-31.951v-387.46c0-147.648-93.871-264.683-181.457-342.212-44.343-39.258-88.546-69.709-121.604-90.334-16.559-10.334-30.409-18.257-40.196-23.633-4.898-2.688-8.785-4.745-11.49-6.153-1.353-0.704-2.415-1.246-3.157-1.621l-1.22-0.61c-0.009-0.004-0.051-0.026-14.208 28.672-14.157-28.698-14.17-28.693-14.178-28.685l-0.115 0.055-1.135 0.567c-0.742 0.375-1.805 0.917-3.157 1.621-2.705 1.408-6.592 3.465-11.49 6.153-9.788 5.376-23.637 13.299-40.196 23.633-33.059 20.625-77.259 51.076-121.605 90.334-87.584 77.53-181.456 194.564-181.456 342.212v387.46c0 16.988 13.274 31.015 30.237 31.951 36.321 2.004 69.67 1.595 99.762 1.227 1.246-0.015 2.487-0.030 3.722-0.045 31.502-0.382 58.799-0.586 84.301 1.76 49.049 4.511 90.313 18.298 132.762 60.46zM512-21.333l-14.178-28.685c8.922-4.407 19.413-4.416 28.335-0.013l-14.157 28.698zM512 14.878c8.845 4.877 21.38 12.062 36.395 21.431 30.942 19.307 72.073 47.676 113.062 83.959 83.081 73.545 159.876 174.455 159.876 294.289v356.657c-22.788 0.503-44.518 0.238-65.754-0.021l-3.191-0.039c-30.976-0.375-61.581-0.676-90.94 2.024-52.412 4.82-101.534 19.286-149.449 58.409-47.915-39.124-97.038-53.589-149.45-58.409-29.356-2.7-59.963-2.4-90.937-2.024-1.063 0.013-2.128 0.026-3.194 0.039-21.233 0.259-42.963 0.524-65.752 0.021v-356.657c0-119.834 76.794-220.745 159.877-294.289 40.987-36.284 82.12-64.653 113.062-83.959 15.014-9.37 27.55-16.555 36.395-21.431zM511.983 672c-108.468 0-196.4-87.932-196.4-196.403 0-108.467 87.932-196.399 196.4-196.399 108.471 0 196.403 87.932 196.403 196.399 0 108.471-87.932 196.403-196.403 196.403zM251.583 475.597c0 143.817 116.586 260.403 260.4 260.403 143.817 0 260.403-116.586 260.403-260.403 0-143.812-116.587-260.399-260.403-260.399-143.814 0-260.4 116.587-260.4 260.399zM430.532 567.344c24.836 26.794 56.922 40.167 93.769 40.167 39.104 0 72.205-16.631 97.6-47.049l-49.135-41.012c-14.182 16.988-29.769 24.061-48.465 24.061-19.866 0-34.624-6.546-46.75-19.59-11.955-13.124-18.884-30.571-18.884-55.078 0-24.503 6.929-41.95 18.884-55.078 12.126-13.043 26.884-19.588 46.75-19.588 18.547 0 34.108 7.087 48.346 24.35l49.374-40.721c-25.34-30.72-58.462-47.629-97.719-47.629-36.847 0-68.932 13.372-93.769 40.166l-0.154 0.166c-24.445 26.756-35.712 60.454-35.712 98.334 0 37.884 11.268 71.58 35.716 98.335l0.149 0.166z" />
<glyph unicode="&#xe911;" glyph-name="approve" d="M256 757.333c-29.455 0-53.333-23.878-53.333-53.333v-597.333c0-29.457 23.878-53.333 53.333-53.333h512c29.457 0 53.333 23.876 53.333 53.333v170.667c0 17.673 14.327 32 32 32s32-14.327 32-32v-170.667c0-64.802-52.531-117.333-117.333-117.333h-512c-64.801 0-117.333 52.531-117.333 117.333v597.333c0 64.801 52.532 117.333 117.333 117.333h42.667c17.673 0 32-14.327 32-32s-14.327-32-32-32h-42.667zM693.333 789.333c0 17.673 14.327 32 32 32h42.667c64.802 0 117.333-52.532 117.333-117.333v-106.667c0-17.673-14.327-32-32-32s-32 14.327-32 32v106.667c0 29.455-23.876 53.333-53.333 53.333h-42.667c-17.673 0-32 14.327-32 32zM352 832c0 41.237 33.429 74.667 74.667 74.667h170.667c41.237 0 74.667-33.429 74.667-74.667v-42.667c0-41.237-33.429-74.667-74.667-74.667h-170.667c-41.237 0-74.667 33.429-74.667 74.667v42.667zM426.667 842.667c-5.891 0-10.667-4.776-10.667-10.667v-42.667c0-5.891 4.776-10.667 10.667-10.667h170.667c5.892 0 10.667 4.776 10.667 10.667v42.667c0 5.891-4.774 10.667-10.667 10.667h-170.667zM768 576c0 11.782-9.553 21.333-21.333 21.333h-448c-11.782 0-21.333-9.551-21.333-21.333s9.551-21.333 21.333-21.333h448c11.78 0 21.333 9.551 21.333 21.333zM576 448c0 11.78-9.553 21.333-21.333 21.333h-256c-11.782 0-21.333-9.553-21.333-21.333s9.551-21.333 21.333-21.333h256c11.78 0 21.333 9.553 21.333 21.333zM298.667 298.667h320c11.78 0 21.333 9.553 21.333 21.333s-9.553 21.333-21.333 21.333h-320c-11.782 0-21.333-9.553-21.333-21.333s9.551-21.333 21.333-21.333zM768 192c0-11.785-9.553-21.333-21.333-21.333h-448c-11.782 0-21.333 9.553-21.333 21.333s9.551 21.333 21.333 21.333h448c11.78 0 21.333-9.553 21.333-21.333zM1002.957 599.589c13.026-11.942 13.909-32.184 1.967-45.212l-234.667-256c-6.063-6.613-14.622-10.377-23.59-10.377s-17.527 3.763-23.59 10.377l-106.667 116.365c-11.942 13.026-11.059 33.267 1.967 45.21s33.271 11.063 45.214-1.963l83.076-90.633 211.076 230.267c11.942 13.028 32.188 13.908 45.214 1.966z" />
<glyph unicode="&#xe912;" glyph-name="archive" d="M53.333 746.667c0 64.801 52.532 117.333 117.333 117.333h682.667c64.802 0 117.333-52.532 117.333-117.333v-42.667c0-41.237-33.429-74.667-74.667-74.667h-768c-41.237 0-74.667 33.429-74.667 74.667v42.667zM170.667 800c-29.455 0-53.333-23.878-53.333-53.333v-42.667c0-5.891 4.776-10.667 10.667-10.667h768c5.892 0 10.667 4.776 10.667 10.667v42.667c0 29.455-23.876 53.333-53.333 53.333h-682.667zM160 661.333v-512c0-29.457 23.878-53.333 53.333-53.333h597.333c29.457 0 53.333 23.876 53.333 53.333v512h64v-512c0-64.802-52.531-117.333-117.333-117.333h-597.333c-64.801 0-117.333 52.531-117.333 117.333v512h64zM512 245.333c-17.673 0-32 14.327-32 32v213.333c0 17.673 14.327 32 32 32s32-14.327 32-32v-213.333c0-17.673-14.327-32-32-32zM512 202.667c8.486 0 16.627 3.371 22.626 9.374l128 128c12.497 12.497 12.497 32.755 0 45.252s-32.755 12.497-45.252 0l-105.374-105.37-105.373 105.37c-12.497 12.497-32.758 12.497-45.255 0s-12.497-32.755 0-45.252l128.001-128c5.999-6.003 14.14-9.374 22.626-9.374z" />
<glyph unicode="&#xe913;" glyph-name="arrow-down" d="M512 117.333c-17.673 0-32 14.327-32 32v597.333c0 17.673 14.327 32 32 32s32-14.327 32-32v-597.333c0-17.673-14.327-32-32-32zM534.626 126.707c-12.497-12.497-32.755-12.497-45.252 0l-298.668 298.667c-12.497 12.497-12.497 32.755 0 45.252s32.758 12.497 45.255 0l276.039-276.036 276.041 276.036c12.497 12.497 32.755 12.497 45.252 0s12.497-32.755 0-45.252l-298.667-298.667z" />
<glyph unicode="&#xe914;" glyph-name="arrow-left" d="M181.333 448c0 17.673 14.327 32 32 32h597.333c17.673 0 32-14.327 32-32s-14.327-32-32-32h-597.333c-17.673 0-32 14.327-32 32zM190.706 425.374c-12.497 12.497-12.497 32.755 0 45.252l298.668 298.668c12.497 12.497 32.755 12.497 45.252 0s12.497-32.758 0-45.255l-276.038-276.039 276.038-276.041c12.497-12.497 12.497-32.755 0-45.252s-32.755-12.497-45.252 0l-298.668 298.667z" />
<glyph unicode="&#xe915;" glyph-name="arrow-right" d="M842.667 448c0 17.673-14.327 32-32 32h-597.333c-17.673 0-32-14.327-32-32s14.327-32 32-32h597.333c17.673 0 32 14.327 32 32zM833.293 425.374c12.497 12.497 12.497 32.755 0 45.252l-298.667 298.668c-12.497 12.497-32.755 12.497-45.252 0s-12.497-32.758 0-45.255l276.036-276.039-276.036-276.041c-12.497-12.497-12.497-32.755 0-45.252s32.755-12.497 45.252 0l298.667 298.667z" />
<glyph unicode="&#xe916;" glyph-name="arrow-up" d="M512 778.667c17.673 0 32-14.327 32-32v-597.333c0-17.673-14.327-32-32-32s-32 14.327-32 32v597.333c0 17.673 14.327 32 32 32zM489.374 769.294c12.497 12.497 32.755 12.497 45.252 0l298.667-298.668c12.497-12.497 12.497-32.755 0-45.252s-32.755-12.497-45.252 0l-276.041 276.038-276.039-276.038c-12.497-12.497-32.758-12.497-45.255 0s-12.497 32.755 0 45.252l298.668 298.668z" />
<glyph unicode="&#xe917;" glyph-name="attach" d="M632.119 729.965c66.411 66.412 174.089 66.412 240.499 0s66.411-174.087 0-240.497l-351.27-351.27c-94.477-94.477-247.658-94.477-342.137 0-94.479 94.481-94.479 247.659 0 342.14l383.907 383.908c12.497 12.497 32.759 12.497 45.257 0s12.497-32.758 0-45.255l-383.909-383.91c-69.485-69.483-69.485-182.144 0-251.627 69.485-69.487 182.143-69.487 251.63 0l351.266 351.267c41.421 41.418 41.421 108.571 0 149.989-41.417 41.418-108.57 41.418-149.986 0l-322-321.997c-15.584-15.586-15.584-40.853 0-56.435 15.584-15.586 40.851-15.586 56.435 0l282.18 282.18c12.497 12.497 32.759 12.497 45.257 0s12.497-32.758 0-45.255l-282.18-282.182c-40.579-40.576-106.368-40.576-146.946 0-40.577 40.58-40.578 106.368 0 146.944l321.999 321.999z" />
<glyph unicode="&#xe918;" glyph-name="attention" d="M420.215 805.333c45.163 78.222 158.067 78.222 203.226 0l351.031-608c45.163-78.221-11.29-176-101.615-176h-702.057c-90.324 0-146.775 97.779-101.614 176l351.029 608zM568.017 773.333c-20.527 35.555-71.846 35.555-92.378 0l-351.028-608c-20.528-35.554 5.132-80 46.188-80h702.057c41.058 0 66.718 44.446 46.187 80l-351.027 608zM521.83 565.333c17.673 0 32-14.327 32-32v-170.667c0-17.673-14.327-32-32-32s-32 14.327-32 32v170.667c0 17.673 14.327 32 32 32zM521.83 266.667c17.673 0 32-14.327 32-32v-42.667c0-17.673-14.327-32-32-32s-32 14.327-32 32v42.667c0 17.673 14.327 32 32 32z" />
<glyph unicode="&#xe919;" glyph-name="auto_write" d="M645.022 581.024c-7.526 7.528-19.733 7.528-27.26 0l-223.363-223.363-9.086-36.343 36.346 9.084 223.363 223.363c7.526 7.528 7.526 19.732 0 27.26zM572.506 626.279c32.521 32.521 85.248 32.521 117.769 0 32.525-32.521 32.525-85.248 0-117.769l-229.628-229.628c-4.1-4.1-9.237-7.010-14.865-8.418l-96.687-24.171c-10.905-2.726-22.441 0.469-30.388 8.418-7.948 7.945-11.143 19.482-8.417 30.387l24.172 96.687c1.407 5.623 4.316 10.765 8.417 14.865l229.628 229.629zM802.261 509.743c-12.497-12.497-12.497-32.759 0-45.257l78.221-78.221c12.497-12.497 32.759-12.497 45.257 0l78.221 78.221c12.497 12.497 12.497 32.759 0 45.257s-32.755 12.497-45.252 0l-55.595-55.595-55.595 55.595c-12.497 12.497-32.759 12.497-45.257 0zM350.086 838.907c86.052 35.644 181.459 41.897 271.426 17.79s169.468-77.226 226.167-151.12c56.7-73.894 87.437-164.432 87.437-257.573 0-17.673-14.327-32-32-32-17.677 0-32 14.327-32 32 0 79.053-26.086 155.895-74.21 218.612s-115.601 107.801-191.957 128.262c-76.361 20.46-157.338 15.153-230.371-15.099-73.035-30.252-134.047-83.758-173.574-152.22-8.836-15.305-28.407-20.549-43.713-11.713s-20.549 28.407-11.713 43.713c46.571 80.663 118.456 143.705 204.508 179.348zM221.739 386.266c12.497 12.497 12.497 32.759 0 45.252l-78.223 78.225c-12.497 12.497-32.758 12.497-45.255 0l-78.222-78.225c-12.497-12.493-12.497-32.755 0-45.252s32.758-12.497 45.255 0l55.595 55.595 55.595-55.595c12.497-12.497 32.758-12.497 45.255 0zM673.916 57.101c-86.054-35.644-181.461-41.899-271.429-17.792s-169.466 77.227-226.167 151.121c-56.701 73.894-87.435 164.433-87.435 257.574 0 17.673 14.327 32 32 32s32-14.327 32-32c0-79.053 26.085-155.895 74.209-218.615 48.124-62.716 115.598-107.802 191.957-128.26s157.337-15.151 230.369 15.1c73.037 30.251 134.050 83.759 173.577 152.222 8.836 15.305 28.407 20.548 43.712 11.712s20.548-28.407 11.712-43.712c-46.571-80.666-118.455-143.706-204.506-179.349z" />
<glyph unicode="&#xe91a;" glyph-name="bold" d="M635.499 453.457c69.696-16.247 118.626-35.93 146.795-59.042 40.444-32.858 60.663-75.469 60.663-127.834 0-55.249-22.208-100.928-66.624-137.041-54.528-43.695-133.79-65.54-237.79-65.54h-373.21v20.041c33.944 0 56.875 3.072 68.791 9.207 12.278 6.502 20.764 14.81 25.458 24.917 5.056 10.112 7.584 35.029 7.584 74.752v476.666c0 39.722-2.528 64.639-7.584 74.75-4.694 10.473-13.18 18.778-25.458 24.917s-35.208 9.208-68.791 9.208v20.041h352.085c84.139 0 143.718-7.583 178.748-22.75 35.029-14.805 62.652-37.194 82.876-67.167 20.22-29.611 30.332-61.208 30.332-94.792 0-35.389-12.817-66.986-38.455-94.79-25.643-27.447-70.78-49.293-135.42-65.545zM438.332 468.083c51.281 0 89.015 5.777 113.212 17.335 24.555 11.554 43.332 27.802 56.333 48.748s19.499 47.667 19.499 80.167-6.498 59.042-19.499 79.625c-12.642 20.944-30.878 36.833-54.711 47.667s-62.11 16.069-114.833 15.708v-289.25zM438.332 425.835v-235.627l-0.542-27.085c0-19.499 4.877-34.304 14.626-44.416 10.112-9.749 24.917-14.622 44.416-14.622 28.89 0 55.433 6.319 79.625 18.957 24.559 13.001 43.337 31.595 56.337 55.791 12.996 24.555 19.499 51.819 19.499 81.792 0 34.304-7.945 64.998-23.834 92.083-15.889 27.443-37.734 46.583-65.54 57.417s-69.333 16.068-124.587 15.71z" />
<glyph unicode="&#xe91b;" glyph-name="wysiwyg-icons-code" d="M278.627 641.295c-12.497 12.497-32.758 12.497-45.255 0l-170.667-170.669c-12.497-12.493-12.497-32.755 0-45.252l170.667-170.667c12.497-12.497 32.758-12.497 45.255 0s12.497 32.759 0 45.252l-148.039 148.041 148.039 148.040c12.497 12.497 12.497 32.758 0 45.255zM745.374 641.295c12.497 12.497 32.755 12.497 45.252 0l170.667-170.669c12.497-12.493 12.497-32.755 0-45.252l-170.667-170.667c-12.497-12.497-32.755-12.497-45.252 0s-12.497 32.759 0 45.252l148.036 148.041-148.036 148.040c-12.497 12.497-12.497 32.758 0 45.255zM306.858 114.018c-15.305 8.836-20.55 28.407-11.713 43.712l341.335 591.207c8.836 15.305 28.407 20.55 43.712 11.713s20.548-28.407 11.712-43.713l-341.333-591.207c-8.837-15.305-28.407-20.548-43.713-11.712z" />
<glyph unicode="&#xe91c;" glyph-name="wysiwyg-icons-ol" d="M266.667 448c0 17.673 14.327 32 32 32h597.333c17.673 0 32-14.327 32-32s-14.327-32-32-32h-597.333c-17.673 0-32 14.327-32 32zM266.667 704c0 17.673 14.327 32 32 32h597.333c17.673 0 32-14.327 32-32s-14.327-32-32-32h-597.333c-17.673 0-32 14.327-32 32zM266.667 192c0 17.673 14.327 32 32 32h597.333c17.673 0 32-14.327 32-32s-14.327-32-32-32h-597.333c-17.673 0-32 14.327-32 32zM128 789.338l-42.667-21.333v-35.2l33.067 17.493v-72.96l-33.067-0.005v-33.067h106.667v33.067l-35.2 0.005v112h-28.8zM90.027 517.333v-36.267c15.787 12.373 33.707 18.133 48.213 18.133 11.093 0 18.987-4.267 18.987-13.013 0-11.093-11.093-15.147-24.533-23.040-20.693-12.16-47.36-25.813-47.36-60.8v-17.28h112.427v33.067h-67.2c0 3.84 12.16 10.667 27.733 20.053 18.347 11.093 38.4 25.6 38.4 50.133 0 32.213-25.813 45.014-54.827 45.014-18.56 0-36.48-5.12-51.84-16zM190.293 237.013c0 27.947-23.893 40.32-54.4 40.32-17.493 0-34.987-4.48-48-11.947v-36.267c14.293 9.6 30.72 14.080 42.667 14.080 14.72 0 22.4-4.267 22.4-12.373 0-8.32-8.107-11.093-18.56-10.88l-20.053 0.213-0.213-33.067h24.747c11.947 0 19.84-3.413 19.84-11.947 0-10.667-12.373-14.933-26.453-15.147-15.147-0.213-29.44 1.92-46.933 11.947v-36.267c17.707-7.040 32.64-9.813 50.133-9.813 30.507 0 60.8 11.093 60.8 42.88 0 20.907-12.373 32.64-28.373 37.547 14.293 4.907 22.4 15.573 22.4 30.72z" />
<glyph unicode="&#xe91d;" glyph-name="burger" d="M96 448c0 17.673 14.327 32 32 32h768c17.673 0 32-14.327 32-32s-14.327-32-32-32h-768c-17.673 0-32 14.327-32 32zM96 704c0 17.673 14.327 32 32 32h768c17.673 0 32-14.327 32-32s-14.327-32-32-32h-768c-17.673 0-32 14.327-32 32zM96 192c0 17.673 14.327 32 32 32h768c17.673 0 32-14.327 32-32s-14.327-32-32-32h-768c-17.673 0-32 14.327-32 32z" />
<glyph unicode="&#xe91e;" glyph-name="calculator" d="M192 789.333v-682.667c0-35.345 28.654-64 64-64h469.333c35.345 0 64 28.655 64 64v682.667c0 35.346-28.655 64-64 64h-469.333c-35.346 0-64-28.654-64-64zM256 106.667v682.667h469.333v-682.667h-469.333zM768 586.667h-512v64h512v-64zM341.333 490.667h42.667v-42.667h-42.667v42.667zM320 490.667c0 11.78 9.551 21.333 21.333 21.333h42.667c11.782 0 21.333-9.553 21.333-21.333v-42.667c0-11.78-9.551-21.333-21.333-21.333h-42.667c-11.782 0-21.333 9.553-21.333 21.333v42.667zM341.333 362.667h42.667v-42.667h-42.667v42.667zM320 362.667c0 11.78 9.551 21.333 21.333 21.333h42.667c11.782 0 21.333-9.553 21.333-21.333v-42.667c0-11.78-9.551-21.333-21.333-21.333h-42.667c-11.782 0-21.333 9.553-21.333 21.333v42.667zM341.333 234.667h42.667v-42.667h-42.667v42.667zM320 234.667c0 11.78 9.551 21.333 21.333 21.333h42.667c11.782 0 21.333-9.553 21.333-21.333v-42.667c0-11.78-9.551-21.333-21.333-21.333h-42.667c-11.782 0-21.333 9.553-21.333 21.333v42.667zM469.333 490.667h42.667v-42.667h-42.667v42.667zM448 490.667c0 11.78 9.553 21.333 21.333 21.333h42.667c11.78 0 21.333-9.553 21.333-21.333v-42.667c0-11.78-9.553-21.333-21.333-21.333h-42.667c-11.78 0-21.333 9.553-21.333 21.333v42.667zM597.333 490.667h42.667v-42.667h-42.667v42.667zM576 490.667c0 11.78 9.553 21.333 21.333 21.333h42.667c11.78 0 21.333-9.553 21.333-21.333v-42.667c0-11.78-9.553-21.333-21.333-21.333h-42.667c-11.78 0-21.333 9.553-21.333 21.333v42.667zM597.333 362.667h42.667v-170.667h-42.667v170.667zM576 362.667c0 11.78 9.553 21.333 21.333 21.333h42.667c11.78 0 21.333-9.553 21.333-21.333v-170.667c0-11.78-9.553-21.333-21.333-21.333h-42.667c-11.78 0-21.333 9.553-21.333 21.333v170.667zM469.333 362.667h42.667v-42.667h-42.667v42.667zM448 362.667c0 11.78 9.553 21.333 21.333 21.333h42.667c11.78 0 21.333-9.553 21.333-21.333v-42.667c0-11.78-9.553-21.333-21.333-21.333h-42.667c-11.78 0-21.333 9.553-21.333 21.333v42.667zM469.333 234.667h42.667v-42.667h-42.667v42.667zM448 234.667c0 11.78 9.553 21.333 21.333 21.333h42.667c11.78 0 21.333-9.553 21.333-21.333v-42.667c0-11.78-9.553-21.333-21.333-21.333h-42.667c-11.78 0-21.333 9.553-21.333 21.333v42.667zM640 270.933h-42.667v12.8h42.667v-12.8zM612.267 256v42.667h12.8v-42.667h-12.8z" />
<glyph unicode="&#xe91f;" glyph-name="calendar" d="M96 704c0 64.801 52.532 117.333 117.333 117.333h597.333c64.802 0 117.333-52.532 117.333-117.333v-597.333c0-64.802-52.531-117.333-117.333-117.333h-597.333c-64.801 0-117.333 52.531-117.333 117.333v597.333zM213.333 757.333c-29.455 0-53.333-23.878-53.333-53.333v-597.333c0-29.457 23.878-53.333 53.333-53.333h597.333c29.457 0 53.333 23.876 53.333 53.333v597.333c0 29.455-23.876 53.333-53.333 53.333h-597.333zM682.667 906.667c17.673 0 32-14.327 32-32v-170.667c0-17.673-14.327-32-32-32s-32 14.327-32 32v170.667c0 17.673 14.327 32 32 32zM341.333 906.667c17.673 0 32-14.327 32-32v-170.667c0-17.673-14.327-32-32-32s-32 14.327-32 32v170.667c0 17.673 14.327 32 32 32zM96 533.333c0 17.673 14.327 32 32 32h768c17.673 0 32-14.327 32-32s-14.327-32-32-32h-768c-17.673 0-32 14.327-32 32z" />
<glyph unicode="&#xe920;" glyph-name="cancel" d="M512 842.667c-217.968 0-394.667-176.698-394.667-394.667 0-217.967 176.698-394.667 394.667-394.667 217.967 0 394.667 176.7 394.667 394.667 0 217.968-176.7 394.667-394.667 394.667zM53.333 448c0 253.315 205.352 458.667 458.667 458.667s458.667-205.352 458.667-458.667c0-253.316-205.35-458.667-458.667-458.667-253.315 0-458.667 205.35-458.667 458.667zM836.326 727.072l-603.398-603.398-45.255 45.257 603.396 603.396 45.257-45.255z" />
<glyph unicode="&#xe921;" glyph-name="check" d="M875.959 683.961c12.497-12.497 12.497-32.758 0-45.255l-469.332-469.332c-12.497-12.497-32.758-12.497-45.255 0l-213.333 213.333c-12.497 12.497-12.497 32.755 0 45.252s32.758 12.497 45.255 0l190.706-190.703 446.707 446.704c12.497 12.497 32.755 12.497 45.252 0z" />
<glyph unicode="&#xe922;" glyph-name="check-task" d="M644.045 769.85c-151.433 67.476-329.214 27.309-436.93-98.719s-119.708-307.893-29.473-446.974c90.234-139.081 261.202-202.24 420.186-155.234 158.98 47.006 268.113 192.986 268.207 358.771v37.367c0 17.673 14.327 32 32 32s32-14.327 32-32v-37.385c-0.111-194.133-127.898-365.086-314.061-420.13-186.167-55.040-386.361 18.918-492.023 181.777s-91.619 375.816 34.512 523.389c126.131 147.573 334.306 194.607 511.629 115.596 16.145-7.193 23.398-26.11 16.205-42.254s-26.108-23.398-42.253-16.206zM920.649 775.395c12.506-12.49 12.514-32.752 0.026-45.255l-406.349-406.757c-6.003-6.003-14.144-9.382-22.63-9.382-8.491-0.004-16.636 3.371-22.639 9.374l-121.903 121.903c-12.497 12.497-12.497 32.759 0 45.257s32.758 12.497 45.255 0l99.266-99.268 383.723 384.106c12.489 12.503 32.751 12.513 45.252 0.023z" />
<glyph unicode="&#xe923;" glyph-name="chevron-down" d="M790.626 598.627c12.497-12.497 12.497-32.758 0-45.255l-256-255.999c-12.497-12.497-32.755-12.497-45.252 0l-256.001 255.999c-12.497 12.497-12.497 32.758 0 45.255s32.758 12.497 45.255 0l233.373-233.371 233.374 233.371c12.497 12.497 32.755 12.497 45.252 0z" />
<glyph unicode="&#xe924;" glyph-name="chevron-left" d="M662.626 169.374c-12.497-12.497-32.755-12.497-45.252 0l-256.001 256c-12.497 12.497-12.497 32.755 0 45.252l256.001 256.001c12.497 12.497 32.755 12.497 45.252 0s12.497-32.758 0-45.255l-233.37-233.373 233.37-233.374c12.497-12.497 12.497-32.755 0-45.252z" />
<glyph unicode="&#xe925;" glyph-name="chevron-right" d="M361.373 726.627c12.497 12.497 32.758 12.497 45.255 0l255.999-256.001c12.497-12.497 12.497-32.755 0-45.252l-255.999-256c-12.497-12.497-32.758-12.497-45.255 0s-12.497 32.755 0 45.252l233.371 233.374-233.371 233.373c-12.497 12.497-12.497 32.758 0 45.255z" />
<glyph unicode="&#xe926;" glyph-name="chevron-up" d="M790.626 297.374c12.497 12.497 12.497 32.755 0 45.252l-256 256.001c-12.497 12.497-32.755 12.497-45.252 0l-256.001-256.001c-12.497-12.497-12.497-32.755 0-45.252s32.758-12.497 45.255 0l233.373 233.37 233.374-233.37c12.497-12.497 32.755-12.497 45.252 0z" />
<glyph unicode="&#xe927;" glyph-name="clear" d="M109.076 649.139c14.855 10.743 34.128 13.706 51.461 7.96 2.103-0.69 211.732-67.607 305.955 26.616 22.319 22.309 58.641 22.309 80.964-0.006l11.153-11.149 19.849 19.853c32.858 32.858 84.736 35.372 120.482 7.543l152.448 152.448c29.683 29.684 77.995 29.684 107.682-0.005 29.683-29.684 29.683-77.993 0-107.677l-152.448-152.448c27.827-35.747 25.314-87.622-7.543-120.48l-19.857-19.861 11.166-11.162c10.807-10.807 16.751-25.178 16.751-40.465 0-15.322-5.965-29.713-16.768-40.482-26.321-26.321-56.205-79.535-49.118-183.578 4.553-66.863 22.323-121.796 22.494-122.291 5.769-17.412 2.812-36.681-7.923-51.55-10.739-14.861-28.096-23.74-46.43-23.74-166.69-0.004-323.413 64.909-441.274 182.78-117.872 117.871-182.786 274.594-182.786 441.292 0 18.324 8.882 35.672 23.743 46.4zM758.592 512.277c13.248 13.248 13.261 34.788 0.030 48.020-17.911 17.908-17.911 47.038 0 64.945l159.962 159.965c7.364 7.364 7.364 19.341 0 26.705s-19.345 7.37-26.709 0.006l-159.966-159.965c-17.907-17.908-47.036-17.908-64.939-0.006-13.231 13.232-34.773 13.221-48.017-0.026l-19.853-19.852 139.635-139.649 19.857 19.857zM158.039 470.362l138.984 21.794c15.619 2.453 30.269-8.222 32.72-23.842s-8.224-30.268-23.843-32.721l-131.62-20.642c24.671-70.468 63.337-135.706 114.582-192.273l113.607 113.604c11.181 11.183 29.304 11.183 40.487 0 11.174-11.174 11.179-29.303 0-40.482l-113.614-113.613c56.569-51.247 121.815-89.911 192.296-114.586l20.642 131.61c2.453 15.62 17.097 26.3 32.717 23.851 15.62-2.453 26.295-17.101 23.842-32.721l-21.798-138.974c42.846-10.206 87.198-15.45 132.352-15.45-0.201 0.602-19.913 60.57-25.178 135.13-7.053 99.968 15.654 179.247 65.664 229.261l-242.918 242.917c-49.988-49.99-129.257-72.695-229.227-65.652-73.849 5.203-134.467 24.934-135.152 25.167 0.006-45.172 5.256-89.527 15.456-132.377z" />
<glyph unicode="&#xe928;" glyph-name="clear_eraser" d="M294.124 732.457c13.058 52.233 59.99 88.876 113.83 88.876h336.081c76.335 0 132.343-71.736 113.83-145.791l-128-512.001c-13.060-52.233-59.989-88.875-113.83-88.875h-336.081c-76.334 0-132.343 71.735-113.83 145.792l128 511.999zM407.953 757.333c-24.473 0-45.805-16.656-51.741-40.398l-128-511.999c-8.416-33.664 17.044-66.27 51.741-66.27h336.081c24.474 0 45.807 16.657 51.742 40.397l128 512.001c8.414 33.661-17.045 66.269-51.742 66.269h-336.081zM744.034 789.333h-336.081c-39.156 0-73.289-26.649-82.785-64.637l-69.174-276.696h512.002l58.825 235.304c13.466 53.858-27.273 106.030-82.786 106.030z" />
<glyph unicode="&#xe929;" glyph-name="click" d="M266.665 810.667c0 53.019 42.98 96 96 96s96.001-42.981 96.001-96v-320c0-17.673-14.327-32-32.001-32s-32 14.327-32 32v320c0 17.673-14.327 32-32 32s-32-14.327-32-32v-533.333c0-17.673-14.327-32-32-32s-32 14.327-32 32v533.333zM394.665 597.333c0 53.019 42.979 96 96.001 96 53.018 0 96-42.981 96-96v-106.667c0-17.673-14.327-32-32-32s-32 14.327-32 32v106.667c0 17.673-14.327 32-32 32s-32-14.327-32-32v-106.667c0-17.673-14.327-32-32.001-32s-32 14.327-32 32v106.667zM522.667 597.333c0 53.019 42.978 96 96 96 53.018 0 96-42.981 96-96v-106.667c0-17.673-14.327-32-32-32s-32 14.327-32 32v106.667c0 17.673-14.327 32-32 32s-32-14.327-32-32v-106.667c0-17.673-14.327-32-32-32s-32 14.327-32 32v106.667zM650.667 554.667c0 53.019 42.978 96 96 96 53.018 0 96-42.981 96-96v-287.177c0-39.309-6.34-78.362-18.769-115.657l-46.874-140.621c-5.589-16.764-23.71-25.826-40.478-20.237s-25.826 23.71-20.237 40.478l46.874 140.621c10.253 30.767 15.484 62.985 15.484 95.415v287.177c0 17.673-14.327 32-32 32s-32-14.327-32-32v-64c0-17.673-14.327-32-32-32s-32 14.327-32 32v64zM316.416 474.624c14.705-9.801 18.679-29.67 8.875-44.373l-85.084-127.629c-19.791-29.683-21.486-67.895-4.401-99.221l90.953-166.746c8.463-15.514 2.746-34.953-12.77-43.413-15.515-8.465-34.953-2.748-43.416 12.77l-90.952 166.746c-28.474 52.203-25.649 115.891 7.335 165.367l85.084 127.625c9.803 14.707 29.671 18.679 44.376 8.875z" />
<glyph unicode="&#xe92a;" glyph-name="client-project" d="M213.333 800c-29.455 0-53.333-23.878-53.333-53.333s23.878-53.333 53.333-53.333c29.455 0 53.333 23.878 53.333 53.333s-23.878 53.333-53.333 53.333zM96 746.667c0 64.801 52.532 117.333 117.333 117.333s117.333-52.532 117.333-117.333c0-64.801-52.532-117.333-117.333-117.333s-117.333 52.532-117.333 117.333zM213.333 501.333c-29.455 0-53.333-23.876-53.333-53.333s23.878-53.333 53.333-53.333c29.455 0 53.333 23.876 53.333 53.333s-23.878 53.333-53.333 53.333zM96 448c0 64.802 52.532 117.333 117.333 117.333s117.333-52.531 117.333-117.333c0-64.802-52.532-117.333-117.333-117.333s-117.333 52.531-117.333 117.333zM213.333 202.667c-29.455 0-53.333-23.876-53.333-53.333s23.878-53.333 53.333-53.333c29.455 0 53.333 23.876 53.333 53.333s-23.878 53.333-53.333 53.333zM96 149.333c0 64.802 52.532 117.333 117.333 117.333s117.333-52.531 117.333-117.333c0-64.802-52.532-117.333-117.333-117.333s-117.333 52.531-117.333 117.333zM266.667 448c0 17.673 14.327 32 32 32h170.667c17.673 0 32-14.327 32-32s-14.327-32-32-32h-170.667c-17.673 0-32 14.327-32 32zM266.667 149.333c0 17.673 14.327 32 32 32h597.333c17.673 0 32-14.327 32-32s-14.327-32-32-32h-597.333c-17.673 0-32 14.327-32 32zM266.667 746.667c0 17.673 14.327 32 32 32h597.333c17.673 0 32-14.327 32-32s-14.327-32-32-32h-597.333c-17.673 0-32 14.327-32 32zM893.525 414.123c-19.571 14.912-45.201 23.211-72.192 23.211h-149.333c-26.991 0-52.621-8.299-72.192-23.211-19.593-14.929-34.475-37.854-34.475-65.677v-28.446c0-17.673 14.327-32 32-32s32 14.327 32 32v28.446c0 3.593 1.835 9.109 9.263 14.771 7.454 5.679 19.157 10.116 33.404 10.116h149.333c14.246 0 25.95-4.437 33.404-10.116 7.428-5.662 9.263-11.179 9.263-14.771v-28.446c0-17.673 14.327-32 32-32s32 14.327 32 32v28.446c0 27.823-14.882 50.748-34.475 65.677zM842.667 554.667c0 53.019-42.982 96-96 96s-96-42.981-96-96c0-53.018 42.982-96 96-96s96 42.982 96 96zM746.667 586.667c17.673 0 32-14.327 32-32s-14.327-32-32-32c-17.673 0-32 14.327-32 32s14.327 32 32 32z" />
<glyph unicode="&#xe92b;" glyph-name="close" d="M233.373 726.627c12.497 12.497 32.758 12.497 45.255 0l233.373-233.371 233.374 233.371c12.497 12.497 32.755 12.497 45.252 0s12.497-32.758 0-45.255l-233.37-233.373 233.37-233.374c12.497-12.497 12.497-32.755 0-45.252s-32.755-12.497-45.252 0l-233.374 233.37-233.373-233.37c-12.497-12.497-32.758-12.497-45.255 0s-12.497 32.755 0 45.252l233.371 233.374-233.371 233.373c-12.497 12.497-12.497 32.758 0 45.255z" />
<glyph unicode="&#xe92c;" glyph-name="close_lock" d="M96 490.667c0 64.801 52.532 117.333 117.333 117.333h597.333c64.802 0 117.333-52.532 117.333-117.333v-341.333c0-64.802-52.531-117.333-117.333-117.333h-597.333c-64.801 0-117.333 52.531-117.333 117.333v341.333zM213.333 544c-29.455 0-53.333-23.876-53.333-53.333v-341.333c0-29.457 23.878-53.333 53.333-53.333h597.333c29.457 0 53.333 23.876 53.333 53.333v341.333c0 29.457-23.876 53.333-53.333 53.333h-597.333zM266.667 661.333c0 111.93 90.737 202.667 202.667 202.667h85.333c111.932 0 202.667-90.737 202.667-202.667v-85.333c0-17.673-14.327-32-32-32s-32 14.327-32 32v85.333c0 76.584-62.084 138.667-138.667 138.667h-85.333c-76.584 0-138.667-62.083-138.667-138.667v-85.333c0-17.673-14.327-32-32-32s-32 14.327-32 32v85.333zM512 416c-29.457 0-53.333-23.876-53.333-53.333s23.876-53.333 53.333-53.333c29.457 0 53.333 23.876 53.333 53.333s-23.876 53.333-53.333 53.333zM394.667 362.667c0 64.802 52.531 117.333 117.333 117.333s117.333-52.531 117.333-117.333c0-64.802-52.531-117.333-117.333-117.333s-117.333 52.531-117.333 117.333zM512 309.333c17.673 0 32-14.327 32-32v-85.333c0-17.673-14.327-32-32-32s-32 14.327-32 32v85.333c0 17.673 14.327 32 32 32z" />
<glyph unicode="&#xe92d;" glyph-name="code" d="M278.627 641.289c-12.497 12.497-32.758 12.497-45.255 0l-170.667-170.668c-12.497-12.497-12.497-32.755 0-45.252l170.667-170.667c12.497-12.497 32.758-12.497 45.255 0s12.497 32.755 0 45.252l-148.039 148.041 148.039 148.039c12.497 12.497 12.497 32.758 0 45.255zM745.374 641.289c12.497 12.497 32.755 12.497 45.252 0l170.667-170.668c12.497-12.497 12.497-32.755 0-45.252l-170.667-170.667c-12.497-12.497-32.755-12.497-45.252 0s-12.497 32.755 0 45.252l148.036 148.041-148.036 148.039c-12.497 12.497-12.497 32.758 0 45.255zM306.858 114.014c-15.305 8.836-20.55 28.407-11.713 43.712l341.335 591.206c8.836 15.305 28.407 20.549 43.712 11.713s20.548-28.407 11.712-43.713l-341.333-591.206c-8.837-15.305-28.407-20.548-43.713-11.712z" />
<glyph unicode="&#xe92e;" glyph-name="comment" d="M896 469.333c0.145-56.316-13.009-111.868-38.4-162.133-61.397-122.854-186.927-200.482-324.267-200.533-56.316-0.149-111.867 13.009-162.133 38.4l-243.2-81.067 81.067 243.2c-25.39 50.266-38.547 105.818-38.4 162.133 0.053 137.339 77.682 262.866 200.533 324.265 50.266 25.39 105.818 38.547 162.133 38.4h21.333c184.141-10.159 331.174-157.192 341.333-341.332v-21.333z" />
<glyph unicode="&#xe92f;" glyph-name="commenthide" d="M555.767 842.665c-54.4 0.142-108.070-12.569-156.628-37.097l-0.122-0.061c-118.836-59.392-193.928-180.817-193.98-313.668v-0.073c-0.142-54.404 12.569-108.070 37.097-156.629 3.847-7.616 4.493-16.452 1.795-24.546l-65.332-195.994 195.995 65.331c8.094 2.697 16.931 2.052 24.547-1.796 48.558-24.529 102.228-37.239 156.628-37.094h0.073c132.851 0.051 254.276 75.14 313.668 193.98l0.060 0.119c24.529 48.559 37.239 102.225 37.099 156.629l31.991 0.085h-31.991v21.619c-10.219 177.392-151.804 318.975-329.199 329.193h-21.7zM970.667 491.904c0-0.013 0 0.009 0 0 0.162-64.457-14.895-128.034-43.947-185.57-70.234-140.463-213.773-229.222-370.82-229.295-59.947-0.154-119.142 12.864-173.416 38.059l12.347 4.113-10.119 30.362-14.427-28.565c4.037-2.039 8.104-4.011 12.199-5.909l-244.364-81.455c-11.499-3.831-24.176-0.841-32.747 7.731-8.57 8.567-11.564 21.248-7.73 32.747l81.455 244.361c1.901-4.092 3.871-8.162 5.91-12.198l28.563 14.43-30.358 10.116-4.116-12.348c-25.196 54.276-38.211 113.472-38.060 173.419 0.074 157.051 88.837 300.593 229.307 370.826-0.020-0.010-0.041-0.020-0.061-0.031l14.427-28.563-14.306 28.624c-0.020-0.010-0.041-0.020-0.061-0.030 57.529 29.046 121.103 44.101 185.551 43.939h22.477c0.585 0 1.173-0.016 1.762-0.049 210.654-11.622 378.863-179.827 390.485-390.482 0.030-0.589 0.047-1.178 0.047-1.766v-22.464zM384.001 490.667c-28.794 13.961-28.789 13.969-28.784 13.982l0.039 0.081 0.073 0.145 0.215 0.435 0.71 1.404c0.597 1.165 1.443 2.778 2.533 4.774 2.179 3.998 5.35 9.557 9.487 16.162 8.235 13.15 20.507 30.779 36.655 48.542 31.636 34.801 82.26 74.475 149.738 74.475s118.101-39.673 149.739-74.475c16.149-17.763 28.42-35.392 36.655-48.542 4.139-6.605 7.309-12.164 9.489-16.162 1.088-1.997 1.933-3.61 2.53-4.774l0.713-1.404 0.213-0.435 0.102-0.205c0.004-0.009 0.021-0.043-28.774-14.003 28.796-13.961 28.791-13.969 28.783-13.982l-0.038-0.081-0.073-0.145-0.213-0.435-0.713-1.404c-0.597-1.165-1.442-2.778-2.53-4.774-2.18-3.998-5.35-9.557-9.489-16.162-8.235-13.15-20.506-30.78-36.655-48.542-31.637-34.803-82.261-74.475-149.739-74.475s-118.101 39.671-149.738 74.475c-16.148 17.762-28.42 35.392-36.655 48.542-4.137 6.605-7.309 12.164-9.487 16.162-1.091 1.997-1.936 3.61-2.533 4.774l-0.71 1.404-0.215 0.435-0.073 0.145-0.027 0.060c-0.005 0.009-0.022 0.043 28.772 14.003zM725.333 490.667l28.796 13.961c4.275-8.815 4.262-19.127-0.013-27.942l-28.783 13.982zM666.065 458.667h-222.797c2.825-3.465 5.833-6.972 9.015-10.475 26.547-29.197 61.257-53.525 102.383-53.525 41.131 0 75.84 24.329 102.383 53.525 3.183 3.503 6.191 7.010 9.015 10.475zM666.065 522.667c-2.825 3.465-5.833 6.972-9.015 10.475-26.543 29.199-61.252 53.525-102.383 53.525-41.126 0-75.836-24.327-102.383-53.525-3.183-3.503-6.191-7.010-9.015-10.475h222.797zM384.001 490.667l-28.784 13.982c-4.275-8.815-4.285-19.127-0.010-27.942l28.794 13.961zM512 522.667c17.673 0 32-14.327 32-32 0-5.892 4.774-10.667 10.667-10.667s10.667 4.774 10.667 10.667c0 17.673 14.327 32 32 32s32-14.327 32-32c0-41.237-33.429-74.667-74.667-74.667s-74.667 33.429-74.667 74.667c0 17.673 14.327 32 32 32z" />
<glyph unicode="&#xe930;" glyph-name="comment-hide" d="M525.38 799.999h24.883c208.341-9.894 366.345-147.523 377.737-310.42v-20.348c0.158-50.176-13.871-99.994-41.387-145.463l-0.077-0.128c-24-40.073-57.293-75.209-97.306-103.791l-541.102 488.911c27.794 21.716 59.744 40.447 95.368 55.306l0.111 0.047c56.145 23.668 118.447 36.025 181.772 35.887zM782.315 139.849l110.221-99.593c13.111-11.849 33.348-10.825 45.197 2.291 11.849 13.111 10.82 33.348-2.291 45.197l-97.728 88.303c41.775 31.817 77.171 70.387 103.684 114.637 33.297 55.036 50.786 116.284 50.603 178.697v21.286c0 0.704-0.026 1.408-0.068 2.112-13.538 204.748-207.309 360.498-439.45 371.186-0.491 0.023-0.981 0.034-1.472 0.034h-25.527c-71.595 0.151-142.391-13.798-206.679-40.889-44.203-18.444-84.148-42.489-118.722-70.938l-114.627 103.57c-13.113 11.849-33.349 10.823-45.197-2.29s-10.823-33.348 2.29-45.197l111.157-100.435c-59.908-66.773-94.756-149.739-94.808-238.431-0.173-57.741 14.784-114.487 43.39-166.238l-68.938-229.961c-3.385-11.294-0.287-23.535 8.063-31.855 8.35-8.324 20.6-11.379 31.881-7.957l256.317 77.773c61.376-24.196 128.272-36.629 195.878-36.484-0.009 0-0.017 0-0.030 0l-0.009 32 0.068-32c-0.009 0-0.017 0-0.030 0 92.489 0.034 181.594 23.253 256.828 65.182zM731.716 185.566c-60.868-29.952-131.686-46.874-206.281-46.899h-0.055c-63.326-0.137-125.627 12.22-181.772 35.887-6.886 2.901-14.57 3.302-21.721 1.135l-210.108-63.753 55.782 186.074c2.597 8.666 1.407 18.022-3.276 25.758-27.518 45.47-41.545 95.287-41.388 145.463v0.085c0.033 70.788 27.936 139.331 78.266 195.623l530.553-479.374z" />
<glyph unicode="&#xe931;" glyph-name="commentregistration" d="M128 714.667c0 64.606 52.727 117.333 117.333 117.333h42.667c17.673 0 32-14.327 32-32s-14.327-32-32-32h-42.667c-29.26 0-53.333-24.073-53.333-53.333v-597.333c0-29.261 24.073-53.333 53.333-53.333h512c29.261 0 53.333 24.073 53.333 53.333v64c0 17.673 14.327 32 32 32s32-14.327 32-32v-64c0-64.606-52.727-117.333-117.333-117.333h-512c-64.606 0-117.333 52.727-117.333 117.333v597.333zM682.667 800c0 17.673 14.327 32 32 32h42.667c64.606 0 117.333-52.727 117.333-117.333v-21.333c0-17.673-14.327-32-32-32s-32 14.327-32 32v21.333c0 29.26-24.073 53.333-53.333 53.333h-42.667c-17.673 0-32 14.327-32 32zM407.694 850.973c-0.658-0.658-2.361-2.778-2.361-8.306v-42.667c0-5.528 1.703-7.648 2.361-8.306s2.778-2.361 8.306-2.361h170.667c5.53 0 7.65 1.703 8.307 2.361s2.359 2.778 2.359 8.306v42.667c0 5.528-1.702 7.648-2.359 8.306s-2.778 2.361-8.307 2.361h-170.667c-5.528 0-7.648-1.703-8.306-2.361zM362.439 896.227c14.275 14.275 33.489 21.106 53.561 21.106h170.667c20.070 0 39.283-6.831 53.559-21.106s21.107-33.489 21.107-53.561v-42.667c0-20.072-6.831-39.285-21.107-53.561s-33.489-21.106-53.559-21.106h-170.667c-20.072 0-39.285 6.831-53.561 21.106s-21.106 33.489-21.106 53.561v42.667c0 20.072 6.831 39.285 21.106 53.561zM266.667 586.667c0 11.782 9.551 21.333 21.333 21.333h170.667c11.78 0 21.333-9.551 21.333-21.333s-9.553-21.333-21.333-21.333h-170.667c-11.782 0-21.333 9.551-21.333 21.333zM266.667 458.667c0 11.78 9.551 21.333 21.333 21.333h128c11.78 0 21.333-9.553 21.333-21.333s-9.553-21.333-21.333-21.333h-128c-11.782 0-21.333 9.553-21.333 21.333zM266.667 330.667c0 11.78 9.551 21.333 21.333 21.333h128c11.78 0 21.333-9.553 21.333-21.333s-9.553-21.333-21.333-21.333h-128c-11.782 0-21.333 9.553-21.333 21.333zM266.667 202.667c0 11.78 9.551 21.333 21.333 21.333h128c11.78 0 21.333-9.553 21.333-21.333s-9.553-21.333-21.333-21.333h-128c-11.782 0-21.333 9.553-21.333 21.333zM727.467 597.333c-28.604 0-53.602-7.112-75.29-17.955-57.51-28.756-93.244-85.994-93.244-150.578 0-23.872 6.848-49.233 18.748-76.996 3.127-7.296 3.43-15.497 0.849-23.006l-25.634-74.569 74.569 25.634c8.124 2.79 17.028 2.202 24.713-1.643 21.355-10.675 50.607-17.954 75.29-17.954 64.585 0 121.822 35.733 150.579 93.244 10.675 21.355 17.954 50.607 17.954 75.29v12.105c-3.874 85.261-71.168 152.556-156.429 156.429h-12.105zM623.556 636.622c29.513 14.757 64.247 24.712 103.91 24.712h12.8c0.444 0 0.887-0.009 1.331-0.028 119.027-4.96 213.414-99.347 218.372-218.374 0.021-0.444 0.030-0.887 0.030-1.331v-12.8c0-35.051-9.788-74.065-24.713-103.91-39.509-79.023-118.805-128.623-207.821-128.623-30.289 0-63.535 7.309-91.264 18.923l-124.467-42.786c-11.563-3.972-24.384-1.011-33.028 7.637-8.649 8.644-11.61 21.466-7.637 33.028l43.017 125.133c-11.238 28.634-19.153 59.038-19.153 90.598 0 89.015 49.6 168.311 128.623 207.822z" />
<glyph unicode="&#xe932;" glyph-name="commentshow" d="M555.767 842.665c-54.4 0.142-108.070-12.569-156.628-37.097l-0.122-0.061c-118.836-59.392-193.928-180.817-193.98-313.668v-0.073c-0.142-54.404 12.569-108.070 37.097-156.629 3.847-7.616 4.493-16.452 1.795-24.546l-65.332-195.994 195.995 65.331c8.094 2.697 16.931 2.052 24.547-1.796 48.558-24.529 102.228-37.239 156.628-37.094h0.073c132.851 0.051 254.276 75.14 313.668 193.98l0.060 0.119c24.529 48.559 37.239 102.225 37.099 156.629l31.991 0.085h-31.991v21.619c-10.219 177.392-151.804 318.975-329.199 329.193h-21.7zM970.667 491.904c0-0.013 0 0.009 0 0 0.162-64.457-14.895-128.034-43.947-185.57-70.234-140.463-213.773-229.222-370.82-229.295-59.947-0.154-119.142 12.864-173.416 38.059l12.347 4.113-10.119 30.362-14.427-28.565c4.037-2.039 8.104-4.011 12.199-5.909l-244.364-81.455c-11.499-3.831-24.176-0.841-32.747 7.731-8.57 8.567-11.564 21.248-7.73 32.747l81.455 244.361c1.901-4.092 3.871-8.162 5.91-12.198l28.563 14.43-30.358 10.116-4.116-12.348c-25.196 54.276-38.211 113.472-38.060 173.419 0.074 157.051 88.837 300.593 229.307 370.826-0.020-0.010-0.041-0.020-0.061-0.031l14.427-28.563-14.306 28.624c-0.020-0.010-0.041-0.020-0.061-0.030 57.529 29.046 121.103 44.101 185.551 43.939h22.477c0.585 0 1.173-0.016 1.762-0.049 210.654-11.622 378.863-179.827 390.485-390.482 0.030-0.589 0.047-1.178 0.047-1.766v-22.464zM420.654 490.667c0.588 0.969 1.209 1.975 1.862 3.017 6.797 10.85 16.828 25.22 29.769 39.458 26.547 29.199 61.257 53.525 102.383 53.525 41.131 0 75.84-24.327 102.383-53.525 12.945-14.238 22.976-28.608 29.769-39.458 0.653-1.041 1.276-2.048 1.865-3.017-0.589-0.969-1.212-1.975-1.865-3.017-6.793-10.85-16.823-25.22-29.769-39.458-26.543-29.197-61.252-53.525-102.383-53.525-41.126 0-75.836 24.329-102.383 53.525-12.941 14.238-22.972 28.608-29.769 39.458-0.652 1.041-1.273 2.048-1.862 3.017zM725.333 490.667c28.796 13.961 28.791 13.969 28.783 13.982l-0.038 0.081-0.073 0.145-0.213 0.435-0.713 1.404c-0.597 1.165-1.442 2.778-2.53 4.774-2.18 3.998-5.35 9.557-9.489 16.162-8.235 13.15-20.506 30.779-36.655 48.542-31.637 34.801-82.261 74.475-149.739 74.475s-118.101-39.673-149.738-74.475c-16.148-17.763-28.42-35.392-36.655-48.542-4.137-6.605-7.309-12.164-9.487-16.162-1.091-1.997-1.936-3.61-2.533-4.774l-0.71-1.404-0.215-0.435-0.073-0.145-0.027-0.060c-0.005-0.009-0.022-0.043 28.772-14.003l-28.794 13.961c-4.275-8.815-4.275-19.106 0-27.921l28.794 13.961c-28.794-13.961-28.799-13.952-28.794-13.961l0.049-0.102 0.073-0.145 0.215-0.435 0.71-1.404c0.597-1.165 1.443-2.778 2.533-4.774 2.179-3.998 5.35-9.557 9.487-16.162 8.235-13.15 20.507-30.78 36.655-48.542 31.636-34.803 82.26-74.475 149.738-74.475s118.101 39.671 149.739 74.475c16.149 17.762 28.42 35.392 36.655 48.542 4.139 6.605 7.309 12.164 9.489 16.162 1.088 1.997 1.933 3.61 2.53 4.774l0.713 1.404 0.213 0.435 0.102 0.205c0.004 0.009 0.021 0.043-28.774 14.003zM725.333 490.667l28.796-13.961c4.275 8.815 4.262 19.127-0.013 27.942l-28.783-13.982zM480 490.667c0 41.237 33.429 74.667 74.667 74.667s74.667-33.429 74.667-74.667c0-41.237-33.429-74.667-74.667-74.667s-74.667 33.429-74.667 74.667zM554.667 501.333c-5.892 0-10.667-4.774-10.667-10.667s4.774-10.667 10.667-10.667c5.892 0 10.667 4.774 10.667 10.667s-4.774 10.667-10.667 10.667z" />
<glyph unicode="&#xe933;" glyph-name="comment-show" horiz-adv-x="1067" d="M589.38 799.999h24.883c208.341-9.894 366.345-147.522 377.737-310.42v-20.348c0.158-50.176-13.871-99.994-41.387-145.463l-0.081-0.128c-66.833-111.607-205.786-184.922-361.097-184.973h-0.055c-63.326-0.137-125.628 12.22-181.772 35.887-6.886 2.901-14.57 3.302-21.721 1.135l-210.108-63.753 55.782 186.074c2.597 8.666 1.407 18.022-3.276 25.758-27.518 45.47-41.545 95.287-41.388 145.463v0.085c0.056 121.982 82.875 237.303 220.6 294.749l0.111 0.047c56.145 23.668 118.447 36.025 181.772 35.887zM589.483 863.999c-71.595 0.151-142.391-13.798-206.679-40.889-156.633-65.355-259.817-201.056-259.907-353.721-0.173-57.741 14.784-114.487 43.39-166.238l-68.938-229.961c-3.386-11.294-0.288-23.535 8.062-31.855 8.35-8.324 20.6-11.379 31.881-7.957l256.317 77.773c61.375-24.196 128.272-36.629 195.878-36.484-0.009 0-0.017 0-0.030 0l-0.009 31.987 0.068-31.987c-0.009 0-0.017 0-0.030 0 173.773 0.064 335.599 81.975 415.91 216.021 33.297 55.036 50.786 116.279 50.603 178.692v21.286c0 0.704-0.026 1.408-0.068 2.112-13.538 204.748-207.309 360.498-439.45 371.186-0.491 0.023-0.981 0.034-1.472 0.034h-25.527z" />
<glyph unicode="&#xe934;" glyph-name="contacts" d="M10.667 149.333c0 111.932 90.737 202.667 202.667 202.667h341.333c111.932 0 202.667-90.735 202.667-202.667v-85.333c0-17.673-14.327-32-32-32s-32 14.327-32 32v85.333c0 76.582-62.084 138.667-138.667 138.667h-341.333c-76.584 0-138.667-62.084-138.667-138.667v-85.333c0-17.673-14.327-32-32-32s-32 14.327-32 32v85.333zM181.333 661.333c0 111.93 90.737 202.667 202.667 202.667 111.932 0 202.667-90.737 202.667-202.667s-90.735-202.667-202.667-202.667c-111.93 0-202.667 90.737-202.667 202.667zM384 800c-76.584 0-138.667-62.083-138.667-138.667s62.083-138.667 138.667-138.667c76.582 0 138.667 62.083 138.667 138.667s-62.084 138.667-138.667 138.667zM672 277.333c0 17.673 14.327 32 32 32h170.667c78.498 0 138.667-67.243 138.667-145.779v-56.887c0-17.673-14.327-32-32-32s-32 14.327-32 32v56.887c0 47.142-35.345 81.779-74.667 81.779h-170.667c-17.673 0-32 14.327-32 32zM608 554.667c0 76.584 62.084 138.667 138.667 138.667s138.667-62.083 138.667-138.667c0-76.582-62.084-138.667-138.667-138.667s-138.667 62.084-138.667 138.667zM746.667 629.333c-41.237 0-74.667-33.429-74.667-74.667s33.429-74.667 74.667-74.667c41.237 0 74.667 33.429 74.667 74.667s-33.429 74.667-74.667 74.667z" />
<glyph unicode="&#xe935;" glyph-name="copy" d="M352.005 490.662c0 64.8 52.532 117.332 117.332 117.332h384c64.802 0 117.333-52.532 117.333-117.332v-384c0-64.802-52.531-117.333-117.333-117.333h-384c-64.8 0-117.332 52.531-117.332 117.333v384zM469.338 543.995c-29.453 0-53.332-23.88-53.332-53.332v-384c0-29.457 23.88-53.333 53.332-53.333h384c29.457 0 53.333 23.876 53.333 53.333v384c0 29.453-23.876 53.332-53.333 53.332h-384zM170.667 842.667c-29.455 0-53.333-23.878-53.333-53.333v-384c0-29.457 23.878-53.333 53.333-53.333h42.667c17.673 0 32-14.327 32-32s-14.327-32-32-32h-42.667c-64.801 0-117.333 52.531-117.333 117.333v384c0 64.801 52.532 117.333 117.333 117.333h384c64.802 0 117.333-52.532 117.333-117.333v-42.667c0-17.673-14.327-32-32-32s-32 14.327-32 32v42.667c0 29.455-23.876 53.333-53.333 53.333h-384z" />
<glyph unicode="&#xe936;" glyph-name="creator" d="M128 436.096l324.787-95.070-124.795-319.693 568.008 452.659-337.737 98.872 58.961 301.802-489.225-438.571z" />
<glyph unicode="&#xe937;" glyph-name="crop" d="M181.333 746.667c0 17.673 14.327 32 32 32h597.333c17.673 0 32-14.327 32-32v-597.333c0-17.673-14.327-32-32-32h-597.333c-17.673 0-32 14.327-32 32v597.333zM245.333 714.667v-533.333h533.333v533.333h-533.333zM53.333 746.667c0 17.673 14.327 32 32 32h213.333c17.673 0 32-14.327 32-32s-14.327-32-32-32h-213.333c-17.673 0-32 14.327-32 32zM213.333 906.667c17.673 0 32-14.327 32-32v-256c0-17.673-14.327-32-32-32s-32 14.327-32 32v256c0 17.673 14.327 32 32 32zM970.667 149.333c0-17.673-14.327-32-32-32h-213.333c-17.673 0-32 14.327-32 32s14.327 32 32 32h213.333c17.673 0 32-14.327 32-32zM810.667-10.667c-17.673 0-32 14.327-32 32v256c0 17.673 14.327 32 32 32s32-14.327 32-32v-256c0-17.673-14.327-32-32-32zM961.293 897.294c12.497-12.497 12.497-32.758 0-45.255l-725.332-725.332c-12.497-12.497-32.758-12.497-45.255 0s-12.497 32.755 0 45.252l725.335 725.335c12.497 12.497 32.755 12.497 45.252 0z" />
<glyph unicode="&#xe938;" d="M0 960h1024v-1024h-1024v1024z" />
<glyph unicode="&#xe939;" d="M387.712 221.926v196.284c0 15.036-3.127 28.075-9.38 39.117-6.013 11.273-15.153 19.968-27.419 26.074-12.266 6.11-27.419 9.165-45.458 9.165-16.836 0-31.628-2.82-44.375-8.457-12.507-5.641-22.368-13.039-29.584-22.204-6.975-9.161-10.463-19.029-10.463-29.602h-66.744c0 13.628 3.608 27.136 10.824 40.529 7.215 13.389 17.558 25.489 31.027 36.297 13.71 11.038 30.065 19.733 49.066 26.075 19.241 6.578 40.647 9.867 64.218 9.867 28.381 0 53.395-4.699 75.042-14.097 21.887-9.395 38.964-23.607 51.23-42.637 12.506-18.795 18.761-42.406 18.761-70.831v-177.609c0-12.685 1.084-26.193 3.247-40.525 2.406-14.332 5.892-26.662 10.462-37.001v-5.641h-69.629c-3.367 7.518-6.013 17.506-7.937 29.956-1.924 12.685-2.886 24.431-2.886 35.238zM399.257 387.904l0.721-45.811h-67.465c-19.001 0-35.957-1.527-50.87-4.582-14.912-2.82-27.419-7.164-37.521-13.039-10.102-5.871-17.798-13.274-23.090-22.199-5.291-8.691-7.937-18.91-7.937-30.66 0-11.981 2.766-22.903 8.298-32.772 5.532-9.865 13.83-17.737 24.893-23.607 11.305-5.641 25.134-8.457 41.489-8.457 20.444 0 38.483 4.228 54.117 12.685s28.020 18.795 37.16 31.010c9.38 12.215 14.431 24.081 15.153 35.593l28.501-31.364c-1.684-9.869-6.254-20.791-13.71-32.772s-17.437-23.492-29.944-34.534c-12.267-10.807-26.938-19.853-44.015-27.136-16.836-7.044-35.837-10.569-57.003-10.569-26.457 0-49.667 5.047-69.63 15.151-19.722 10.103-35.116 23.612-46.179 40.525-10.823 17.152-16.235 36.297-16.235 57.442 0 20.437 4.089 38.409 12.267 53.914 8.177 15.74 19.963 28.779 35.356 39.117 15.393 10.573 33.913 18.56 55.56 23.962 21.647 5.406 45.818 8.107 72.516 8.107h77.567z" />
<glyph unicode="&#xe93a;" d="M809.822 704h54.839c0-23.023-3.61-41.347-10.825-54.973-7.215-13.391-17.075-23.728-29.585-31.011-12.267-7.283-26.214-12.803-41.847-16.562-15.394-3.759-31.39-7.4-47.987-10.924-20.681-4.229-39.923-10.924-57.724-20.086-17.557-8.927-32.708-21.614-45.457-38.057-12.506-16.448-21.764-37.824-27.78-64.137-5.773-26.313-7.334-58.85-4.689-97.613v-32.422h-54.839v32.422c0 43.46 4.211 81.404 12.629 113.822 8.657 32.422 20.804 59.79 36.437 82.108s34.155 40.055 55.561 53.211c21.645 13.156 45.457 22.201 71.433 27.134 18.761 3.524 34.876 7.283 48.346 11.276 13.47 4.229 23.689 9.867 30.665 16.915 7.215 7.048 10.825 16.68 10.825 28.896zM730.812 516.173c25.493 0 48.222-4.343 68.186-13.039 19.964-8.691 36.919-20.787 50.871-36.292 13.948-15.509 24.533-33.83 31.748-54.976 7.454-20.907 11.183-43.695 11.183-68.365v-7.753c0-26.547-3.968-51.213-11.904-74.001-7.697-22.554-19.123-42.287-34.274-59.204-14.912-16.678-33.19-29.717-54.839-39.113-21.406-9.399-45.82-14.097-73.237-14.097s-51.951 4.698-73.6 14.097c-21.406 9.395-39.684 22.434-54.835 39.113-15.155 16.917-26.701 36.651-34.637 59.204-7.697 22.788-11.546 47.454-11.546 74.001v7.753c0 5.875 1.084 11.631 3.247 17.267 2.167 5.641 4.813 11.396 7.94 17.267 3.366 5.875 6.37 12.1 9.020 18.679 8.896 21.141 21.043 40.759 36.437 58.85 15.633 18.086 34.274 32.653 55.919 43.695 21.888 11.277 46.66 16.913 74.321 16.913zM717.824 462.963c-24.533 0-44.736-5.521-60.612-16.563-15.633-11.042-27.298-25.724-34.995-44.049-7.697-18.091-11.546-37.705-11.546-58.85v-7.753c0-17.852 2.167-34.769 6.494-50.743 4.331-15.974 10.825-30.187 19.486-42.641 8.896-12.215 20.083-21.845 33.549-28.894 13.713-7.049 29.824-10.573 48.346-10.573s34.513 3.524 47.983 10.573c13.47 7.049 24.533 16.678 33.19 28.894 8.661 12.454 15.155 26.667 19.482 42.641 4.331 15.974 6.494 32.892 6.494 50.743v7.753c0 15.974-2.163 31.13-6.494 45.461-4.326 14.327-10.94 27.017-19.84 38.059-8.661 11.038-19.844 19.733-33.553 26.074-13.47 6.579-29.466 9.869-47.983 9.869z" />
<glyph unicode="&#xe93b;" d="M106.667 337.161h810.667v-35.947h-810.667v35.947z" />
<glyph unicode="&#xe93c;" glyph-name="data" d="M226.143 672c-5.891 0-10.667-4.776-10.667-10.667v-352h593.066v352c0 5.891-4.774 10.667-10.667 10.667h-121.6v64h121.6c41.237 0 74.667-33.429 74.667-74.667v-374.391l91.836-139.145c32.764-49.643-2.837-115.797-62.315-115.797h-780.105c-59.479 0-95.081 66.155-62.318 115.797l91.836 139.145v374.391c0 41.237 33.43 74.667 74.667 74.667h121.6v-64h-121.6zM200.698 245.333l-87.642-132.791c-4.681-7.091 0.405-16.542 8.902-16.542h780.105c8.495 0 13.581 9.451 8.9 16.542l-87.642 132.791h-622.624zM368.441 819.255c0.033-0.004 0.286 0.179 0.661 0.561-0.506-0.367-0.694-0.557-0.661-0.561zM402.708 832c27.488-6.432 65.939-10.667 109.301-10.667 43.366 0 81.813 4.234 109.303 10.667-27.49 6.432-65.937 10.667-109.303 10.667-43.362 0-81.813-4.234-109.301-10.667zM655.578 819.255c0.034 0.003-0.154 0.195-0.661 0.561 0.375-0.381 0.627-0.564 0.661-0.561zM654.916 844.185c0.508 0.366 0.695 0.557 0.661 0.561s-0.286-0.179-0.661-0.561zM369.103 844.185c-0.375 0.381-0.628 0.564-0.661 0.561s0.155-0.194 0.661-0.561zM383.569 893.214c34.088 8.522 79.484 13.452 128.439 13.452s94.353-4.93 128.444-13.452c16.798-4.199 32.661-9.709 45.094-17.059 10.291-6.084 29.129-19.966 29.129-44.156s-18.837-38.072-29.129-44.156c-12.433-7.35-28.297-12.859-45.094-17.059-34.091-8.522-79.488-13.452-128.444-13.452s-94.352 4.93-128.439 13.452c-16.798 4.199-32.662 9.709-45.097 17.059-10.293 6.084-29.129 19.966-29.129 44.156s18.836 38.072 29.129 44.156c12.435 7.35 28.299 12.859 45.097 17.059zM399.091 576.875c27.682-6.921 67.618-11.541 112.917-11.541s85.239 4.621 112.917 11.541c14.089 3.522 23.219 7.206 28.058 10.065 0.892 0.528 1.519 0.945 1.933 1.245-1.34-1.362-4.241-5.251-4.241-12.185h64c0-24.189-18.837-38.072-29.129-44.156-12.433-7.351-28.297-12.86-45.094-17.058-34.091-8.521-79.488-13.453-128.444-13.453s-94.352 4.932-128.439 13.453c-16.798 4.198-32.662 9.707-45.097 17.058-10.293 6.084-29.129 19.966-29.129 44.156h64c0 6.934-2.9 10.823-4.24 12.185 0.414-0.3 1.041-0.716 1.935-1.245 4.837-2.86 13.967-6.544 28.054-10.065zM368.441 588.745c0.033 0.004 0.286-0.179 0.661-0.561-0.506 0.367-0.694 0.557-0.661 0.561zM655.578 588.745c0.034-0.004-0.154-0.195-0.661-0.561 0.375 0.381 0.627 0.564 0.661 0.561zM399.091 704.875c27.682-6.921 67.618-11.541 112.917-11.541s85.239 4.621 112.917 11.541c14.089 3.522 23.219 7.206 28.058 10.065 0.892 0.528 1.519 0.945 1.933 1.245-1.34-1.362-4.241-5.251-4.241-12.185h64c0-24.189-18.837-38.072-29.129-44.156-12.433-7.35-28.297-12.859-45.094-17.059-34.091-8.522-79.488-13.452-128.444-13.452s-94.352 4.93-128.439 13.452c-16.798 4.199-32.662 9.709-45.097 17.059-10.293 6.084-29.129 19.966-29.129 44.156h64c0 6.934-2.9 10.823-4.24 12.185 0.414-0.3 1.041-0.716 1.935-1.245 4.837-2.859 13.967-6.543 28.054-10.065zM368.441 716.745c0.033 0.004 0.286-0.179 0.661-0.561-0.506 0.367-0.694 0.557-0.661 0.561zM655.578 716.745c0.034-0.004-0.154-0.195-0.661-0.561 0.375 0.381 0.627 0.564 0.661 0.561zM373.343 457.685v374.315h-64v-384c0-24.188 18.836-38.071 29.129-44.156 12.435-7.351 28.299-12.86 45.097-17.058 34.088-8.521 79.484-13.453 128.439-13.453s94.353 4.932 128.444 13.453c16.798 4.198 32.661 9.707 45.094 17.058 10.291 6.084 29.129 19.968 29.129 44.156v384h-64v-374.315c-5.205-2.641-13.649-5.786-25.749-8.811-27.678-6.921-67.618-11.541-112.917-11.541s-85.235 4.621-112.917 11.541c-12.099 3.025-20.542 6.17-25.748 8.811zM655.578 460.745c0.034-0.004-0.154-0.192-0.661-0.559 0.375 0.38 0.627 0.563 0.661 0.559zM369.103 460.186c-0.507 0.367-0.695 0.555-0.662 0.559s0.286-0.179 0.662-0.559z" />
<glyph unicode="&#xe93d;" glyph-name="debt" d="M420.215 805.333c45.163 78.222 158.067 78.222 203.226 0l351.031-608c45.163-78.221-11.29-176-101.615-176h-702.057c-90.324 0-146.775 97.779-101.614 176l351.029 608zM568.017 773.333c-20.527 35.555-71.846 35.555-92.378 0l-351.028-608c-20.528-35.554 5.132-80 46.188-80h702.057c41.058 0 66.718 44.446 46.187 80l-351.027 608zM409.606 377.114h31.358v156.22h80.828c15.019 0 28.71-1.877 41.079-5.632 12.365-3.755 22.967-9.468 31.799-17.139 8.836-7.671 15.753-17.387 20.762-29.137 5.005-11.755 7.505-25.792 7.505-42.116s-2.65-30.528-7.949-42.607c-5.299-12.079-12.514-22.118-21.641-30.118-9.131-7.996-19.878-13.956-32.243-17.873-12.369-3.917-25.766-5.875-40.196-5.875h-44.608v-49.463h71.113v-32.32h-71.113v-69.052h-35.337v69.052h-31.358v32.32h31.358v49.463h-31.358v34.278zM521.792 377.114c20.318 0 36.292 5.141 47.923 15.424 11.631 10.287 17.446 25.873 17.446 46.771 0 20.894-5.815 36.075-17.446 45.542s-27.605 14.204-47.923 14.204h-45.491v-121.941h45.491z" />
<glyph unicode="&#xe93e;" glyph-name="declinedinvitation" d="M268.486 651.417l-104.648-87.206c-2.432-2.027-3.838-5.029-3.838-8.195v-449.349c0-5.892 4.776-10.667 10.667-10.667h682.667c5.892 0 10.667 4.774 10.667 10.667v449.35c0 3.165-1.408 6.167-3.84 8.194l-104.644 87.206 40.969 49.167 104.649-87.207c17.024-14.186 26.867-35.201 26.867-57.36v-449.35c0-41.237-33.429-74.667-74.667-74.667h-682.667c-41.237 0-74.667 33.429-74.667 74.667v449.349c0 22.16 9.843 43.174 26.866 57.361l104.648 87.207 40.972-49.167zM462.396 404.053l-355.655-316.134 42.519-47.838 355.654 316.139c4.041 3.593 10.133 3.593 14.174 0l355.652-316.139 42.522 47.838-355.657 316.134c-28.288 25.148-70.921 25.148-99.209 0zM106.74 541.416l42.519 47.834 288.001-255.998-42.52-47.838-288 256.002zM917.261 541.416l-288-256.002-42.522 47.838 288 255.998 42.522-47.834zM298.667 842.667c-5.891 0-10.667-4.776-10.667-10.667v-384h-64v384c0 41.237 33.429 74.667 74.667 74.667h426.667c41.237 0 74.667-33.429 74.667-74.667v-384h-64v384c0 5.891-4.774 10.667-10.667 10.667h-426.667zM619.959 726.627c12.497-12.497 12.497-32.758 0-45.255l-170.667-170.665c-12.497-12.497-32.757-12.497-45.254 0s-12.497 32.757 0 45.254l170.668 170.667c12.497 12.497 32.755 12.497 45.252 0zM404.039 726.627c12.497 12.497 32.756 12.497 45.254 0l170.667-170.667c12.497-12.497 12.497-32.756 0-45.254s-32.755-12.497-45.252 0l-170.668 170.665c-12.497 12.497-12.497 32.758 0 45.255z" />
<glyph unicode="&#xe93f;" glyph-name="delete" d="M896.009 738.131h-179.2v51.2c0 29.867-12.8 59.733-34.133 81.067s-51.2 34.133-81.067 34.133h-174.933c-29.867 0-59.733-12.8-81.067-34.133-25.6-21.333-38.4-51.2-38.4-81.067v-51.2h-179.2c-17.067 0-34.133-17.067-34.133-34.133s17.067-34.133 34.133-34.133h51.2v-563.198c0-29.871 12.8-59.733 34.133-81.067s51.2-34.138 81.067-34.138h426.667c29.867 0 59.733 12.804 81.067 34.138s34.133 51.196 34.133 81.067v563.198h59.733c17.067 0 34.133 12.8 34.133 34.133s-17.067 34.133-34.133 34.133zM375.475 789.331c0 12.8 4.267 25.6 17.067 38.4 8.533 8.533 21.333 12.8 34.133 12.8h170.667c12.8 0 25.6-4.267 38.4-17.067 8.533-8.533 17.067-25.6 17.067-38.4v-51.2h-277.333v55.467zM776.542 106.667c0-12.8-4.267-25.6-17.067-38.4-8.533-8.533-25.6-17.067-38.4-17.067h-422.4c-12.8 0-25.6 4.267-38.4 17.067-8.533 8.533-17.067 25.6-17.067 38.4v563.198h533.333v-563.198zM426.675 200.533c17.067 0 34.133 12.8 34.133 34.133v256c0 17.067-12.8 34.133-34.133 34.133-17.067 0-34.133-12.8-34.133-34.133v-256c0-17.067 17.067-34.133 34.133-34.133zM597.342 200.533c17.067 0 34.133 12.8 34.133 34.133v256c0 17.067-12.8 34.133-34.133 34.133s-34.133-12.8-34.133-34.133v-256c0-17.067 17.067-34.133 34.133-34.133z" />
<glyph unicode="&#xe940;" glyph-name="deletedit" d="M53.333 704.001c0 64.801 52.532 117.333 117.333 117.333h298.667c17.673 0 32-14.327 32-32s-14.327-32-32-32h-298.667c-29.455 0-53.333-23.878-53.333-53.333v-597.334c0-29.453 23.878-53.333 53.333-53.333h341.333c17.673 0 32-14.327 32-32s-14.327-32-32-32h-341.333c-64.801 0-117.333 52.531-117.333 117.333v597.334zM853.333 437.333c17.673 0 32-14.327 32-32v-85.333c0-17.673-14.327-32-32-32s-32 14.327-32 32v85.333c0 17.673 14.327 32 32 32zM894.707 830.707c-22.852 22.849-59.895 22.849-82.748 0l-399.065-399.065-27.581-110.327 110.328 27.58 399.066 399.068c22.848 22.849 22.848 59.895 0 82.745zM766.707 875.962c47.842 47.843 125.41 47.843 173.252 0 47.846-47.843 47.846-125.412 0-173.255l-405.333-405.333c-4.1-4.1-9.237-7.010-14.865-8.418l-170.667-42.667c-10.905-2.726-22.44 0.469-30.388 8.418s-11.143 19.482-8.417 30.387l42.667 170.667c1.407 5.628 4.316 10.765 8.417 14.865l405.335 405.335zM565.333 217.6c0 17.673 14.327 32 32 32h256c17.673 0 32-14.327 32-32 0-16.469-12.446-30.037-28.446-31.804v-177.263c0-32.678-25.609-61.867-60.442-61.867h-142.225c-34.833 0-60.442 29.188-60.442 61.867v177.263c-16 1.766-28.446 15.334-28.446 31.804zM657.779 185.6v-174.933h135.108v174.933h-135.108zM650.667 256c0 29.457 23.876 53.333 53.333 53.333h42.667c29.457 0 53.333-23.876 53.333-53.333v-21.333c0-17.673-14.327-32-32-32s-32 14.327-32 32v10.667h-21.333v-10.667c0-17.673-14.327-32-32-32s-32 14.327-32 32v21.333z" />
<glyph unicode="&#xe941;" glyph-name="delethelp" d="M512 842.667c-217.968 0-394.667-176.698-394.667-394.667 0-217.967 176.698-394.667 394.667-394.667 43.217 0 84.749 6.933 123.584 19.725 16.785 5.53 34.876-3.593 40.405-20.378 5.53-16.789-3.597-34.88-20.382-40.405-45.214-14.895-93.504-22.942-143.607-22.942-253.315 0-458.667 205.35-458.667 458.667 0 253.315 205.352 458.667 458.667 458.667 253.316 0 458.667-205.352 458.667-458.667 0-11.738-0.444-23.381-1.31-34.91-1.327-17.621-16.691-30.835-34.313-29.504-17.626 1.327-30.835 16.687-29.508 34.313 0.751 9.929 1.131 19.968 1.131 30.101 0 217.968-176.7 394.667-394.667 394.667zM486.942 384.111v14.451c0 16.555 3.008 30.323 9.028 41.31s16.555 22.349 31.607 34.091c17.907 14.144 29.423 25.131 34.539 32.96 5.269 7.825 7.902 17.156 7.902 27.991 0 12.642-4.215 22.349-12.642 29.122s-20.544 10.159-36.348 10.159c-14.298 0-27.541-2.032-39.731-6.095s-24.081-8.954-35.669-14.673l-18.961 39.732c30.549 17.007 63.283 25.51 98.202 25.51 29.495 0 52.898-7.224 70.208-21.672 17.306-14.448 25.963-34.389 25.963-59.823 0-11.287-1.655-21.37-4.966-30.249-3.311-8.73-8.354-17.084-15.125-25.058-6.622-7.979-18.138-18.364-34.543-31.155-13.995-10.987-23.403-20.092-28.215-27.315-4.668-7.223-7.002-16.93-7.002-29.124v-10.159h-44.245zM477.687 312.098c0 22.724 11.059 34.091 33.182 34.091 10.837 0 19.115-3.012 24.836-9.033 5.717-5.867 8.576-14.221 8.576-25.058 0-10.684-2.935-19.187-8.802-25.51-5.722-6.17-13.922-9.254-24.61-9.254-10.684 0-18.884 3.008-24.606 9.028-5.717 6.174-8.576 14.75-8.576 25.737zM693.333 260.271c0 17.673 14.327 32 32 32h256c17.673 0 32-14.327 32-32 0-16.469-12.446-30.037-28.446-31.804v-177.263c0-32.678-25.609-61.867-60.442-61.867h-142.225c-34.833 0-60.442 29.188-60.442 61.867v177.263c-16 1.766-28.446 15.334-28.446 31.804zM785.779 228.271v-174.933h135.108v174.933h-135.108zM778.667 298.667c0 29.457 23.876 53.333 53.333 53.333h42.667c29.457 0 53.333-23.876 53.333-53.333v-21.333c0-17.673-14.327-32-32-32s-32 14.327-32 32v10.667h-21.333v-10.667c0-17.673-14.327-32-32-32s-32 14.327-32 32v21.333z" />
<glyph unicode="&#xe942;" glyph-name="demo" d="M938.667 629.333h-853.333v64h853.333v-64zM138.667 746.667c0 17.673 14.327 32 32 32h93.013c17.673 0 32-14.327 32-32s-14.327-32-32-32h-93.013c-17.673 0-32 14.327-32 32zM53.333 746.667c0 64.801 52.532 117.333 117.333 117.333h682.667c64.802 0 117.333-52.532 117.333-117.333v-597.333c0-64.802-52.531-117.333-117.333-117.333h-384c-17.673 0-32 14.327-32 32s14.327 32 32 32h384c29.457 0 53.333 23.876 53.333 53.333v597.333c0 29.455-23.876 53.333-53.333 53.333h-682.667c-29.455 0-53.333-23.878-53.333-53.333v-298.667c0-17.673-14.327-32-32-32s-32 14.327-32 32v298.667zM363.965 342.626c12.497-12.497 12.497-32.755 0-45.252l-256.003-256.004c-12.497-12.497-32.758-12.497-45.255 0s-12.497 32.755 0 45.252l256.003 256.004c12.497 12.497 32.758 12.497 45.255 0zM341.338 352c17.673 0 32-14.327 32-32v-256.004c0-17.673-14.327-32-32-32s-32 14.327-32 32v224.004h-224.003c-17.673 0-32 14.323-32 32 0 17.673 14.327 32 32 32h256.003z" />
<glyph unicode="&#xe943;" glyph-name="deselectall" d="M128.004 902.396c-38.881 0-70.4-31.519-70.4-70.4v-256c0-38.881 31.519-70.4 70.4-70.4h256c38.881 0 70.4 31.519 70.4 70.4v256c0 38.881-31.519 70.4-70.4 70.4h-256zM113.071 831.996c0 8.247 6.686 14.933 14.933 14.933h256c8.247 0 14.933-6.686 14.933-14.933v-256c0-8.247-6.686-14.933-14.933-14.933h-256c-8.247 0-14.933 6.686-14.933 14.933v256zM128.004 390.396c-38.881 0-70.4-31.518-70.4-70.4v-256c0-38.882 31.519-70.4 70.4-70.4h256c38.881 0 70.4 31.518 70.4 70.4v256c0 38.882-31.519 70.4-70.4 70.4h-256zM113.071 319.996c0 8.247 6.686 14.933 14.933 14.933h256c8.247 0 14.933-6.686 14.933-14.933v-256c0-8.247-6.686-14.933-14.933-14.933h-256c-8.247 0-14.933 6.686-14.933 14.933v256zM569.604 831.996c0 38.881 31.518 70.4 70.4 70.4h256c38.882 0 70.4-31.519 70.4-70.4v-256c0-38.881-31.518-70.4-70.4-70.4h-256c-38.882 0-70.4 31.519-70.4 70.4v256zM640.004 846.929c-8.247 0-14.933-6.686-14.933-14.933v-256c0-8.247 6.686-14.933 14.933-14.933h256c8.247 0 14.933 6.686 14.933 14.933v256c0 8.247-6.686 14.933-14.933 14.933h-256zM640.004 390.396c-38.882 0-70.4-31.518-70.4-70.4v-256c0-38.882 31.518-70.4 70.4-70.4h256c38.882 0 70.4 31.518 70.4 70.4v256c0 38.882-31.518 70.4-70.4 70.4h-256zM625.071 319.996c0 8.247 6.686 14.933 14.933 14.933h256c8.247 0 14.933-6.686 14.933-14.933v-256c0-8.247-6.686-14.933-14.933-14.933h-256c-8.247 0-14.933 6.686-14.933 14.933v256z" />
<glyph unicode="&#xe944;" glyph-name="diagram" d="M512 874.667c-235.264 0-426.667-191.403-426.667-426.667s191.403-426.667 426.667-426.667c235.264 0 426.667 191.403 426.667 426.667s-191.403 426.667-426.667 426.667zM512 448v298.667c170.667 0 298.667-128 298.667-298.667h-298.667z" />
<glyph unicode="&#xe945;" glyph-name="dislike" d="M96 696.74c0 68.972 56.167 124.593 125.091 124.593l570.184-0.002c75.349 0 136.725-60.803 136.725-136.168v-243.060c0-75.362-61.376-136.166-136.73-136.166h-98.906c-4.237 0-7.906-0.094-11.072-0.277 3.307-6.669 8.294-15.172 15.13-26.022 1.869-2.97 3.857-6.084 5.918-9.318 9.225-14.468 19.955-31.292 28.587-48.145 10.509-20.51 20.258-45.312 19.942-71.351-0.341-28.224-12.459-54.37-38.558-75.174-10.116-8.068-21.615-13.756-34.466-15.787-12.843-2.031-24.866-0.068-35.524 3.849-19.878 7.309-37.478 22.485-52.1 36.399-8.26 7.863-16.265 15.953-24.256 24.026-23.403 23.65-46.707 47.206-76.181 64.794-39.014 23.287-69.707 53.833-92.279 82.701-22.045-35.644-61.602-59.349-106.596-59.349h-69.818c-68.924 0-125.091 55.62-125.091 124.595v359.865zM416 361.903c12.467-27.072 48.418-83.307 106.581-118.016 37.222-22.217 68.753-54.174 93.005-78.754 6.844-6.938 13.111-13.286 18.761-18.667 14.443-13.747 23.74-20.365 30.063-22.686 2.385-0.879 3.302-0.725 3.43-0.704 0.090 0.013 1.549 0.201 4.574 2.611 11.721 9.344 14.362 17.698 14.46 25.911 0.128 10.402-3.989 23.987-12.907 41.399-7.117 13.892-15.795 27.52-24.917 41.839-2.24 3.52-4.506 7.078-6.784 10.697-10.364 16.452-22.699 36.629-27.482 55.667-2.364 9.404-3.426 21.065 0.828 32.9 4.531 12.625 13.491 21.047 22.946 26.176 15.996 8.678 36.864 9.66 53.807 9.66h98.906c40.329 0 72.73 32.474 72.73 72.166v243.060c0 39.696-32.401 72.168-72.725 72.168l-375.275 0.002v-395.43zM352 757.333h-130.909c-33.902 0-61.091-27.29-61.091-60.593v-359.865c0-33.306 27.189-60.595 61.091-60.595h69.818c33.902 0 61.091 27.29 61.091 60.595v420.459zM676.681 317.641v0zM298.667 372.279c0-23.561-19.103-42.667-42.667-42.667s-42.667 19.106-42.667 42.667c0 23.565 19.103 42.667 42.667 42.667s42.667-19.102 42.667-42.667z" />
<glyph unicode="&#xe946;" glyph-name="document" d="M417.821 682.667l-85.333 85.333h-161.821c-11.715 0-21.333-9.618-21.333-21.333v-597.333c0-11.716 9.618-21.333 21.333-21.333h682.667c11.716 0 21.333 9.617 21.333 21.333v512c0 11.715-9.617 21.333-21.333 21.333h-435.512zM444.331 746.667h409.003c47.061 0 85.333-38.272 85.333-85.333v-512c0-47.061-38.272-85.333-85.333-85.333h-682.667c-47.061 0-85.333 38.272-85.333 85.333v597.333c0 47.061 38.272 85.333 85.333 85.333h170.667c11.307 0 22.187-4.48 30.165-12.501l72.832-72.832z" />
<glyph unicode="&#xe947;" glyph-name="document_export" d="M170.458 842.667c-29.455 0-53.333-23.878-53.333-53.333v-682.667c0-29.457 23.878-53.333 53.333-53.333h405.332c29.457 0 53.333 23.876 53.333 53.333v58.667h64v-58.667c0-64.802-52.531-117.333-117.333-117.333h-405.332c-64.801 0-117.333 52.531-117.333 117.333v682.667c0 64.801 52.532 117.333 117.333 117.333h271.534l251.132-297.637v-155.697h-64v132.304l-216.868 257.030h-241.798zM968.555 341.342c0 17.673-14.327 32-32 32h-341.333c-17.673 0-32-14.327-32-32s14.327-32 32-32h341.333c17.673 0 32 14.327 32 32zM959.181 318.707c12.497 12.493 12.497 32.755 0 45.252l-170.667 170.667c-12.497 12.497-32.759 12.497-45.257 0s-12.497-32.759 0-45.257l148.041-148.036-148.041-148.041c-12.497-12.497-12.497-32.755 0-45.252s32.759-12.497 45.257 0l170.667 170.667z" />
<glyph unicode="&#xe948;" glyph-name="document-add" d="M417.821 682.667l-85.333 85.333h-161.821c-11.715 0-21.333-9.618-21.333-21.333v-597.333c0-11.716 9.618-21.333 21.333-21.333h682.667c11.716 0 21.333 9.617 21.333 21.333v512c0 11.715-9.617 21.333-21.333 21.333h-435.512zM371.499 819.499l72.832-72.832h409.003c47.061 0 85.333-38.272 85.333-85.333v-512c0-47.061-38.272-85.333-85.333-85.333h-682.667c-47.061 0-85.333 38.272-85.333 85.333v597.333c0 47.061 38.272 85.333 85.333 85.333h170.667c11.307 0 22.187-4.48 30.165-12.501zM707.025 384.004c0-17.673-14.327-32-32-32h-325.993c-17.673 0-32 14.327-32 32s14.327 32 32 32h325.993c17.673 0 32-14.327 32-32zM512.030 578.999c17.673 0 32-14.327 32-32v-325.99c0-17.677-14.327-32-32-32-17.677 0-32 14.323-32 32v325.99c0 17.673 14.323 32 32 32z" />
<glyph unicode="&#xe949;" glyph-name="download" d="M307.799 265.489c12.497 12.497 32.758 12.497 45.255 0l170.667-170.667c12.497-12.497 12.497-32.759 0-45.257s-32.759-12.497-45.257 0l-170.665 170.667c-12.497 12.497-12.497 32.759 0 45.257zM694.387 265.489c12.497-12.497 12.497-32.759 0-45.257l-170.667-170.667c-12.497-12.497-32.759-12.497-45.257 0s-12.497 32.759 0 45.257l170.667 170.667c12.497 12.497 32.759 12.497 45.257 0zM501.094 488.192c17.673 0 32-14.323 32-32v-384c0-17.673-14.327-32-32-32s-32 14.327-32 32v384c0 17.677 14.327 32 32 32zM41.737 675.695c70.177 135.675 219.622 214.931 373.607 196.266 145.552-17.643 266.077-118.642 310.391-255.767h31.36c108.002 0 201.050-68.894 235.157-171.215 0.145-0.439 0.282-0.883 0.41-1.327 29.133-101.965-4.881-209.954-93.099-273.668-14.327-10.347-34.33-7.121-44.676 7.206-10.351 14.327-7.121 34.33 7.206 44.681 65.195 47.083 90.953 126.502 69.222 203.529-25.801 76.51-94.72 126.794-174.221 126.794h-55.467c-14.686 0-27.486 9.994-31.044 24.239-30.929 123.71-135.343 216.527-262.941 231.994-127.615 15.468-251.236-50.342-309.060-162.134-58.029-112.189-42.497-251.532 42.533-348.159 11.676-13.265 10.385-33.489-2.883-45.163s-33.487-10.385-45.163 2.884c-102.703 116.706-121.304 284.563-51.333 419.84z" />
<glyph unicode="&#xe94a;" glyph-name="Dzen" d="M507.742 22.588c-2.351 46.827-4.284 93.513-7.177 140.117-2.513 40.764-7.155 81.387-20.672 120.175-24.277 69.658-72.181 114.85-143.047 135.868-42.639 12.642-86.495 16.631-130.51 19.183-39.031 2.257-78.142 3.371-117.213 4.949-0.937 0.038-3.508 0-3.508 0v-6.622c0 0-0.997-149.491 0.757-224.196 1.675-71.313 30.559-128.806 94.249-165.423 28.785-16.55 60.58-23.731 93.292-24.192 76.687-1.097 153.376-0.734 230.060-0.934 0.521 0 3.729-0.021 3.729-0.021l0.038 1.097zM519.859 21.419c38.831 0 77.982-0.222 117.154 0.060 41.481 0.299 83.063-0.602 124.407 1.954 88.529 5.461 151.561 62.178 169.741 139.934 4.484 19.187 6.797 39.287 7.036 58.991 0.819 71.437 0.32 142.869 0.299 214.306 0 1.634 0.162 3.409 0.021 5.662-6.34 0-12.898 0.201-19.017-0.201-60.821-3.989-121.796-6.562-182.417-12.702-43.878-4.446-85.359-18.509-121.22-45.926-44.335-33.903-68.655-79.731-80.098-133.359-11.401-53.466-14.114-107.81-15.808-162.193-0.657-21.756-0.098-43.575-0.098-66.526zM507.26 874.541c-24.657 0-47.902 0.060-71.125-0.020-53.782-0.2-107.604 0.439-161.367-0.957-45.051-1.177-86.833-13.76-122.097-43.514-39.549-33.364-62.534-76.5-64.407-127.513-3.010-81.605-2.313-247.509-2.313-247.509s35.025-0.794 52.128 0.043c37.735 1.856 75.471 3.789 113.107 7.019 39.37 3.371 78.321 9.771 114.841 26.005 57.191 25.408 94.808 68.463 114.324 127.732 14.669 44.592 18.62 90.878 21.41 137.245 2.411 40.005 3.686 80.069 5.5 121.47zM938.547 453.948c0 4.766 0 8.358 0 11.947-0.222 73.090 0.179 146.199-0.939 219.289-0.657 42.637-12.16 82.582-38.929 116.724-30.878 39.366-71.667 62.54-121.203 68.622-24.277 2.972-48.939 3.63-73.438 3.849-61.436 0.518-122.871 0.18-185.745 0.18 0-7.199-0.38-14 0.060-20.76 3.827-58.89 6.699-117.861 12.16-176.591 3.588-38.509 14.592-75.463 35.341-108.847 31.317-50.356 76.809-81.687 134.020-93.612 39.748-8.273 80.512-12.382 121.020-16.171 33.95-3.17 68.194-3.213 102.323-4.587 4.625-0.201 9.25-0.043 15.33-0.043z" />
<glyph unicode="&#xe94b;" glyph-name="edit" d="M894.707 830.706c-22.852 22.849-59.895 22.849-82.748 0l-399.065-399.064-27.581-110.327 110.328 27.58 399.066 399.067c22.848 22.849 22.848 59.896 0 82.745zM766.707 875.961c47.842 47.843 125.41 47.843 173.252 0 47.846-47.843 47.842-125.412 0-173.255l-405.333-405.332c-4.1-4.1-9.237-7.010-14.865-8.418l-170.667-42.667c-10.905-2.726-22.44 0.469-30.388 8.418s-11.143 19.482-8.417 30.387l42.667 170.667c1.407 5.628 4.316 10.765 8.417 14.865l405.335 405.335zM53.333 704c0 64.801 52.532 117.333 117.333 117.333h298.667c17.673 0 32-14.327 32-32s-14.327-32-32-32h-298.667c-29.455 0-53.333-23.878-53.333-53.333v-597.333c0-29.457 23.878-53.333 53.333-53.333h597.333c29.457 0 53.333 23.876 53.333 53.333v298.667c0 17.673 14.327 32 32 32s32-14.327 32-32v-298.667c0-64.802-52.531-117.333-117.333-117.333h-597.333c-64.801 0-117.333 52.531-117.333 117.333v597.333z" />
<glyph unicode="&#xe94c;" glyph-name="edithelp" d="M512 53.333c-217.968 0-394.667 176.7-394.667 394.667s176.698 394.667 394.667 394.667c63.066 0 122.59-14.769 175.39-41.007 15.825-7.865 35.029-1.411 42.897 14.415 7.863 15.826 1.412 35.032-14.417 42.897-61.449 30.538-130.701 47.694-203.87 47.694-253.315 0-458.667-205.352-458.667-458.667 0-253.316 205.352-458.667 458.667-458.667 253.316 0 458.667 205.35 458.667 458.667 0 26.010-2.167 51.537-6.34 76.407-2.923 17.428-19.426 29.187-36.855 26.263s-29.188-19.423-26.261-36.852c3.588-21.385 5.457-43.371 5.457-65.818 0-217.967-176.7-394.667-394.667-394.667zM486.942 384.111v14.451c0 16.555 3.008 30.323 9.028 41.31s16.555 22.349 31.607 34.091c17.907 14.144 29.423 25.131 34.539 32.96 5.269 7.825 7.902 17.156 7.902 27.991 0 12.642-4.215 22.349-12.642 29.122s-20.544 10.159-36.348 10.159c-14.298 0-27.541-2.032-39.731-6.095s-24.081-8.954-35.669-14.673l-18.961 39.732c30.549 17.007 63.283 25.51 98.202 25.51 29.495 0 52.898-7.224 70.208-21.672 17.306-14.448 25.963-34.389 25.963-59.823 0-11.287-1.655-21.37-4.966-30.249-3.311-8.73-8.354-17.084-15.125-25.058-6.622-7.979-18.138-18.364-34.543-31.155-13.995-10.987-23.403-20.092-28.215-27.315-4.668-7.223-7.002-16.93-7.002-29.124v-10.159h-44.245zM477.687 312.098c0 22.724 11.059 34.091 33.182 34.091 10.837 0 19.115-3.012 24.836-9.033 5.717-5.867 8.576-14.221 8.576-25.058 0-10.684-2.935-19.187-8.802-25.51-5.722-6.17-13.922-9.254-24.61-9.254-10.684 0-18.884 3.008-24.606 9.028-5.717 6.174-8.576 14.75-8.576 25.737zM947.443 798.109c-2.522 2.521-6.609 2.521-9.131 0l-165.956-165.955-3.042-12.175 12.173 3.043 165.956 165.955c2.522 2.522 2.522 6.609 0 9.131zM893.056 843.364c27.516 27.515 72.128 27.515 99.639 0 27.516-27.515 27.516-72.126 0-99.641l-172.22-172.222c-4.1-4.101-9.242-7.011-14.865-8.417l-72.516-18.129c-10.906-2.726-22.438 0.469-30.387 8.417s-11.145 19.484-8.418 30.388l18.129 72.515c1.408 5.626 4.314 10.765 8.418 14.866l172.22 172.222z" />
<glyph unicode="&#xe94d;" glyph-name="editplaceholder" d="M213.333 800c-29.455 0-53.333-23.878-53.333-53.333v-597.333c0-29.457 23.878-53.333 53.333-53.333h597.333c29.457 0 53.333 23.876 53.333 53.333v298.667c0 17.673 14.327 32 32 32s32-14.327 32-32v-298.667c0-64.802-52.531-117.333-117.333-117.333h-597.333c-64.801 0-117.333 52.531-117.333 117.333v597.333c0 64.801 52.532 117.333 117.333 117.333h490.667c17.673 0 32-14.327 32-32s-14.327-32-32-32h-490.667zM947.443 798.109c-2.522 2.521-6.609 2.521-9.131 0l-165.956-165.955-3.042-12.175 12.173 3.043 165.956 165.955c2.522 2.522 2.522 6.609 0 9.131zM893.056 843.364c27.516 27.515 72.128 27.515 99.639 0 27.516-27.515 27.516-72.126 0-99.641l-172.22-172.222c-4.1-4.101-9.242-7.011-14.865-8.417l-72.516-18.129c-10.906-2.726-22.438 0.469-30.387 8.417s-11.145 19.484-8.418 30.388l18.129 72.515c1.408 5.626 4.314 10.765 8.418 14.866l172.22 172.222zM521.835 650.667c17.673 0 32-14.327 32-32v-21.333c0-17.673-14.327-32-32-32s-32 14.327-32 32v21.333c0 17.673 14.327 32 32 32zM521.835 480c17.673 0 32-14.327 32-32v-170.667c0-17.673-14.327-32-32-32s-32 14.327-32 32v170.667c0 17.673 14.327 32 32 32z" />
<glyph unicode="&#xe94e;" glyph-name="editquantity" d="M399.334 345.668l-7.834 25.664h-1.333c-8.889-11.221-17.833-18.889-26.833-22.997-9-4.002-20.556-6.003-34.667-6.003-18.111 0-32.278 4.89-42.5 14.669-10.111 9.779-15.167 23.612-15.167 41.498 0 19.004 7.056 33.335 21.167 43.004 14.111 9.664 35.611 14.942 64.5 15.834l31.833 0.998v9.835c0 11.776-2.778 20.553-8.333 26.33-5.445 5.892-13.945 8.836-25.5 8.836-9.444 0-18.5-1.391-27.167-4.169s-17-6.054-25-9.83l-12.666 27.998c10 5.222 20.944 9.165 32.833 11.831 11.889 2.778 23.111 4.169 33.667 4.169 23.444 0 41.111-5.111 53-15.334 12-10.223 17.999-26.278 17.999-48.166v-124.164h-27.999zM341 372.335c14.222 0 25.611 3.942 34.167 11.831 8.666 8 13 19.166 13 33.502v16l-23.667-1.003c-18.444-0.666-31.889-3.776-40.333-9.331-8.334-5.444-12.5-13.833-12.5-25.169 0-8.222 2.444-14.609 7.333-19.166 4.889-4.446 12.222-6.665 22-6.665zM476.169 366.498c0 8.111 2.108 14.336 6.332 18.667 4.224 4.335 10.334 6.502 18.334 6.502 8.111 0 14.276-2.278 18.5-6.835 4.22-4.442 6.332-10.556 6.332-18.334 0-7.889-2.167-14.165-6.498-18.833-4.224-4.553-10.334-6.831-18.334-6.831s-14.11 2.278-18.334 6.831c-4.224 4.557-6.332 10.833-6.332 18.833zM570.167 366.498c0 8.111 2.112 14.336 6.332 18.667 4.224 4.335 10.334 6.502 18.334 6.502 8.111 0 14.276-2.278 18.5-6.835 4.224-4.442 6.332-10.556 6.332-18.334 0-7.889-2.163-14.165-6.498-18.833-4.224-4.553-10.334-6.831-18.334-6.831s-14.11 2.278-18.334 6.831c-4.22 4.557-6.332 10.833-6.332 18.833zM664.166 366.498c0 8.111 2.112 14.336 6.332 18.667 4.224 4.335 10.334 6.502 18.334 6.502 8.111 0 14.281-2.278 18.5-6.835 4.224-4.442 6.336-10.556 6.336-18.334 0-7.889-2.167-14.165-6.502-18.833-4.22-4.553-10.334-6.831-18.334-6.831s-14.11 2.278-18.334 6.831c-4.22 4.557-6.332 10.833-6.332 18.833zM213.333 800c-29.455 0-53.333-23.878-53.333-53.333v-597.333c0-29.457 23.878-53.333 53.333-53.333h597.333c29.457 0 53.333 23.876 53.333 53.333v298.667c0 17.673 14.327 32 32 32s32-14.327 32-32v-298.667c0-64.802-52.531-117.333-117.333-117.333h-597.333c-64.801 0-117.333 52.531-117.333 117.333v597.333c0 64.801 52.532 117.333 117.333 117.333h490.667c17.673 0 32-14.327 32-32s-14.327-32-32-32h-490.667zM947.443 798.109c-2.522 2.521-6.609 2.521-9.131 0l-165.956-165.955-3.042-12.175 12.173 3.043 165.956 165.955c2.522 2.522 2.522 6.609 0 9.131zM893.056 843.364c27.516 27.515 72.128 27.515 99.639 0 27.516-27.515 27.516-72.126 0-99.641l-172.22-172.222c-4.1-4.101-9.242-7.011-14.865-8.417l-72.516-18.129c-10.906-2.726-22.438 0.469-30.387 8.417s-11.145 19.484-8.418 30.388l18.129 72.515c1.408 5.626 4.314 10.765 8.418 14.866l172.22 172.222z" />
<glyph unicode="&#xe94f;" glyph-name="email" d="M512 757.333c-170.84 0-309.333-138.493-309.333-309.333 0-170.842 138.493-309.333 309.333-309.333 26.752 0 52.668 3.388 77.359 9.745 17.114 4.403 34.56-5.901 38.963-23.014 4.407-17.118-5.897-34.56-23.014-38.967-29.858-7.684-61.129-11.763-93.308-11.763-206.186 0-373.333 167.147-373.333 373.333s167.147 373.333 373.333 373.333c206.187 0 373.333-167.147 373.333-373.333 0-67.558-17.971-131.012-49.421-185.745-11.439-19.913-27.738-34.202-47.236-41.276-19.315-7.006-39.488-6.097-57.412 0.324-35.567 12.74-63.262 47.134-68.117 90.957l-12.284 110.882 63.607 7.049 12.288-110.882c2.334-21.069 14.98-33.775 26.091-37.756 5.419-1.941 10.167-1.801 14.003-0.41 3.657 1.327 8.747 4.604 13.568 12.996 26.022 45.286 40.913 97.788 40.913 153.86 0 170.84-138.492 309.333-309.333 309.333zM309.333 448c0 111.93 90.737 202.667 202.667 202.667 111.932 0 202.667-90.737 202.667-202.667 0-111.932-90.735-202.667-202.667-202.667-111.93 0-202.667 90.735-202.667 202.667zM512 586.667c-76.582 0-138.667-62.084-138.667-138.667s62.084-138.667 138.667-138.667c76.582 0 138.667 62.084 138.667 138.667s-62.084 138.667-138.667 138.667z" />
<glyph unicode="&#xe950;" glyph-name="enter" d="M928 789.333c0 64.801-52.531 117.333-117.333 117.333h-341.333c-64.801 0-117.333-52.532-117.333-117.333v-128c0-17.673 14.327-32 32-32s32 14.327 32 32v128c0 29.455 23.876 53.333 53.333 53.333h250.197l-120.73-45.274c-45.794-17.173-76.134-60.953-76.134-109.862v-548.864h-53.333c-29.457 0-53.333 23.876-53.333 53.333v64c0 17.673-14.327 32-32 32s-32-14.327-32-32v-64c0-64.802 52.532-117.333 117.333-117.333h56.439c15.62-66.684 87.526-108.19 155.426-82.726l170.667 64c45.794 17.173 76.134 60.954 76.134 109.862v623.531zM864 165.803c0-22.234-13.79-42.133-34.607-49.937l-170.667-64c-34.867-13.077-72.060 12.698-72.060 49.937v585.728c0 22.231 13.79 42.132 34.607 49.937l204.599 76.725c10.927 4.097 23.249 1.047 30.997-7.674 4.595-5.166 7.13-11.836 7.13-18.747v-621.969zM458.667 448.004c0 17.673-14.327 32-32 32h-341.333c-17.673 0-32-14.327-32-32s14.327-32 32-32h341.333c17.673 0 32 14.327 32 32zM449.293 425.374c12.497 12.497 12.497 32.755 0 45.252l-170.665 170.668c-12.497 12.497-32.758 12.497-45.255 0s-12.497-32.758 0-45.255l148.039-148.039-148.039-148.041c-12.497-12.497-12.497-32.755 0-45.252s32.758-12.497 45.255 0l170.665 170.667z" />
<glyph unicode="&#xe951;" glyph-name="errorregistration" d="M256 757.333c-29.455 0-53.333-23.878-53.333-53.333v-597.333c0-29.457 23.878-53.333 53.333-53.333h512c29.457 0 53.333 23.876 53.333 53.333v597.333c0 29.455-23.876 53.333-53.333 53.333h-42.667c-17.673 0-32 14.327-32 32s14.327 32 32 32h42.667c64.802 0 117.333-52.532 117.333-117.333v-597.333c0-64.802-52.531-117.333-117.333-117.333h-512c-64.801 0-117.333 52.531-117.333 117.333v597.333c0 64.801 52.532 117.333 117.333 117.333h42.667c17.673 0 32-14.327 32-32s-14.327-32-32-32h-42.667zM352 832c0 41.237 33.429 74.667 74.667 74.667h170.667c41.237 0 74.667-33.429 74.667-74.667v-42.667c0-41.237-33.429-74.667-74.667-74.667h-170.667c-41.237 0-74.667 33.429-74.667 74.667v42.667zM426.667 842.667c-5.891 0-10.667-4.776-10.667-10.667v-42.667c0-5.891 4.776-10.667 10.667-10.667h170.667c5.892 0 10.667 4.776 10.667 10.667v42.667c0 5.891-4.774 10.667-10.667 10.667h-170.667zM283.582 591.085c8.331 8.332 21.839 8.332 30.17 0l128.002-127.998c8.329-8.333 8.329-21.841 0-30.174-8.333-8.329-21.841-8.329-30.172 0l-128 128.002c-8.332 8.331-8.332 21.839 0 30.17zM441.754 591.085c-8.333 8.332-21.841 8.332-30.172 0l-128-127.998c-8.332-8.333-8.332-21.841 0-30.174 8.331-8.329 21.839-8.329 30.17 0l128.002 128.002c8.329 8.331 8.329 21.839 0 30.17zM490.667 576c0 11.782 9.553 21.333 21.333 21.333h213.333c11.78 0 21.333-9.551 21.333-21.333s-9.553-21.333-21.333-21.333h-213.333c-11.78 0-21.333 9.551-21.333 21.333zM490.667 448c0 11.78 9.553 21.333 21.333 21.333h213.333c11.78 0 21.333-9.553 21.333-21.333s-9.553-21.333-21.333-21.333h-213.333c-11.78 0-21.333 9.553-21.333 21.333zM277.333 320c0 11.78 9.551 21.333 21.333 21.333h426.667c11.78 0 21.333-9.553 21.333-21.333s-9.553-21.333-21.333-21.333h-426.667c-11.782 0-21.333 9.553-21.333 21.333zM277.333 192c0 11.78 9.551 21.333 21.333 21.333h426.667c11.78 0 21.333-9.553 21.333-21.333s-9.553-21.333-21.333-21.333h-426.667c-11.782 0-21.333 9.553-21.333 21.333z" />
<glyph unicode="&#xe952;" glyph-name="Event" d="M96 704c0 64.801 52.532 117.333 117.333 117.333h597.333c64.802 0 117.333-52.532 117.333-117.333v-597.333c0-64.802-52.531-117.333-117.333-117.333h-597.333c-64.801 0-117.333 52.531-117.333 117.333v597.333zM213.333 757.333c-29.455 0-53.333-23.878-53.333-53.333v-597.333c0-29.457 23.878-53.333 53.333-53.333h597.333c29.457 0 53.333 23.876 53.333 53.333v597.333c0 29.455-23.876 53.333-53.333 53.333h-597.333zM682.667 906.667c17.673 0 32-14.327 32-32v-170.667c0-17.673-14.327-32-32-32s-32 14.327-32 32v170.667c0 17.673 14.327 32 32 32zM341.333 906.667c17.673 0 32-14.327 32-32v-170.667c0-17.673-14.327-32-32-32s-32 14.327-32 32v170.667c0 17.673 14.327 32 32 32zM96 533.333c0 17.673 14.327 32 32 32h768c17.673 0 32-14.327 32-32s-14.327-32-32-32h-768c-17.673 0-32 14.327-32 32zM523.84 424.196c7.458-3.251 13.082-9.318 15.957-16.567l26.3-66.249 67.746-5.692c17.335-1.455 28.604-16.883 27.401-32.627-0.589-7.697-4.075-15.061-10.010-20.395l-52.314-46.95 16.051-70.502c3.499-15.377-5.346-32.162-22.025-36.331-7.983-1.993-16.341-0.563-23.172 3.81l-57.775 36.975-57.775-36.975c-14.665-9.387-33.433-4.117-41.796 10.227-3.942 6.763-5.117 14.754-3.401 22.293l16.050 70.502-52.311 46.95c-12.204 10.957-13.438 29.619-3.207 42.133 5.028 6.153 12.39 10.197 20.597 10.889l67.746 5.692 26.3 66.249c6.020 15.168 23.548 23.578 39.637 16.567zM512 362.018l-17.289-43.558c-4.079-10.27-13.623-17.95-25.327-18.931l-47.116-3.959 36.641-32.887c8.393-7.535 11.75-18.957 9.331-29.581l-10.867-47.735 38.626 24.717c9.775 6.255 22.225 6.255 32 0l38.626-24.717-10.867 47.735c-2.419 10.624 0.939 22.046 9.331 29.581l36.642 32.887-47.117 3.959c-11.703 0.981-21.248 8.661-25.327 18.931l-17.289 43.558z" />
</font>
</defs>
</svg>
