<?xml version="1.0" standalone="no"?>
<!DOCTYPE svg PUBLIC "-//W3C//DTD SVG 1.1//EN" "http://www.w3.org/Graphics/SVG/1.1/DTD/svg11.dtd" >
<svg>
<metadata>
Created by FontForge 20090914 at Fri Apr 17 15:08:58 2020
 By www-data
Copyright (c) Nikola Kovanovic, 2004. All rights reserved.
</metadata>
<defs>
<font id="NK_SLAVJ" horiz-adv-x="326" >
  <font-face 
    font-family="NK_SLAVJANICA"
    font-weight="400"
    font-stretch="normal"
    units-per-em="1000"
    panose-1="2 0 5 0 8 0 0 2 0 3"
    ascent="800"
    descent="-200"
    x-height="440"
    cap-height="700"
    bbox="-177 -532.984 1474 950.015"
    underline-thickness="50"
    underline-position="-75"
    unicode-range="U+0020-U+F7BF"
  />
<missing-glyph horiz-adv-x="500" 
d="M50 95l170 255l-170 255v-510zM420 50l-170 255l-170 -255h340zM450 95v510l-170 -255zM420 650h-340l170 -255zM0 700h500v-700h-500v700z" />
    <glyph glyph-name=".notdef" horiz-adv-x="500" 
d="M50 95l170 255l-170 255v-510zM420 50l-170 255l-170 -255h340zM450 95v510l-170 -255zM420 650h-340l170 -255zM0 700h500v-700h-500v700z" />
    <glyph glyph-name="uni0020" unicode=" " horiz-adv-x="351" 
 />
    <glyph glyph-name="exclam" unicode="!" horiz-adv-x="246" 
d="M43 704l78 8v-533l-78 -8v533zM1 -9l77 8l42 85l-78 -8z" />
    <glyph glyph-name="quotedbl" unicode="&#x22;" horiz-adv-x="392" 
d="M293 438l-75 -42v272l75 41v-271zM134 438l-75 -42v272l75 41v-271z" />
    <glyph glyph-name="numbersign" unicode="#" horiz-adv-x="502" 
d="M181 470l43 169l44 5l-44 -174h118l43 169l44 5l-46 -174h93l-31 -65l-80 1l-36 -142h91l-29 -63l-78 1l-47 -187l-43 -6l48 193h-118l-47 -187l-44 -6l49 193l-104 -1l30 63h90l37 142h-103l31 64h89zM206 406l-37 -142h119l36 142h-118z" />
    <glyph glyph-name="dollar" unicode="$" horiz-adv-x="502" 
d="M264 51c32 2.66699 59.332 13.3311 81.999 31.998s34 45 34 79c0 16 -2.83301 29.667 -8.5 41s-13.5 21.333 -23.5 30s-22.167 16.334 -36.5 23.001s-30.166 13.334 -47.499 20.001v-225zM228.999 594.997c-36.667 -4 -63.832 -15.834 -81.499 -35.501
s-26.5 -43.167 -26.5 -70.5c0 -15.333 2.5 -28.666 7.5 -39.999s12.167 -21.333 21.5 -30s20.666 -16.167 33.999 -22.5s28.333 -12.5 45 -18.5v217zM229.001 718.996l34.998 9.00488v-95c20.667 -1.33301 40.834 -5.33301 60.501 -12s35.167 -15 46.5 -25
c7.33301 5.33301 17.5 10.5 30.5 15.5l34.5 13.5l7 -5c-0.666992 -8 -2 -18.167 -4 -30.5s-4.33301 -25.333 -7 -39s-5.5 -27 -8.5 -40s-5.83301 -23.5 -8.5 -31.5l-16 -9l-8.5 17c-3.66699 7.33301 -7.16699 15.333 -10.5 24l-10 26.5c-3.33301 9 -6 16.833 -8 23.5
c-5.33301 5.33301 -16.5 12 -33.5 20s-38.5 12.667 -64.5 14v-228c24.667 -8 48.834 -16.5 72.501 -25.5s44.834 -20 63.501 -33s33.667 -29.333 45 -49s17 -43.834 17 -72.501c0 -33.333 -6.83301 -61 -20.5 -83s-30.667 -39.667 -51 -53s-42 -23 -65 -29
s-43.5 -9.66699 -61.5 -11v-97l-35 -10v105c-16 0.666992 -33.167 3 -51.5 7s-36.5 9 -54.5 15s-35.167 13.167 -51.5 21.5s-30.5 17.166 -42.5 26.499c0.666992 6 3 14 7 24l13 31.5c4.66699 11 9.5 21.5 14.5 31.5s9.16699 17.333 12.5 22l13 6
c2.66699 -7.33301 6 -19.5 10 -36.5l19 -84.5c5.33301 -4 18.166 -8.83301 38.499 -14.5s44.5 -8.83398 72.5 -9.50098v237c-23.333 7.33301 -45.833 15.666 -67.5 24.999s-41 20.833 -58 34.5s-30.667 30.167 -41 49.5s-15.5 43 -15.5 71c0 22 4.16699 42.833 12.5 62.5
s20.166 37 35.499 52s34.333 27.167 57 36.5s48.334 14.666 77.001 15.999v86z" />
    <glyph glyph-name="percent" unicode="%" horiz-adv-x="698" 
d="M514 308c-14 0 -25.8311 -4.49707 -35.498 -13.4971s-17.334 -20.5 -23.001 -34.5s-9.66699 -29.667 -12 -47s-3.5 -34.333 -3.5 -51c0 -14 1.16699 -29.333 3.5 -46s6.5 -32.167 12.5 -46.5s14 -26.333 24 -36s22.333 -14.5 37 -14.5c13.333 0 24.5 4.66699 33.5 14
s16.167 21.166 21.5 35.499s9.16602 29.833 11.499 46.5s3.5 32.667 3.5 48c0 11.333 -0.833008 25.166 -2.5 41.499s-5 32.166 -10 47.499s-12.333 28.5 -22 39.5s-22.167 16.5 -37.5 16.5h-1zM516.002 340.003c23.333 0 43.834 -4.99707 61.501 -14.9971
s32.5 -23.167 44.5 -39.5s21 -34.833 27 -55.5s9 -41.667 9 -63c0 -27.333 -3.83301 -52 -11.5 -74s-18 -40.833 -31 -56.5s-28.333 -27.667 -46 -36s-36.834 -12.5 -57.501 -12.5c-19.333 0 -37.666 3.66699 -54.999 11s-32.5 18.166 -45.5 32.499
s-23.333 32.166 -31 53.499s-11.5 46 -11.5 74c0 30 4.33301 56.167 13 78.5s20 41.166 34 56.499s29.667 26.833 47 34.5s34.666 11.5 51.999 11.5h1zM571.003 639.006l-209 -339l-209 -340l-31 29l209.5 339l207.5 338zM185.003 621.006
c-14.667 0 -26.668 -4.66699 -36.001 -14s-16.833 -21.166 -22.5 -35.499s-9.66699 -30.166 -12 -47.499s-3.5 -33.666 -3.5 -48.999c0 -14.667 1.16699 -30.334 3.5 -47.001s6.5 -32.167 12.5 -46.5s13.833 -26.166 23.5 -35.499s21.834 -14 36.501 -14
c13.333 0 24.5 4.66699 33.5 14s16.333 21.166 22 35.499s9.66699 30 12 47s3.5 32.833 3.5 47.5c0 11.333 -0.833008 25.166 -2.5 41.499s-5 32.166 -10 47.499s-12.167 28.5 -21.5 39.5s-22 16.5 -38 16.5h-1zM186.002 653.006c24 0 44.833 -4.99805 62.5 -14.998
s32.5 -23 44.5 -39s21 -34.333 27 -55s9 -41.667 9 -63c0 -27.333 -3.83301 -52.166 -11.5 -74.499s-18 -41.333 -31 -57s-28.333 -27.667 -46 -36s-36.834 -12.5 -57.501 -12.5c-19.333 0 -37.666 3.66699 -54.999 11s-32.5 18.166 -45.5 32.499s-23.333 32.166 -31 53.499
s-11.5 46 -11.5 74c0 30 4.33301 56.167 13 78.5s20 41.166 34 56.499s29.667 26.833 47 34.5s34.333 11.5 51 11.5h1z" />
    <glyph glyph-name="ampersand" unicode="&#x26;" horiz-adv-x="737" 
d="M253 382c32.667 22 58.167 44.834 76.5 68.501s27.5 49.167 27.5 76.5c0 25.333 -6.83301 46.666 -20.5 63.999s-32.167 26 -55.5 26h-1c-12.667 0 -24.167 -2.83301 -34.5 -8.5s-19.333 -13.167 -27 -22.5s-13.5 -20.166 -17.5 -32.499s-6 -25.5 -6 -39.5
c0 -24.667 5.33301 -47.834 16 -69.501s23.667 -42.167 39 -61.5zM702 -1.99902c-20 -8 -45.3301 -11.9912 -75.9971 -11.9912c-32 0 -62.333 8 -91 24s-61.334 39 -98.001 69c-32 -34.667 -64.667 -58.834 -98 -72.501s-62.666 -20.5 -87.999 -20.5
c-26.667 0 -52.667 4 -78 12s-48 20 -68 36s-36 35.833 -48 59.5s-18 51.167 -18 82.5c0 22.667 5 43.167 15 61.5s24.333 35.166 43 50.499l44 35.5c13.333 10.333 25.666 19.166 36.999 26.499c-17.333 23.333 -30.5 46.666 -39.5 69.999s-13.5 47.666 -13.5 72.999
c0 20.667 4 40.5 12 59.5s19 36 33 51s30.667 27 50 36s40.666 13.5 63.999 13.5h1c22.667 0 42.667 -3.5 60 -10.5s32 -16.333 44 -28s21.333 -25.334 28 -41.001s10 -32.167 10 -49.5c0 -22 -5.33301 -41 -16 -57s-24.334 -30.667 -41.001 -44
c-16.667 -12.667 -33.167 -24.334 -49.5 -35.001l-47.5 -32c12.667 -15.333 28 -32.333 46 -51l55 -55l53.5 -49.5c17 -15 30.5 -26.5 40.5 -34.5c12 16 23.333 33.167 34 51.5s20 36 28 53s14.667 32.667 20 47s9 25.833 11 34.5l-15 64l4 5
c9.33301 0 20.5 -1.16699 33.5 -3.5s26 -5.33301 39 -9s25.167 -7.83398 36.5 -12.501s20 -9 26 -13l-2 -7l-62 -43l-32 -53l-33.5 -52.5l-32 -47.5l-27.5 -38l43.5 -33c17 -12.667 35 -25 54 -37s38.5 -22.833 58.5 -32.5s39 -16.834 57 -21.501zM195.003 322.01
c-20.667 -17.333 -37.1699 -34.833 -49.5029 -52.5s-18.5 -40.5 -18.5 -68.5c0 -22.667 4.33301 -43.334 13 -62.001s20.334 -34.667 35.001 -48s31.5 -23.666 50.5 -30.999s39.167 -11 60.5 -11c20 0 40.333 3.5 61 10.5s41.334 21.167 62.001 42.5v2l-45 41l-58.5 57
l-59.5 62.5c-19.333 21 -35.666 40.167 -48.999 57.5h-2z" />
    <glyph glyph-name="quotesingle" unicode="'" horiz-adv-x="232" 
d="M134 438l-75 -42v272l75 41v-271z" />
    <glyph glyph-name="parenleft" unicode="(" 
d="M70 273c0 40 3.66699 80.998 11 122.998s19.166 82.833 35.499 122.5s37.333 77 63 112s56.5 66.167 92.5 93.5l19 -22c-16 -17.333 -32.667 -38.833 -50 -64.5s-33 -56.167 -47 -91.5s-25.5 -75.833 -34.5 -121.5s-13.5 -96.5 -13.5 -152.5s4.5 -106.5 13.5 -151.5
s20.5 -85.333 34.5 -121s29.667 -66.5 47 -92.5s34 -47.667 50 -65l-19 -22c-36 26.667 -66.833 57.834 -92.5 93.501s-46.667 73.334 -63 113.001s-28.166 80.5 -35.499 122.5s-11 83 -11 123v1z" />
    <glyph glyph-name="parenright" unicode=")" 
d="M256 272c0 -40 -3.83301 -81 -11.5 -123s-19.667 -82.833 -36 -122.5s-37.333 -77.167 -63 -112.5s-56.5 -66.666 -92.5 -93.999l-19 22c16.667 17.333 33.667 39 51 65s33 56.833 47 92.5s25.5 76.167 34.5 121.5s13.5 96 13.5 152s-4.5 106.667 -13.5 152
s-20.5 85.666 -34.5 120.999s-29.667 65.833 -47 91.5s-34.333 47.167 -51 64.5l19 21c36 -27.333 66.833 -58.5 92.5 -93.5s46.667 -72.167 63 -111.5s28.333 -80 36 -122s11.5 -83 11.5 -123v-1z" />
    <glyph glyph-name="asterisk" unicode="*" horiz-adv-x="366" 
d="M181 484l12.9971 -105.002l7 -25c-4 -1.33301 -10.167 -1.66602 -18.5 -0.999023s-17.166 1.83398 -26.499 3.50098s-18.166 4 -26.499 7s-14.166 6.5 -17.499 10.5l16 17l45 88zM182.997 523.998l-11 106l-5 20c4 1.33301 10.333 2 19 2s17.667 -0.833008 27 -2.5
s17.833 -3.66699 25.5 -6s12.167 -4.83301 13.5 -7.5l-13 -16l-46 -94zM198.997 514.998l81 61.001l15 16c4.66699 -4 9 -9.83301 13 -17.5s7.33301 -15.834 10 -24.501s4.66699 -17.167 6 -25.5s1.33301 -14.5 0 -18.5l-22 5l-105 -8zM160.997 491.999l-82 -60.002l-14 -17
c-4 2 -7.83301 6.66699 -11.5 14s-7 15.333 -10 24s-5 17.334 -6 26.001s-0.5 15.334 1.5 20.001l19 -4l106 8zM160.997 515.997l-88.001 38.001l-23 4c0.666992 5.33301 2.83398 11.666 6.50098 18.999s8.16699 14.5 13.5 21.5s10.833 13.167 16.5 18.5
s11.167 8.33301 16.5 9l9 -20l61 -86zM197.996 491.998l90 -41l21 -4c-0.666992 -6 -3 -12.5 -7 -19.5s-8.83301 -13.833 -14.5 -20.5s-11.5 -12.5 -17.5 -17.5s-11.667 -7.83301 -17 -8.5l-8 21l-54 86z" />
    <glyph glyph-name="plus" unicode="+" horiz-adv-x="685" 
d="M367 35l-75 -46v244h-228l46 75h182v199l75 45v-244h224l-45 -75h-179v-198z" />
    <glyph glyph-name="comma" unicode="," horiz-adv-x="301" 
d="M110 -114l-86 -14l93 253l85 14z" />
    <glyph glyph-name="hyphen" unicode="-" horiz-adv-x="434" 
d="M358 283l-45 -75h-270l46 75h269z" />
    <glyph glyph-name="period" unicode="." horiz-adv-x="312" 
d="M172 9l-121 -20l42 114l120 20z" />
    <glyph glyph-name="slash" unicode="/" horiz-adv-x="365" 
d="M48 -56l225 733h52l-225 -733h-52z" />
    <glyph glyph-name="zero" unicode="0" horiz-adv-x="802" 
d="M681 352c-0.666992 -59.333 -11.001 -111.328 -31.001 -155.995s-46 -82.334 -78 -113.001s-68.5 -54 -109.5 -70s-82.667 -24.333 -125 -25s-83.666 6.16602 -123.999 20.499s-76.333 36.666 -108 66.999s-57.167 68.5 -76.5 114.5s-29 100.333 -29 163
c-0 58 9.83301 109.167 29.5 153.5s45.667 81.666 78 111.999s69 53.5 110 69.5s82.833 24.333 125.5 25s84.5 -6 125.5 -20s77.333 -35.833 109 -65.5s57 -67.334 76 -113.001s28.167 -99.5 27.5 -161.5v-1zM556.999 414.005c-14 49.333 -32.332 90.832 -54.999 124.499
s-47.667 60.334 -75 80.001s-55.833 32.5 -85.5 38.5s-58 5.5 -85 -1.5s-51.833 -20 -74.5 -39s-40.667 -43.833 -54 -74.5s-21.166 -66.667 -23.499 -108s3.5 -87.666 17.5 -138.999c12.667 -48 30.167 -88.833 52.5 -122.5s47.166 -60.5 74.499 -80.5
s55.666 -33.167 84.999 -39.5s57.833 -6.33301 85.5 0s53 18.833 76 37.5s41.333 43.167 55 73.5s21.667 66.166 24 107.499s-3.16699 88 -16.5 140z" />
    <glyph glyph-name="one" unicode="1" horiz-adv-x="230" 
d="M105 713v-713l-105 -11v711z" />
    <glyph glyph-name="two" unicode="2" horiz-adv-x="700" 
d="M172 111c-11.333 -10.667 -17.002 -21.333 -17.002 -32c0 -9.33301 3 -17.833 9 -25.5s13.667 -11.167 23 -10.5l389 30v-45l-490 -33c-15.333 -0.666992 -28.333 1 -39 5s-19.334 9.5 -26.001 16.5s-11.5 14.833 -14.5 23.5s-4.5 17.667 -4.5 27c0 20 8.33301 38 25 54
c34.667 32 69 61.833 103 89.5s68.833 54 104.5 79s72.834 49.167 111.501 72.5s80.334 47 125.001 71v223h-305l51 -137l-107 -18l-72 199h538v-328c-32.667 -16.667 -67.667 -35.667 -105 -57s-74.166 -43.5 -110.499 -66.5s-70.833 -46.333 -103.5 -70
s-61 -46.167 -85 -67.5z" />
    <glyph glyph-name="three" unicode="3" horiz-adv-x="585" 
d="M104 194c0.666992 -4 1.16992 -8.16406 1.50293 -12.4971s1.16602 -8.83301 2.49902 -13.5c6.66699 -36.667 18.667 -65.5 36 -86.5s36.666 -35.333 57.999 -43s43 -9 65 -4s40.833 15.5 56.5 31.5s26.667 37.333 33 64s4.5 57.667 -5.5 93
c-5.33301 19.333 -13 36.166 -23 50.499s-21.167 26.166 -33.5 35.499s-25.5 16.333 -39.5 21s-28 7 -42 7c-21.333 -0.666992 -43.333 1 -66 5l30 58c21.333 4.66699 43 6.5 65 5.5s43.333 -4.16699 64 -9.5c17.333 13.333 31 30.833 41 52.5s13.333 47.5 10 77.5
c-3.33301 32 -11.833 58.5 -25.5 79.5s-30 36.667 -49 47s-38.833 15.166 -59.5 14.499s-39.667 -6.5 -57 -17.5s-31.5 -27.167 -42.5 -48.5s-16.167 -48 -15.5 -80l-109 -19v11c0 39.333 11.333 73.5 34 102.5s51.167 51.833 85.5 68.5s71.5 26.334 111.5 29.001
s77.167 -2.66602 111.5 -15.999s62.833 -35 85.5 -65s34 -69.333 34 -118c0 -30 -9.5 -56.833 -28.5 -80.5s-43.5 -43.167 -73.5 -58.5c29.333 -16 53.333 -38.5 72 -67.5s28.667 -64.5 30 -106.5c0 -43.333 -10.667 -80.333 -32 -111s-48.333 -54.334 -81 -71.001
s-68.334 -26.334 -107.001 -29.001s-75.167 2.33301 -109.5 15s-63.833 33 -88.5 61s-39 64.333 -43 109z" />
    <glyph glyph-name="four" unicode="4" horiz-adv-x="659" 
d="M534 713l-0.000976562 -713.002l-105 -11v230l-356 -28c-17.333 -1.33301 -33 4.16699 -47 16.5s-22.333 27.5 -25 45.5c-3.33301 20.667 2.33398 39.667 17.001 57c30 36.667 60.5 71.834 91.5 105.501s63.167 66.334 96.5 98.001s68.5 62.5 105.5 92.5
s76.167 60 117.5 90zM428.999 567.998c-29.333 -22 -56.332 -43.502 -80.999 -64.502s-48 -42 -70 -63l-64 -64c-20.667 -21.667 -41.334 -44.5 -62.001 -68.5c-10 -11.333 -14 -22.666 -12 -33.999c1.33301 -9.33301 5.5 -17.166 12.5 -23.499s15.167 -8.83301 24.5 -7.5
l252 21v304z" />
    <glyph glyph-name="five" unicode="5" horiz-adv-x="700" 
d="M353 500l57.9961 156h-305v-192c44.667 -24 86.334 -47.667 125.001 -71s75.834 -47.5 111.501 -72.5s70.334 -51.333 104.001 -79l103.5 -89.5c16.667 -16 25 -34 25 -54c0 -18 -6 -34.167 -18 -48.5s-26.667 -22.166 -44 -23.499l-512 -37v45l402 28
c9.33301 0.666992 17 4.5 23 11.5s9 15.167 9 24.5c0 10.667 -5.66699 21.334 -17 32.001c-23.333 22 -51.666 45.333 -84.999 70s-68.833 49.167 -106.5 73.5s-76 47.666 -115 69.999s-75.833 42.166 -110.5 59.499v297h538l-65 -180z" />
    <glyph glyph-name="six" unicode="6" horiz-adv-x="640" 
d="M105 223c4.66699 -46.667 16.167 -85.332 34.5 -115.999s39.666 -53.167 63.999 -67.5s49.666 -20.5 75.999 -18.5s50 12 71 30s37.333 44 49 78s14.834 76 9.50098 126c-5.33301 46.667 -17.166 85.5 -35.499 116.5s-39.666 53.833 -63.999 68.5
s-49.666 21.167 -75.999 19.5s-49.833 -11.5 -70.5 -29.5s-36.834 -44.333 -48.501 -79s-14.834 -77.334 -9.50098 -128.001zM516 213.002c-4.66699 -42 -15.502 -77.8311 -32.502 -107.498s-38.167 -53.5 -63.5 -71.5s-53.166 -30.667 -83.499 -38
s-61.166 -9.5 -92.499 -6.5s-61.666 10.833 -90.999 23.5s-55.333 29.667 -78 51s-40.834 46.666 -54.501 75.999s-20.5 62.666 -20.5 99.999v460l105 13v-259c26.667 18 56 30.333 88 37s63.833 7.83398 95.5 3.50098s62.167 -13.833 91.5 -28.5s54.833 -34 76.5 -58
s38 -52.333 49 -85s14.5 -69.334 10.5 -110.001z" />
    <glyph glyph-name="seven" unicode="7" horiz-adv-x="663" 
d="M433 656h-305l52 -139l-108 -17l-72 200h538v-690l-105 -21v667z" />
    <glyph glyph-name="eight" unicode="8" horiz-adv-x="588" 
d="M276 342c-14 9.33301 -28.333 15.666 -43 18.999s-29.667 3 -45 -1c13.333 -9.33301 27.5 -15.666 42.5 -18.999s30.167 -3 45.5 1zM111 164c6 -22.667 14.833 -43.167 26.5 -61.5s25 -33.5 40 -45.5s31 -20.333 48 -25s33.833 -4.66699 50.5 0s31.167 13.167 43.5 25.5
s22 27.5 29 45.5s11 37.667 12 59s-1.5 43.333 -7.5 66c-8.66699 31.333 -23 59 -43 83c-24 -8 -50 -12 -78 -12c-35.333 0 -69 6.66699 -101 20c-13.333 -19.333 -22 -42.5 -26 -69.5s-2 -55.5 6 -85.5zM111 474c8.66699 -32 22.667 -59.665 42 -82.998
c24.667 8 51 12 79 12c18 0 35.333 -1.83301 52 -5.5s32.667 -8.83398 48 -15.501c13.333 19.333 22 42.666 26 69.999s2.33301 56 -5 86c-6 22.667 -14.833 43.167 -26.5 61.5s-25 33.5 -40 45.5s-31 20.333 -48 25s-33.833 4.66699 -50.5 0s-31.167 -13.167 -43.5 -25.5
s-22 -27.5 -29 -45.5s-11 -37.667 -12 -59s1.5 -43.333 7.5 -66zM0 506.002c0 28.667 6 55.5 18 80.5s28.5 46.833 49.5 65.5s45.667 33.5 74 44.5s58.5 16.5 90.5 16.5s62 -5.5 90 -16.5s52.5 -25.833 73.5 -44.5s37.667 -40.5 50 -65.5s18.5 -51.833 18.5 -80.5
c0 -31.333 -7.16699 -60.166 -21.5 -86.499s-33.5 -49.166 -57.5 -68.499c24 -19.333 43.167 -42.333 57.5 -69s21.5 -55.334 21.5 -86.001c0 -28.667 -6.16699 -55.5 -18.5 -80.5s-29 -46.833 -50 -65.5s-45.5 -33.5 -73.5 -44.5s-58 -16.5 -90 -16.5
s-62.167 5.5 -90.5 16.5s-53 25.833 -74 44.5s-37.5 40.5 -49.5 65.5s-18 51.833 -18 80.5c0 30.667 7 59.334 21 86.001s33 49.667 57 69c-24 19.333 -43 42.166 -57 68.499s-21 55.166 -21 86.499z" />
    <glyph glyph-name="nine" unicode="9" horiz-adv-x="640" 
d="M411 477c-4.66699 46.667 -16.167 85.334 -34.5 116.001s-39.666 53.167 -63.999 67.5s-49.666 20.5 -75.999 18.5s-50 -12 -71 -30s-37.333 -44 -49 -78s-14.834 -76 -9.50098 -126c5.33301 -46.667 17.166 -85.5 35.499 -116.5s39.666 -53.833 63.999 -68.5
s49.666 -21.167 75.999 -19.5s49.833 11.5 70.5 29.5s36.834 44.167 48.501 78.5s14.834 77.166 9.50098 128.499zM0 487c4.66699 42 15.501 77.834 32.501 107.501s38.167 53.5 63.5 71.5s53.166 30.667 83.499 38s61.166 9.5 92.499 6.5s61.666 -10.833 90.999 -23.5
s55.333 -29.667 78 -51s40.834 -46.833 54.501 -76.5s20.5 -62.834 20.5 -99.501v-460l-105 -13v259c-26.667 -18 -56 -30.333 -88 -37s-63.833 -7.83398 -95.5 -3.50098s-62.167 13.833 -91.5 28.5s-54.833 34 -76.5 58s-38.167 52.333 -49.5 85
s-14.666 69.334 -9.99902 110.001z" />
    <glyph glyph-name="colon" unicode=":" horiz-adv-x="313" 
d="M172 312l-121 -20l42 114l120 20zM172 9l-121 -20l42 114l120 20z" />
    <glyph glyph-name="semicolon" unicode=";" horiz-adv-x="313" 
d="M121 -114l-86 -14l93 253l85 14zM172 312l-121 -20l42 114l120 20z" />
    <glyph glyph-name="less" unicode="&#x3c;" horiz-adv-x="547" 
d="M78 252l403 208l-9 -62l-350 -178v-2l359 -181l-9 -57l-406 211z" />
    <glyph glyph-name="equal" unicode="=" horiz-adv-x="635" 
d="M554 450l-45 -75h-440l46 75h439zM554 248l-45 -75h-440l46 75h439z" />
    <glyph glyph-name="greater" unicode="&#x3e;" horiz-adv-x="547" 
d="M469 192l-402 -210l9 61l345 179v3l-354 178l9 57l405 -208z" />
    <glyph glyph-name="question" unicode="?" horiz-adv-x="488" 
d="M194 9l-101 -20l35 114l101 20zM363 443c-41.333 -29.333 -81.332 -60 -119.999 -92s-71.667 -62 -99 -90c-9.33301 -10 -14 -20.667 -14 -32c0 -9.33301 2.5 -17.833 7.5 -25.5s11.5 -11.167 19.5 -10.5l165 17v-41l-250 -24c-12.667 -0.666992 -23.5 1 -32.5 5
s-16.167 9.5 -21.5 16.5s-9.33301 14.833 -12 23.5s-4 17.667 -4 27c0 20 7 38 21 54c42 45.333 83.167 86.5 123.5 123.5s83.166 72.5 128.499 106.5v155h-136l43 -138l-90 -18l-60 200h331v-257z" />
    <glyph glyph-name="at" unicode="@" horiz-adv-x="963" 
d="M550 147l-96 205.999l-99 -223c-4 -11.333 -4.66699 -21.666 -2 -30.999s7.5 -16.833 14.5 -22.5s15.333 -9.16699 25 -10.5s19.5 1 29.5 7zM673 67.999c11.333 12.667 20.332 26.6729 26.999 42.0059s11.834 31.666 15.501 48.999s6 35.333 7 54s1.5 37.667 1.5 57
c0 46 -8.16699 87.5 -24.5 124.5s-38 68.167 -65 93.5s-57.667 44.833 -92 58.5s-69.5 20.5 -105.5 20.5c-34.667 0 -68.667 -7.5 -102 -22.5s-63 -37.167 -89 -66.5s-46.833 -66.333 -62.5 -111s-23.5 -96.334 -23.5 -155.001c0 -44 6.66699 -86.833 20 -128.5
s32.666 -78.667 57.999 -111s56 -58.333 92 -78s77 -29.5 123 -29.5c22 0 43.833 3.5 65.5 10.5s42.167 16.5 61.5 28.5l26 -53c-44.667 -18 -95 -27.667 -151 -29c-63.333 -0.666992 -120.333 9.16602 -171 29.499s-93.667 48.333 -129 84s-62.5 77.167 -81.5 124.5
s-28.5 98 -28.5 152c0 66 11.833 124 35.5 174s54.667 91.833 93 125.5s82 59 131 76s98.833 25.5 149.5 25.5c52.667 0 102.5 -8.66699 149.5 -26s87.833 -41.166 122.5 -71.499s62.167 -66.5 82.5 -108.5s30.5 -87.667 30.5 -137c0 -62 -12.167 -114.833 -36.5 -158.5
s-56.833 -80.834 -97.5 -111.501l-83 -9l-58 126l-196 -113c-14.667 -8.66699 -28.167 -12.834 -40.5 -12.501s-22.166 4.16602 -29.499 11.499s-11.333 17.666 -12 30.999s3 28.333 11 45l139 314l-62 132l83 10z" />
    <glyph glyph-name="A" unicode="A" horiz-adv-x="710" 
d="M329 539l-31 -83l-25 -65l-20.5 -54c-6.33301 -16.667 -12.166 -33 -17.499 -49c6.66699 0 18.5 -0.166992 35.5 -0.5s35.167 -0.833008 54.5 -1.5s38.166 -1.16699 56.499 -1.5s32.833 -0.5 43.5 -0.5l-51.5 138l-42.5 117h-2zM372 682l6.00098 -5.00293
c-0.666992 -8 0 -17.167 2 -27.5s6 -24.166 12 -41.499c3.33301 -10 11.666 -32 24.999 -66l48.5 -124l64 -161.5l71.5 -178.5c4.66699 -6 9.5 -11.333 14.5 -16s11 -9 18 -13s16 -8.16699 27 -12.5s24.833 -9.16602 41.5 -14.499l-7 -23
c-18.667 0 -38.167 0.166992 -58.5 0.5s-40.166 0.5 -59.499 0.5c-17.333 0 -34.5 -0.166992 -51.5 -0.5s-35.167 -0.5 -54.5 -0.5l6 21l37 29c-4 13.333 -12.667 36.666 -26 69.999l-49 123c-10 -0.666992 -21 -1.5 -33 -2.5s-26.333 -1.66699 -43 -2
s-36.834 -0.666016 -60.501 -0.999023s-52.5 -0.166016 -86.5 0.500977l-24 -62l-18 -46.5c-5.33301 -13.667 -10 -26.167 -14 -37.5l-12 -35l88 -34l-6 -23c-17.333 0 -36.5 0.166992 -57.5 0.5s-41.167 0.5 -60.5 0.5c-17.333 -0 -34.5 -0.166992 -51.5 -0.5
s-34.167 -0.5 -51.5 -0.5l6 24l70 33c7.33301 14.667 19 40.167 35 76.5l55 127l65 155l64 160.5c4.66699 12 5.66699 22.333 3 31l-10 27z" />
    <glyph glyph-name="B" unicode="B" horiz-adv-x="603" 
d="M461 193c0 18 -3 35.5039 -9 52.5039s-17.833 32 -35.5 45s-42.834 23.333 -75.501 31s-75.667 11.167 -129 10.5v-28c0 -20.667 -0.166992 -42.834 -0.5 -66.501s-0.5 -47.5 -0.5 -71.5s0.333008 -47.333 1 -70s1.66699 -43.334 3 -62.001c32.667 0 60.5 1.33301 83.5 4
s42.833 6.5 59.5 11.5s30.334 11 41.001 18s20 14.833 28 23.5c13.333 15.333 22.333 31.666 27 48.999s7 34.666 7 51.999v1zM212 367.004c28 0.666992 54.9971 3 80.9971 7s48.833 11.167 68.5 21.5s35.334 24.5 47.001 42.5s17.5 41 17.5 69c0 23.333 -4.5 43 -13.5 59
s-22.167 28.667 -39.5 38c-15.333 8 -33.166 13.833 -53.499 17.5s-46.166 5.5 -77.499 5.5h-30v-260zM46.9971 652.004c11.333 0.666992 26.6689 1.83203 46.002 3.49902s40 3.16699 62 4.5s43.667 2.5 65 3.5s40 1.5 56 1.5c78 0 138.5 -11.667 181.5 -35
s64.5 -62 64.5 -116c0 -24.667 -5 -46 -15 -64s-23 -33.167 -39 -45.5s-33.833 -22.166 -53.5 -29.499s-38.834 -12.333 -57.501 -15v-7c73.333 -7.33301 126.333 -25 159 -53s49 -64 49 -108c0 -43.333 -11 -77.833 -33 -103.5s-49.5 -45.167 -82.5 -58.5
s-69.167 -22.166 -108.5 -26.499s-76 -6.5 -110 -6.5s-66.667 0.166992 -98 0.5s-63 1.16602 -95 2.49902l7 24l72 29c1.33301 7.33301 2.66602 31 3.99902 71s2 94.333 2 163v322l-84 20z" />
    <glyph glyph-name="C" unicode="C" horiz-adv-x="687" 
d="M423 677c32 0 61.498 -3.49902 88.498 -10.499s49.5 -16.167 67.5 -27.5c12 7.33301 24.833 13.333 38.5 18s26.167 8.33398 37.5 11.001l6 -4c-1.33301 -10 -3.5 -23 -6.5 -39s-6.5 -32.333 -10.5 -49s-8.16699 -31.834 -12.5 -45.501s-7.83301 -22.834 -10.5 -27.501
l-18 -10c-2 4.66699 -4.66699 11.5 -8 20.5s-6.66602 18.667 -9.99902 29s-6.33301 21 -9 32l-7 29.5c-11.333 7.33301 -28.833 14.166 -52.5 20.499s-48.167 9.5 -73.5 9.5c-47.333 0 -89.333 -7.66699 -126 -23s-67.834 -36.666 -93.501 -63.999
s-45.167 -59.666 -58.5 -96.999s-20 -77.666 -20 -120.999c0 -42.667 7 -82.334 21 -119.001s34.333 -68.5 61 -95.5s59.167 -48.167 97.5 -63.5s81.5 -23 129.5 -23c16.667 0 30 0.666992 40 2s18.667 3.33301 26 6l32.5 33.5c11 11.667 21.833 22.5 32.5 32.5l29.5 27.5
c9 8.33301 16.5 14.833 22.5 19.5l23 -5c-2 -8 -6 -18.833 -12 -32.5s-12.667 -27.334 -20 -41.001s-14.333 -26 -21 -37s-11.667 -17.833 -15 -20.5c-9.33301 -4 -21 -8 -35 -12s-29 -7.5 -45 -10.5s-32 -5.33301 -48 -7s-31 -2.5 -45 -2.5
c-46.667 0 -92.5 6.66699 -137.5 20s-85.167 34 -120.5 62s-63.833 63.5 -85.5 106.5s-32.5 94.5 -32.5 154.5c0 59.333 11.667 111 35 155s53.333 80.667 90 110s77.334 51.333 122.001 66s88.334 22 131.001 22h2z" />
    <glyph glyph-name="D" unicode="D" horiz-adv-x="735" 
d="M212 343l0.000976562 -116.998c0 -36 0.166992 -67.667 0.5 -95s0.666016 -49.666 0.999023 -66.999s1.16602 -27.333 2.49902 -30c57.333 0 109.833 5.5 157.5 16.5s87.834 31.167 120.501 60.5c28.667 25.333 51.5 56.5 68.5 93.5s25.5 82.167 25.5 135.5
c0 43.333 -6.83301 83.166 -20.5 119.499s-37.5 68.5 -71.5 96.5c-33.333 27.333 -73 46.166 -119 56.499s-101 15.166 -165 14.499v-284zM43.001 652.002c5.33301 0.666992 14.9971 1.66602 28.9971 2.99902s31.333 2.66602 52 3.99902s43.667 2.66602 69 3.99902
s52.333 2 81 2c62.667 0 119.667 -6.33301 171 -19s95.333 -32.167 132 -58.5s64.834 -59.666 84.501 -99.999s29.5 -88.166 29.5 -143.499c0 -49.333 -7.16699 -91.666 -21.5 -126.999s-32.333 -65.333 -54 -90s-45.167 -44.334 -70.5 -59.001s-49 -26 -71 -34
c-40 -15.333 -82.167 -25.333 -126.5 -30s-92.166 -7 -143.499 -7c-38 0 -71.167 0.333008 -99.5 1s-53.166 1.33398 -74.499 2.00098l8 24l79 26c2 6.66699 3.5 36 4.5 88s1.5 120.333 1.5 205v269l-87 18z" />
    <glyph glyph-name="E" unicode="E" horiz-adv-x="565" 
d="M43 660c20.667 0 41.3389 -0.165039 62.0059 -0.498047s41 -0.5 61 -0.5h248c2.66699 0.666992 7.66699 1.66699 15 3s15.166 2.5 23.499 3.5l25 3c8.33301 1 14.833 1.5 19.5 1.5l3 -3c-0.666992 -6.66699 -2 -16.5 -4 -29.5s-4.33301 -26.833 -7 -41.5l-8 -42
c-2.66699 -13.333 -5 -24 -7 -32l-16 -9c-2.66699 6 -6 14 -10 24l-12.5 31l-12 30.5l-8.5 22.5l-203 -8v-250c46.667 0 92.834 1.16699 138.501 3.5s84.167 5.16602 115.5 8.49902l4 -9c-1.33301 -2 -4.5 -6.16699 -9.5 -12.5s-10.833 -12.833 -17.5 -19.5
s-13.167 -12.667 -19.5 -18s-10.833 -8 -13.5 -8s-8.83398 0.333008 -18.501 1s-21 1.33398 -34 2.00098s-27 1.5 -42 2.5s-29.333 1.83301 -43 2.5s-26 1.33398 -37 2.00098s-18.833 1 -23.5 1v-59c0 -22.667 0.166992 -46.334 0.5 -71.001l1 -74
c0.333008 -24.667 1.16602 -47.334 2.49902 -68.001l212 -8c5.33301 6.66699 11.833 15.5 19.5 26.5l23.5 33.5l23.5 32.5c7.66699 10.333 14.5 18.833 20.5 25.5l20 1c-0.666992 -8 -2.33398 -19.333 -5.00098 -34s-5.83398 -30 -9.50098 -46l-11 -46.5
c-3.66699 -15 -6.83398 -26.5 -9.50098 -34.5c-32.667 1.33301 -63.667 2.16602 -93 2.49902s-58.666 0.5 -87.999 0.5h-158c-22.667 -0 -45.834 -0.166992 -69.501 -0.5s-46.167 -0.5 -67.5 -0.5l8 24l85 29c1.33301 6 2.66602 35 3.99902 87s2 120 2 204v266l-87 28z" />
    <glyph glyph-name="F" unicode="F" horiz-adv-x="531" 
d="M49 660c18 0 36.5059 -0.164062 55.5059 -0.49707s37.833 -0.5 56.5 -0.5h253c2.66699 0.666992 7.66699 1.66699 15 3s15.166 2.66602 23.499 3.99902s16.5 2.5 24.5 3.5s14 1.5 18 1.5l3 -3c0 -5.33301 -1 -14.666 -3 -27.999l-6.5 -43.5
c-2.33301 -15.667 -4.83301 -30.834 -7.5 -45.501s-4.66699 -25.334 -6 -32.001l-18 -10c-8.66699 20 -16.334 39.167 -23.001 57.5l-19 54.5l-203 -8v-266c47.333 0 94.666 1.16699 141.999 3.5s86.666 5.5 117.999 9.5l4 -10c-1.33301 -2 -4.5 -6.16699 -9.5 -12.5
s-10.833 -12.833 -17.5 -19.5l-18.5 -18c-5.66699 -5.33301 -9.5 -8 -11.5 -8c-6 0 -18.667 0.5 -38 1.5s-40.333 2.33301 -63 4s-44.167 3 -64.5 4s-34.166 1.5 -41.499 1.5c0 -43.333 0.166992 -79.333 0.5 -108s0.666016 -52.334 0.999023 -71.001
s0.666016 -33.167 0.999023 -43.5s0.833008 -18.833 1.5 -25.5l111 -32l-8 -24c-20 0 -42.833 0.166992 -68.5 0.5s-52.834 0.5 -81.501 0.5c-20.667 -0 -41.5 -0.166992 -62.5 -0.5s-42.5 -0.5 -64.5 -0.5l6 23l71 33c1.33301 7.33301 2.33301 34 3 80s1 115 1 207v267
l-83 29z" />
    <glyph glyph-name="G" unicode="G" horiz-adv-x="743" 
d="M413 319l57.5039 2.99512c25 1.33301 51.167 2.33301 78.5 3s53.666 1.16699 78.999 1.5s45 0.5 59 0.5c-2 -18 -4.5 -38.333 -7.5 -61s-6.5 -46 -10.5 -70l-11.5 -71.5c-3.66699 -23.667 -7.5 -45.167 -11.5 -64.5l-10.5 -49.5c-3 -13.667 -5.5 -22.5 -7.5 -26.5h-7
c-15.333 3.33301 -27 8.33301 -35 15s-13 13 -15 19c-12.667 -6 -26.334 -11.167 -41.001 -15.5s-29.334 -8.16602 -44.001 -11.499s-28.834 -5.83301 -42.501 -7.5s-25.5 -2.5 -35.5 -2.5c-53.333 0 -102.333 8 -147 24s-83.167 39 -115.5 69s-57.5 66.333 -75.5 109
s-27 90.334 -27 143.001c0 49.333 9.5 95.333 28.5 138s45.5 79.834 79.5 111.501s74.667 56.5 122 74.5s99 27 155 27c39.333 0 71.833 -4.33301 97.5 -13s46.834 -18.667 63.501 -30c10.667 7.33301 23.334 14.666 38.001 21.999s27.667 12.666 39 15.999l7 -5
c-0.666992 -9.33301 -2.66699 -22.333 -6 -39s-7.33301 -34 -12 -52l-13.5 -50c-4.33301 -15.333 -7.83301 -25.666 -10.5 -30.999l-19 -9c-2.66699 6 -5.66699 13.833 -9 23.5s-6.5 19.834 -9.5 30.501s-5.66699 21.167 -8 31.5s-4.5 19.5 -6.5 27.5
c-10 6 -26.833 13 -50.5 21s-52.5 12 -86.5 12c-43.333 0 -83.166 -7.16699 -119.499 -21.5s-67.666 -34.666 -93.999 -60.999s-46.833 -58.166 -61.5 -95.499s-22 -79 -22 -125c0 -40.667 6.5 -79 19.5 -115s32 -67.5 57 -94.5s56.167 -48.5 93.5 -64.5
s80.666 -24 129.999 -24c21.333 0 43.166 1.83301 65.499 5.5s41.166 8.5 56.499 14.5c1.33301 36 3.66602 73.833 6.99902 113.5l9 106.5l-211 6l-4 12z" />
    <glyph glyph-name="H" unicode="H" horiz-adv-x="771" 
d="M52 659c18 0 36.998 -0.165039 56.998 -0.498047s39.333 -0.5 58 -0.5c19.333 0 36.666 0.166992 51.999 0.5s29.666 0.5 42.999 0.5l-7 -24l-43 -31v-227h348v226l-49 35l8 21c14.667 0 29 -0.166992 43 -0.5s28.333 -0.5 43 -0.5c23.333 0 46.333 0.166992 69 0.5
s43.667 0.5 63 0.5l-8 -25l-80 -30v-263c0 -28 0.166992 -58.167 0.5 -90.5s0.833008 -62.333 1.5 -90s1.33398 -51.334 2.00098 -71.001s1.66699 -30.834 3 -33.501l92 -32l-9 -25c-20 0 -41.5 0.166992 -64.5 0.5s-46.167 0.5 -69.5 0.5
c-17.333 -0 -33.666 -0.166992 -48.999 -0.5s-30 -0.5 -44 -0.5l7 25l40 31c1.33301 49.333 1.83301 96.333 1.5 141s-0.5 90.667 -0.5 138c-11.333 -2 -29 -3.5 -53 -4.5s-49.333 -1.5 -76 -1.5h-219c0 -41.333 -0.333008 -83.5 -1 -126.5s0 -90.5 2 -142.5l46 -37l-8 -23
c-13.333 0 -26.833 0.166992 -40.5 0.5s-29.167 0.5 -46.5 0.5c-21.333 -0 -43.5 -0.166992 -66.5 -0.5s-44.5 -0.5 -64.5 -0.5l9 24l75 30c0 6 0.333008 19 1 39s1.33398 43.833 2.00098 71.5s1.33398 57.5 2.00098 89.5s1 63.333 1 94v259l-80 29z" />
    <glyph glyph-name="I" unicode="I" horiz-adv-x="336" 
d="M51 659c19.333 0 38.8291 -0.166016 58.4961 -0.499023s39.167 -0.5 58.5 -0.5c20.667 0 41.334 0.166992 62.001 0.5s41.334 0.5 62.001 0.5l-7 -24l-73 -29v-263c0 -83.333 0.5 -150.333 1.5 -201s2.16699 -80.334 3.5 -89.001l92 -30l-7 -24
c-19.333 0 -40 0.166992 -62 0.5s-46 0.5 -72 0.5c-25.333 -0 -49.666 -0.166992 -72.999 -0.5s-44.666 -0.5 -63.999 -0.5l7 24l79 30c2 8 3.5 37.5 4.5 88.5s1.5 118.167 1.5 201.5v264l-79 29z" />
    <glyph glyph-name="J" unicode="J" horiz-adv-x="317" 
d="M39 659c21.333 0 41.8301 -0.168945 61.4971 -0.501953s40.834 -0.5 63.501 -0.5c20 0 40.5 0.166992 61.5 0.5s41.5 0.5 61.5 0.5l-6 -25l-69 -30c0.666992 -15.333 1 -35.666 1 -60.999v-84v-93c0 -32 -0.166992 -62.5 -0.5 -91.5s-0.5 -55.167 -0.5 -78.5v-51
c0 -19.333 -1 -37.5 -3 -54.5s-6.33301 -34.167 -13 -51.5c-9.33301 -28 -20.833 -53.5 -34.5 -76.5s-27.667 -43.333 -42 -61s-28 -32.5 -41 -44.5s-23.167 -20.333 -30.5 -25l-26 16v7c22 18 39.667 37 53 57s23.5 41.167 30.5 63.5s11.667 46 14 71s3.5 51.833 3.5 80.5
c0 14 0.166992 28.167 0.5 42.5s0.5 30.5 0.5 48.5s-0.166992 39.167 -0.5 63.5s-0.5 53.833 -0.5 88.5c-0.666992 40.667 -1.16699 74.834 -1.5 102.501s-0.666016 50.5 -0.999023 68.5s-0.666016 31.833 -0.999023 41.5s-0.5 17.5 -0.5 23.5l-89 29z" />
    <glyph glyph-name="K" unicode="K" horiz-adv-x="676" 
d="M51 660c19.333 0 38.333 -0.166992 57 -0.5s37.667 -0.5 57 -0.5c21.333 0 42.5 0.166992 63.5 0.5s42.167 0.5 63.5 0.5l-7 -23l-73 -31v-263c0 -83.333 0.5 -150.333 1.5 -201s2.16699 -80.334 3.5 -89.001l92 -30l-7 -24c-20 0 -41.5 0.166992 -64.5 0.5
s-48.167 0.5 -75.5 0.5c-23.333 0 -46.5 -0.166992 -69.5 -0.5s-43.5 -0.5 -61.5 -0.5l6 24l80 30c2 8.66699 3.5 38.334 4.5 89.001s1.5 117.667 1.5 201v264l-79 31zM654 634c-14 -4 -31.334 -8.50195 -52.001 -13.502s-38.667 -9.83301 -54 -14.5
c-5.33301 -1.33301 -10.833 -3.83301 -16.5 -7.5s-11.167 -7.83398 -16.5 -12.501l-32 -32.5l-39.5 -42.5l-52 -58.5l-69.5 -80.5v-2l112.5 -129l110.5 -122l48 -51.5l34.5 -36.5l23.5 -24.5c6 -6.33301 11 -11.833 15 -16.5l-12 -5c-24 0.666992 -45 3.33398 -63 8.00098
s-34.333 10.834 -49 18.501s-28.167 16.667 -40.5 27s-24.5 21.5 -36.5 33.5c-26.667 26.667 -60.334 62.334 -101.001 107.001l-126 145v8l91 104.5l66.5 77.5l46.5 57.5c12.667 16.333 23.667 31.5 33 45.5c-1.33301 6 -2.16602 13.5 -2.49902 22.5
s-0.166016 16.167 0.500977 21.5c19.333 0.666992 38.666 1 57.999 1c20 0 38.833 -0.166992 56.5 -0.5s33.334 -0.833008 47.001 -1.5s24.5 -1 32.5 -1z" />
    <glyph glyph-name="L" unicode="L" horiz-adv-x="563" 
d="M48 659c17.333 0 35.8359 -0.166992 55.5029 -0.5s40.834 -0.5 63.501 -0.5c22 0 43.333 0.166992 64 0.5s40.667 0.5 60 0.5l-9 -24l-70 -30v-261c0 -40 0.166992 -77.167 0.5 -111.5s0.666016 -64.5 0.999023 -90.5s0.666016 -47.167 0.999023 -63.5
s0.833008 -26.5 1.5 -30.5l214 -13l22 33l26 37.5l25 35c8 11 14.667 19.5 20 25.5l19 1c-1.33301 -11.333 -3.33301 -25.333 -6 -42s-5.66699 -33.5 -9 -50.5s-6.66602 -32.667 -9.99902 -47s-6.33301 -24.833 -9 -31.5c-8.66699 0 -20.834 0.166992 -36.501 0.5
s-36.667 0.833008 -63 1.5s-59 1.16699 -98 1.5s-86.167 0.5 -141.5 0.5c-24 -0 -47.833 -0.166992 -71.5 -0.5s-46.5 -0.5 -68.5 -0.5l7 23l83 30c0.666992 3.33301 1.16699 13 1.5 29s0.666016 37 0.999023 63s0.666016 55.833 0.999023 89.5s0.5 70.167 0.5 109.5v262
l-83 30z" />
    <glyph glyph-name="M" unicode="M" horiz-adv-x="933" 
d="M71 658l161.997 1.00098c1.33301 -12 3.33301 -21.833 6 -29.5s4.66699 -13.167 6 -16.5c10 -22.667 34.167 -72.834 72.5 -150.501l151.5 -313.5h2c4 8.66699 10.5 22 19.5 40l31.5 63.5l40 80.5l45.5 92l47 97.5l45.5 96.5c2 4.66699 3 9.66699 3 15v25l185 -1l-8 -25
l-85 -29c0.666992 -18.667 1.5 -44.667 2.5 -78s2.33301 -69.5 4 -108.5l5 -120.5c1.66699 -41.333 3.33398 -79.166 5.00098 -113.499s3.16699 -63.5 4.5 -87.5s2.33301 -38.333 3 -43l91 -30l-5 -24c-18.667 0 -39.667 0.166992 -63 0.5s-45.666 0.5 -66.999 0.5
c-20.667 0 -41.167 -0.166992 -61.5 -0.5s-40.166 -0.5 -59.499 -0.5l8 24l62 30c-0.666992 30.667 -1.33398 67.5 -2.00098 110.5l-2 134l-2 138.5c-0.666992 46 -1.33398 87.667 -2.00098 125h-3l-47 -102.5l-58 -124.5l-70 -153.5l-84 -189.5l-19 -2l-25.5 56l-26.5 60.5
l-31.5 72l-40 91l-51.5 117l-67 150.5h-2c-3.33301 -36 -6.5 -76.667 -9.5 -122l-9 -135.5c-3 -45 -5.5 -87.333 -7.5 -127s-3.33301 -71.5 -4 -95.5l90 -34l-6 -23c-19.333 0 -38.666 0.166992 -57.999 0.5s-39.666 0.5 -60.999 0.5c-16.667 0 -34 -0.166992 -52 -0.5
s-35 -0.5 -51 -0.5l5 23l71 33c4 21.333 8.33301 51.5 13 90.5l15.5 130.5c5.66699 48 11.167 98.333 16.5 151l15 154c-2 6.66699 -4.5 12.167 -7.5 16.5s-7.66699 8.16602 -14 11.499s-15.5 6.83301 -27.5 10.5s-28.333 8.16699 -49 13.5z" />
    <glyph glyph-name="N" unicode="N" horiz-adv-x="766" 
d="M262 -1c-19.333 0 -38.667 0.166992 -58 0.5s-39.666 0.5 -60.999 0.5c-18 -0 -37.167 -0.166992 -57.5 -0.5s-39.5 -0.5 -57.5 -0.5l6 24l82 36c1.33301 21.333 4 73.333 8 156s7.33301 197.334 10 344.001c-10 14.667 -18.333 26 -25 34s-13.667 14.333 -21 19
s-15.833 8.33398 -25.5 11.001s-22.167 6.66699 -37.5 12l9 24l137 5c1.33301 -3.33301 5.5 -10.5 12.5 -21.5s15.5 -22.833 25.5 -35.5l203 -245l204 -234h3c0 7.33301 -0.166992 22.666 -0.5 45.999s-0.666016 50.833 -0.999023 82.5s-0.833008 65.5 -1.5 101.5
s-1.16699 70.167 -1.5 102.5s-0.666016 61.166 -0.999023 86.499s-0.5 43.333 -0.5 54l-85 35l10 23c18.667 0 36.334 -0.166992 53.001 -0.5s32.667 -0.5 48 -0.5c19.333 0 39.666 0.166992 60.999 0.5s41.666 0.5 60.999 0.5l-6 -26l-85 -32
c0 -7.33301 -0.333008 -21 -1 -41s-1.33398 -43.833 -2.00098 -71.5s-1.33398 -58.5 -2.00098 -92.5s-1.5 -68.833 -2.5 -104.5s-1.83301 -71.167 -2.5 -106.5s-1 -68.333 -1 -99c0 -16 -0.5 -34 -1.5 -54s-2.16699 -36 -3.5 -48l-11 -5c-22 16 -49.167 40.833 -81.5 74.5
s-68.833 74 -109.5 121l-131.5 157l-147.5 182.5h-2v-137c0 -48.667 0.333008 -94.667 1 -138s1.5 -81.5 2.5 -114.5s2.16699 -54.833 3.5 -65.5l91 -36z" />
    <glyph glyph-name="O" unicode="O" horiz-adv-x="785" 
d="M385 640c-38 0 -71.668 -7.66699 -101.001 -23s-54 -36.5 -74 -63.5s-35.333 -59 -46 -96s-16 -76.833 -16 -119.5c0 -40.667 6 -80.334 18 -119.001s29 -73 51 -103s48.833 -54 80.5 -72s67.5 -27 107.5 -27c42.667 0 78.834 9.16699 108.501 27.5s53.667 42.333 72 72
s31.5 63 39.5 100s12 74.5 12 112.5c0 42 -6.16699 81.667 -18.5 119s-29.666 70.333 -51.999 99s-48.833 51.334 -79.5 68.001s-64.334 25 -101.001 25h-1zM390.999 677c40 0 80.665 -6.83301 121.998 -20.5s78.833 -34.334 112.5 -62.001s61.334 -62.5 83.001 -104.5
s32.834 -91.667 33.501 -149c0.666992 -63.333 -9.33301 -117.666 -30 -162.999s-47.667 -82.5 -81 -111.5s-71 -50.5 -113 -64.5s-83.333 -21 -124 -21c-41.333 0 -83 6.83301 -125 20.5s-79.667 34.5 -113 62.5s-60.5 63.5 -81.5 106.5s-31.5 93.5 -31.5 151.5
c0 59.333 10.833 111.166 32.5 155.499s49.5 81.333 83.5 111s71.5 51.834 112.5 66.501s80.5 22 118.5 22h1z" />
    <glyph glyph-name="P" unicode="P" horiz-adv-x="568" 
d="M50 650c37.333 4 74.6641 7.49707 111.997 10.4971s69.666 4.5 96.999 4.5c41.333 0 77 -3.16699 107 -9.5s57.333 -17.166 82 -32.499c30.667 -18.667 52 -42.167 64 -70.5s18 -56.166 18 -83.499c0 -40 -7.66699 -73.167 -23 -99.5s-34.166 -47.333 -56.499 -63
s-46 -26.834 -71 -33.501s-47.5 -10 -67.5 -10c-17.333 0 -30.666 1.66699 -39.999 5l-10 25c58 4.66699 100.667 22.5 128 53.5s41 70.167 41 117.5c0 32 -5.5 58.667 -16.5 80s-26.333 38.333 -46 51s-42.834 21.334 -69.501 26.001s-55.667 6.66699 -87 6v-271
c0 -59.333 0.333008 -107.666 1 -144.999s1.33398 -66.833 2.00098 -88.5s1.33398 -37.334 2.00098 -47.001s1 -16.5 1 -20.5l110 -32l-9 -24c-25.333 0 -51 0.166992 -77 0.5s-52 0.5 -78 0.5c-20 0 -40.167 -0.166992 -60.5 -0.5s-40.5 -0.5 -60.5 -0.5l6 23l70 32
c0.666992 4.66699 1.33398 12.167 2.00098 22.5s1.16699 26.333 1.5 48s0.5 50.834 0.5 87.501v141v254l-81 20z" />
    <glyph glyph-name="Q" unicode="Q" horiz-adv-x="785" 
d="M385 640c-38 0 -71.6709 -8.00391 -101.004 -24.0039s-54.166 -38 -74.499 -66s-35.833 -60.667 -46.5 -98s-16 -77 -16 -119c0 -39.333 5.83301 -77.5 17.5 -114.5s28.834 -70.333 51.501 -100s50.334 -54.167 83.001 -73.5s70 -30.666 112 -33.999
c40.667 4 75.334 15.833 104.001 35.5s52 44.334 70 74.001s31.167 62.834 39.5 99.501s12.5 73.667 12.5 111c0 40.667 -6 79.667 -18 117s-29 70.333 -51 99s-48.5 51.334 -79.5 68.001s-65.167 25 -102.5 25h-1zM390.996 676.996c38.667 0 78.5 -6.49707 119.5 -19.4971
s78.5 -33.167 112.5 -60.5s62 -62.333 84 -105s33.667 -93.667 35 -153c0.666992 -56.667 -7.5 -105.167 -24.5 -145.5s-38.167 -74.166 -63.5 -101.499s-52.666 -48.833 -81.999 -64.5s-56 -26.834 -80 -33.501v-2l169.5 -94l127.5 -67l-11 -16
c-42 -3.33301 -80.833 0.166992 -116.5 10.5s-69.834 23.166 -102.501 38.499c-11.333 5.33301 -23.166 11.333 -35.499 18l-41 22.5l-49.5 28l-61 35.5c-9.33301 5.33301 -18.333 9.16602 -27 11.499l-30 8.5c-36 10.667 -70.333 25 -103 43s-61.5 40.5 -86.5 67.5
s-45 59 -60 96s-22.5 79.833 -22.5 128.5c0 58.667 10.667 110.167 32 154.5s48.666 81.166 81.999 110.499s70.5 51.5 111.5 66.5s81.5 22.5 121.5 22.5h1z" />
    <glyph glyph-name="R" unicode="R" horiz-adv-x="620" 
d="M48 645c11.333 2.66699 26.168 5.16895 44.501 7.50195s38.333 4.5 60 6.5s43.834 3.5 66.501 4.5s44 1.5 64 1.5c163.333 0 245 -56 245 -168c0 -26.667 -4.83301 -49.667 -14.5 -69s-22 -36 -37 -50s-31.833 -25.5 -50.5 -34.5s-37 -16.5 -55 -22.5v-2
c5.33301 -9.33301 13.666 -22.5 24.999 -39.5l38.5 -56l45 -62.5l44.5 -60l35 -46l24 -30c6.66699 -8 11.834 -14.5 15.501 -19.5s7.16699 -9.5 10.5 -13.5l-7 -8c-38 2.66699 -69.167 10.667 -93.5 24s-46.833 31.666 -67.5 54.999c-10.667 12 -23 26.833 -37 44.5
s-28.667 37.334 -44 59.001l-48 68.5l-49 74l3 6c23.333 6 45.166 13.333 65.499 22s38 19.5 53 32.5s26.667 28.667 35 47s12.5 40.166 12.5 65.499c0 31.333 -6 56.5 -18 75.5s-28 33.833 -48 44.5s-43.333 17.5 -70 20.5s-54.334 4.16699 -83.001 3.5v-307v-165
c0 -40.667 0.666992 -73.667 2 -99l98 -32l-7 -24c-24 0 -47.667 0.166992 -71 0.5s-47 0.5 -71 0.5c-21.333 0 -42.833 -0.166992 -64.5 -0.5s-43.167 -0.5 -64.5 -0.5l7 24l75 31c1.33301 19.333 2.83301 51.666 4.5 96.999s2.5 101 2.5 167v290l-85 12z" />
    <glyph glyph-name="S" unicode="S" horiz-adv-x="512" 
d="M264 677c24 0 44.9951 -3.50098 62.9951 -10.501s32 -14.167 42 -21.5c7.33301 5.33301 17.5 11 30.5 17s25.167 11 36.5 15l9 -5l-5.5 -31c-2.33301 -13.333 -5.16602 -27.5 -8.49902 -42.5s-6.83301 -29.667 -10.5 -44s-7.5 -25.833 -11.5 -34.5l-15 -8
c-3.33301 6 -6.66602 13.667 -9.99902 23l-10 28c-3.33301 9.33301 -6.33301 18.333 -9 27l-6 20c-6.66699 5.33301 -17.667 10.833 -33 16.5s-33.666 8.5 -54.999 8.5c-20 0 -37.667 -3.16699 -53 -9.5s-28.333 -14.666 -39 -24.999s-18.834 -22.5 -24.501 -36.5
s-8.5 -28.667 -8.5 -44c0 -23.333 4.83301 -42.666 14.5 -57.999s24.167 -28.666 43.5 -39.999c20.667 -12.667 43.834 -25.334 69.501 -38.001s52.5 -26.667 80.5 -42c24.667 -13.333 44.667 -26.666 60 -39.999s27.333 -26.833 36 -40.5s14.5 -27.334 17.5 -41.001
s4.5 -27.5 4.5 -41.5c0 -39.333 -8.16699 -71.833 -24.5 -97.5s-36.5 -46 -60.5 -61s-49.5 -25.333 -76.5 -31s-51.167 -8.5 -72.5 -8.5c-20 0 -40.167 2.16699 -60.5 6.5s-39.333 9.83301 -57 16.5s-33.5 13.834 -47.5 21.501s-24.333 15.167 -31 22.5
c1.33301 6.66699 4 16.167 8 28.5s8.33301 25 13 38s9.33398 25 14.001 36s8 18.5 10 22.5l16 7c1.33301 -3.33301 2.66602 -7.83301 3.99902 -13.5l5.5 -24.5l8.5 -40.5l13 -61.5c6.66699 -3.33301 18 -7.33301 34 -12s37.333 -6.66699 64 -6
c45.333 0.666992 81.5 12.167 108.5 34.5s40.5 54.166 40.5 95.499c0 22 -5.66699 41.5 -17 58.5s-29.666 32.833 -54.999 47.5c-25.333 14 -50.666 27.167 -75.999 39.5s-50 26.166 -74 41.499c-34.667 21.333 -59.167 45.166 -73.5 71.499s-21.5 54.5 -21.5 84.5
c0 22.667 4.33301 44.834 13 66.501s21.5 41 38.5 58s37.833 30.833 62.5 41.5s53 16 85 16h1z" />
    <glyph glyph-name="T" unicode="T" horiz-adv-x="670" 
d="M553 659c10.667 2.66699 24.3291 5.33008 40.9961 7.99707s30.334 4.66699 41.001 6l2 -4c-0.666992 -7.33301 -2 -17.833 -4 -31.5s-4.5 -28.167 -7.5 -43.5l-9 -46c-3 -15.333 -5.83301 -28 -8.5 -38l-16 -8c-2 6 -5.16699 15 -9.5 27s-8.5 24.167 -12.5 36.5l-11.5 35
l-7.5 22.5l-175 -8v-248c0 -64 0.333008 -115 1 -153s1.33398 -67.667 2.00098 -89s1.33398 -36.666 2.00098 -45.999s1 -17.666 1 -24.999l117 -31l-9 -24c-26 0 -52.167 0.166992 -78.5 0.5s-52.5 0.5 -78.5 0.5c-27.333 0 -54.166 -0.166992 -80.499 -0.5
s-53.5 -0.5 -81.5 -0.5l7 24l106 31c0.666992 8.66699 1.16699 17.5 1.5 26.5s0.666016 23 0.999023 42s0.5 44.833 0.5 77.5v134v281l-164 8l-13.5 -26.5l-17.5 -34l-17 -33c-5.33301 -10.333 -9.66602 -17.833 -12.999 -22.5l-16 -5
c-0.666992 9.33301 -1.16699 21.833 -1.5 37.5s-0.5 31.834 -0.5 48.501s0.166992 32.334 0.5 47.001s0.833008 26 1.5 34l3 4l15.5 -2.5c6.33301 -1 13.333 -2.16699 21 -3.5s15 -2.83301 22 -4.5s12.833 -2.83398 17.5 -3.50098h428z" />
    <glyph glyph-name="U" unicode="U" horiz-adv-x="735" 
d="M34 659c20 0 40 -0.332031 60 -0.999023s39.667 -1 59 -1c18.667 0 37.5 0.333008 56.5 1s36.5 1 52.5 1l-6 -24l-54 -31c-0.666992 -62 -1 -123.667 -1 -185v-199c0 -42.667 9.66699 -78.334 29 -107.001c16.667 -23.333 39.167 -41.666 67.5 -54.999s60.5 -20 96.5 -20
s67.167 6.33301 93.5 19s47.833 29.667 64.5 51c22 30 34 72.667 36 128c2 69.333 2.66699 134.166 2 194.499s-1.66699 118.166 -3 173.499l-73 31l7 24c16.667 0 33 -0.333008 49 -1s31.667 -1 47 -1c19.333 0 39.333 0.333008 60 1s39.667 1 57 1l-6 -24l-81 -31
c-0.666992 -5.33301 -1.33398 -12.333 -2.00098 -21s-1.33398 -25 -2.00098 -49l-3 -103.5c-1.33301 -45 -3 -105.833 -5 -182.5c-0.666992 -31.333 -4.16699 -59.833 -10.5 -85.5s-16.5 -49.167 -30.5 -70.5c-21.333 -34 -50.666 -60.667 -87.999 -80s-82 -29 -134 -29
c-48 0 -92.5 8.66699 -133.5 26s-73.167 46 -96.5 86c-11.333 18.667 -19.166 39.667 -23.499 63s-6.83301 50 -7.5 80v110v104c0 32.667 -0.166992 62.334 -0.5 89.001s-0.833008 48 -1.5 64l-83 30z" />
    <glyph glyph-name="V" unicode="V" horiz-adv-x="694" 
d="M216 634l-29.999 -28.002c4 -12 9.5 -27.167 16.5 -45.5l31.5 -81l56 -140.5l89 -223h2l43.5 116l47 125.5l46 127c15 42.333 28.5 82.5 40.5 120.5l-37 30l9 24c9.33301 0 20.166 -0.166992 32.499 -0.5s24.5 -0.5 36.5 -0.5c17.333 0 34.5 0.166992 51.5 0.5
s33.5 0.5 49.5 0.5l-6 -24c-23.333 -9.33301 -40.5 -17 -51.5 -23s-20.833 -13.333 -29.5 -22c-5.33301 -10.667 -13.333 -28.167 -24 -52.5l-36 -86l-43 -106.5l-45 -112.5l-42 -105c-13.333 -33 -24.333 -61.167 -33 -84.5
c-5.33301 -9.33301 -11.833 -19.666 -19.5 -30.999s-15.5 -21.666 -23.5 -30.999h-12l-20 52l-33.5 87.5l-43.5 110.5l-48.5 122l-48.5 122l-44 109c-5.33301 6.66699 -10.5 12.167 -15.5 16.5s-10.833 8.5 -17.5 12.5s-14.667 7.66699 -24 11l-34 12l10 23
c14.667 0 31 -0.166992 49 -0.5s37.667 -0.5 59 -0.5c16.667 0 33.5 0.166992 50.5 0.5s33.167 0.5 48.5 0.5z" />
    <glyph glyph-name="W" unicode="W" horiz-adv-x="1020" 
d="M19 659c16 0 33.1641 -0.335938 51.4971 -1.00293s37.5 -1 57.5 -1c15.333 0 30.5 0.166992 45.5 0.5s29.833 0.833008 44.5 1.5l-6 -24l-29 -24c4.66699 -13.333 10.834 -29.666 18.501 -48.999l34 -83.5l59 -143.5l93.5 -229h3l22.5 45.5l25 52l29.5 63l36 79.5l-30 71
l-29 67.5l-27.5 61l-23.5 51.5c-7.33301 7.33301 -16.5 14 -27.5 20s-27.833 12 -50.5 18l9 24c14.667 0 31.167 -0.333008 49.5 -1s35.833 -1 52.5 -1c9.33301 0 18.666 0.166992 27.999 0.5s18.333 0.833008 27 1.5l1 -4l5 -46c2 -6.66699 4.33301 -13.667 7 -21
s6.5 -17 11.5 -29l19.5 -46l32 -73h2l26 56.5l19 41.5l15 34.5c4.66699 11 9.33398 23.167 14.001 36.5l2 46l2 4c7.33301 -0.666992 14.833 -1.16699 22.5 -1.5s15.167 -0.5 22.5 -0.5c17.333 0 33.833 0.333008 49.5 1s31.167 1 46.5 1l-7 -24
c-25.333 -8 -44.5 -15.333 -57.5 -22s-24.5 -15 -34.5 -25l-13 -22.5c-5.33301 -9 -12 -21 -20 -36l-29 -55.5l-40 -81l36.5 -86l85.5 -196h1l37.5 99.5l45 121l48.5 134.5l49 141l-33 28l9 24c9.33301 -0.666992 18.833 -1.16699 28.5 -1.5s19.834 -0.5 30.501 -0.5
c19.333 0 38.166 0.333008 56.499 1s36.166 1 53.499 1l-6 -24c-23.333 -7.33301 -41.166 -14 -53.499 -20s-23.166 -13.667 -32.499 -23c-4.66699 -8 -11.334 -22 -20.001 -42l-30 -72.5l-38 -94.5l-43 -109l-45 -116l-45 -114
c-5.33301 -11.333 -12.166 -22.833 -20.499 -34.5s-16.166 -21.167 -23.499 -28.5h-8l-21 47l-32 75l-39 93l-43 100h-2l-41 -84l-33 -68l-27 -56l-23 -48c-5.33301 -9.33301 -12.5 -19.666 -21.5 -30.999s-17.167 -20.666 -24.5 -27.999h-7l-25.5 59.5l-42.5 102
l-51.5 125.5l-54 130l-49 115l-35.5 82c-8 8 -17.5 14.833 -28.5 20.5s-28.167 12.167 -51.5 19.5z" />
    <glyph glyph-name="X" unicode="X" horiz-adv-x="697" 
d="M53 659c21.333 0 43.002 -0.166016 65.002 -0.499023s44 -0.5 66 -0.5c17.333 0 33.5 0.166992 48.5 0.5s29.167 0.5 42.5 0.5l-6 -25l-26 -27l37.5 -67l31 -52.5l26.5 -43l24 -38.5h2l28 44l27 44l29.5 49.5l34.5 61.5l-30 31l10 23
c10.667 0 21.834 -0.166992 33.501 -0.5s22.834 -0.5 33.501 -0.5c20 0 39.667 0.166992 59 0.5s38.666 0.5 57.999 0.5l-7 -25c-15.333 -4 -28.333 -7.83301 -39 -11.5s-20 -7.5 -28 -11.5s-15.333 -8.16699 -22 -12.5s-13.334 -9.5 -20.001 -15.5l-21 -28.5l-29.5 -41
l-41.5 -59.5l-56 -84l45.5 -76.5l48 -81.5l44 -74.5c13.667 -23 24.834 -41.167 33.501 -54.5c6 -9.33301 12.167 -16.166 18.5 -20.499s13.166 -7.83301 20.499 -10.5l91 -30l-9 -23c-24.667 0 -49.167 0.333008 -73.5 1s-48.5 1 -72.5 1
c-16.667 0 -33.334 -0.333008 -50.001 -1s-33.334 -1 -50.001 -1l6 24l31 26c-7.33301 14 -22.333 41 -45 81l-92 158h-2l-73 -117c-25.333 -39.333 -47.333 -77 -66 -113l46 -35l-7 -24c-13.333 0 -27.666 0.333008 -42.999 1s-30.666 1 -45.999 1
c-19.333 0 -38.5 -0.333008 -57.5 -1s-38.5 -1 -58.5 -1l7 24l66 24c8.66699 3.33301 16.167 7.33301 22.5 12s13.166 11.667 20.499 21c11.333 14 31.666 41.833 60.999 83.5l109 162.5l-86 148c-24 41.333 -45.333 76.666 -64 105.999c-6 10 -11.667 17.167 -17 21.5
s-13 8.16602 -23 11.499l-76 23z" />
    <glyph glyph-name="Y" unicode="Y" horiz-adv-x="631" 
d="M16 659c19.333 0 38.8301 -0.167969 58.4971 -0.500977s39.167 -0.5 58.5 -0.5h43c14 0 27.667 0.333008 41 1l-6 -25l-23 -21c8 -17.333 24.5 -48.166 49.5 -92.499l103.5 -183.5h3l39 73l38.5 73l35 68l29.5 57l-35 26l9 25c10 -0.666992 20 -1 30 -1h32
c19.333 0 37.833 0.166992 55.5 0.5s36.167 0.5 55.5 0.5l-9 -25l-46 -17c-12.667 -3.33301 -22.5 -7.33301 -29.5 -12s-14.167 -12.667 -21.5 -24c-19.333 -29.333 -43.166 -67.833 -71.499 -115.5s-56.833 -98.167 -85.5 -151.5
c-3.33301 -6 -5.66602 -11.833 -6.99902 -17.5s-2 -12.167 -2 -19.5c0 -134.667 1 -209 3 -223l118 -31l-8 -24c-22.667 0 -47.167 0.333008 -73.5 1s-54.5 1 -84.5 1s-58 -0.333008 -84 -1s-50.667 -1 -74 -1l7 22l101 33c1.33301 9.33301 2.83301 30.5 4.5 63.5
s2.5 82.833 2.5 149.5c0 12 -3.33301 24.333 -10 37l-29 51l-40.5 71l-47.5 81.5l-50 83.5c-10 10.667 -21.167 19.167 -33.5 25.5s-31.166 12.833 -56.499 19.5z" />
    <glyph glyph-name="Z" unicode="Z" horiz-adv-x="635" 
d="M600 648c-6 -8 -16.834 -23.332 -32.501 -45.999l-57.5 -82l-76 -107l-86 -121.5l-88 -126l-82 -119.5v-3c20.667 0 47.667 -0.333008 81 -1s67 -1.16699 101 -1.5s65 -0.666016 93 -0.999023s47 -0.5 57 -0.5l21.5 31.5l26 38l25.5 37c8 11.667 15 21.167 21 28.5l15 2
c-0.666992 -8 -2 -20.667 -4 -38s-4.5 -35.166 -7.5 -53.499s-6.16699 -35.833 -9.5 -52.5s-6 -28.667 -8 -36c-8 0 -28.333 0.166992 -61 0.5s-73.5 0.833008 -122.5 1.5s-104.5 1.16699 -166.5 1.5s-126.333 0.5 -193 0.5l-6 9l45.5 63.5l66.5 92l79.5 111l85 119l83 116
l74.5 103.5l-5 2c-24 0 -49.5 0.333008 -76.5 1l-81.5 2l-80 2c-26 0.666992 -49.667 1 -71 1c-3.33301 -6 -7.16602 -14.167 -11.499 -24.5l-14 -33l-15 -34c-5 -11 -9.16699 -19.833 -12.5 -26.5l-19 -8c-1.33301 8.66699 -2.33301 21 -3 37s-1.5 32.5 -2.5 49.5
s-1.83301 33.167 -2.5 48.5s-1 26.666 -1 33.999l4 4c21.333 -2.66699 37.833 -4.83398 49.5 -6.50098s20.167 -2.83398 25.5 -3.50098h440z" />
    <glyph glyph-name="bracketleft" unicode="[" 
d="M175 -117l114 -25l-8 -27h-167v881h175l-8 -28l-106 -25v-776z" />
    <glyph glyph-name="backslash" unicode="\" horiz-adv-x="345" 
d="M252 -56l-213 733h52l213 -733h-52z" />
    <glyph glyph-name="bracketright" unicode="]" 
d="M151 659l-116 25l10 28h166v-881h-176l9 27l107 25v776z" />
    <glyph glyph-name="asciicircum" unicode="^" horiz-adv-x="519" 
d="M398 285l-139 307h-2l-134 -299l-58 -9l164 355l58 9l167 -355z" />
    <glyph glyph-name="underscore" unicode="_" horiz-adv-x="483" 
d="M483 -147h-483v48h483v-48z" />
    <glyph glyph-name="grave" unicode="`" horiz-adv-x="386" 
d="M73 662l74 14l78 -210l-76 -14z" />
    <glyph glyph-name="a" unicode="a" horiz-adv-x="455" 
d="M125 122c0 -14.667 2.66895 -27.001 8.00195 -37.001s12.166 -18 20.499 -24s17.166 -10.333 26.499 -13s18 -4 26 -4c10.667 0 22.167 2.5 34.5 7.5s23.5 12.833 33.5 23.5c6 6.66699 9 14.334 9 23.001l2 127c-22 -6 -45 -13.333 -69 -22s-42.667 -17 -56 -25
c-13.333 -7.33301 -22.5 -14.833 -27.5 -22.5s-7.5 -18.5 -7.5 -32.5v-1zM285.002 278.999c0 26 -2.83496 47.1641 -8.50195 63.4971s-13 29 -22 38s-19.333 15.167 -31 18.5s-24.167 5 -37.5 5c-9.33301 0 -19.666 -1.66699 -30.999 -5s-21.333 -7.66602 -30 -12.999
l-4.5 -51.5c-1.66699 -19.667 -4.16699 -36.167 -7.5 -49.5l-11 -5c-2.66699 1.33301 -7 5.33301 -13 12s-12.333 14.334 -19 23.001s-12.834 17.5 -18.501 26.5s-9.83398 17.167 -12.501 24.5c4.66699 4.66699 11.834 10.167 21.501 16.5s20.167 12.666 31.5 18.999
s23 12.5 35 18.5s23 11 33 15c12 4.66699 23.833 8.66699 35.5 12s23.167 5 34.5 5c26 0 47.667 -5 65 -15s31.333 -22.5 42 -37.5s18.334 -31.5 23.001 -49.5s7 -35 7 -51c0 -34 -0.333008 -71.167 -1 -111.5s-1 -77.5 -1 -111.5c10.667 -18 24 -31.5 40 -40.5
s28.667 -14.833 38 -17.5l-7 -16c-4 -2.66699 -10.167 -5.5 -18.5 -8.5s-18.833 -4.5 -31.5 -4.5c-16.667 0 -30.834 1.66699 -42.501 5s-21.334 7.83301 -29.001 13.5s-13.667 11.834 -18 18.501s-7.5 13.334 -9.5 20.001h-2c-21.333 -21.333 -42.833 -36.5 -64.5 -45.5
s-40.5 -13.5 -56.5 -13.5c-22 0 -41 3.83301 -57 11.5s-29 17.167 -39 28.5s-17.5 24 -22.5 38s-7.5 27 -7.5 39c0 21.333 3.83301 38.833 11.5 52.5s17.167 23.167 28.5 28.5c8.66699 5.33301 20.834 11.333 36.501 18s32.834 13.167 51.501 19.5s38.334 12.5 59.001 18.5
s40.667 11.333 60 16v22z" />
    <glyph glyph-name="b" unicode="b" horiz-adv-x="526" 
d="M160 49c6.66699 -2.66699 16.668 -5.83301 30.001 -9.5s26.666 -5.5 39.999 -5.5c25.333 0 48.333 4.83301 69 14.5s38.167 22.834 52.5 39.501s25.5 36.5 33.5 59.5s12 47.833 12 74.5c0 24 -3.66699 46.5 -11 67.5s-17.666 39.333 -30.999 55
s-29.833 28.167 -49.5 37.5s-41.5 14 -65.5 14c-13.333 0 -26.833 -1.83301 -40.5 -5.5s-26.834 -8.83398 -39.501 -15.501v-326zM76.001 381.001c0 92.667 -1.00098 176.665 -3.00098 251.998l-58 25l8 20c13.333 5.33301 32.5 11 57.5 17s52.5 11 82.5 15
c-2 -107.333 -3 -208.666 -3 -303.999l25.5 13l31.5 15.5c10.667 5 21.334 9.16699 32.001 12.5s20 5 28 5c24.667 0 49.667 -4.5 75 -13.5s48.166 -22.667 68.499 -41s36.833 -41.166 49.5 -68.499s19 -59 19 -95c0 -44.667 -8.33301 -82.667 -25 -114
s-37.167 -56.833 -61.5 -76.5s-50.666 -34 -78.999 -43s-54.166 -13.5 -77.499 -13.5c-12.667 0 -28.334 3.5 -47.001 10.5s-35.667 14.167 -51 21.5c-12 -7.33301 -25 -13.833 -39 -19.5s-25 -9.5 -33 -11.5v393z" />
    <glyph glyph-name="c" unicode="c" horiz-adv-x="453" 
d="M37 214c0 40.667 7.8252 76.0029 23.4922 106.003s35.834 54.833 60.501 74.5s52.334 34.167 83.001 43.5s60.667 14 90 14c14.667 0 28.834 -1.16699 42.501 -3.5s26.167 -5.33301 37.5 -9s21 -7.66699 29 -12s14 -8.5 18 -12.5
c-3.33301 -13.333 -8.16602 -30.5 -14.499 -51.5s-13.833 -39.5 -22.5 -55.5l-15 -6c-4 9.33301 -9 23.666 -15 42.999s-11.667 40.666 -17 63.999c-3.33301 2 -8 3.66699 -14 5s-14 2 -24 2c-28 0 -52.5 -5.33301 -73.5 -16s-38.5 -24.834 -52.5 -42.501
s-24.667 -37.834 -32 -60.501s-11 -46.334 -11 -71.001c0 -28 4.16699 -53.5 12.5 -76.5s20.333 -43 36 -60s34.334 -30.167 56.001 -39.5s46.167 -14 73.5 -14c4 0 8.83301 1 14.5 3s10.167 3.66699 13.5 5c17.333 14.667 33.333 26.834 48 36.501s26.334 16.5 35.001 20.5
l7 -14c-2 -6.66699 -5.66699 -14.334 -11 -23.001s-11.166 -17 -17.499 -25s-12.666 -15.333 -18.999 -22s-11.833 -11.334 -16.5 -14.001c-4 -1.33301 -9.5 -3 -16.5 -5s-15 -3.83301 -24 -5.5s-18.167 -3 -27.5 -4s-18 -1.5 -26 -1.5c-23.333 0 -48.5 3.83301 -75.5 11.5
s-52 20.334 -75 38.001s-42.167 40.834 -57.5 69.501s-23 64.334 -23 107.001v1z" />
    <glyph glyph-name="d" unicode="d" horiz-adv-x="539" 
d="M364 384c-10 6.66699 -21.833 11.833 -35.5 15.5s-26.5 5.5 -38.5 5.5c-24 0 -45.833 -5 -65.5 -15s-36.667 -23.333 -51 -40s-25.5 -36 -33.5 -58s-12 -45 -12 -69s3.83301 -46.667 11.5 -68s18.5 -40 32.5 -56s30.5 -28.667 49.5 -38s39.5 -14 61.5 -14c10 0 22 2 36 6
s29 11.667 45 23v308zM448 72.999c12.667 -17.333 26.3311 -30.667 40.998 -40s26.667 -15.666 36 -18.999l-8 -17c-8.66699 -6.66699 -24 -10 -46 -10c-17.333 0 -36 4.16699 -56 12.5s-34.667 23.166 -44 44.499h-2l-20.5 -14.5c-9 -6.33301 -19 -12.666 -30 -18.999
s-22.667 -11.833 -35 -16.5s-24.166 -7 -35.499 -7c-21.333 0 -44.333 4.16699 -69 12.5s-47.5 21.5 -68.5 39.5s-38.5 40.833 -52.5 68.5s-21 61.167 -21 100.5c0 40 7.66699 75.333 23 106s34.833 56.167 58.5 76.5s49.834 35.666 78.501 45.999s56.334 15.5 83.001 15.5
c7.33301 0 18.666 -2.33301 33.999 -7s31.666 -12.334 48.999 -23.001h1c0 36.667 -0.166992 71.5 -0.5 104.5s-1.16602 68.5 -2.49902 106.5l-63 26l9 19c11.333 4.66699 29.666 10 54.999 16s55 11.333 89 16c-1.33301 -52 -2.16602 -103.167 -2.49902 -153.5
s-0.5 -103.166 -0.5 -158.499v-325z" />
    <glyph glyph-name="e" unicode="e" horiz-adv-x="454" 
d="M329 271c3.33301 8 5 18 5 30c0 14.667 -1.83301 29 -5.5 43s-9.16699 26.5 -16.5 37.5s-16.5 19.667 -27.5 26s-23.833 9.5 -38.5 9.5c-20.667 0 -38.334 -5.66699 -53.001 -17s-26.667 -24.666 -36 -39.999s-16.166 -31.333 -20.499 -48s-6.5 -30.334 -6.5 -41.001h199
zM129 233c-0.666992 -3.33301 -0.996094 -8 -0.996094 -14c0 -28 4.16699 -53.167 12.5 -75.5s19.666 -41.333 33.999 -57s31.166 -27.5 50.499 -35.5s40.333 -12 63 -12c13.333 0 24.666 2 33.999 6l45.5 31.5c14.333 9.66699 27.166 17.167 38.499 22.5l5 -16
c-1.33301 -5.33301 -4.5 -11.666 -9.5 -18.999s-10.5 -14.5 -16.5 -21.5l-17.5 -19.5c-5.66699 -6 -10.167 -10 -13.5 -12c-4.66699 -2 -11.167 -4.5 -19.5 -7.5s-17.333 -5.66699 -27 -8s-19.667 -4.33301 -30 -6s-19.833 -2.5 -28.5 -2.5
c-31.333 0 -59.833 5.16699 -85.5 15.5s-48 25.166 -67 44.499s-33.667 42.833 -44 70.5s-15.5 58.834 -15.5 93.501c0 36 6 68.667 18 98s28 54.666 48 75.999s43 37.833 69 49.5s53.333 17.5 82 17.5c22.667 0 44.167 -3.83301 64.5 -11.5s38.333 -18.667 54 -33
s28 -32.333 37 -54s13.5 -46.5 13.5 -74.5c0 -6 -0.833008 -12.167 -2.5 -18.5s-4.16699 -10.833 -7.5 -13.5c-5.33301 -2 -16.5 -4.83301 -33.5 -8.5s-37.167 -5.5 -60.5 -5.5h-190z" />
    <glyph glyph-name="f" unicode="f" horiz-adv-x="300" 
d="M28 20l65 31.002c0.666992 6.66699 1.33398 27.167 2.00098 61.5s1 81.166 1 140.499v139l-67 15l16 32h51c0 41.333 5 79.833 15 115.5s28 67.167 54 94.5c20 21.333 41.167 36.833 63.5 46.5s46.166 14.5 71.499 14.5c17.333 0 32.166 -2.16699 44.499 -6.5
s21.833 -9.5 28.5 -15.5c-5.33301 -18.667 -11 -35.834 -17 -51.501s-11.667 -28.167 -17 -37.5l-14 -8c-5.33301 7.33301 -11.333 17.5 -18 30.5s-13.667 29.5 -21 49.5c-3.33301 1.33301 -7.66602 2 -12.999 2c-24.667 0 -44.667 -12.833 -60 -38.5
s-24.666 -63.5 -27.999 -113.5c-1.33301 -15.333 -2 -30 -2 -44v-38h128l-17 -33l-111 -13c-0.666992 -10 -1.33398 -26.333 -2.00098 -49s-1 -50.334 -1 -83.001v-95c0 -25.333 0.166992 -45.666 0.5 -60.999s0.666016 -27 0.999023 -35s0.5 -13.667 0.5 -17l95 -31l-7 -23
c-21.333 0 -43.666 0.166992 -66.999 0.5s-47 0.5 -71 0.5c-18 -0 -36.167 -0.166992 -54.5 -0.5s-36.833 -0.5 -55.5 -0.5z" />
    <glyph glyph-name="g" unicode="g" horiz-adv-x="480" 
d="M240 -9c-26.667 0 -45.667 -0.999023 -57 -2.99902s-20.333 -4.66699 -27 -8c-4 -4 -8.83301 -9.33301 -14.5 -16s-11 -13.667 -16 -21s-9.16699 -14.833 -12.5 -22.5s-5 -14.167 -5 -19.5c0 -16 3.83301 -29.833 11.5 -41.5s17.834 -21.334 30.501 -29.001
s26.667 -13.167 42 -16.5s30.666 -5 45.999 -5c20.667 0 40.5 2.33301 59.5 7s35.667 11.667 50 21s25.666 21 33.999 35s12.5 30.667 12.5 50c0 16 -4.5 29.5 -13.5 40.5s-21.5 18.5 -37.5 22.5c-12 2 -25.167 3.5 -39.5 4.5s-35.166 1.5 -62.499 1.5h-1zM226 418.001
c-15.333 0 -28.502 -3.49707 -39.502 -10.4971s-20.167 -16.333 -27.5 -28s-12.833 -24.834 -16.5 -39.501s-5.5 -29.667 -5.5 -45c0 -14.667 1.83301 -29.334 5.5 -44.001s9.33398 -27.834 17.001 -39.501s17.167 -21.167 28.5 -28.5s25 -11 41 -11
c29.333 0 51.5 12 66.5 36s22.5 53.667 22.5 89c0 13.333 -1.83301 27.166 -5.5 41.499s-9.16699 27.333 -16.5 39s-16.666 21.334 -27.999 29.001s-25 11.5 -41 11.5h-1zM365.998 392.004l0.00195312 -1.99902c6.66699 -6.66699 14 -18.5 22 -35.5s12 -37.5 12 -61.5
c0 -23.333 -4.5 -44.666 -13.5 -63.999s-21.5 -35.833 -37.5 -49.5s-34.833 -24.167 -56.5 -31.5s-44.834 -11 -69.501 -11c-16 0 -31 1.66699 -45 5s-26.667 7.66602 -38 12.999c-8 -8 -14.667 -16.5 -20 -25.5s-8 -15.5 -8 -19.5c0 -4.66699 1.5 -9.66699 4.5 -15
s6.66699 -10.333 11 -15s9.33301 -8.5 15 -11.5s11.167 -4.5 16.5 -4.5c10.667 0.666992 24.5 1.66699 41.5 3s35.167 2.16602 54.5 2.49902s39 0.333008 59 0s38 -1.5 54 -3.5c14.667 -2 26.834 -5.16699 36.501 -9.5s18.5 -10.166 26.5 -17.499
c8.66699 -7.33301 16.667 -18 24 -32s11 -30 11 -48c0 -28 -8 -54 -24 -78s-36 -44.667 -60 -62c-21.333 -16.667 -47.166 -31.167 -77.499 -43.5s-64.833 -18.5 -103.5 -18.5c-24.667 0 -47.5 2.83301 -68.5 8.5s-39.333 13.667 -55 24s-27.834 22.666 -36.501 36.999
s-13 29.833 -13 46.5c0 6 1.5 11.5 4.5 16.5s6.5 9.83301 10.5 14.5l81 88v2c-7.33301 3.33301 -14.666 7.5 -21.999 12.5s-15 11.5 -23 19.5c-8.66699 8.66699 -16.334 19.167 -23.001 31.5s-10 23.5 -10 33.5c0 3.33301 2.16699 8 6.5 14s9.66602 12.667 15.999 20
s13.666 14.833 21.999 22.5s16.5 14.834 24.5 21.501c-18 11.333 -33 27.166 -45 47.499s-18 44.5 -18 72.5c0 20 4 39.667 12 59s20 36.833 36 52.5s35.667 28.167 59 37.5s50.333 14 81 14c14.667 0 27.667 -0.833008 39 -2.5l37 -5.5
c16 -3.33301 29.667 -5.83301 41 -7.5l31 -4.5l86 36l4 -10l-41 -62z" />
    <glyph glyph-name="h" unicode="h" horiz-adv-x="551" 
d="M463 73c0 -9.33301 1.50195 -15.5 4.50195 -18.5s8.16699 -6.16699 15.5 -9.5l53 -26l-7 -22c-21.333 -0.666992 -46.166 -0.333984 -74.499 0.999023s-56.5 3.66602 -84.5 6.99902c1.33301 10.667 2.5 23 3.5 37s2 31 3 51s1.66699 43.5 2 70.5s0.5 59.167 0.5 96.5
c0 28.667 -3.33301 51.667 -10 69s-15.334 30.833 -26.001 40.5s-22.334 16.167 -35.001 19.5s-25 5 -37 5c-35.333 0 -68 -12 -98 -36v-55v-64c0 -21.333 0.166992 -42.666 0.5 -63.999s0.5 -40.666 0.5 -57.999c0 -16.667 0.166992 -31 0.5 -43s0.833008 -19.333 1.5 -22
l72 -31l-8 -22c-18.667 0 -36.834 0.333008 -54.501 1s-36.167 1 -55.5 1c-17.333 0 -34.833 -0.333008 -52.5 -1s-35.167 -1 -52.5 -1l7 23l54 30c1.33301 6.66699 2.16602 30.5 2.49902 71.5s0.5 94.5 0.5 160.5c0 63.333 -0.166992 123.666 -0.5 180.999
s-1.16602 113.333 -2.49902 168l-58 26l6 19c29.333 10 76.666 20.667 141.999 32c-1.33301 -48 -2.16602 -99.333 -2.49902 -154s-0.5 -109 -0.5 -163l2 -1c32 24.667 58.833 40.834 80.5 48.501s41.167 11.5 58.5 11.5c25.333 0 47.333 -4.66699 66 -14
s34.167 -21.333 46.5 -36s21.5 -31 27.5 -49s9 -35.333 9 -52v-228z" />
    <glyph glyph-name="i" unicode="i" horiz-adv-x="268" 
d="M46 423c4 1.33301 10.501 3.33301 19.501 6s19.5 5.5 31.5 8.5s25.167 5.83301 39.5 8.5s28.5 4.66699 42.5 6v-202c0 -56 0.166992 -99.5 0.5 -130.5s0.833008 -53.5 1.5 -67.5l71 -30l-7 -23c-17.333 0 -35.5 0.166992 -54.5 0.5s-38.167 0.5 -57.5 0.5
c-16 -0 -32.5 -0.166992 -49.5 -0.5s-35.167 -0.5 -54.5 -0.5l7 23l57 30c0 8.66699 0.166992 20.167 0.5 34.5s0.666016 30.5 0.999023 48.5s0.5 37 0.5 57v60v126l-54 26zM140.001 659c7.33301 -2.66699 16.333 -9.99902 27 -21.999s18.334 -23.333 23.001 -34l-2 -8
c-2 -4.66699 -5.33301 -9.83398 -10 -15.501l-14.5 -17c-5 -5.66699 -10.167 -10.667 -15.5 -15s-9.66602 -7.5 -12.999 -9.5l-8 -2c-8.66699 5.33301 -17.834 13.833 -27.501 25.5s-16.834 22.167 -21.501 31.5l2 8c7.33301 11.333 16 22.333 26 33s19.333 18.667 28 24z
" />
    <glyph glyph-name="j" unicode="j" horiz-adv-x="253" 
d="M38 423c6.66699 2.66699 15.999 5.49805 27.999 8.49805s24.667 6 38 9s26.5 5.5 39.5 7.5s23.5 3.33301 31.5 4v-364c0 -24.667 -2.66699 -51.667 -8 -81s-15.333 -58 -30 -86c-24 -46 -47 -81.167 -69 -105.5s-43.333 -43.833 -64 -58.5l-26 14l-1 9
c26 19.333 46.5 40.833 61.5 64.5s26.5 48.667 34.5 75s13 53.833 15 82.5s3 58 3 88v71c0 27.333 -0.166992 54.833 -0.5 82.5s-0.666016 53.834 -0.999023 78.501s-0.833008 44.334 -1.5 59.001l-27.5 11c-9.66699 4 -19.167 8.33301 -28.5 13zM133.999 658.998
c6.66699 -2.66699 15.3301 -9.99902 25.9971 -21.999s18.334 -23.333 23.001 -34l-2 -8c-2 -4.66699 -5.16699 -9.83398 -9.5 -15.501s-9.16602 -11.167 -14.499 -16.5s-10.666 -10.333 -15.999 -15s-9.66602 -8 -12.999 -10l-8 -2c-8.66699 5.33301 -18 13.833 -28 25.5
s-17.333 22.167 -22 31.5l3 8c7.33301 11.333 16.166 22.333 26.499 33s19.5 18.667 27.5 24z" />
    <glyph glyph-name="k" unicode="k" horiz-adv-x="500" 
d="M248 22l-6.00098 -23.001c-18.667 0 -37.5 0.166992 -56.5 0.5s-38.167 0.5 -57.5 0.5c-17.333 0 -34.833 -0.166992 -52.5 -0.5s-35.167 -0.5 -52.5 -0.5l6 22l57 30c0.666992 4.66699 1.16699 12.5 1.5 23.5s0.666016 25.5 0.999023 43.5s0.5 40.333 0.5 67v95
c0 63.333 -0.166992 124.5 -0.5 183.5s-1.16602 115.5 -2.49902 169.5l-56 26l9 20c6.66699 2 15.834 4.5 27.501 7.5s24 6 37 9l38.5 8.5c12.667 2.66699 23.667 4.66699 33 6c-1.33301 -53.333 -2.16602 -109.166 -2.49902 -167.499s-0.5 -117.833 -0.5 -178.5v-87
c0 -33.333 0.166992 -65.833 0.5 -97.5s0.666016 -59.5 0.999023 -83.5s0.833008 -38.667 1.5 -44zM491.999 -16.001c-27.333 1.33301 -52.333 5.50098 -75 12.501s-43 19.167 -61 36.5c-11.333 10.667 -24 23.834 -38 39.501l-43 50l-44 54
c-14.667 18.333 -28 36.166 -40 53.499l-1 5l34.5 39l37 43l35.5 43.5l31 39.5l19 52c10.667 0 22.667 -0.333008 36 -1s26.333 -1.66699 39 -3s24.334 -2.83301 35.001 -4.5s19 -3.16699 25 -4.5l-14 -23c-4 -2 -10.333 -4.66699 -19 -8s-18.334 -6.83301 -29.001 -10.5
l-31 -11c-10 -3.66699 -18.333 -6.83398 -25 -9.50098l-23 -22l-20.5 -21.5l-22.5 -25l-30 -33.5v-3l53.5 -69.5l64.5 -79.5l63 -76l49 -58z" />
    <glyph glyph-name="l" unicode="l" horiz-adv-x="261" 
d="M246 23l-9 -23.999c-19.333 0 -37.5 0.166992 -54.5 0.5s-34.167 0.5 -51.5 0.5c-18.667 0 -37.334 -0.166992 -56.001 -0.5s-37.334 -0.5 -56.001 -0.5l5 22l63 29c0 10 0.166992 22.333 0.5 37s0.666016 34.834 0.999023 60.501s0.5 58.167 0.5 97.5v152v68
c0 23.333 -0.166992 45.666 -0.5 66.999s-0.666016 41 -0.999023 59s-0.833008 33 -1.5 45l-58 24l10 21c8 2.66699 17.667 5.5 29 8.5s23.333 5.83301 36 8.5s25.334 5 38.001 7s24.334 3.66699 35.001 5c-1.33301 -52 -2.16602 -102.833 -2.49902 -152.5
s-0.5 -101.834 -0.5 -156.501v-129c0 -36 0.166992 -67.333 0.5 -94s0.666016 -50 0.999023 -70s0.5 -39.333 0.5 -58z" />
    <glyph glyph-name="m" unicode="m" horiz-adv-x="840" 
d="M96 373l-52.9971 21.998l7 20c5.33301 2.66699 13.666 6 24.999 10s23.5 8 36.5 12s25.667 7.5 38 10.5s22.5 4.5 30.5 4.5l-5 -81h2c31.333 25.333 59.5 45.166 84.5 59.499s48.833 21.5 71.5 21.5c26.667 0 50.834 -7.33301 72.501 -22s37.167 -34.667 46.5 -60
c35.333 29.333 65.666 50.333 90.999 63s50 19 74 19c42 0 75 -14 99 -42s36 -64 36 -108v-238c0 -7.33301 6.33301 -14 19 -20l53 -23l-5 -22c-17.333 0 -35 0.166992 -53 0.5s-36.333 0.5 -55 0.5c-15.333 0 -31 -0.166992 -47 -0.5s-32.667 -0.5 -50 -0.5l6 23l44 30
c1.33301 18 2.5 44.5 3.5 79.5s1.16699 80.833 0.5 137.5c0 14 -1.16699 28.333 -3.5 43s-6.83301 28 -13.5 40s-16 21.667 -28 29s-28 11 -48 11c-35.333 0 -73.666 -18.667 -114.999 -56c1.33301 -9.33301 2.66602 -21.166 3.99902 -35.499s2 -30.166 2 -47.499v-201
l59 -30l-7 -23c-14 0 -29.167 0.166992 -45.5 0.5s-32.5 0.5 -48.5 0.5s-32.167 -0.166992 -48.5 -0.5s-32.833 -0.5 -49.5 -0.5l6 24l48 28c0.666992 30 1.16699 64.167 1.5 102.5s0.5 79.5 0.5 123.5c0 12.667 -1.16699 25.834 -3.5 39.501s-7 26 -14 37
s-16.667 20 -29 27s-28.833 10.5 -49.5 10.5c-16 0 -33.5 -5.33301 -52.5 -16s-36.833 -23.667 -53.5 -39v-90v-85c0 -26 0.166992 -48.833 0.5 -68.5s0.833008 -33.5 1.5 -41.5l60 -28l-6 -24c-12.667 0 -27.834 0.166992 -45.501 0.5s-36.5 0.5 -56.5 0.5
c-16 -0 -33 -0.166992 -51 -0.5s-34.667 -0.5 -50 -0.5l6 24l55 28c0 4.66699 0.166992 13.5 0.5 26.5s0.666016 28.5 0.999023 46.5s0.5 38 0.5 60v70v119z" />
    <glyph glyph-name="n" unicode="n" horiz-adv-x="557" 
d="M96 371l-52.999 23.002l7 21c4 2 11.5 5 22.5 9s23.167 8 36.5 12s26.5 7.66699 39.5 11s23.5 5 31.5 5l-6 -79h2c18.667 15.333 35.667 28.166 51 38.499s29.166 18.5 41.499 24.5s23.833 10.167 34.5 12.5s21 3.5 31 3.5c26 0 47.667 -4.83301 65 -14.5
s31.166 -22.167 41.499 -37.5s17.666 -32.333 21.999 -51s6.5 -37.334 6.5 -56.001v-227c0 -8.66699 4.66699 -15 14 -19l59 -25l-7 -23c-13.333 0 -30.5 0.166992 -51.5 0.5s-41.167 0.5 -60.5 0.5c-14 -0 -28.5 -0.166992 -43.5 -0.5s-30.167 -0.5 -45.5 -0.5l7 25l40 29
c1.33301 15.333 2.33301 41.333 3 78s1 88 1 154c0 38 -9.33301 65.333 -28 82s-40.667 25 -66 25c-21.333 0 -42.166 -6 -62.499 -18s-36.5 -24.333 -48.5 -37v-47v-57v-61c0 -20 0.166992 -38.667 0.5 -56s0.5 -32 0.5 -44s0.333008 -19.667 1 -23l56 -26l-6 -24
c-13.333 0.666992 -28.666 1 -45.999 1h-50c-17.333 -0 -35.166 -0.166992 -53.499 -0.5s-35.5 -0.5 -51.5 -0.5l7 23l55 28c0.666992 4 1.16699 12.5 1.5 25.5s0.666016 29.667 0.999023 50s0.5 43.833 0.5 70.5v87v88z" />
    <glyph glyph-name="o" unicode="o" horiz-adv-x="525" 
d="M261 417c-21.333 0 -39.834 -5.66797 -55.501 -17.001s-28.834 -26.166 -39.501 -44.499s-18.5 -39.166 -23.5 -62.499s-7.5 -47 -7.5 -71c0 -23.333 2.83301 -47 8.5 -71s14.334 -45.5 26.001 -64.5s26 -34.5 43 -46.5s36.5 -18 58.5 -18c22.667 0 41.834 6 57.501 18
s28 27.333 37 46s15.5 39.5 19.5 62.5s6 45.167 6 66.5c0 23.333 -2.66699 47 -8 71s-13.333 45.667 -24 65s-24 35.166 -40 47.499s-35 18.5 -57 18.5h-1zM265.999 451.999c30.667 0 59.5 -5.66699 86.5 -17s50.5 -27 70.5 -47s35.833 -44 47.5 -72s17.5 -58.667 17.5 -92
c0 -36 -5.83301 -68.5 -17.5 -97.5s-27.5 -53.833 -47.5 -74.5s-43.667 -36.667 -71 -48s-57 -17 -89 -17c-28 0 -55.333 5 -82 15s-50.667 24.5 -72 43.5s-38.5 42.667 -51.5 71s-19.5 60.833 -19.5 97.5c0 38 7 71.833 21 101.5s32 54.5 54 74.5s46.333 35.333 73 46
s53 16 79 16h1z" />
    <glyph glyph-name="p" unicode="p" horiz-adv-x="538" 
d="M173 56c9.33301 -5.33301 20.499 -10.167 33.499 -14.5s26.833 -6.5 41.5 -6.5c20.667 0 40.834 4.33301 60.501 13s36.834 21.167 51.501 37.5s26.5 36 35.5 59s13.5 49.167 13.5 78.5c0 22.667 -3.33301 44.334 -10 65.001s-16.167 38.667 -28.5 54
s-27.333 27.666 -45 36.999s-37.5 14 -59.5 14c-12.667 0 -26.834 -2.83301 -42.501 -8.5s-32.5 -15.167 -50.5 -28.5v-300zM168.999 388.999l2 -0.996094c32 22 58.833 38.167 80.5 48.5s40.167 15.5 55.5 15.5c20.667 0 42.334 -4.33301 65.001 -13
s43.5 -21.834 62.5 -39.501s34.667 -39.834 47 -66.501s18.5 -58 18.5 -94c0 -44 -8.16699 -82 -24.5 -114s-36.833 -58.167 -61.5 -78.5s-51 -35.333 -79 -45s-53.667 -14.5 -77 -14.5c-4.66699 0 -10.5 0.833008 -17.5 2.5s-14.5 4 -22.5 7s-15.667 6.33301 -23 10
s-14 7.5 -20 11.5l-2 -1c0 -36.667 0.333008 -71.167 1 -103.5s1.66699 -60.833 3 -85.5l93 -31l-9 -23c-22.667 0 -44.334 0.166992 -65.001 0.5s-42.667 0.5 -66 0.5c-17.333 0 -34.833 -0.166992 -52.5 -0.5s-35.167 -0.5 -52.5 -0.5l9 25l51 26
c0.666992 17.333 1.5 49.166 2.5 95.499s1.5 106.166 1.5 179.499v277l-56 30l9 20c4 2 11.5 4.5 22.5 7.5s23 5.83301 36 8.5s26.167 5.16699 39.5 7.5s24.333 3.5 33 3.5z" />
    <glyph glyph-name="q" unicode="q" horiz-adv-x="532" 
d="M365 381c-6.66699 5.33301 -16.3369 10.667 -29.0039 16s-27.667 8 -45 8c-22.667 0 -43.667 -4.66699 -63 -14s-36.166 -22.333 -50.499 -39s-25.666 -36 -33.999 -58s-12.5 -45.667 -12.5 -71c0 -27.333 4.16699 -52 12.5 -74s19.666 -40.833 33.999 -56.5
s30.833 -27.667 49.5 -36s38.334 -12.5 59.001 -12.5c14.667 0 28.834 2 42.501 6s25.834 9.66699 36.501 17v314zM448.997 134.001l0.00488281 -88.002c0 -30 0.166992 -59 0.5 -87s0.5 -53.667 0.5 -77v-55l85 -29l-7 -24c-20.667 0 -41.167 0.166992 -61.5 0.5
s-41.166 0.5 -62.499 0.5c-20 0 -40 -0.166992 -60 -0.5s-40.333 -0.5 -61 -0.5l6 23l71 29c1.33301 37.333 2.16602 73.833 2.49902 109.5s1.16602 66.834 2.49902 93.501l-2 1c-19.333 -11.333 -38.833 -21.333 -58.5 -30s-36.834 -13 -51.501 -13
c-29.333 0 -57 5.33301 -83 16s-48.833 25.667 -68.5 45s-35.167 43 -46.5 71s-17 59 -17 93c0 32 6.5 62.5 19.5 91.5s30.5 54.5 52.5 76.5s47.667 39.5 77 52.5s60 19.5 92 19.5c16.667 0 33.167 -3.33301 49.5 -10s32.5 -15.667 48.5 -27c5.33301 4 12.333 8 21 12
s17.667 7.83301 27 11.5s18.666 6.66699 27.999 9s17.666 3.83301 24.999 4.5l3 -6c-2.66699 -13.333 -7.33398 -27.166 -14.001 -41.499s-12.667 -25.833 -18 -34.5v-236z" />
    <glyph glyph-name="r" unicode="r" horiz-adv-x="383" 
d="M52 418c4 2 10.832 4.82812 20.499 8.49512s20.167 7.33398 31.5 11.001s22.833 6.83398 34.5 9.50098s21.167 4.33398 28.5 5.00098c3.33301 -11.333 6 -26.666 8 -45.999s2.66699 -36.666 2 -51.999h2c10 18 21.167 33.167 33.5 45.5s24.666 22.333 36.999 30
s24.333 13.334 36 17.001s22.5 5.5 32.5 5.5s19.333 -1.5 28 -4.5s15.667 -7.16699 21 -12.5c-0.666992 -7.33301 -2.16699 -15.833 -4.5 -25.5s-5 -19.667 -8 -30s-6.33301 -20.333 -10 -30s-7.16699 -17.5 -10.5 -23.5l-12 -7
c-5.33301 7.33301 -10.833 16.166 -16.5 26.499s-12.167 23.833 -19.5 40.5c-4 2 -9 3 -15 3c-7.33301 0 -15.333 -2.16699 -24 -6.5s-17.167 -10.5 -25.5 -18.5s-16.166 -17.167 -23.499 -27.5s-13.333 -21.5 -18 -33.5v-253l101 -29l-5 -22
c-19.333 0 -41 0.166992 -65 0.5s-49.667 0.5 -77 0.5c-16 -0 -33.5 -0.166992 -52.5 -0.5s-36.167 -0.5 -51.5 -0.5l5 22l57 30c0.666992 26 1.33398 54.833 2.00098 86.5s1.16699 62.667 1.5 93s0.5 57.833 0.5 82.5v56l-52 29z" />
    <glyph glyph-name="s" unicode="s" horiz-adv-x="388" 
d="M199 452c11.333 0 23.4951 -1.99902 36.4951 -5.99902s25.5 -10 37.5 -18c8 5.33301 16.5 10.166 25.5 14.499s17.833 8.16602 26.5 11.499l8 -7c0 -4.66699 -0.833008 -12.5 -2.5 -23.5s-3.66699 -22.667 -6 -35s-4.83301 -24.333 -7.5 -36
s-5.33398 -20.5 -8.00098 -26.5l-14 -6c-5.33301 10 -11.166 22.167 -17.499 36.5l-17.5 40.5c-3.33301 2.66699 -9.66602 6.16699 -18.999 10.5s-22.666 6.5 -39.999 6.5c-25.333 0 -44.333 -7 -57 -21s-19 -30 -19 -48c0 -12 2.66699 -22.167 8 -30.5
s14.666 -16.5 27.999 -24.5l27 -13.5l31.5 -15l32.5 -15l29 -13.5c28 -13.333 47.667 -29 59 -47s17 -37.667 17 -59c0 -27.333 -6.33301 -50 -19 -68s-28 -32.333 -46 -43s-37.167 -18.167 -57.5 -22.5s-38.166 -6.5 -53.499 -6.5c-26.667 0 -53.167 4.16699 -79.5 12.5
s-48.166 18.5 -65.499 30.5c0 4.66699 0.833008 12.334 2.5 23.001s3.83398 21.834 6.50098 33.501s5.33398 22.5 8.00098 32.5s4.66699 16.667 6 20l14 8c3.33301 -6.66699 7.16602 -15 11.499 -25l13 -31.5l12.5 -32l10 -25.5c16.667 -6.66699 37 -10 61 -10
c26.667 0 48.834 7 66.501 21s26.5 31.333 26.5 52c0 13.333 -2.83301 24.833 -8.5 34.5s-16.167 18.167 -31.5 25.5c-13.333 7.33301 -28.166 14.833 -44.499 22.5l-52.5 25.5c-28 12.667 -49.667 28.5 -65 47.5s-23 42.5 -23 70.5c0 16 3 31.667 9 47
s15.333 29.166 28 41.499s28.167 22.333 46.5 30s40.166 11.5 65.499 11.5h1z" />
    <glyph glyph-name="t" unicode="t" horiz-adv-x="332" 
d="M323 439l-19.001 -35.998l-134 -12v-47c0 -19.333 -0.166992 -41.333 -0.5 -66s-0.5 -51.334 -0.5 -80.001v-88c0 -12.667 1.83301 -22.834 5.5 -30.501s7.16699 -13.167 10.5 -16.5c5.33301 -4 12 -7.5 20 -10.5s18 -4.5 30 -4.5c18.667 0 34.834 2.5 48.501 7.5
s24.5 10.5 32.5 16.5l4 -2l-1 -31c-12.667 -15.333 -28.667 -27.833 -48 -37.5s-42 -14.5 -68 -14.5c-19.333 0 -37.333 3.66699 -54 11s-30.667 17.666 -42 30.999c-4 5.33301 -7.5 11 -10.5 17s-5.33301 13 -7 21s-3 17.667 -4 29s-1.5 25 -1.5 41v254l-67 13l17 35h52
c0.666992 6.66699 2 14.834 4 24.501l6.5 30.5c2.33301 10.667 4.83301 21.167 7.5 31.5s5.66699 19.833 9 28.5c6.66699 8 16.667 15 30 21s23.333 9 30 9l-3 -145h153z" />
    <glyph glyph-name="u" unicode="u" horiz-adv-x="543" 
d="M27 409l9.99805 19.999c6 2 14.667 4 26 6s23.5 3.66699 36.5 5s26 2.5 39 3.5s24.5 1.5 34.5 1.5c-1.33301 -11.333 -2.33301 -25 -3 -41s-1.33398 -35.667 -2.00098 -59s-1.16699 -50.833 -1.5 -82.5s-0.5 -68.5 -0.5 -110.5c0 -19.333 1.83301 -34.666 5.5 -45.999
s7.83398 -20.333 12.501 -27c7.33301 -8 17 -14.833 29 -20.5s26.667 -8.5 44 -8.5c20.667 0 41.334 5.33301 62.001 16s36.334 24.667 47.001 42v262c-3.33301 8 -9.66602 14.5 -18.999 19.5s-26 11.833 -50 20.5l10 20c8.66699 2 19.5 4 32.5 6s26.333 3.66699 40 5
s27 2.33301 40 3s24.167 1 33.5 1c-0.666992 -12 -1.16699 -25.833 -1.5 -41.5s-0.666016 -37 -0.999023 -64s-0.5 -61.5 -0.5 -103.5v-160c10 -17.333 22.167 -30.333 36.5 -39s28.166 -14.667 41.499 -18l-6 -17c-5.33301 -3.33301 -13 -6.33301 -23 -9s-21.333 -4 -34 -4
c-9.33301 0 -19 1 -29 3s-19.5 5.66699 -28.5 11s-17 13 -24 23s-11.833 22.667 -14.5 38h-2c-19.333 -20.667 -40.833 -38.667 -64.5 -54s-50.834 -23 -81.501 -23c-17.333 0 -35 2.83301 -53 8.5s-33.667 15.167 -47 28.5c-26.667 26 -40 67.333 -40 124
c0 16.667 0.166992 35 0.5 55l1 61.5l1 62.5c0.333008 20.667 0.5 39.667 0.5 57z" />
    <glyph glyph-name="v" unicode="v" horiz-adv-x="465" 
d="M3 440c13.333 -0.666992 27.6641 -1.00293 42.9971 -1.00293h51h45c14.667 0 29.667 0.333008 45 1l-8 -26l-31 -25c10 -29.333 24.167 -67.333 42.5 -114l65.5 -166l2 -1l15.5 39.5l20.5 53l28 76l39 108.5l-43 31l7 24c8.66699 -0.666992 19.334 -1 32.001 -1h36h43
c15.333 0 28.666 0.333008 39.999 1l-7 -25c-15.333 -6.66699 -27.166 -13 -35.499 -19s-17.166 -14.667 -26.499 -26c-2.66699 -4.66699 -7.16699 -14.167 -13.5 -28.5l-22 -51.5l-27.5 -65l-29 -69.5l-27 -66l-22 -54.5c-4.66699 -9.33301 -10.667 -19.166 -18 -29.499
s-14 -18.166 -20 -23.499h-9c-2 4.66699 -8.16699 19.834 -18.5 45.501l-37.5 94l-49 121.5l-53 129c-8.66699 12 -18.167 21 -28.5 27s-23.166 12 -38.499 18z" />
    <glyph glyph-name="w" unicode="w" horiz-adv-x="708" 
d="M194 415l-37.998 -26.0029c6.66699 -23.333 17.334 -57.166 32.001 -101.499l58 -174.5h2l48.5 120.5c15 37 29.167 74.167 42.5 111.5l-9 60c2 2 6 4.66699 12 8s12.667 6.83301 20 10.5s14.666 7 21.999 10s13.666 5.16699 18.999 6.5l7 -5l5 -74l44.5 -117.5
l53.5 -136.5h2l23 72.5l21 66.5l20 67.5l21 74.5l-52 28l9 24c12.667 0 25.5 -0.166992 38.5 -0.5s26.167 -0.5 39.5 -0.5s26.5 0.166992 39.5 0.5s26.167 0.5 39.5 0.5l-5 -24c-15.333 -6 -27.333 -11.833 -36 -17.5s-17 -12.5 -25 -20.5l-17 -45l-28.5 -78.5l-37 -104.5
l-42.5 -122c-5.33301 -7.33301 -11.833 -15.333 -19.5 -24s-14.5 -16 -20.5 -22h-8l-57 145l-60 152h-2l-25.5 -60.5l-23 -55l-24.5 -59.5l-30 -75c-5.33301 -7.33301 -11.833 -15.666 -19.5 -24.999s-14.5 -16.666 -20.5 -21.999h-8l-32 94.5l-39.5 112.5l-38.5 108
c-12 34 -22 61 -30 81c-7.33301 9.33301 -15.333 16.5 -24 21.5s-21.667 10.167 -39 15.5l8 25c17.333 0 34.166 -0.166992 50.499 -0.5s32.5 -0.5 48.5 -0.5c15.333 0 30.5 0.166992 45.5 0.5s30.167 0.5 45.5 0.5z" />
    <glyph glyph-name="x" unicode="x" horiz-adv-x="490" 
d="M256 288l2 0.00292969l30 50c8.66699 14 17 29 25 45c4 11.333 6.33301 21.166 7 29.499s1 17.5 1 27.5c9.33301 -0.666992 18.666 -1.16699 27.999 -1.5s18.666 -0.5 27.999 -0.5c15.333 0 30.666 0.166992 45.999 0.5s30.666 0.833008 45.999 1.5l-7 -24l-38.5 -13.5
c-10.333 -3.66699 -19.333 -7.33398 -27 -11.001s-14.334 -7.33398 -20.001 -11.001s-11.167 -7.5 -16.5 -11.5c-5.33301 -7.33301 -10.833 -14.5 -16.5 -21.5l-18.5 -24l-22 -30c-8 -11 -17 -24.167 -27 -39.5c7.33301 -14 16 -29.667 26 -47l30.5 -51.5l28.5 -46l19 -30.5
c10.667 -16.667 23.334 -27 38.001 -31l71 -24l-9 -24c-6.66699 0 -16.167 -0.333008 -28.5 -1s-25.666 -1.16699 -39.999 -1.5s-29.166 -0.833008 -44.499 -1.5s-29.666 -1 -42.999 -1l-18.5 36.5c-5.66699 11.667 -12.167 24.167 -19.5 37.5l-25.5 45.5l-35.5 62.5h-2
l-28 -45c-7.33301 -12 -13.5 -22.5 -18.5 -31.5l-13.5 -24.5l-12 -23c1.33301 -4 3.66602 -8.33301 6.99902 -13s9.66602 -11 18.999 -19l-7 -22c-10.667 0 -22.667 0.333008 -36 1s-26.333 1 -39 1c-16 0 -31.5 -0.333008 -46.5 -1s-28.833 -1 -41.5 -1l6 23l55 25
c8.66699 4 16.334 8.5 23.001 13.5s12.667 11.167 18 18.5l19 25.5l20 27.5l24.5 34.5l32.5 47.5l-40 69.5l-27.5 47.5l-18.5 30.5c-4.66699 7.66699 -9 13.834 -13 18.501c-6 5.33301 -15.167 10.666 -27.5 15.999s-32.166 12 -59.499 20l9 24
c14 -0.666992 28.5 -1.16699 43.5 -1.5s30.167 -0.5 45.5 -0.5c12.667 0 24.834 0.166992 36.501 0.5s25.167 0.833008 40.5 1.5l-4 -38z" />
    <glyph glyph-name="y" unicode="y" horiz-adv-x="458" 
d="M318 440c10 0 21.1699 -0.166992 33.5029 -0.5s23.833 -0.5 34.5 -0.5c15.333 0 30.166 0.166992 44.499 0.5s27.833 0.5 40.5 0.5l-6 -23c-15.333 -7.33301 -27.5 -14.333 -36.5 -21s-17.167 -13.667 -24.5 -21l-36 -82.5l-49 -117.5l-59 -143.5l-67 -159.5
c-4.66699 -19.333 -9 -38.666 -13 -57.999s-8.33301 -37.666 -13 -54.999c-4.66699 -2.66699 -12.334 -4 -23.001 -4c-15.333 0 -30.166 3.83301 -44.499 11.5s-23.5 14.5 -27.5 20.5c2 4.66699 6 11.167 12 19.5s13.167 17.666 21.5 27.999l26.5 32l27 31.5l25 52
c10 21.333 18.667 40.666 26 57.999l-11 27l-21.5 55l-27.5 72.5l-30 78.5l-29 73.5l-24 58.5c-3.33301 4.66699 -6.83301 9 -10.5 13s-8 7.5 -13 10.5s-11.333 6.16699 -19 9.5s-16.834 7 -27.501 11l9 23c15.333 -0.666992 30.666 -1 45.999 -1h48h47
c16 0 32 0.333008 48 1l-7 -24l-32 -25c6 -19.333 17.167 -51.333 33.5 -96l65.5 -179h2l29.5 77.5l28 76.5l24.5 68c7.33301 20.667 13 38 17 52l-46 26z" />
    <glyph glyph-name="z" unicode="z" horiz-adv-x="447" 
d="M403 429l-52.001 -83.502l-69.5 -108l-71.5 -110l-57 -89.5v-2c18 0 37.167 0.333008 57.5 1s39.166 1.33398 56.499 2.00098s32.333 1.5 45 2.5s20.334 1.83301 23.001 2.5c32 44.667 55 75.334 69 92.001l16 4c-0.666992 -8.66699 -1.83398 -19.667 -3.50098 -33
s-3.5 -27 -5.5 -41s-4.33301 -27.333 -7 -40s-5 -23 -7 -31c-25.333 0.666992 -55 1.66699 -89 3s-73.333 2 -118 2h-159l-1 8l128 188l134 205l-1 2c-8 0 -24.333 -0.166992 -49 -0.5s-64.667 -1.83301 -120 -4.5c-3.33301 -5.33301 -7.16602 -11.833 -11.499 -19.5
l-13.5 -23.5l-13.5 -22.5c-4.33301 -7 -8.16602 -12.5 -11.499 -16.5l-15 -4c-1.33301 4.66699 -2.33301 13.334 -3 26.001s-1.33398 26.167 -2.00098 40.5s-1.16699 27.666 -1.5 39.999s-0.166016 20.833 0.500977 25.5l3 3l71 -8h272z" />
    <glyph glyph-name="braceleft" unicode="{" 
d="M121 281l0.000976562 -1.99805l97 -64c-1.33301 -13.333 -2.83301 -29.166 -4.5 -47.499s-3.16699 -37.5 -4.5 -57.5s-2.5 -39.833 -3.5 -59.5s-1.5 -37.167 -1.5 -52.5c0 -35.333 6.66699 -64.5 20 -87.5s35.666 -44.167 66.999 -63.5l-12 -27
c-15.333 5.33301 -31.666 13.333 -48.999 24s-33.5 23.167 -48.5 37.5s-27.333 30 -37 47s-14.5 34.833 -14.5 53.5c0 40 3.16699 79.167 9.5 117.5s13.166 74.5 20.499 108.5l-99 64l5 15l94 64c-8 30 -15 62.667 -21 98s-9 72.666 -9 111.999
c0 18.667 4.83301 36.667 14.5 54s22 33.166 37 47.499s31.167 26.833 48.5 37.5s33.666 18.667 48.999 24l12 -27c-33.333 -18.667 -56.166 -39.834 -68.499 -63.501s-18.5 -53.167 -18.5 -88.5c0 -14.667 0.5 -31.667 1.5 -51s2.16699 -38.5 3.5 -57.5
s2.83301 -36.667 4.5 -53s3.16699 -29.5 4.5 -39.5z" />
    <glyph glyph-name="bar" unicode="|" horiz-adv-x="336" 
d="M200 724v-965h-64v965h64z" />
    <glyph glyph-name="braceright" unicode="}" horiz-adv-x="325" 
d="M213 279l0.000976562 1.00195l-100 65l4.5 46l5 53.5c1.66699 18.333 3 36.5 4 54.5s1.5 34.333 1.5 49c0 34.667 -6.66699 63.5 -20 86.5s-36 43.833 -68 62.5l10 27c16 -5.33301 32.833 -13.166 50.5 -23.499s34 -22.666 49 -36.999s27.5 -30.166 37.5 -47.499
s15 -35.333 15 -54c0 -38 -3.16699 -75.333 -9.5 -112s-13.5 -69.334 -21.5 -98.001l98 -64l-4 -15l-94 -65c8 -30 15.167 -64.833 21.5 -104.5s9.5 -79.167 9.5 -118.5c0 -18.667 -5 -36.834 -15 -54.501s-22.5 -33.834 -37.5 -48.501s-31.333 -27.334 -49 -38.001
s-34.5 -18.667 -50.5 -24l-10 27c33.333 18.667 56.333 40.167 69 64.5s19 54.166 19 89.499c0 14.667 -0.5 32.334 -1.5 53.001s-2.33301 41.167 -4 61.5s-3.33398 39.666 -5.00098 57.999s-3.16699 32.5 -4.5 42.5z" />
    <glyph glyph-name="asciitilde" unicode="~" horiz-adv-x="666" 
d="M182 266c-5.33301 0 -11.834 -2.5 -19.501 -7.5s-11.5 -12.5 -11.5 -22.5v-42l-79 -12v55c0 10 2.66699 19.333 8 28s12.333 16.167 21 22.5s18.334 11.5 29.001 15.5s21.667 6 33 6c6 0 10.667 -0.333008 14 -1l279 -47c5.33301 0 11.833 2.5 19.5 7.5
s11.5 12.5 11.5 22.5v42l79 12v-55c0 -10 -2.66699 -19.333 -8 -28s-12.333 -16.167 -21 -22.5s-18.5 -11.5 -29.5 -15.5s-21.833 -6 -32.5 -6c-6 0 -10.667 0.333008 -14 1z" />
    <glyph glyph-name="uni00A0" unicode="&#xa0;" horiz-adv-x="235" 
 />
    <glyph glyph-name="exclamdown" unicode="&#xa1;" horiz-adv-x="232" 
d="M124 229c4 -47.333 7.33203 -89.5 9.99902 -126.5s5.33398 -69.833 8.00098 -98.5s5.16699 -54 7.5 -76l6.5 -59l21 -48c-10 -6 -25.167 -13 -45.5 -21s-43.833 -13.667 -70.5 -17l-10 5c0.666992 8.66699 2.16699 25.167 4.5 49.5l9 92l12.5 127
c4.66699 47.667 10 99.5 16 155.5zM101.999 313c-4 2 -8.66797 5.33203 -14.001 9.99902s-10.666 10 -15.999 16s-10.5 12.167 -15.5 18.5s-8.83301 12.166 -11.5 17.499l3 10c2 4.66699 5.5 10.167 10.5 16.5s10.167 12.5 15.5 18.5s11 11.333 17 16s11 8 15 10l8 3
c10.667 -5.33301 21.5 -14.5 32.5 -27.5s19.167 -24.167 24.5 -33.5l-2 -10c-8 -11.333 -17.667 -23.166 -29 -35.499s-21.333 -21.166 -30 -26.499z" />
    <glyph glyph-name="cent" unicode="&#xa2;" horiz-adv-x="502" 
d="M273 502c-42.667 -11.333 -74.5 -33.499 -95.5 -66.499s-31.5 -71.5 -31.5 -115.5c0 -46 10.833 -84.333 32.5 -115s53.167 -51.334 94.5 -62.001v359zM273 619.001l34 9.00586v-83c17.333 0 34.166 -1.66699 50.499 -5s31.333 -7.5 45 -12.5s25.5 -10.5 35.5 -16.5
s17.667 -11.333 23 -16l-6 -18c-2.66699 -8 -5.66699 -16.333 -9 -25s-7 -17.334 -11 -26.001s-7.66699 -15.667 -11 -21l-15 -7c-3.33301 7.33301 -7.66602 20.166 -12.999 38.499s-10.666 38.166 -15.999 59.499c-6 3.33301 -15.5 6.16602 -28.5 8.49902
s-27.833 2.83301 -44.5 1.5v-369c9.33301 -1.33301 18.833 -1.66602 28.5 -0.999023s18.167 1.66699 25.5 3c14.667 12 30.167 24 46.5 36s30.166 21.667 41.499 29l9 -16c-2 -6 -5.5 -13.167 -10.5 -21.5s-10.833 -16.5 -17.5 -24.5s-13.667 -15.333 -21 -22
s-14.333 -12 -21 -16c-7.33301 -2 -19.333 -4.66699 -36 -8s-31.667 -5.33301 -45 -6v-76l-34 -13v89c-25.333 1.33301 -51 6.16602 -77 14.499s-49.667 21.166 -71 38.499s-38.666 39.666 -51.999 66.999s-20 60.666 -20 99.999c0 36.667 6.66699 68.834 20 96.501
s30.666 51 51.999 70s45 33.833 71 44.5s51.667 17.667 77 21v77z" />
    <glyph glyph-name="sterling" unicode="&#xa3;" horiz-adv-x="502" 
d="M475 143l-5.50098 -26.9941c-2.33301 -11.333 -5.16602 -23.833 -8.49902 -37.5s-7 -27.834 -11 -42.501s-8.33301 -28.334 -13 -41.001c-7.33301 0 -18.833 0.333008 -34.5 1s-34 1.16699 -55 1.5s-43.667 0.833008 -68 1.5s-48.5 1 -72.5 1h-204v12l36 38
c9.33301 2.66699 16.5 5.16699 21.5 7.5s9.16699 5.83301 12.5 10.5c5.33301 8 10.5 18.167 15.5 30.5s9.5 27.833 13.5 46.5s7.16699 41.167 9.5 67.5s3.16602 57.166 2.49902 92.499l-99 10l16 33h82v27c0 15.333 1 33.5 3 54.5s6.5 42.833 13.5 65.5s17.333 45 31 67
s32.5 41.333 56.5 58c16.667 11.333 34.834 19.666 54.501 24.999s39.167 8 58.5 8c22.667 0 43.167 -3.33301 61.5 -10s30.833 -13.667 37.5 -21c-1.33301 -6 -3.5 -14 -6.5 -24l-9.5 -30.5c-3.33301 -10.333 -6.66602 -20 -9.99902 -29s-6 -15.5 -8 -19.5l-17 -8
c-6 16 -11.833 33.667 -17.5 53s-10.167 36.666 -13.5 51.999c-3.33301 0.666992 -6.33301 1.16699 -9 1.5s-6.33398 0.5 -11.001 0.5c-18.667 0 -35.834 -4 -51.501 -12s-29 -20.333 -40 -37s-19.5 -38 -25.5 -64s-8.33301 -57.333 -7 -94c0 -12 0.166992 -23 0.5 -33
s0.833008 -20 1.5 -30h178l-16 -33l-164 -10c-0.666992 -31.333 -3.5 -58.833 -8.5 -82.5s-11.5 -45 -19.5 -64s-17.167 -36 -27.5 -51s-21.166 -28.833 -32.499 -41.5l1 -2h39h52c18.667 0 37.667 0.333008 57 1s37.5 1.16699 54.5 1.5s32 0.666016 45 0.999023
s22.167 0.833008 27.5 1.5l27.5 41.5c11 16.333 22.5 31.833 34.5 46.5z" />
    <glyph glyph-name="currency" unicode="&#xa4;" horiz-adv-x="502" 
d="M249 477c-20 0 -37.998 -4.00098 -53.998 -12.001s-29.5 -19 -40.5 -33s-19.5 -30.167 -25.5 -48.5s-9 -37.5 -9 -57.5c0 -22 3.33301 -42.167 10 -60.5s16 -34.333 28 -48s25.833 -24.334 41.5 -32.001s32.5 -11.5 50.5 -11.5c20 0 37.833 3.83301 53.5 11.5
s29.167 18.334 40.5 32.001s20 29.834 26 48.501s9 38.667 9 60s-3.33301 41.166 -10 59.499s-15.834 34.333 -27.501 48s-25.334 24.334 -41.001 32.001s-32.5 11.5 -50.5 11.5h-1zM399.002 447.999c12 -16 22.002 -34.501 30.002 -55.501s12 -43.5 12 -67.5
c0 -23.333 -4 -45.666 -12 -66.999s-20 -41.333 -36 -60l63 -54l-39 -45l-58 66c-15.333 -12 -32.666 -21 -51.999 -27s-38.333 -9 -57 -9c-17.333 0 -37.333 3 -60 9s-41.334 15.667 -56.001 29l-57 -67l-33 42l59 52c-14.667 18 -25.834 38.5 -33.501 61.5
s-11.5 46.167 -11.5 69.5c0 21.333 3.66699 43 11 65s17.333 40.667 30 56l-62 56l36 47l62 -69c18.667 15.333 37.667 26.333 57 33s39.666 10 60.999 10c22 0 42.5 -3.83301 61.5 -11.5s36.833 -18.5 53.5 -32.5l56 69l36 -40z" />
    <glyph glyph-name="yen" unicode="&#xa5;" horiz-adv-x="502" 
d="M193 347l-132.004 248l-54 23l7 25c15.333 0 30.833 -0.333008 46.5 -1s31.167 -1 46.5 -1c17.333 0 34.833 0.333008 52.5 1s35.5 1 53.5 1l-9 -24l-48 -23l113 -231h2l22.5 43.5l25 49.5l29.5 60l36 76l-62 26l11 23c11.333 0 24 -0.333008 38 -1s28.667 -1 44 -1
c14 0 28.333 0.333008 43 1s30 1 46 1l-6 -24l-61 -29l-70 -119.5c-23.333 -40.333 -45.666 -81.5 -66.999 -123.5h136l-13 -35h-135l1 -74h147l-14 -35h-133c0.666992 -38.667 1.33398 -72.667 2.00098 -102s1.33398 -46.666 2.00098 -51.999l89 -27l-7 -23
c-21.333 0 -42.333 0.166992 -63 0.5s-41.667 0.5 -63 0.5c-22 0 -44.167 -0.166992 -66.5 -0.5s-44.833 -0.5 -67.5 -0.5l7 23l77 27c0.666992 2.66699 1.33398 8.5 2.00098 17.5s1.16699 20.5 1.5 34.5s0.833008 29.667 1.5 47s1 35.666 1 54.999h-148l13 35h135l1 74
h-148l12 35h123z" />
    <glyph glyph-name="brokenbar" unicode="&#xa6;" horiz-adv-x="336" 
d="M136 184h64v-367h-64v367zM200 666v-366h-64v366h64z" />
    <glyph glyph-name="section" unicode="&#xa7;" horiz-adv-x="450" 
d="M316 4c16 19.333 26.334 38.8281 31.001 58.4951s7 36.167 7 49.5c0 18.667 -3.66699 39.334 -11 62.001s-23.333 49.667 -48 81l-41 51.5l-31 38.5l-25.5 32c-7.66699 10 -15.5 21 -23.5 33c-14 20.667 -24 38.834 -30 54.501s-9 30.834 -9 45.501
c0 13.333 1.66699 25 5 35h-3c-21.333 -21.333 -34.833 -41.5 -40.5 -60.5s-8.5 -37.833 -8.5 -56.5c0 -16.667 3.66699 -35.834 11 -57.501s22.666 -49.167 45.999 -82.5c17.333 -23.333 35.333 -46.166 54 -68.499l59 -73.5c23.333 -30 38.833 -54 46.5 -72
s11.167 -34.667 10.5 -50c0 -3.33301 -0.166992 -6.66602 -0.5 -9.99902s-0.833008 -6.66602 -1.5 -9.99902h3zM108.001 31.9951c3.33301 -7.33301 7.16504 -19.8311 11.498 -37.498s9.83301 -36.834 16.5 -57.501c4 -2.66699 9.66699 -4.5 17 -5.5s15.666 -1.5 24.999 -1.5
c10 0 20 1.66699 30 5s18.833 7.83301 26.5 13.5s13.834 12.334 18.501 20.001s7 16.167 7 25.5c-0.666992 14.667 -5.33398 30.167 -14.001 46.5s-24.334 38.5 -47.001 66.5l-22.5 27.5c-7 8.33301 -14 17.166 -21 26.499l-23 30l-29.5 39
c-20.667 28 -37.667 55.5 -51 82.5s-19.666 55.167 -18.999 84.5c0.666992 42 12.334 80 35.001 114s53 62.333 91 85c30.667 18.667 60.667 28 90 28c12.667 0 23.167 -1.33301 31.5 -4s15.5 -6 21.5 -10c3.33301 2.66699 10 6.5 20 11.5s21.667 9.5 35 13.5l8 -4
c0 -4 -1 -11.5 -3 -22.5s-4.33301 -22.667 -7 -35s-5.66699 -24.5 -9 -36.5s-6.66602 -21 -9.99902 -27l-14 -7c-2 4 -4.33301 9.16699 -7 15.5l-8 20c-2.66699 7 -5.16699 14 -7.5 21s-4.16602 12.833 -5.49902 17.5c-4.66699 3.33301 -10.5 6.16602 -17.5 8.49902
s-16.5 3.5 -28.5 3.5c-20.667 0 -36.167 -5.16699 -46.5 -15.5s-15.5 -22.833 -15.5 -37.5c0 -8.66699 1.5 -17.167 4.5 -25.5s8.16699 -18.166 15.5 -29.499l16 -22l23 -30l34.5 -43l50.5 -62c32.667 -39.333 54.334 -73.333 65.001 -102s16 -54.334 16 -77.001
c0 -33.333 -9.16699 -67.833 -27.5 -103.5s-47.5 -68.167 -87.5 -97.5c-17.333 -16 -37.166 -28 -59.499 -36s-42.833 -12 -61.5 -12c-17.333 0 -36.333 2.83301 -57 8.5s-38.667 14.167 -54 25.5c0 4 1 10.167 3 18.5s4.66699 17.5 8 27.5s6.66602 19.5 9.99902 28.5
s6.66602 15.833 9.99902 20.5z" />
    <glyph glyph-name="dieresis" unicode="&#xa8;" horiz-adv-x="386" 
d="M288 643c2.66699 -1.33301 6.16602 -4.00098 10.499 -8.00098s8.83301 -8.66699 13.5 -14s9 -10.666 13 -15.999s7.33301 -10.333 10 -15l-2 -7c-4 -10 -11.5 -20.333 -22.5 -31s-19.5 -18.334 -25.5 -23.001l-8 -2c-8 5.33301 -16.833 13.333 -26.5 24
s-16.5 20.334 -20.5 29.001l1 8c6.66699 10 14.834 20 24.501 30s18.167 17.667 25.5 23zM109.999 642.999c2.66699 -1.33301 6.16992 -4.00098 10.5029 -8.00098s8.66602 -8.66699 12.999 -14l13 -16c4.33301 -5.33301 7.5 -10.333 9.5 -15l-2 -7
c-2 -4.66699 -5 -9.66699 -9 -15s-8.33301 -10.5 -13 -15.5s-9.33398 -9.66699 -14.001 -14s-8.33398 -7.5 -11.001 -9.5l-8 -2c-9.33301 5.33301 -18.5 13.333 -27.5 24s-15.833 20.334 -20.5 29.001l2 8c6 10 13.833 20.167 23.5 30.5s18.167 17.833 25.5 22.5z" />
    <glyph glyph-name="copyright" unicode="&#xa9;" horiz-adv-x="683" 
d="M364 477c12 0 22.833 -0.995117 32.5 -2.99512s19.167 -5.66699 28.5 -11c8.66699 4 17.167 7.16699 25.5 9.5s15.166 4.16602 20.499 5.49902l6 -2c0 -4.66699 -0.666992 -11.834 -2 -21.501s-3 -19.667 -5 -30s-4 -19.666 -6 -27.999s-3.66699 -13.5 -5 -15.5l-10 -7
c-5.33301 8 -10.833 17.667 -16.5 29s-10.167 22.666 -13.5 33.999c-6 3.33301 -12.167 5.83301 -18.5 7.5s-15.166 2.5 -26.499 2.5c-16 0 -31 -3 -45 -9s-26.333 -14.5 -37 -25.5s-19.167 -24.333 -25.5 -40s-9.5 -32.834 -9.5 -51.501c0 -18 3 -34.833 9 -50.5
s14.5 -29.334 25.5 -41.001s24.167 -20.834 39.5 -27.501s32.666 -10 51.999 -10c6 0 10.167 0.333008 12.5 1s5.83301 2 10.5 4l35 30c12 10.667 21 17.667 27 21l11 -9c-0.666992 -4 -2.5 -9.33301 -5.5 -16s-6.5 -13.5 -10.5 -20.5s-8 -13.667 -12 -20
s-7.33301 -10.5 -10 -12.5c-6.66699 -2 -17.5 -4.5 -32.5 -7.5s-29.833 -4.5 -44.5 -4.5c-23.333 0 -45.833 3.33301 -67.5 10s-40.667 16.667 -57 30s-29.333 29.833 -39 49.5s-14.5 42.5 -14.5 68.5c0 30.667 6 56.167 18 76.5s27 36.833 45 49.5s37.333 21.667 58 27
s39.334 8 56.001 8h1zM342 586.005c-36.667 0 -70.5 -6.83301 -101.5 -20.5s-57.833 -32.5 -80.5 -56.5s-40.5 -52.5 -53.5 -85.5s-19.5 -68.833 -19.5 -107.5c0 -38 6.5 -73.333 19.5 -106s30.833 -61.167 53.5 -85.5s49.667 -43.333 81 -57s65.333 -20.5 102 -20.5
s70.334 6.83301 101.001 20.5s57.334 32.667 80.001 57s40.334 52.833 53.001 85.5s19 68 19 106c0 38.667 -6.33301 74.5 -19 107.5s-30.334 61.5 -53.001 85.5s-49.334 42.833 -80.001 56.5s-64.334 20.5 -101.001 20.5h-1zM343 624.005c41.333 0 80.167 -8 116.5 -24
s68 -37.833 95 -65.5s48.167 -60.334 63.5 -98.001s23 -78.167 23 -121.5c0 -42.667 -7.66699 -82.667 -23 -120s-36.5 -69.666 -63.5 -96.999s-58.667 -49 -95 -65s-75.5 -24 -117.5 -24s-81.333 8 -118 24s-68.5 37.667 -95.5 65s-48.167 59.666 -63.5 96.999
s-23 77.333 -23 120c0 43.333 7.66699 83.833 23 121.5s36.5 70.334 63.5 98.001s58.833 49.5 95.5 65.5s76 24 118 24h1z" />
    <glyph glyph-name="ordfeminine" unicode="&#xaa;" horiz-adv-x="290" 
d="M180 429c-12.667 -2 -25.832 -5.33301 -39.499 -10s-24.167 -8.66699 -31.5 -12c-13.333 -7.33301 -20 -17 -20 -29c0 -11.333 4.16699 -20.5 12.5 -27.5s18.166 -10.5 29.499 -10.5c7.33301 0 15 1.66699 23 5s14.667 7 20 11c3.33301 3.33301 5 8.33301 5 15z
M180.002 464c0 23.333 -5.66406 39.1641 -16.9971 47.4971s-24.666 12.5 -39.999 12.5c-12.667 0 -23 -2.66699 -31 -8c-1.33301 -8 -3.33301 -18 -6 -30s-5.33398 -21 -8.00098 -27l-10 -5c-1.33301 0 -3.66602 2 -6.99902 6s-6.83301 8.66699 -10.5 14
s-7.16699 11 -10.5 17s-5.33301 11.333 -6 16c7.33301 6.66699 17.666 13.5 30.999 20.5s27 13.167 41 18.5c8 2.66699 15.667 4.83398 23 6.50098s13.666 2.5 18.999 2.5c16.667 0 30.667 -2.66699 42 -8s20.5 -12.166 27.5 -20.499s12 -17.833 15 -28.5s4.5 -21 4.5 -31
c0 -19.333 -0.166992 -38.5 -0.5 -57.5s-0.833008 -37.167 -1.5 -54.5c4 -6.66699 10.5 -13.167 19.5 -19.5s17.167 -11.833 24.5 -16.5l-5 -11c-3.33301 -2 -7.5 -3.66699 -12.5 -5s-11.5 -2 -19.5 -2c-19.333 0 -33.666 4.16699 -42.999 12.5s-15.333 15.833 -18 22.5
c-12.667 -10 -26.334 -18.333 -41.001 -25s-26.667 -10 -36 -10c-24 0 -42.5 7.5 -55.5 22.5s-19.5 30.5 -19.5 46.5c0 12 2.16699 21.333 6.5 28s9.5 11.667 15.5 15c4 2.66699 10.833 5.83398 20.5 9.50098s20.667 7.5 33 11.5s25.166 7.83301 38.499 11.5
s25.666 6.5 36.999 8.5v10z" />
    <glyph glyph-name="guillemotleft" unicode="&#xab;" horiz-adv-x="502" 
d="M426 25l-53.999 63.5l-51 56.5c-16 17.333 -30.667 32.333 -44 45l-32 30c7.33301 6.66699 17.5 16.5 30.5 29.5l43.5 45l50.5 56l52.5 62.5l22 -18l-50 -88l-52 -87l59 -90.5c19.333 -30.333 35.666 -59.833 48.999 -88.5zM232.001 25
c-17.333 22 -35.001 43.167 -53.001 63.5l-51.5 56.5c-16.333 17.333 -31.333 32.333 -45 45l-32.5 30c8 6.66699 18.5 16.5 31.5 29.5l43.5 45l50.5 56l52.5 62.5l23 -17c-14.667 -29.333 -30.834 -58.5 -48.501 -87.5l-55.5 -88.5c20.667 -30 40.334 -60 59.001 -90
s34.334 -59.667 47.001 -89z" />
    <glyph glyph-name="logicalnot" unicode="&#xac;" horiz-adv-x="590" 
d="M448 273h-368l18 51h409v-257l-59 -16v222z" />
    <glyph glyph-name="uni00AD" unicode="&#xad;" horiz-adv-x="434" 
d="M358 283l-45 -75h-270l46 75h269z" />
    <glyph glyph-name="registered" unicode="&#xae;" horiz-adv-x="301" 
d="M95 591c8.66699 2 17.6689 3.33105 27.002 3.99805s17.666 1 24.999 1c33.333 -0.666992 50 -10.667 50 -30c0 -8.66699 -3 -15.167 -9 -19.5s-11 -7.5 -15 -9.5c2 -4 5.33301 -9.66699 10 -17s9.33398 -13.666 14.001 -18.999
c5.33301 -7.33301 9.16602 -12.333 11.499 -15s4.16602 -4.66699 5.49902 -6l-4 -2c-12 0.666992 -20.5 2.33398 -25.5 5.00098s-9.5 5.66699 -13.5 9c-7.33301 7.33301 -17.333 22 -30 44c10 3.33301 17 6.33301 21 9s6 7.66699 6 15c0 8 -3.33301 14 -10 18
s-14 5.33301 -22 4v-86l18 -6l-2 -9h-59l2 9l14 6v82l-17 2zM149.002 634.998c-12.667 0 -24.498 -2.5 -35.498 -7.5s-20.667 -12 -29 -21s-14.833 -19.5 -19.5 -31.5s-7 -25 -7 -39c0 -28.667 8.83301 -52.667 26.5 -72s39.5 -29 65.5 -29
c27.333 0 49.666 9.66699 66.999 29s26 43.333 26 72c0 28 -8.83301 51.5 -26.5 70.5s-39.834 28.5 -66.501 28.5h-1zM151.004 657.998c16.667 0 32.5 -2.99902 47.5 -8.99902s28 -14.5 39 -25.5s19.667 -24 26 -39s9.5 -31.167 9.5 -48.5c0 -18 -3.16699 -34.667 -9.5 -50
s-15 -28.5 -26 -39.5s-24 -19.5 -39 -25.5s-31.167 -9 -48.5 -9s-33.333 3 -48 9s-27.5 14.5 -38.5 25.5s-19.667 24 -26 39s-9.5 31.167 -9.5 48.5s3.16699 33.5 9.5 48.5s15 28.167 26 39.5s23.833 20.166 38.5 26.499s30.667 9.5 48 9.5h1z" />
    <glyph glyph-name="uni00AF" unicode="&#xaf;" horiz-adv-x="386" 
d="M80 547l16 56h212l-16 -56h-212z" />
    <glyph glyph-name="degree" unicode="&#xb0;" horiz-adv-x="283" 
d="M140 608c-17.333 0 -31.666 -7 -42.999 -21s-17 -30.667 -17 -50c0 -21.333 6 -38.666 18 -51.999s26.667 -20 44 -20c16.667 0 31.167 6.66699 43.5 20s18.5 30.666 18.5 51.999c0 19.333 -5.83301 36 -17.5 50s-26.834 21 -45.501 21h-1zM143 646
c14.667 0 28.501 -2.83301 41.501 -8.5s24.167 -13.5 33.5 -23.5s16.833 -21.667 22.5 -35s8.5 -27.666 8.5 -42.999s-2.83301 -29.666 -8.5 -42.999s-13.334 -24.833 -23.001 -34.5s-21 -17.334 -34 -23.001s-26.833 -8.5 -41.5 -8.5c-15.333 0 -29.5 2.83301 -42.5 8.5
s-24.5 13.334 -34.5 23.001s-17.833 21.167 -23.5 34.5s-8.5 27.666 -8.5 42.999s2.83301 29.666 8.5 42.999s13.334 25 23.001 35s21.167 17.833 34.5 23.5s27.666 8.5 42.999 8.5h1z" />
    <glyph glyph-name="plusminus" unicode="&#xb1;" horiz-adv-x="707" 
d="M115 76l-46 -75h440l45 75h-439zM367 194l-75 -46v244h-228l46 75h182v199l75 45v-244h224l-45 -75h-179v-198z" />
    <glyph glyph-name="twosuperior" unicode="&#xb2;" 
d="M298 515c-2 -9.33301 -5.33203 -22.666 -9.99902 -39.999s-10.667 -35 -18 -53c-4 0 -10.333 0.166992 -19 0.5s-19 0.666016 -31 0.999023s-25.167 0.666016 -39.5 0.999023s-28.5 0.5 -42.5 0.5h-107v11l24 32c4.66699 2.66699 8 4.66699 10 6s4.66699 3 8 5l45 39.5
c15.333 13.667 29.333 28.167 42 43.5s23 31.333 31 48s12 34.667 12 54c0 17.333 -5.66699 33.333 -17 48s-29 22 -53 22c-6 0 -11.833 -0.666992 -17.5 -2s-11.167 -3 -16.5 -5c-0.666992 -4.66699 -2 -10.834 -4 -18.501l-6 -23.5l-6 -23
c-2 -7.33301 -3.66699 -13 -5 -17l-13 -7c-2 2.66699 -4.66699 7 -8 13s-6.5 12.5 -9.5 19.5s-5.83301 14.167 -8.5 21.5s-4.66699 14 -6 20c17.333 15.333 37.166 28.833 59.499 40.5s45.833 17.5 70.5 17.5c12.667 0 25.5 -1.83301 38.5 -5.5s24.833 -9.66699 35.5 -18
s19.5 -19.166 26.5 -32.499s10.5 -29.666 10.5 -48.999c0 -18 -4 -34.5 -12 -49.5s-19 -29.833 -33 -44.5s-31 -29.5 -51 -44.5l-66 -49.5c7.33301 0 17.333 0.166992 30 0.5s25.667 0.833008 39 1.5s26 1.16699 38 1.5s20.667 0.5 26 0.5
c3.33301 5.33301 8.5 12.333 15.5 21l21.5 26z" />
    <glyph glyph-name="threesuperior" unicode="&#xb3;" 
d="M70 659c-2.66699 3.33301 -6.83398 11.1699 -12.501 23.5029s-10.5 24.166 -14.5 35.499c15.333 13.333 34.166 25.333 56.499 36s44.166 16 65.499 16c36 0 62.5 -8.16699 79.5 -24.5s25.5 -35.166 25.5 -56.499c0 -12 -2.33301 -22.333 -7 -31s-10.667 -16 -18 -22
s-15.166 -11.167 -23.499 -15.5s-16.5 -7.83301 -24.5 -10.5v-4c28.667 -4 51.5 -12.5 68.5 -25.5s25.5 -31.833 25.5 -56.5c0 -18 -4.83301 -33.667 -14.5 -47s-21.5 -24.333 -35.5 -33s-29.5 -15.167 -46.5 -19.5s-32.833 -6.5 -47.5 -6.5
c-25.333 0 -48.166 3.66699 -68.499 11s-34.5 15.333 -42.5 24c1.33301 4 3.16602 9.16699 5.49902 15.5s5 12.666 8 18.999l9 18.5c3 6 5.5 10.333 7.5 13l11 5c2.66699 -5.33301 6.33398 -14.5 11.001 -27.5l15 -43.5c3.33301 -1.33301 7.5 -2.5 12.5 -3.5
s10.833 -1.5 17.5 -1.5c23.333 0 43.166 7 59.499 21s24.5 31.667 24.5 53c0 20.667 -5.83301 36 -17.5 46s-26.167 15.667 -43.5 17c-13.333 -2 -25.166 -4 -35.499 -6s-17.5 -2.66699 -21.5 -2l-6 6c0 3.33301 2.83301 9.66602 8.5 18.999s10.834 15.666 15.501 18.999
c3.33301 0.666992 8.83301 0.5 16.5 -0.5s15.167 -1.83301 22.5 -2.5c16.667 5.33301 28.5 13.166 35.5 23.499s10.5 21.833 10.5 34.5c0 16 -5.16699 30 -15.5 42s-26.166 18 -47.499 18c-9.33301 0 -17.166 -1.16699 -23.499 -3.5s-10.833 -4.16602 -13.5 -5.49902
c-0.666992 -3.33301 -1.83398 -7.83301 -3.50098 -13.5s-3.33398 -11.667 -5.00098 -18s-3.5 -12.5 -5.5 -18.5s-3.66699 -10.333 -5 -13z" />
    <glyph glyph-name="acute" unicode="&#xb4;" horiz-adv-x="386" 
d="M155 514l96 161c24.667 0 50 -6 76 -18v-12l-149 -152z" />
    <glyph glyph-name="uni00B5" unicode="&#xb5;" horiz-adv-x="542" 
d="M445 62c2.66699 -4.66699 10.3281 -9.33301 22.9951 -14s33 -8.33398 61 -11.001l-5 -21c-10 -8 -21.833 -14.833 -35.5 -20.5s-29.5 -8.5 -47.5 -8.5c-7.33301 0 -15.333 1.16699 -24 3.5s-16.834 6.5 -24.501 12.5s-14.334 14 -20.001 24s-8.83398 22.667 -9.50098 38
h-2c-18.667 -21.333 -39 -39.666 -61 -54.999s-46.667 -23 -74 -23c-14 0 -27.167 2.33301 -39.5 7s-23.166 12.334 -32.499 23.001l-2 -1c-1.33301 -22 -2.5 -45.333 -3.5 -70s-1.16699 -48.5 -0.5 -71.5s1.83398 -44.333 3.50098 -64s4.5 -36.167 8.5 -49.5l-9 -4
c-26.667 2.66699 -45.667 13.834 -57 33.501s-17 50.167 -17 91.5v286v68c0 25.333 0.166992 50.166 0.5 74.499s0.666016 47.166 0.999023 68.499s0.5 38.666 0.5 51.999c2.66699 2 7.33398 4.16699 14.001 6.5s14.334 4.5 23.001 6.5s17.667 3.83301 27 5.5s18 2.5 26 2.5
l2 -3c-1.33301 -12 -2.66602 -26.833 -3.99902 -44.5s-2.66602 -38.667 -3.99902 -63s-2.66602 -52.666 -3.99902 -84.999s-2.33301 -69.5 -3 -111.5c-0.666992 -15.333 0.833008 -28 4.5 -38s8.16699 -18.333 13.5 -25c6.66699 -8.66699 16.167 -16.334 28.5 -23.001
s27.5 -10 45.5 -10c10.667 0 21.5 1.66699 32.5 5s21.5 7.83301 31.5 13.5s19.333 12.334 28 20.001s15.667 16.167 21 25.5v318c2.66699 2 7.83398 4.16699 15.501 6.5s16.167 4.5 25.5 6.5s19.333 3.83301 30 5.5s20.334 2.5 29.001 2.5l4 -7l-10 -28l-10 -28v-327z" />
    <glyph glyph-name="paragraph" unicode="&#xb6;" horiz-adv-x="506" 
d="M371 536l0.00292969 -498c0 -59.333 -5.83301 -107.5 -17.5 -144.5s-26 -65.833 -43 -86.5s-35.167 -34.834 -54.5 -42.501s-37 -11.5 -53 -11.5c-6 0 -12.333 1 -19 3s-12.667 4.66699 -18 8c-6.66699 6 -13.834 14 -21.501 24s-13.167 19.333 -16.5 28l8 13
c6 -2 13.5 -3.66699 22.5 -5s19.167 -2 30.5 -2c16 0 32.167 2.66699 48.5 8s31.166 15.833 44.499 31.5s24.166 37.334 32.499 65.001s12.5 63.5 12.5 107.5v41c-13.333 -6 -24.333 -10 -33 -12s-14.667 -3 -18 -3c-26 0 -53 5 -81 15s-53.5 24.833 -76.5 44.5
s-42 44 -57 73s-22.5 62.5 -22.5 100.5s7.5 72 22.5 102s35 55.5 60 76.5s53.667 37 86 48s65.5 16.5 99.5 16.5h16l4 104l78 14z" />
    <glyph glyph-name="periodcentered" unicode="&#xb7;" horiz-adv-x="287" 
d="M172 302l-121 -20l42 114l120 20z" />
    <glyph glyph-name="cedilla" unicode="&#xb8;" horiz-adv-x="386" 
d="M261 1l-39 -56.9971c23.333 -12.667 39.166 -24.334 47.499 -35.001s12.5 -23.667 12.5 -39c0 -20 -9.33301 -38.5 -28 -55.5s-46 -30.833 -82 -41.5l-14 28c24 9.33301 40.167 18.666 48.5 27.999s12.5 18.666 12.5 27.999s-4.66699 17.5 -14 24.5
s-25.666 15.5 -48.999 25.5l67 94h38z" />
    <glyph glyph-name="onesuperior" unicode="&#xb9;" 
d="M56 702l4.99805 20c6 2.66699 21 8.5 45 17.5l82 30.5h11v-43c0 -18 0.166992 -37.667 0.5 -59l1 -66c0.333008 -22.667 0.666016 -43.5 0.999023 -62.5s0.5 -35.5 0.5 -49.5v-25l71 -19l-7 -21c-16.667 0 -33.167 0.166992 -49.5 0.5s-33.166 0.5 -50.499 0.5
c-18 0 -36 -0.166992 -54 -0.5s-36 -0.5 -54 -0.5l9 21l60 19c0.666992 10 1.33398 25 2.00098 45s1.33398 41.667 2.00098 65l2 69.5c0.666992 23 1 42.833 1 59.5z" />
    <glyph glyph-name="ordmasculine" unicode="&#xba;" horiz-adv-x="321" 
d="M157 529c-10.667 0 -19.998 -3 -27.998 -9s-14.5 -13.667 -19.5 -23s-8.83301 -19.833 -11.5 -31.5s-4 -23.167 -4 -34.5c0 -12 1.5 -24.167 4.5 -36.5s7.5 -23.333 13.5 -33s13.333 -17.5 22 -23.5s18.334 -9 29.001 -9c11.333 0 21.166 3 29.499 9s15 13.833 20 23.5
s8.66699 20.5 11 32.5s3.5 24 3.5 36c0 10 -1.33301 20.833 -4 32.5s-6.83398 22.5 -12.501 32.5s-12.834 18.167 -21.501 24.5s-19 9.5 -31 9.5h-1zM162.002 557c18 0 35.001 -2.99902 51.001 -8.99902s30 -14.5 42 -25.5s21.5 -24.167 28.5 -39.5s10.5 -32 10.5 -50
c0 -20 -3.5 -38 -10.5 -54s-16.5 -29.667 -28.5 -41s-26.333 -20.166 -43 -26.499s-34.334 -9.5 -53.001 -9.5c-16.667 0 -33 2.66699 -49 8s-30.167 13.166 -42.5 23.499s-22.333 23.166 -30 38.499s-11.5 33 -11.5 53c0 22 4.16699 41.167 12.5 57.5s19 30 32 41
s27.5 19.333 43.5 25s31.667 8.5 47 8.5h1z" />
    <glyph glyph-name="guillemotright" unicode="&#xbb;" horiz-adv-x="502" 
d="M75 413c17.333 -22 35 -43.168 53 -63.501l51 -56.5l43.5 -45.5c13 -13 23.5 -22.833 31.5 -29.5l-30 -30l-43 -44.5l-50.5 -56c-17.667 -20.333 -34.834 -41.166 -51.501 -62.499l-22 18l50 87.5l52 87.5l-59 90.5c-19.333 30.333 -35.666 59.5 -48.999 87.5z
M269 412.999c16.667 -22 34.168 -43.168 52.501 -63.501l52 -56.5c16.333 -17.333 31.333 -32.5 45 -45.5s24.5 -22.833 32.5 -29.5l-32 -30c-13.333 -12.667 -28 -27.5 -44 -44.5l-50.5 -56c-17.667 -20.333 -34.834 -41.166 -51.501 -62.499l-23 18
c14.667 28.667 30.834 57.5 48.501 86.5l55.5 88.5c-20.667 30 -40.334 60.167 -59.001 90.5s-34.667 59.5 -48 87.5z" />
    <glyph glyph-name="onequarter" unicode="&#xbc;" horiz-adv-x="704" 
d="M522 297h-5.00098c-13.333 -18 -24.666 -34 -33.999 -48l-26 -40l-23 -37.5l-24 -40.5l104 -1zM579.999 36l58.9961 -18.999l-7 -18c-15.333 0 -30.166 0.166992 -44.499 0.5s-28.833 0.5 -43.5 0.5c-16.667 0 -33.167 -0.166992 -49.5 -0.5s-32.5 -0.5 -48.5 -0.5l5 18
l59 19l3 60l-146 -2l-10 20c8.66699 14.667 20.667 33.5 36 56.5l46.5 68l42.5 59c12.667 17 20.667 27.167 24 30.5c2 1.33301 5.66699 2.83301 11 4.5s11.333 3.16699 18 4.5s13.834 2.66602 21.501 3.99902s14.834 2.33301 21.501 3v-215h32l12.5 14l14.5 15l11 -3
c0 -2.66699 -0.333008 -8 -1 -16s-1.66699 -16.5 -3 -25.5s-2.66602 -17.5 -3.99902 -25.5s-2.33301 -13.333 -3 -16l-12 -4c-4 5.33301 -7.5 11 -10.5 17l-7.5 15l-29 -1zM575.995 641.001l-211.5 -340.5l-209.5 -341.5l-28 27l210.5 340l208.5 340zM55.9951 585.001
l4.99805 20c6 2.66699 21 8.5 45 17.5l82 30.5h11v-43c0 -18 0.166992 -37.667 0.5 -59l1 -66c0.333008 -22.667 0.666016 -43.5 0.999023 -62.5s0.5 -35.5 0.5 -49.5v-25l71 -19l-7 -21c-16.667 0 -33.167 0.166992 -49.5 0.5s-33.166 0.5 -50.499 0.5
c-18 0 -36 -0.166992 -54 -0.5s-36 -0.5 -54 -0.5l9 21l60 19c0.666992 10 1.33398 25 2.00098 45s1.33398 41.667 2.00098 65l2 69.5c0.666992 23 1 42.833 1 59.5z" />
    <glyph glyph-name="onehalf" unicode="&#xbd;" horiz-adv-x="704" 
d="M669 89c-2 -9.33301 -5.33203 -22.666 -9.99902 -39.999s-10.667 -35 -18 -53c-4 0 -10.333 0.166992 -19 0.5s-19 0.666016 -31 0.999023s-25.167 0.666016 -39.5 0.999023s-28.5 0.5 -42.5 0.5h-107v11l24 32c4.66699 2.66699 8 4.66699 10 6s4.66699 3 8 5l45 39.5
c15.333 13.667 29.333 28.167 42 43.5s23 31.333 31 48s12 34.667 12 54c0 17.333 -5.66699 33.333 -17 48s-29 22 -53 22c-6 0 -11.833 -0.666992 -17.5 -2s-11.167 -3 -16.5 -5c-0.666992 -4.66699 -2 -10.834 -4 -18.501l-6 -23.5l-6 -23
c-2 -7.33301 -3.66699 -13 -5 -17l-13 -7c-2 2.66699 -4.66699 7 -8 13s-6.5 12.5 -9.5 19.5s-5.83301 14.167 -8.5 21.5s-4.66699 14 -6 20c17.333 15.333 37.166 28.833 59.499 40.5s45.833 17.5 70.5 17.5c12.667 0 25.5 -1.83301 38.5 -5.5s24.833 -9.66699 35.5 -18
s19.5 -19.166 26.5 -32.499s10.5 -29.666 10.5 -48.999c0 -18 -4 -34.5 -12 -49.5s-19 -29.833 -33 -44.5s-31 -29.5 -51 -44.5l-66 -49.5c7.33301 0 17.333 0.166992 30 0.5s25.667 0.833008 39 1.5s26 1.16699 38 1.5s20.667 0.5 26 0.5
c3.33301 5.33301 8.5 12.333 15.5 21l21.5 26zM565.001 641l-211.5 -340.5l-209.5 -341.5l-28 27l210.5 340l208.5 340zM48.001 585l4.99805 20c6 2.66699 21 8.5 45 17.5l82 30.5h11v-43c0 -18 0.166992 -37.667 0.5 -59l1 -66
c0.333008 -22.667 0.666016 -43.5 0.999023 -62.5s0.5 -35.5 0.5 -49.5v-25l71 -19l-7 -21c-16.667 0 -33.167 0.166992 -49.5 0.5s-33.166 0.5 -50.499 0.5c-18 0 -36 -0.166992 -54 -0.5s-36 -0.5 -54 -0.5l9 21l60 19c0.666992 10 1.33398 25 2.00098 45
s1.33398 41.667 2.00098 65l2 69.5c0.666992 23 1 42.833 1 59.5z" />
    <glyph glyph-name="threequarters" unicode="&#xbe;" horiz-adv-x="704" 
d="M525 297h-5.00098c-13.333 -18 -24.666 -34 -33.999 -48l-26 -40l-23 -37.5l-24 -40.5l104 -1zM582.999 36l58.9961 -18.999l-7 -18c-15.333 0 -30.166 0.166992 -44.499 0.5s-28.833 0.5 -43.5 0.5c-16.667 0 -33.167 -0.166992 -49.5 -0.5s-32.5 -0.5 -48.5 -0.5l5 18
l59 19l3 60l-146 -2l-10 20c8.66699 14.667 20.667 33.5 36 56.5l46.5 68l42.5 59c12.667 17 20.667 27.167 24 30.5c2 1.33301 5.66699 2.83301 11 4.5s11.333 3.16699 18 4.5s13.834 2.66602 21.501 3.99902s14.834 2.33301 21.501 3v-215h32l12.5 14l14.5 15l11 -3
c0 -2.66699 -0.333008 -8 -1 -16s-1.66699 -16.5 -3 -25.5s-2.66602 -17.5 -3.99902 -25.5s-2.33301 -13.333 -3 -16l-12 -4c-4 5.33301 -7.5 11 -10.5 17l-7.5 15l-29 -1zM583.995 641.001l-211.5 -340.5l-209.5 -341.5l-28 27l210.5 340l208.5 340zM82.9951 542.001
c-2.66699 3.33301 -6.83398 11.1699 -12.501 23.5029s-10.5 24.166 -14.5 35.499c15.333 13.333 34.166 25.333 56.499 36s44.166 16 65.499 16c36 0 62.5 -8.16699 79.5 -24.5s25.5 -35.166 25.5 -56.499c0 -12 -2.33301 -22.333 -7 -31s-10.667 -16 -18 -22
s-15.166 -11.167 -23.499 -15.5s-16.5 -7.83301 -24.5 -10.5v-4c28.667 -4 51.5 -12.5 68.5 -25.5s25.5 -31.833 25.5 -56.5c0 -18 -4.83301 -33.667 -14.5 -47s-21.5 -24.333 -35.5 -33s-29.5 -15.167 -46.5 -19.5s-32.833 -6.5 -47.5 -6.5
c-25.333 0 -48.166 3.66699 -68.499 11s-34.5 15.333 -42.5 24c1.33301 4 3.16602 9.16699 5.49902 15.5s5 12.666 8 18.999l9 18.5c3 6 5.5 10.333 7.5 13l11 5c2.66699 -5.33301 6.33398 -14.5 11.001 -27.5l15 -43.5c3.33301 -1.33301 7.5 -2.5 12.5 -3.5
s10.833 -1.5 17.5 -1.5c23.333 0 43.166 7 59.499 21s24.5 31.667 24.5 53c0 20.667 -5.83301 36 -17.5 46s-26.167 15.667 -43.5 17c-13.333 -2 -25.166 -4 -35.499 -6s-17.5 -2.66699 -21.5 -2l-6 6c0 3.33301 2.83301 9.66602 8.5 18.999s10.834 15.666 15.501 18.999
c3.33301 0.666992 8.83301 0.5 16.5 -0.5s15.167 -1.83301 22.5 -2.5c16.667 5.33301 28.5 13.166 35.5 23.499s10.5 21.833 10.5 34.5c0 16 -5.16699 30 -15.5 42s-26.166 18 -47.499 18c-9.33301 0 -17.166 -1.16699 -23.499 -3.5s-10.833 -4.16602 -13.5 -5.49902
c-0.666992 -3.33301 -1.83398 -7.83301 -3.50098 -13.5s-3.33398 -11.667 -5.00098 -18s-3.5 -12.5 -5.5 -18.5s-3.66699 -10.333 -5 -13z" />
    <glyph glyph-name="questiondown" unicode="&#xbf;" horiz-adv-x="391" 
d="M189 -217c-18 0 -36.1709 2.83203 -54.5039 8.49902s-34.833 14.5 -49.5 26.5s-26.667 27.167 -36 45.5s-14 40.5 -14 66.5c0 26.667 6.83301 49.667 20.5 69s31.167 38.666 52.5 57.999c24 20 44.5 39.5 61.5 58.5s25.167 35.833 24.5 50.5c0 9.33301 -1.5 18 -4.5 26
s-6.83301 16 -11.5 24l23 13c6 -2 13 -6.16699 21 -12.5s15.5 -14.166 22.5 -23.499s13.167 -19.666 18.5 -30.999s8 -23.333 8 -36c-7.33301 -16 -17.666 -32.5 -30.999 -49.5s-32.333 -36.833 -57 -59.5c-26 -24.667 -43.333 -44.667 -52 -60s-13 -30.666 -13 -45.999
c0 -9.33301 2 -19 6 -29s9.83301 -19.167 17.5 -27.5s17.167 -15.333 28.5 -21s24.666 -8.5 39.999 -8.5c13.333 0 23.833 1.16699 31.5 3.5s13.834 4.5 18.501 6.5c1.33301 8 3.33301 17 6 27l8 29c2.66699 9.33301 5.33398 18 8.00098 26s5 14 7 18l14 6
c9.33301 -13.333 17.833 -28.833 25.5 -46.5s13.834 -34.167 18.501 -49.5c-9.33301 -8 -20.333 -15.833 -33 -23.5s-26 -14.334 -40 -20.001s-28.167 -10.167 -42.5 -13.5s-28.166 -5 -41.499 -5h-1zM199.996 312.999c-4 2 -8.66797 5.33301 -14.001 10
s-10.833 10 -16.5 16s-10.834 12.167 -15.501 18.5s-8.33398 12.166 -11.001 17.499l2 10c2 4.66699 5.5 10.167 10.5 16.5s10.333 12.333 16 18s11.334 10.834 17.001 15.501s10.5 8 14.5 10l9 3c10 -5.33301 20.5 -14.5 31.5 -27.5s19.167 -24.167 24.5 -33.5l-2 -10
c-7.33301 -11.333 -16.666 -23 -27.999 -35s-21.666 -20.667 -30.999 -26z" />
    <glyph glyph-name="Agrave" unicode="&#xc0;" horiz-adv-x="710" 
d="M392 713l-195.999 73l-2 13c7.33301 11.333 16.166 22 26.499 32s20.5 17 30.5 21l156 -114zM329.001 539l-31 -83l-25 -65l-20.5 -54c-6.33301 -16.667 -12.166 -33 -17.499 -49c6.66699 0 18.5 -0.166992 35.5 -0.5s35.167 -0.833008 54.5 -1.5
s38.166 -1.16699 56.499 -1.5s32.833 -0.5 43.5 -0.5l-51.5 138l-42.5 117h-2zM372.001 682l6.00098 -5.00293c-0.666992 -8 0 -17.167 2 -27.5s6 -24.166 12 -41.499c3.33301 -10 11.666 -32 24.999 -66l48.5 -124l64 -161.5l71.5 -178.5c4.66699 -6 9.5 -11.333 14.5 -16
s11 -9 18 -13s16 -8.16699 27 -12.5s24.833 -9.16602 41.5 -14.499l-7 -23c-18.667 0 -38.167 0.166992 -58.5 0.5s-40.166 0.5 -59.499 0.5c-17.333 0 -34.5 -0.166992 -51.5 -0.5s-35.167 -0.5 -54.5 -0.5l6 21l37 29c-4 13.333 -12.667 36.666 -26 69.999l-49 123
c-10 -0.666992 -21 -1.5 -33 -2.5s-26.333 -1.66699 -43 -2s-36.834 -0.666016 -60.501 -0.999023s-52.5 -0.166016 -86.5 0.500977l-24 -62l-18 -46.5c-5.33301 -13.667 -10 -26.167 -14 -37.5l-12 -35l88 -34l-6 -23c-17.333 0 -36.5 0.166992 -57.5 0.5
s-41.167 0.5 -60.5 0.5c-17.333 -0 -34.5 -0.166992 -51.5 -0.5s-34.167 -0.5 -51.5 -0.5l6 24l70 33c7.33301 14.667 19 40.167 35 76.5l55 127l65 155l64 160.5c4.66699 12 5.66699 22.333 3 31l-10 27z" />
    <glyph glyph-name="Aacute" unicode="&#xc1;" horiz-adv-x="710" 
d="M285 727l155 112.001c11.333 -2.66699 23 -9.33398 35 -20.001s21 -21 27 -31l-2 -13l-202 -74zM329 539.001l-31 -83l-25 -65l-20.5 -54c-6.33301 -16.667 -12.166 -33 -17.499 -49c6.66699 0 18.5 -0.166992 35.5 -0.5s35.167 -0.833008 54.5 -1.5
s38.166 -1.16699 56.499 -1.5s32.833 -0.5 43.5 -0.5l-51.5 138l-42.5 117h-2zM372 682.001l6.00098 -5.00293c-0.666992 -8 0 -17.167 2 -27.5s6 -24.166 12 -41.499c3.33301 -10 11.666 -32 24.999 -66l48.5 -124l64 -161.5l71.5 -178.5c4.66699 -6 9.5 -11.333 14.5 -16
s11 -9 18 -13s16 -8.16699 27 -12.5s24.833 -9.16602 41.5 -14.499l-7 -23c-18.667 0 -38.167 0.166992 -58.5 0.5s-40.166 0.5 -59.499 0.5c-17.333 -0 -34.5 -0.166992 -51.5 -0.5s-35.167 -0.5 -54.5 -0.5l6 21l37 29c-4 13.333 -12.667 36.666 -26 69.999l-49 123
c-10 -0.666992 -21 -1.5 -33 -2.5s-26.333 -1.66699 -43 -2s-36.834 -0.666016 -60.501 -0.999023s-52.5 -0.166016 -86.5 0.500977l-24 -62l-18 -46.5c-5.33301 -13.667 -10 -26.167 -14 -37.5l-12 -35l88 -34l-6 -23c-17.333 0 -36.5 0.166992 -57.5 0.5
s-41.167 0.5 -60.5 0.5c-17.333 0 -34.5 -0.166992 -51.5 -0.5s-34.167 -0.5 -51.5 -0.5l6 24l70 33c7.33301 14.667 19 40.167 35 76.5l55 127l65 155l64 160.5c4.66699 12 5.66699 22.333 3 31l-10 27z" />
    <glyph glyph-name="uni02C6" unicode="&#x2c6;" horiz-adv-x="386" 
d="M203 676l100 -161l-24 -20l-86 94l-87 -94l-23 20l99 156z" />
    <glyph glyph-name="uni02C7" unicode="&#x2c7;" horiz-adv-x="386" 
d="M183 500l-99 163l23 19l87 -94l86 95l23 -20l-98 -158z" />
    <glyph glyph-name="uni02C9" unicode="&#x2c9;" horiz-adv-x="386" 
d="M80 547l16 56h212l-16 -56h-212z" />
    <glyph glyph-name="uni02D8" unicode="&#x2d8;" horiz-adv-x="386" 
d="M120 652c1.33301 -7.33301 3.33594 -15.502 6.00293 -24.502s6.66699 -17.5 12 -25.5s12.166 -14.667 20.499 -20s19.166 -8 32.499 -8c14.667 0 26.667 2.66699 36 8s16.666 11.833 21.999 19.5s9.16602 15.334 11.499 23.001l5.5 18.5l35 9
c0 -19.333 -2.33301 -37.166 -7 -53.499s-11.5 -30.833 -20.5 -43.5s-20.667 -22.5 -35 -29.5s-31.166 -10.5 -50.499 -10.5c-20 0 -36.5 3.66699 -49.5 11s-23.333 17 -31 29s-13 25.667 -16 41s-4.5 31 -4.5 47z" />
    <glyph glyph-name="uni02D9" unicode="&#x2d9;" horiz-adv-x="386" 
d="M200 646c6 -2.66699 14.1689 -9.99902 24.502 -21.999s18.166 -23 23.499 -33l-3 -8c-4 -9.33301 -11.833 -19.666 -23.5 -30.999s-20.834 -19.333 -27.501 -24l-7 -3c-9.33301 6 -18.5 14.5 -27.5 25.5s-16.167 21.167 -21.5 30.5l3 8
c7.33301 11.333 16 22.166 26 32.499s18.667 18.166 26 23.499z" />
    <glyph glyph-name="uni02DA" unicode="&#x2da;" horiz-adv-x="386" 
d="M194 676c11.333 0 22.333 -2.16602 33 -6.49902s20.167 -10.166 28.5 -17.499s15 -16.5 20 -27.5s7.5 -22.833 7.5 -35.5c0 -14 -2.5 -26.333 -7.5 -37s-11.833 -19.667 -20.5 -27s-18.334 -12.833 -29.001 -16.5s-21.667 -5.5 -33 -5.5c-12 0 -23.333 1.83301 -34 5.5
s-20.167 9.16699 -28.5 16.5s-15 16.166 -20 26.499s-7.5 22.166 -7.5 35.499c0 14 2.5 26.5 7.5 37.5s11.833 20.333 20.5 28s18.334 13.5 29.001 17.5s21.667 6 33 6h1zM192 641.001c-13.333 0 -24.167 -4.83301 -32.5 -14.5s-12.5 -22.167 -12.5 -37.5
c0 -16.667 4.5 -29.5 13.5 -38.5s19.833 -13.5 32.5 -13.5c13.333 0 24.333 4.66699 33 14s13 22 13 38c0 16.667 -4.33301 29.5 -13 38.5s-19.667 13.5 -33 13.5h-1z" />
    <glyph glyph-name="uni02DB" unicode="&#x2db;" horiz-adv-x="392" 
d="M298 -149c-12.667 -13.333 -27.499 -24.167 -44.499 -32.5s-35.5 -12.5 -55.5 -12.5c-10 0 -19.833 1.5 -29.5 4.5s-18.334 7.5 -26.001 13.5s-13.834 13.5 -18.501 22.5s-7 19.5 -7 31.5s2.5 24 7.5 36s11.667 23.667 20 35s17.833 22 28.5 32s21.667 18.667 33 26h42
c-25.333 -25.333 -42.333 -46.666 -51 -63.999s-13 -31.333 -13 -42c0 -11.333 3.66699 -20.5 11 -27.5s19.333 -10.5 36 -10.5c8 0 17.333 1.16699 28 3.5s20.334 5.16602 29.001 8.49902z" />
    <glyph glyph-name="uni02DC" unicode="&#x2dc;" horiz-adv-x="386" 
d="M335 610c-17.333 -32 -33.833 -54.167 -49.5 -66.5s-30.834 -18.5 -45.501 -18.5c-8 0 -16.5 2.16699 -25.5 6.5l-35.5 17.5c-11.333 6 -19.833 10.333 -25.5 13s-11.5 4 -17.5 4c-8 0 -17.167 -4.16699 -27.5 -12.5s-20.833 -19.5 -31.5 -33.5l-23 19
c20 33.333 37.5 56 52.5 68s29.167 18 42.5 18c7.33301 0 15.333 -2 24 -6s18.667 -9 30 -15c9.33301 -6 18.333 -11 27 -15s16 -6 22 -6c9.33301 0 19.333 4.16699 30 12.5s20.334 18.5 29.001 30.5z" />
    <glyph glyph-name="uni02DD" unicode="&#x2dd;" horiz-adv-x="386" 
d="M235 511l64 164c25.333 0 49.333 -4.66699 72 -14v-12l-113 -156zM93 511l65 164c25.333 0 49 -4.66699 71 -14v-12l-112 -156z" />
    <glyph glyph-name="uni037E" unicode="&#x37e;" horiz-adv-x="227" 
d="M29 -99c19.333 17.333 35.5 36.834 48.5 58.501s19.5 43.167 19.5 64.5c0 14 -3.33301 26 -10 36l-41 22v15l78 47h14c6 -2.66699 13.5 -11 22.5 -25s13.833 -34 14.5 -60c0.666992 -34 -9.83301 -66.833 -31.5 -98.5s-53.5 -59.834 -95.5 -84.501zM120 430.001
c4 -2 8.66992 -5.33398 14.0029 -10.001s10.666 -10 15.999 -16s10.5 -12.333 15.5 -19s9.16699 -12.667 12.5 -18l-3 -10c-2 -5.33301 -5.5 -11.166 -10.5 -17.499s-10.333 -12.5 -16 -18.5s-11.334 -11.333 -17.001 -16s-10.5 -8.33398 -14.5 -11.001l-9 -2
c-10.667 6 -21.667 15.333 -33 28s-19.666 24.334 -24.999 35.001l3 9c7.33301 12.667 16.666 25 27.999 37s21.666 21 30.999 27z" />
    <glyph glyph-name="tonos" unicode="&#x384;" horiz-adv-x="386" 
d="M165 501l20.499 85.5l19.5 83.5c4.66699 0.666992 10.667 1 18 1s14.833 -0.5 22.5 -1.5s14.834 -2.5 21.501 -4.5s12 -4.33301 16 -7v-12l-93 -153z" />
    <glyph glyph-name="uni0385" unicode="&#x385;" horiz-adv-x="386" 
d="M321 638c6 -3.33301 14.167 -10.499 24.5 -21.499s17.833 -21.167 22.5 -30.5l-2 -8c-4 -8.66699 -11.333 -18.167 -22 -28.5s-19 -17.833 -25 -22.5l-8 -2c-8.66699 5.33301 -17.5 13.166 -26.5 23.499s-16.167 19.5 -21.5 27.5l2 9c7.33301 9.33301 15.5 19 24.5 29
s17.167 17.333 24.5 22zM145 514.001l38.001 168c13.333 1.33301 27.166 0.5 41.499 -2.5s26.5 -7.16699 36.5 -12.5v-12l-89 -151zM76.001 638.001c5.33301 -3.33301 13.168 -10.499 23.501 -21.499s17.833 -21.167 22.5 -30.5l-2 -8
c-4 -8.66699 -11.333 -18.167 -22 -28.5s-19.334 -17.833 -26.001 -22.5l-7 -2c-9.33301 5.33301 -18.5 13.166 -27.5 23.499s-15.833 19.5 -20.5 27.5l2 9c6 9.33301 13.833 19 23.5 29s18.167 17.333 25.5 22z" />
    <glyph glyph-name="uni0386" unicode="&#x386;" horiz-adv-x="710" 
d="M95 516l20.499 85.5l19.5 83.5c4.66699 0.666992 10.667 1 18 1s14.833 -0.5 22.5 -1.5s14.834 -2.5 21.501 -4.5s12 -4.33301 16 -7v-12l-93 -153zM328.999 539l-31 -83l-25 -65l-20.5 -54c-6.33301 -16.667 -12.166 -33 -17.499 -49
c6.66699 0 18.5 -0.166992 35.5 -0.5s35.167 -0.833008 54.5 -1.5s38.166 -1.16699 56.499 -1.5s32.833 -0.5 43.5 -0.5l-51.5 138l-42.5 117h-2zM371.999 682l6.00098 -5.00293c-0.666992 -8 0 -17.167 2 -27.5s6 -24.166 12 -41.499c3.33301 -10 11.666 -32 24.999 -66
l48.5 -124l64 -161.5l71.5 -178.5c4.66699 -6 9.5 -11.333 14.5 -16s11 -9 18 -13s16 -8.16699 27 -12.5s24.833 -9.16602 41.5 -14.499l-7 -23c-18.667 0 -38.167 0.166992 -58.5 0.5s-40.166 0.5 -59.499 0.5c-17.333 0 -34.5 -0.166992 -51.5 -0.5
s-35.167 -0.5 -54.5 -0.5l6 21l37 29c-4 13.333 -12.667 36.666 -26 69.999l-49 123c-10 -0.666992 -21 -1.5 -33 -2.5s-26.333 -1.66699 -43 -2s-36.834 -0.666016 -60.501 -0.999023s-52.5 -0.166016 -86.5 0.500977l-24 -62l-18 -46.5
c-5.33301 -13.667 -10 -26.167 -14 -37.5l-12 -35l88 -34l-6 -23c-17.333 0 -36.5 0.166992 -57.5 0.5s-41.167 0.5 -60.5 0.5c-17.333 -0 -34.5 -0.166992 -51.5 -0.5s-34.167 -0.5 -51.5 -0.5l6 24l70 33c7.33301 14.667 19 40.167 35 76.5l55 127l65 155l64 160.5
c4.66699 12 5.66699 22.333 3 31l-10 27z" />
    <glyph glyph-name="anoteleia" unicode="&#x387;" horiz-adv-x="386" 
d="M288 643c2.66699 -1.33301 6.16602 -4.00098 10.499 -8.00098s8.83301 -8.66699 13.5 -14s9 -10.666 13 -15.999s7.33301 -10.333 10 -15l-2 -7c-4 -10 -11.5 -20.333 -22.5 -31s-19.5 -18.334 -25.5 -23.001l-8 -2c-8 5.33301 -16.833 13.333 -26.5 24
s-16.5 20.334 -20.5 29.001l1 8c6.66699 10 14.834 20 24.501 30s18.167 17.667 25.5 23zM109.999 642.999c2.66699 -1.33301 6.16992 -4.00098 10.5029 -8.00098s8.66602 -8.66699 12.999 -14l13 -16c4.33301 -5.33301 7.5 -10.333 9.5 -15l-2 -7
c-2 -4.66699 -5 -9.66699 -9 -15s-8.33301 -10.5 -13 -15.5s-9.33398 -9.66699 -14.001 -14s-8.33398 -7.5 -11.001 -9.5l-8 -2c-9.33301 5.33301 -18.5 13.333 -27.5 24s-15.833 20.334 -20.5 29.001l2 8c6 10 13.833 20.167 23.5 30.5s18.167 17.833 25.5 22.5z" />
    <glyph glyph-name="uni0388" unicode="&#x388;" horiz-adv-x="565" 
d="M-120 516l20.499 85.5l19.5 83.5c4.66699 0.666992 10.667 1 18 1s14.833 -0.5 22.5 -1.5s14.834 -2.5 21.501 -4.5s12 -4.33301 16 -7v-12l-93 -153zM42.999 660c20.667 0 41.3389 -0.165039 62.0059 -0.498047s41 -0.5 61 -0.5h248
c2.66699 0.666992 7.66699 1.66699 15 3s15.166 2.5 23.499 3.5l25 3c8.33301 1 14.833 1.5 19.5 1.5l3 -3c-0.666992 -6.66699 -2 -16.5 -4 -29.5s-4.33301 -26.833 -7 -41.5l-8 -42c-2.66699 -13.333 -5 -24 -7 -32l-16 -9c-2.66699 6 -6 14 -10 24l-12.5 31l-12 30.5
l-8.5 22.5l-203 -8v-250c46.667 0 92.834 1.16699 138.501 3.5s84.167 5.16602 115.5 8.49902l4 -9c-1.33301 -2 -4.5 -6.16699 -9.5 -12.5s-10.833 -12.833 -17.5 -19.5s-13.167 -12.667 -19.5 -18s-10.833 -8 -13.5 -8s-8.83398 0.333008 -18.501 1
s-21 1.33398 -34 2.00098s-27 1.5 -42 2.5s-29.333 1.83301 -43 2.5s-26 1.33398 -37 2.00098s-18.833 1 -23.5 1v-59c0 -22.667 0.166992 -46.334 0.5 -71.001l1 -74c0.333008 -24.667 1.16602 -47.334 2.49902 -68.001l212 -8c5.33301 6.66699 11.833 15.5 19.5 26.5
l23.5 33.5l23.5 32.5c7.66699 10.333 14.5 18.833 20.5 25.5l20 1c-0.666992 -8 -2.33398 -19.333 -5.00098 -34s-5.83398 -30 -9.50098 -46l-11 -46.5c-3.66699 -15 -6.83398 -26.5 -9.50098 -34.5c-32.667 1.33301 -63.667 2.16602 -93 2.49902s-58.666 0.5 -87.999 0.5
h-158c-22.667 -0 -45.834 -0.166992 -69.501 -0.5s-46.167 -0.5 -67.5 -0.5l8 24l85 29c1.33301 6 2.66602 35 3.99902 87s2 120 2 204v266l-87 28z" />
    <glyph glyph-name="uni0389" unicode="&#x389;" horiz-adv-x="771" 
d="M-117 516l20.499 85.5l19.5 83.5c4.66699 0.666992 10.667 1 18 1s14.833 -0.5 22.5 -1.5s14.834 -2.5 21.501 -4.5s12 -4.33301 16 -7v-12l-93 -153zM51.999 659c18 0 36.998 -0.165039 56.998 -0.498047s39.333 -0.5 58 -0.5c19.333 0 36.666 0.166992 51.999 0.5
s29.666 0.5 42.999 0.5l-7 -24l-43 -31v-227h348v226l-49 35l8 21c14.667 0 29 -0.166992 43 -0.5s28.333 -0.5 43 -0.5c23.333 0 46.333 0.166992 69 0.5s43.667 0.5 63 0.5l-8 -25l-80 -30v-263c0 -28 0.166992 -58.167 0.5 -90.5s0.833008 -62.333 1.5 -90
s1.33398 -51.334 2.00098 -71.001s1.66699 -30.834 3 -33.501l92 -32l-9 -25c-20 0 -41.5 0.166992 -64.5 0.5s-46.167 0.5 -69.5 0.5c-17.333 -0 -33.666 -0.166992 -48.999 -0.5s-30 -0.5 -44 -0.5l7 25l40 31c1.33301 49.333 1.83301 96.333 1.5 141
s-0.5 90.667 -0.5 138c-11.333 -2 -29 -3.5 -53 -4.5s-49.333 -1.5 -76 -1.5h-219c0 -41.333 -0.333008 -83.5 -1 -126.5s0 -90.5 2 -142.5l46 -37l-8 -23c-13.333 0 -26.833 0.166992 -40.5 0.5s-29.167 0.5 -46.5 0.5c-21.333 -0 -43.5 -0.166992 -66.5 -0.5
s-44.5 -0.5 -64.5 -0.5l9 24l75 30c0 6 0.333008 19 1 39s1.33398 43.833 2.00098 71.5s1.33398 57.5 2.00098 89.5s1 63.333 1 94v259l-80 29z" />
    <glyph glyph-name="uni038A" unicode="&#x38a;" horiz-adv-x="336" 
d="M-109 516l20.499 85.5l19.5 83.5c4.66699 0.666992 10.667 1 18 1s14.833 -0.5 22.5 -1.5s14.834 -2.5 21.501 -4.5s12 -4.33301 16 -7v-12l-93 -153zM50.999 659c19.333 0 38.8291 -0.166016 58.4961 -0.499023s39.167 -0.5 58.5 -0.5
c20.667 0 41.334 0.166992 62.001 0.5s41.334 0.5 62.001 0.5l-7 -24l-73 -29v-263c0 -83.333 0.5 -150.333 1.5 -201s2.16699 -80.334 3.5 -89.001l92 -30l-7 -24c-19.333 0 -40 0.166992 -62 0.5s-46 0.5 -72 0.5c-25.333 -0 -49.666 -0.166992 -72.999 -0.5
s-44.666 -0.5 -63.999 -0.5l7 24l79 30c2 8 3.5 37.5 4.5 88.5s1.5 118.167 1.5 201.5v264l-79 29z" />
    <glyph glyph-name="uni038C" unicode="&#x38c;" horiz-adv-x="785" 
d="M-47 520l20.499 85.5l19.5 83.5c4.66699 0.666992 10.667 1 18 1s14.833 -0.5 22.5 -1.5s14.834 -2.5 21.501 -4.5s12 -4.33301 16 -7v-12l-93 -153zM384.999 640c-38 0 -71.668 -7.66699 -101.001 -23s-54 -36.5 -74 -63.5s-35.333 -59 -46 -96s-16 -76.833 -16 -119.5
c0 -40.667 6 -80.334 18 -119.001s29 -73 51 -103s48.833 -54 80.5 -72s67.5 -27 107.5 -27c42.667 0 78.834 9.16699 108.501 27.5s53.667 42.333 72 72s31.5 63 39.5 100s12 74.5 12 112.5c0 42 -6.16699 81.667 -18.5 119s-29.666 70.333 -51.999 99
s-48.833 51.334 -79.5 68.001s-64.334 25 -101.001 25h-1zM390.998 677c40 0 80.665 -6.83301 121.998 -20.5s78.833 -34.334 112.5 -62.001s61.334 -62.5 83.001 -104.5s32.834 -91.667 33.501 -149c0.666992 -63.333 -9.33301 -117.666 -30 -162.999
s-47.667 -82.5 -81 -111.5s-71 -50.5 -113 -64.5s-83.333 -21 -124 -21c-41.333 0 -83 6.83301 -125 20.5s-79.667 34.5 -113 62.5s-60.5 63.5 -81.5 106.5s-31.5 93.5 -31.5 151.5c0 59.333 10.833 111.166 32.5 155.499s49.5 81.333 83.5 111s71.5 51.834 112.5 66.501
s80.5 22 118.5 22h1z" />
    <glyph glyph-name="uni038E" unicode="&#x38e;" horiz-adv-x="693" 
d="M-136 520l20.499 85.5l19.5 83.5c4.66699 0.666992 10.667 1 18 1s14.833 -0.5 22.5 -1.5s14.834 -2.5 21.501 -4.5s12 -4.33301 16 -7v-12l-93 -153zM291.999 54c2.66699 30.667 4.33691 61.334 5.00391 92.001s1 58.667 1 84c0 45.333 -3.16699 90.5 -9.5 135.5
s-17.5 85.5 -33.5 121.5s-38 65.167 -66 87.5s-64 33.5 -108 33.5c-15.333 0 -29.333 -1.16699 -42 -3.5s-22.667 -4.83301 -30 -7.5l1 24c21.333 15.333 44.833 27 70.5 35s50.167 12 73.5 12c42.667 0 76.667 -10.667 102 -32s44.666 -48.5 57.999 -81.5
s22 -69.5 26 -109.5s6.33301 -78.667 7 -116h13c2.66699 40.667 9.33398 81.334 20.001 122.001s26.167 77 46.5 109s46.166 58 77.499 78s69 30 113 30c9.33301 0 21.166 -4.83301 35.499 -14.5s25.166 -21.167 32.499 -34.5l-5 -17
c-5.33301 1.33301 -11.333 2.33301 -18 3s-13.667 1 -21 1c-41.333 0 -77.833 -9.66699 -109.5 -29s-58.167 -45.833 -79.5 -79.5s-37.666 -73.334 -48.999 -119.001s-17 -94.834 -17 -147.501c0 -23.333 0.166992 -50.833 0.5 -82.5s1.16602 -63.167 2.49902 -94.5l106 -31
l-7 -24c-21.333 0 -44.833 0.166992 -70.5 0.5s-50.834 0.5 -75.501 0.5c-26 -0 -51.333 -0.166992 -76 -0.5s-50 -0.5 -76 -0.5l5 24z" />
    <glyph glyph-name="uni038F" unicode="&#x38f;" horiz-adv-x="823" 
d="M-23 515l20.499 85.5l19.5 83.5c4.66699 0.666992 10.667 1 18 1s14.833 -0.5 22.5 -1.5s14.834 -2.5 21.501 -4.5s12 -4.33301 16 -7v-12l-93 -153zM57.999 0c-10 46.667 -19.001 99.3379 -27.001 158.005l17 2l35 -49l29 -42h163l1 7
c-24 12.667 -47.333 27.834 -70 45.501s-43 38.167 -61 61.5s-32.5 49.833 -43.5 79.5s-16.5 63.167 -16.5 100.5c0 47.333 8.83301 90.333 26.5 129s41.5 71.667 71.5 99s65.333 48.5 106 63.5s84 22.5 130 22.5s88.667 -7.33301 128 -22s73.333 -35.334 102 -62.001
s51 -58.834 67 -96.501s24 -79.5 24 -125.5c0 -37.333 -5.33301 -71 -16 -101s-25 -56.833 -43 -80.5s-38.833 -44.834 -62.5 -63.501s-48.167 -35.334 -73.5 -50.001v-7h164l29 42c10 14.667 21.667 30.667 35 48l18 2c-4 -28.667 -8.5 -56.834 -13.5 -84.501
s-10.167 -53.167 -15.5 -76.5h-285l-5 6c2 10.667 4.33301 21.667 7 33s5 22.333 7 33c56.667 38 96.334 82.833 119.001 134.5s34 106.5 34 164.5c0 38 -4.83301 73.5 -14.5 106.5s-24 61.5 -43 85.5s-42.333 42.833 -70 56.5s-59.5 20.5 -95.5 20.5
c-38 0 -71.5 -7.5 -100.5 -22.5s-53 -35.167 -72 -60.5s-33.333 -54.833 -43 -88.5s-14.5 -68.834 -14.5 -105.501c0 -60.667 11.833 -115.167 35.5 -163.5s60.5 -90.833 110.5 -127.5l6 -33.5c2 -11.667 3.66699 -22.5 5 -32.5l-4 -6h-281z" />
    <glyph glyph-name="uni0390" unicode="&#x390;" horiz-adv-x="255" 
d="M256 638c6 -3.33301 14.167 -10.499 24.5 -21.499s17.833 -21.167 22.5 -30.5l-2 -8c-4 -8.66699 -11.333 -18.167 -22 -28.5s-19 -17.833 -25 -22.5l-8 -2c-8.66699 5.33301 -17.5 13.166 -26.5 23.499s-16.167 19.5 -21.5 27.5l2 9c7.33301 9.33301 15.5 19 24.5 29
s17.167 17.333 24.5 22zM80 514.001l38.001 168c13.333 1.33301 27.166 0.5 41.499 -2.5s26.5 -7.16699 36.5 -12.5v-12l-89 -151zM11.001 638.001c5.33301 -3.33301 13.168 -10.499 23.501 -21.499s17.833 -21.167 22.5 -30.5l-2 -8c-4 -8.66699 -11.333 -18.167 -22 -28.5
s-19.334 -17.833 -26.001 -22.5l-7 -2c-9.33301 5.33301 -18.5 13.166 -27.5 23.499s-15.833 19.5 -20.5 27.5l2 9c6 9.33301 13.833 19 23.5 29s18.167 17.333 25.5 22zM77.0029 434.002c4.66699 2 10.498 3.83398 17.498 5.50098s14.5 3.33398 22.5 5.00098
s15.833 3.16699 23.5 4.5s14.5 2.33301 20.5 3v-390c2.66699 -4.66699 10.334 -9.33398 23.001 -14.001s33 -8.33398 61 -11.001l-5 -21c-10 -8.66699 -21.833 -15.667 -35.5 -21s-31.167 -8 -52.5 -8c-23.333 0 -41.666 5.5 -54.999 16.5s-20 25.833 -20 44.5v386z" />
    <glyph glyph-name="Alpha" unicode="&#x391;" horiz-adv-x="710" 
d="M329 539l-31 -83l-25 -65l-20.5 -54c-6.33301 -16.667 -12.166 -33 -17.499 -49c6.66699 0 18.5 -0.166992 35.5 -0.5s35.167 -0.833008 54.5 -1.5s38.166 -1.16699 56.499 -1.5s32.833 -0.5 43.5 -0.5l-51.5 138l-42.5 117h-2zM372 682l6.00098 -5.00293
c-0.666992 -8 0 -17.167 2 -27.5s6 -24.166 12 -41.499c3.33301 -10 11.666 -32 24.999 -66l48.5 -124l64 -161.5l71.5 -178.5c4.66699 -6 9.5 -11.333 14.5 -16s11 -9 18 -13s16 -8.16699 27 -12.5s24.833 -9.16602 41.5 -14.499l-7 -23
c-18.667 0 -38.167 0.166992 -58.5 0.5s-40.166 0.5 -59.499 0.5c-17.333 0 -34.5 -0.166992 -51.5 -0.5s-35.167 -0.5 -54.5 -0.5l6 21l37 29c-4 13.333 -12.667 36.666 -26 69.999l-49 123c-10 -0.666992 -21 -1.5 -33 -2.5s-26.333 -1.66699 -43 -2
s-36.834 -0.666016 -60.501 -0.999023s-52.5 -0.166016 -86.5 0.500977l-24 -62l-18 -46.5c-5.33301 -13.667 -10 -26.167 -14 -37.5l-12 -35l88 -34l-6 -23c-17.333 0 -36.5 0.166992 -57.5 0.5s-41.167 0.5 -60.5 0.5c-17.333 -0 -34.5 -0.166992 -51.5 -0.5
s-34.167 -0.5 -51.5 -0.5l6 24l70 33c7.33301 14.667 19 40.167 35 76.5l55 127l65 155l64 160.5c4.66699 12 5.66699 22.333 3 31l-10 27z" />
    <glyph glyph-name="Beta" unicode="&#x392;" horiz-adv-x="603" 
d="M461 193c0 18 -3 35.5039 -9 52.5039s-17.833 32 -35.5 45s-42.834 23.333 -75.501 31s-75.667 11.167 -129 10.5v-28c0 -20.667 -0.166992 -42.834 -0.5 -66.501s-0.5 -47.5 -0.5 -71.5s0.333008 -47.333 1 -70s1.66699 -43.334 3 -62.001c32.667 0 60.5 1.33301 83.5 4
s42.833 6.5 59.5 11.5s30.334 11 41.001 18s20 14.833 28 23.5c13.333 15.333 22.333 31.666 27 48.999s7 34.666 7 51.999v1zM212 367.004c28 0.666992 54.9971 3 80.9971 7s48.833 11.167 68.5 21.5s35.334 24.5 47.001 42.5s17.5 41 17.5 69c0 23.333 -4.5 43 -13.5 59
s-22.167 28.667 -39.5 38c-15.333 8 -33.166 13.833 -53.499 17.5s-46.166 5.5 -77.499 5.5h-30v-260zM46.9971 652.004c11.333 0.666992 26.6689 1.83203 46.002 3.49902s40 3.16699 62 4.5s43.667 2.5 65 3.5s40 1.5 56 1.5c78 0 138.5 -11.667 181.5 -35
s64.5 -62 64.5 -116c0 -24.667 -5 -46 -15 -64s-23 -33.167 -39 -45.5s-33.833 -22.166 -53.5 -29.499s-38.834 -12.333 -57.501 -15v-7c73.333 -7.33301 126.333 -25 159 -53s49 -64 49 -108c0 -43.333 -11 -77.833 -33 -103.5s-49.5 -45.167 -82.5 -58.5
s-69.167 -22.166 -108.5 -26.499s-76 -6.5 -110 -6.5s-66.667 0.166992 -98 0.5s-63 1.16602 -95 2.49902l7 24l72 29c1.33301 7.33301 2.66602 31 3.99902 71s2 94.333 2 163v322l-84 20z" />
    <glyph glyph-name="Gamma" unicode="&#x393;" horiz-adv-x="521" 
d="M49 660c18 0 36.5039 -0.168945 55.5039 -0.501953s37.833 -0.5 56.5 -0.5h245c3.33301 0.666992 8.66602 1.66699 15.999 3l23 4c8 1.33301 15.667 2.5 23 3.5s12.666 1.5 15.999 1.5l3 -3c0 -5.33301 -0.833008 -14.333 -2.5 -27l-5.5 -41
c-2 -14.667 -4.16699 -28.667 -6.5 -42s-4.5 -22.666 -6.5 -27.999l-15 -7c-8.66699 14 -17 29.167 -25 45.5l-24 51.5l-190 -8v-283c0 -49.333 0.166992 -90.166 0.5 -122.499s0.666016 -58.833 0.999023 -79.5s0.666016 -36.5 0.999023 -47.5s0.833008 -19.5 1.5 -25.5
l111 -32l-9 -23c-20 0 -42.667 0.166992 -68 0.5s-52.333 0.5 -81 0.5c-20.667 -0 -41.5 -0.166992 -62.5 -0.5s-42.167 -0.5 -63.5 -0.5l6 23l70 32c1.33301 7.33301 2.33301 34.333 3 81s1 115.667 1 207v267l-83 29z" />
    <glyph glyph-name="Delta" unicode="&#x394;" horiz-adv-x="677" 
d="M321 48c50 0 91 0.833008 123 2.5s58.667 4.16699 80 7.5l-87 205l-57.5 137l-36 89.5l-23.5 60.5h-3l-43.5 -103.5l-42 -101.5l-50 -122l-66.5 -165c10.667 -2 22.167 -3.5 34.5 -4.5s26.5 -2 42.5 -3s34.333 -1.66699 55 -2s45 -0.5 73 -0.5h1zM366 682
l5.00195 -1.99902c-1.33301 -11.333 -1 -21.333 1 -30s4.66699 -18.334 8 -29.001c5.33301 -14 14.666 -37.167 27.999 -69.5l46 -109.5l55 -127.5l54.5 -124.5l44 -100.5c12.333 -28.333 20.5 -46.5 24.5 -54.5l5 -38c-18.667 0 -36.334 0.5 -53.001 1.5
s-33.667 1.5 -51 1.5h-391c-22 0 -42.333 -0.5 -61 -1.5s-32.667 -1.5 -42 -1.5l8 43l124 276.5l122 276.5c3.33301 7.33301 5.33301 13.5 6 18.5s1 9.16699 1 12.5l-2 13z" />
    <glyph glyph-name="Epsilon" unicode="&#x395;" horiz-adv-x="565" 
d="M43 660c20.667 0 41.3389 -0.165039 62.0059 -0.498047s41 -0.5 61 -0.5h248c2.66699 0.666992 7.66699 1.66699 15 3s15.166 2.5 23.499 3.5l25 3c8.33301 1 14.833 1.5 19.5 1.5l3 -3c-0.666992 -6.66699 -2 -16.5 -4 -29.5s-4.33301 -26.833 -7 -41.5l-8 -42
c-2.66699 -13.333 -5 -24 -7 -32l-16 -9c-2.66699 6 -6 14 -10 24l-12.5 31l-12 30.5l-8.5 22.5l-203 -8v-250c46.667 0 92.834 1.16699 138.501 3.5s84.167 5.16602 115.5 8.49902l4 -9c-1.33301 -2 -4.5 -6.16699 -9.5 -12.5s-10.833 -12.833 -17.5 -19.5
s-13.167 -12.667 -19.5 -18s-10.833 -8 -13.5 -8s-8.83398 0.333008 -18.501 1s-21 1.33398 -34 2.00098s-27 1.5 -42 2.5s-29.333 1.83301 -43 2.5s-26 1.33398 -37 2.00098s-18.833 1 -23.5 1v-59c0 -22.667 0.166992 -46.334 0.5 -71.001l1 -74
c0.333008 -24.667 1.16602 -47.334 2.49902 -68.001l212 -8c5.33301 6.66699 11.833 15.5 19.5 26.5l23.5 33.5l23.5 32.5c7.66699 10.333 14.5 18.833 20.5 25.5l20 1c-0.666992 -8 -2.33398 -19.333 -5.00098 -34s-5.83398 -30 -9.50098 -46l-11 -46.5
c-3.66699 -15 -6.83398 -26.5 -9.50098 -34.5c-32.667 1.33301 -63.667 2.16602 -93 2.49902s-58.666 0.5 -87.999 0.5h-158c-22.667 -0 -45.834 -0.166992 -69.501 -0.5s-46.167 -0.5 -67.5 -0.5l8 24l85 29c1.33301 6 2.66602 35 3.99902 87s2 120 2 204v266l-87 28z" />
    <glyph glyph-name="Zeta" unicode="&#x396;" horiz-adv-x="635" 
d="M600 648c-6 -8 -16.834 -23.332 -32.501 -45.999l-57.5 -82l-76 -107l-86 -121.5l-88 -126l-82 -119.5v-3c20.667 0 47.667 -0.333008 81 -1s67 -1.16699 101 -1.5s65 -0.666016 93 -0.999023s47 -0.5 57 -0.5l21.5 31.5l26 38l25.5 37c8 11.667 15 21.167 21 28.5l15 2
c-0.666992 -8 -2 -20.667 -4 -38s-4.5 -35.166 -7.5 -53.499s-6.16699 -35.833 -9.5 -52.5s-6 -28.667 -8 -36c-8 0 -28.333 0.166992 -61 0.5s-73.5 0.833008 -122.5 1.5s-104.5 1.16699 -166.5 1.5s-126.333 0.5 -193 0.5l-6 9l45.5 63.5l66.5 92l79.5 111l85 119l83 116
l74.5 103.5l-5 2c-24 0 -49.5 0.333008 -76.5 1l-81.5 2l-80 2c-26 0.666992 -49.667 1 -71 1c-3.33301 -6 -7.16602 -14.167 -11.499 -24.5l-14 -33l-15 -34c-5 -11 -9.16699 -19.833 -12.5 -26.5l-19 -8c-1.33301 8.66699 -2.33301 21 -3 37s-1.5 32.5 -2.5 49.5
s-1.83301 33.167 -2.5 48.5s-1 26.666 -1 33.999l4 4c21.333 -2.66699 37.833 -4.83398 49.5 -6.50098s20.167 -2.83398 25.5 -3.50098h440z" />
    <glyph glyph-name="Eta" unicode="&#x397;" horiz-adv-x="771" 
d="M52 659c18 0 36.998 -0.165039 56.998 -0.498047s39.333 -0.5 58 -0.5c19.333 0 36.666 0.166992 51.999 0.5s29.666 0.5 42.999 0.5l-7 -24l-43 -31v-227h348v226l-49 35l8 21c14.667 0 29 -0.166992 43 -0.5s28.333 -0.5 43 -0.5c23.333 0 46.333 0.166992 69 0.5
s43.667 0.5 63 0.5l-8 -25l-80 -30v-263c0 -28 0.166992 -58.167 0.5 -90.5s0.833008 -62.333 1.5 -90s1.33398 -51.334 2.00098 -71.001s1.66699 -30.834 3 -33.501l92 -32l-9 -25c-20 0 -41.5 0.166992 -64.5 0.5s-46.167 0.5 -69.5 0.5
c-17.333 -0 -33.666 -0.166992 -48.999 -0.5s-30 -0.5 -44 -0.5l7 25l40 31c1.33301 49.333 1.83301 96.333 1.5 141s-0.5 90.667 -0.5 138c-11.333 -2 -29 -3.5 -53 -4.5s-49.333 -1.5 -76 -1.5h-219c0 -41.333 -0.333008 -83.5 -1 -126.5s0 -90.5 2 -142.5l46 -37l-8 -23
c-13.333 0 -26.833 0.166992 -40.5 0.5s-29.167 0.5 -46.5 0.5c-21.333 -0 -43.5 -0.166992 -66.5 -0.5s-44.5 -0.5 -64.5 -0.5l9 24l75 30c0 6 0.333008 19 1 39s1.33398 43.833 2.00098 71.5s1.33398 57.5 2.00098 89.5s1 63.333 1 94v259l-80 29z" />
    <glyph glyph-name="Theta" unicode="&#x398;" horiz-adv-x="781" 
d="M383 640c-37.333 0 -70.665 -7.66602 -99.998 -22.999s-54 -36.5 -74 -63.5s-35.333 -59 -46 -96s-16 -76.833 -16 -119.5c0 -41.333 6 -81.166 18 -119.499s29 -72.5 51 -102.5s48.833 -54 80.5 -72s67.5 -27 107.5 -27c42 0 77.667 9.16699 107 27.5
s53.166 42.166 71.499 71.499s31.666 62.666 39.999 99.999s12.5 75 12.5 113c0 42 -6.33301 81.833 -19 119.5s-30.167 70.667 -52.5 99s-48.833 50.833 -79.5 67.5s-64 25 -100 25h-1zM389.001 677.001c39.333 0 79.665 -6.83398 120.998 -20.501
s78.833 -34.334 112.5 -62.001s61.334 -62.5 83.001 -104.5s32.834 -91.667 33.501 -149c0.666992 -62.667 -9.5 -116.667 -30.5 -162s-48 -82.666 -81 -111.999s-70.167 -51 -111.5 -65s-82.333 -21 -123 -21c-41.333 0 -82.833 6.83301 -124.5 20.5
s-79.167 34.5 -112.5 62.5s-60.5 63.5 -81.5 106.5s-31.5 93.833 -31.5 152.5s10.833 110.167 32.5 154.5s49.167 81.333 82.5 111s70.5 51.834 111.5 66.501s80.5 22 118.5 22h1zM476 376l41 72l20 4l-21 -217l-19 -4l-30 72h-168l-39 -68l-20 -4l21 217l19 4l27 -76h169z
" />
    <glyph glyph-name="Iota" unicode="&#x399;" horiz-adv-x="336" 
d="M51 659c19.333 0 38.8291 -0.166016 58.4961 -0.499023s39.167 -0.5 58.5 -0.5c20.667 0 41.334 0.166992 62.001 0.5s41.334 0.5 62.001 0.5l-7 -24l-73 -29v-263c0 -83.333 0.5 -150.333 1.5 -201s2.16699 -80.334 3.5 -89.001l92 -30l-7 -24
c-19.333 0 -40 0.166992 -62 0.5s-46 0.5 -72 0.5c-25.333 -0 -49.666 -0.166992 -72.999 -0.5s-44.666 -0.5 -63.999 -0.5l7 24l79 30c2 8 3.5 37.5 4.5 88.5s1.5 118.167 1.5 201.5v264l-79 29z" />
    <glyph glyph-name="Kappa" unicode="&#x39a;" horiz-adv-x="676" 
d="M51 660c19.333 0 38.333 -0.166992 57 -0.5s37.667 -0.5 57 -0.5c21.333 0 42.5 0.166992 63.5 0.5s42.167 0.5 63.5 0.5l-7 -23l-73 -31v-263c0 -83.333 0.5 -150.333 1.5 -201s2.16699 -80.334 3.5 -89.001l92 -30l-7 -24c-20 0 -41.5 0.166992 -64.5 0.5
s-48.167 0.5 -75.5 0.5c-23.333 0 -46.5 -0.166992 -69.5 -0.5s-43.5 -0.5 -61.5 -0.5l6 24l80 30c2 8.66699 3.5 38.334 4.5 89.001s1.5 117.667 1.5 201v264l-79 31zM654 634c-14 -4 -31.334 -8.50195 -52.001 -13.502s-38.667 -9.83301 -54 -14.5
c-5.33301 -1.33301 -10.833 -3.83301 -16.5 -7.5s-11.167 -7.83398 -16.5 -12.501l-32 -32.5l-39.5 -42.5l-52 -58.5l-69.5 -80.5v-2l112.5 -129l110.5 -122l48 -51.5l34.5 -36.5l23.5 -24.5c6 -6.33301 11 -11.833 15 -16.5l-12 -5c-24 0.666992 -45 3.33398 -63 8.00098
s-34.333 10.834 -49 18.501s-28.167 16.667 -40.5 27s-24.5 21.5 -36.5 33.5c-26.667 26.667 -60.334 62.334 -101.001 107.001l-126 145v8l91 104.5l66.5 77.5l46.5 57.5c12.667 16.333 23.667 31.5 33 45.5c-1.33301 6 -2.16602 13.5 -2.49902 22.5
s-0.166016 16.167 0.500977 21.5c19.333 0.666992 38.666 1 57.999 1c20 0 38.833 -0.166992 56.5 -0.5s33.334 -0.833008 47.001 -1.5s24.5 -1 32.5 -1z" />
    <glyph glyph-name="Lambda" unicode="&#x39b;" horiz-adv-x="710" 
d="M372 682l5.99512 -4.00098c-0.666992 -8.66699 0 -18.167 2 -28.5s6 -24.166 12 -41.499c3.33301 -10.667 11.666 -33 24.999 -67l49 -124.5l64.5 -162.5l72.5 -180c4.66699 -6 9.33398 -11 14.001 -15s10.5 -8 17.5 -12s15.833 -8 26.5 -12s24.334 -8.33301 41.001 -13
l-7 -23c-18 0 -37.333 0.166992 -58 0.5s-40.667 0.5 -60 0.5c-17.333 -0 -34.666 -0.166992 -51.999 -0.5s-35.666 -0.5 -54.999 -0.5l6 21l37 29c-2 6 -6.33301 18 -13 36l-31 82.5l-54.5 144.5l-84.5 223h-2l-124.5 -325.5c-29.667 -78.333 -48.5 -129.5 -56.5 -153.5
l89 -34l-6 -23c-17.333 0 -36.333 0.166992 -57 0.5s-40.667 0.5 -60 0.5c-17.333 -0 -34.666 -0.166992 -51.999 -0.5s-34.666 -0.5 -51.999 -0.5l6 23l70 34l34 76.5l55 126.5l65 155l65 161c4.66699 11.333 5.66699 21.333 3 30l-10 28z" />
    <glyph glyph-name="Mu" unicode="&#x39c;" horiz-adv-x="933" 
d="M71 658l161.997 1.00098c1.33301 -12 3.33301 -21.833 6 -29.5s4.66699 -13.167 6 -16.5c10 -22.667 34.167 -72.834 72.5 -150.501l151.5 -313.5h2c4 8.66699 10.5 22 19.5 40l31.5 63.5l40 80.5l45.5 92l47 97.5l45.5 96.5c2 4.66699 3 9.66699 3 15v25l185 -1l-8 -25
l-85 -29c0.666992 -18.667 1.5 -44.667 2.5 -78s2.33301 -69.5 4 -108.5l5 -120.5c1.66699 -41.333 3.33398 -79.166 5.00098 -113.499s3.16699 -63.5 4.5 -87.5s2.33301 -38.333 3 -43l91 -30l-5 -24c-18.667 0 -39.667 0.166992 -63 0.5s-45.666 0.5 -66.999 0.5
c-20.667 0 -41.167 -0.166992 -61.5 -0.5s-40.166 -0.5 -59.499 -0.5l8 24l62 30c-0.666992 30.667 -1.33398 67.5 -2.00098 110.5l-2 134l-2 138.5c-0.666992 46 -1.33398 87.667 -2.00098 125h-3l-47 -102.5l-58 -124.5l-70 -153.5l-84 -189.5l-19 -2l-25.5 56l-26.5 60.5
l-31.5 72l-40 91l-51.5 117l-67 150.5h-2c-3.33301 -36 -6.5 -76.667 -9.5 -122l-9 -135.5c-3 -45 -5.5 -87.333 -7.5 -127s-3.33301 -71.5 -4 -95.5l90 -34l-6 -23c-19.333 0 -38.666 0.166992 -57.999 0.5s-39.666 0.5 -60.999 0.5c-16.667 0 -34 -0.166992 -52 -0.5
s-35 -0.5 -51 -0.5l5 23l71 33c4 21.333 8.33301 51.5 13 90.5l15.5 130.5c5.66699 48 11.167 98.333 16.5 151l15 154c-2 6.66699 -4.5 12.167 -7.5 16.5s-7.66699 8.16602 -14 11.499s-15.5 6.83301 -27.5 10.5s-28.333 8.16699 -49 13.5z" />
    <glyph glyph-name="Nu" unicode="&#x39d;" horiz-adv-x="766" 
d="M262 -1c-19.333 0 -38.667 0.166992 -58 0.5s-39.666 0.5 -60.999 0.5c-18 -0 -37.167 -0.166992 -57.5 -0.5s-39.5 -0.5 -57.5 -0.5l6 24l82 36c1.33301 21.333 4 73.333 8 156s7.33301 197.334 10 344.001c-10 14.667 -18.333 26 -25 34s-13.667 14.333 -21 19
s-15.833 8.33398 -25.5 11.001s-22.167 6.66699 -37.5 12l9 24l137 5c1.33301 -3.33301 5.5 -10.5 12.5 -21.5s15.5 -22.833 25.5 -35.5l203 -245l204 -234h3c0 7.33301 -0.166992 22.666 -0.5 45.999s-0.666016 50.833 -0.999023 82.5s-0.833008 65.5 -1.5 101.5
s-1.16699 70.167 -1.5 102.5s-0.666016 61.166 -0.999023 86.499s-0.5 43.333 -0.5 54l-85 35l10 23c18.667 0 36.334 -0.166992 53.001 -0.5s32.667 -0.5 48 -0.5c19.333 0 39.666 0.166992 60.999 0.5s41.666 0.5 60.999 0.5l-6 -26l-85 -32
c0 -7.33301 -0.333008 -21 -1 -41s-1.33398 -43.833 -2.00098 -71.5s-1.33398 -58.5 -2.00098 -92.5s-1.5 -68.833 -2.5 -104.5s-1.83301 -71.167 -2.5 -106.5s-1 -68.333 -1 -99c0 -16 -0.5 -34 -1.5 -54s-2.16699 -36 -3.5 -48l-11 -5c-22 16 -49.167 40.833 -81.5 74.5
s-68.833 74 -109.5 121l-131.5 157l-147.5 182.5h-2v-137c0 -48.667 0.333008 -94.667 1 -138s1.5 -81.5 2.5 -114.5s2.16699 -54.833 3.5 -65.5l91 -36z" />
    <glyph glyph-name="Xi" unicode="&#x39e;" horiz-adv-x="613" 
d="M125 594l-24.001 -45.999c-7.33301 -14 -14.666 -26 -21.999 -36l-15 -4c0 40.667 0.5 75.5 1.5 104.5s2.5 48.167 4.5 57.5c2.66699 0 6.66699 -0.5 12 -1.5s11 -2 17 -3s11.833 -2.16699 17.5 -3.5s10.5 -2.33301 14.5 -3h350l34 5.5
c14.667 2.33301 27 4.16602 37 5.49902c-1.33301 -13.333 -4 -34 -8 -62s-8.66699 -57.667 -14 -89l-17 -8c-6 12 -11.833 25 -17.5 39l-17.5 44h-353zM417.999 379.001l23.499 31.5l23.5 30.5l16 3c-1.33301 -13.333 -2.66602 -28.5 -3.99902 -45.5
s-2.83301 -34.5 -4.5 -52.5l-5 -53.5l-4.5 -46.5l-16 -2l-16.5 33.5c-5.66699 11 -11.167 22.5 -16.5 34.5h-238l-22.5 -33.5l-24.5 -33.5l-14 -2c1.33301 16 2.83301 32.833 4.5 50.5l5 53l5 50.5l4.5 44l16 3c10.667 -20 20.667 -41.667 30 -65h238zM492.998 72.001
c12 17.333 24.333 33.833 37 49.5l33 40.5l15 2c-4.66699 -28 -10 -57 -16 -87s-11.667 -55.667 -17 -77h-503c-2 24.667 -3.16699 50.667 -3.5 78s-0.833008 55 -1.5 83l17 3c6.66699 -14 14 -28.5 22 -43.5s16 -31.167 24 -48.5h393z" />
    <glyph glyph-name="Omicron" unicode="&#x39f;" horiz-adv-x="785" 
d="M385 640c-38 0 -71.668 -7.66699 -101.001 -23s-54 -36.5 -74 -63.5s-35.333 -59 -46 -96s-16 -76.833 -16 -119.5c0 -40.667 6 -80.334 18 -119.001s29 -73 51 -103s48.833 -54 80.5 -72s67.5 -27 107.5 -27c42.667 0 78.834 9.16699 108.501 27.5s53.667 42.333 72 72
s31.5 63 39.5 100s12 74.5 12 112.5c0 42 -6.16699 81.667 -18.5 119s-29.666 70.333 -51.999 99s-48.833 51.334 -79.5 68.001s-64.334 25 -101.001 25h-1zM390.999 677c40 0 80.665 -6.83301 121.998 -20.5s78.833 -34.334 112.5 -62.001s61.334 -62.5 83.001 -104.5
s32.834 -91.667 33.501 -149c0.666992 -63.333 -9.33301 -117.666 -30 -162.999s-47.667 -82.5 -81 -111.5s-71 -50.5 -113 -64.5s-83.333 -21 -124 -21c-41.333 0 -83 6.83301 -125 20.5s-79.667 34.5 -113 62.5s-60.5 63.5 -81.5 106.5s-31.5 93.5 -31.5 151.5
c0 59.333 10.833 111.166 32.5 155.499s49.5 81.333 83.5 111s71.5 51.834 112.5 66.501s80.5 22 118.5 22h1z" />
    <glyph glyph-name="Pi" unicode="&#x3a0;" horiz-adv-x="756" 
d="M123 606l-81.0049 28.9971l9 24c18 0 37.167 -0.166992 57.5 -0.5s39.833 -0.5 58.5 -0.5h421c24 0 47 0.166992 69 0.5s42.667 0.5 62 0.5l-7 -25l-80 -30v-259c0 -29.333 0.166992 -60.166 0.5 -92.499s0.833008 -62.5 1.5 -90.5s1.33398 -51.833 2.00098 -71.5
s1.66699 -30.834 3 -33.501l91 -34l-8 -24c-20 0 -41.667 0.166992 -65 0.5s-46.333 0.5 -69 0.5c-17.333 0 -34 -0.166992 -50 -0.5s-31 -0.5 -45 -0.5l9 25l40 31c0.666992 16.667 1 33.334 1 50.001v59v75v103v267c-11.333 2 -29.666 3.66699 -54.999 5
s-61.666 2 -108.999 2c-49.333 0 -86.5 -0.666992 -111.5 -2s-43.5 -3 -55.5 -5v-265c0 -38.667 -0.166992 -72 -0.5 -100s-0.5 -53 -0.5 -75c0 -21.333 0.166992 -40.666 0.5 -57.999s0.833008 -34.666 1.5 -51.999l46 -37l-9 -23c-12 0 -25.167 0.166992 -39.5 0.5
s-29.833 0.5 -46.5 0.5c-21.333 -0 -43.333 -0.166992 -66 -0.5s-44 -0.5 -64 -0.5l10 24l73 30c0 6 0.333008 19 1 39s1.33398 43.833 2.00098 71.5s1.33398 57.667 2.00098 90s1 63.5 1 93.5v259z" />
    <glyph glyph-name="Rho" unicode="&#x3a1;" horiz-adv-x="568" 
d="M50 650c37.333 4 74.6641 7.49707 111.997 10.4971s69.666 4.5 96.999 4.5c41.333 0 77 -3.16699 107 -9.5s57.333 -17.166 82 -32.499c30.667 -18.667 52 -42.167 64 -70.5s18 -56.166 18 -83.499c0 -40 -7.66699 -73.167 -23 -99.5s-34.166 -47.333 -56.499 -63
s-46 -26.834 -71 -33.501s-47.5 -10 -67.5 -10c-17.333 0 -30.666 1.66699 -39.999 5l-10 25c58 4.66699 100.667 22.5 128 53.5s41 70.167 41 117.5c0 32 -5.5 58.667 -16.5 80s-26.333 38.333 -46 51s-42.834 21.334 -69.501 26.001s-55.667 6.66699 -87 6v-271
c0 -59.333 0.333008 -107.666 1 -144.999s1.33398 -66.833 2.00098 -88.5s1.33398 -37.334 2.00098 -47.001s1 -16.5 1 -20.5l110 -32l-9 -24c-25.333 0 -51 0.166992 -77 0.5s-52 0.5 -78 0.5c-20 0 -40.167 -0.166992 -60.5 -0.5s-40.5 -0.5 -60.5 -0.5l6 23l70 32
c0.666992 4.66699 1.33398 12.167 2.00098 22.5s1.16699 26.333 1.5 48s0.5 50.834 0.5 87.501v141v254l-81 20z" />
    <glyph glyph-name="Sigma" unicode="&#x3a3;" horiz-adv-x="630" 
d="M476 659c4 0.666992 9.66602 1.66699 16.999 3l23 4c8 1.33301 15.833 2.5 23.5 3.5s13.5 1.5 17.5 1.5l3 -3c-0.666992 -7.33301 -1.66699 -17.666 -3 -30.999s-2.83301 -27.5 -4.5 -42.5s-3.5 -29.833 -5.5 -44.5s-4 -26.334 -6 -35.001l-14 -6
c-8 15.333 -16.167 33.333 -24.5 54s-16.833 39.667 -25.5 57l-303 -6v-2l200 -255l-3 -9l-232 -275v-2h362c14.667 17.333 29.5 36 44.5 56s27.167 35.667 36.5 47l17 -2c-2.66699 -15.333 -5.66699 -31.333 -9 -48s-6.83301 -32.667 -10.5 -48l-10.5 -43
c-3.33301 -13.333 -6.66602 -24.333 -9.99902 -33h-527c1.33301 6.66699 3.83301 14.667 7.5 24s7.16699 17 10.5 23l241 273v2l-244 319l12 18h417z" />
    <glyph glyph-name="Tau" unicode="&#x3a4;" horiz-adv-x="670" 
d="M553 659c10.667 2.66699 24.3291 5.33008 40.9961 7.99707s30.334 4.66699 41.001 6l2 -4c-0.666992 -7.33301 -2 -17.833 -4 -31.5s-4.5 -28.167 -7.5 -43.5l-9 -46c-3 -15.333 -5.83301 -28 -8.5 -38l-16 -8c-2 6 -5.16699 15 -9.5 27s-8.5 24.167 -12.5 36.5l-11.5 35
l-7.5 22.5l-175 -8v-248c0 -64 0.333008 -115 1 -153s1.33398 -67.667 2.00098 -89s1.33398 -36.666 2.00098 -45.999s1 -17.666 1 -24.999l117 -31l-9 -24c-26 0 -52.167 0.166992 -78.5 0.5s-52.5 0.5 -78.5 0.5c-27.333 0 -54.166 -0.166992 -80.499 -0.5
s-53.5 -0.5 -81.5 -0.5l7 24l106 31c0.666992 8.66699 1.16699 17.5 1.5 26.5s0.666016 23 0.999023 42s0.5 44.833 0.5 77.5v134v281l-164 8l-13.5 -26.5l-17.5 -34l-17 -33c-5.33301 -10.333 -9.66602 -17.833 -12.999 -22.5l-16 -5
c-0.666992 9.33301 -1.16699 21.833 -1.5 37.5s-0.5 31.834 -0.5 48.501s0.166992 32.334 0.5 47.001s0.833008 26 1.5 34l3 4l15.5 -2.5c6.33301 -1 13.333 -2.16699 21 -3.5s15 -2.83301 22 -4.5s12.833 -2.83398 17.5 -3.50098h428z" />
    <glyph glyph-name="Upsilon" unicode="&#x3a5;" horiz-adv-x="693" 
d="M292 54c2.66699 30.667 4.33691 61.334 5.00391 92.001s1 58.667 1 84c0 45.333 -3.16699 90.5 -9.5 135.5s-17.5 85.5 -33.5 121.5s-38 65.167 -66 87.5s-64 33.5 -108 33.5c-15.333 0 -29.333 -1.16699 -42 -3.5s-22.667 -4.83301 -30 -7.5l1 24
c21.333 15.333 44.833 27 70.5 35s50.167 12 73.5 12c42.667 0 76.667 -10.667 102 -32s44.666 -48.5 57.999 -81.5s22 -69.5 26 -109.5s6.33301 -78.667 7 -116h13c2.66699 40.667 9.33398 81.334 20.001 122.001s26.167 77 46.5 109s46.166 58 77.499 78s69 30 113 30
c9.33301 0 21.166 -4.83301 35.499 -14.5s25.166 -21.167 32.499 -34.5l-5 -17c-5.33301 1.33301 -11.333 2.33301 -18 3s-13.667 1 -21 1c-41.333 0 -77.833 -9.66699 -109.5 -29s-58.167 -45.833 -79.5 -79.5s-37.666 -73.334 -48.999 -119.001s-17 -94.834 -17 -147.501
c0 -23.333 0.166992 -50.833 0.5 -82.5s1.16602 -63.167 2.49902 -94.5l106 -31l-7 -24c-21.333 0 -44.833 0.166992 -70.5 0.5s-50.834 0.5 -75.501 0.5c-26 -0 -51.333 -0.166992 -76 -0.5s-50 -0.5 -76 -0.5l5 24z" />
    <glyph glyph-name="Phi" unicode="&#x3a6;" horiz-adv-x="800" 
d="M443 113c32.667 4 62.334 11.167 89.001 21.5s49.667 24.5 69 42.5s34.333 40.167 45 66.5s16 57.833 16 94.5c0 36 -5.5 67.333 -16.5 94s-26.333 49 -46 67s-42.834 32 -69.501 42s-55.667 16.667 -87 20v-448zM358 561
c-31.333 -3.33301 -60.501 -10.1641 -87.501 -20.4971s-50.167 -24.5 -69.5 -42.5s-34.5 -39.833 -45.5 -65.5s-16.5 -55.834 -16.5 -90.501s5.33301 -65.334 16 -92.001s25.667 -49.334 45 -68.001s42.333 -33.667 69 -45s56.334 -19.333 89.001 -24v448zM286.999 649.002
l7.00195 20.999c16 0 33.167 -0.333008 51.5 -1s37.166 -1 56.499 -1c20.667 0 40.5 0.333008 59.5 1s37.167 1 54.5 1l-6 -22l-67 -26v-26c34 -2.66699 69.5 -8.33398 106.5 -17.001s71 -22.667 102 -42s56.5 -45.166 76.5 -77.499s30 -73.5 30 -123.5
c0 -46.667 -9.83301 -86 -29.5 -118s-44.834 -58 -75.501 -78s-64.667 -34.667 -102 -44s-73.333 -15 -108 -17v-30l87 -28l-7 -22c-15.333 0 -33 0.333008 -53 1s-42.667 1 -68 1c-24 0 -46.333 -0.333008 -67 -1s-40.667 -1 -60 -1l7 22l77 28v30
c-34 2 -69.5 7.16699 -106.5 15.5s-71 21.833 -102 40.5s-56.667 43.834 -77 75.501s-30.5 71.834 -30.5 120.501c0 47.333 9.83301 87.333 29.5 120s45 59.167 76 79.5s65 35.666 102 45.999s73.167 16.833 108.5 19.5v27z" />
    <glyph glyph-name="Chi" unicode="&#x3a7;" horiz-adv-x="697" 
d="M53 659c21.333 0 43.002 -0.166016 65.002 -0.499023s44 -0.5 66 -0.5c17.333 0 33.5 0.166992 48.5 0.5s29.167 0.5 42.5 0.5l-6 -25l-26 -27l37.5 -67l31 -52.5l26.5 -43l24 -38.5h2l28 44l27 44l29.5 49.5l34.5 61.5l-30 31l10 23
c10.667 0 21.834 -0.166992 33.501 -0.5s22.834 -0.5 33.501 -0.5c20 0 39.667 0.166992 59 0.5s38.666 0.5 57.999 0.5l-7 -25c-15.333 -4 -28.333 -7.83301 -39 -11.5s-20 -7.5 -28 -11.5s-15.333 -8.16699 -22 -12.5s-13.334 -9.5 -20.001 -15.5l-21 -28.5l-29.5 -41
l-41.5 -59.5l-56 -84l45.5 -76.5l48 -81.5l44 -74.5c13.667 -23 24.834 -41.167 33.501 -54.5c6 -9.33301 12.167 -16.166 18.5 -20.499s13.166 -7.83301 20.499 -10.5l91 -30l-9 -23c-24.667 0 -49.167 0.333008 -73.5 1s-48.5 1 -72.5 1
c-16.667 0 -33.334 -0.333008 -50.001 -1s-33.334 -1 -50.001 -1l6 24l31 26c-7.33301 14 -22.333 41 -45 81l-92 158h-2l-73 -117c-25.333 -39.333 -47.333 -77 -66 -113l46 -35l-7 -24c-13.333 0 -27.666 0.333008 -42.999 1s-30.666 1 -45.999 1
c-19.333 0 -38.5 -0.333008 -57.5 -1s-38.5 -1 -58.5 -1l7 24l66 24c8.66699 3.33301 16.167 7.33301 22.5 12s13.166 11.667 20.499 21c11.333 14 31.666 41.833 60.999 83.5l109 162.5l-86 148c-24 41.333 -45.333 76.666 -64 105.999c-6 10 -11.667 17.167 -17 21.5
s-13 8.16602 -23 11.499l-76 23z" />
    <glyph glyph-name="Psi" unicode="&#x3a8;" horiz-adv-x="775" 
d="M343 608l-77.9961 29.0029l6 22c18.667 0 38 -0.166992 58 -0.5s39.667 -0.5 59 -0.5c21.333 0 42 0.166992 62 0.5s40.333 0.5 61 0.5l-8 -23l-70 -28v-305c26.667 4 49.667 10 69 18s35.333 19 48 33s22.834 31.667 30.501 53s13.5 48 17.5 80
c3.33301 26 6.5 48.833 9.5 68.5s6.5 37.167 10.5 52.5c13.333 15.333 34 28.166 62 38.499s57 16.166 87 17.499l1 -20l-33.5 -24c-10.333 -7.33301 -20.166 -15.666 -29.499 -24.999l-6 -17.5c-2 -5.66699 -3.83301 -12.334 -5.5 -20.001s-3.5 -17.167 -5.5 -28.5
s-4 -25.333 -6 -42c-6 -38.667 -15 -71.167 -27 -97.5s-28 -48 -48 -65s-44.333 -29.833 -73 -38.5s-62.334 -14.667 -101.001 -18c0 -31.333 0.166992 -66.5 0.5 -105.5s1.16602 -75.5 2.49902 -109.5l95 -30l-7 -24c-22 0 -44.333 0.166992 -67 0.5s-45 0.5 -67 0.5
c-25.333 0 -49.833 -0.166992 -73.5 -0.5s-46.167 -0.5 -67.5 -0.5l5 24l85 30c2 34 3.16699 70.5 3.5 109.5s0.5 74.167 0.5 105.5c-39.333 3.33301 -73.5 8.66602 -102.5 15.999s-53.667 18.666 -74 33.999s-36.5 35.5 -48.5 60.5s-21 57.167 -27 96.5l-11 76.5
c-2.66699 18.333 -6.33398 33.5 -11.001 45.5c-8.66699 7.33301 -18.167 14.666 -28.5 21.999l-33.5 23l2 22c16.667 -0.666992 33.167 -2.5 49.5 -5.5s31.166 -7 44.499 -12s25 -10.667 35 -17s17.333 -12.833 22 -19.5c4 -11.333 7.33301 -27.666 10 -48.999
s5.66699 -46.666 9 -75.999c3.33301 -30 8.66602 -55.667 15.999 -77s17.333 -39 30 -53s28.667 -25.167 48 -33.5s42.666 -14.5 69.999 -18.5v305z" />
    <glyph glyph-name="Omega" unicode="&#x3a9;" horiz-adv-x="823" 
d="M58 0c-10 46.667 -19.001 99.3379 -27.001 158.005l17 2l35 -49l29 -42h163l1 7c-24 12.667 -47.333 27.834 -70 45.501s-43 38.167 -61 61.5s-32.5 49.833 -43.5 79.5s-16.5 63.167 -16.5 100.5c0 47.333 8.83301 90.333 26.5 129s41.5 71.667 71.5 99
s65.333 48.5 106 63.5s84 22.5 130 22.5s88.667 -7.33301 128 -22s73.333 -35.334 102 -62.001s51 -58.834 67 -96.501s24 -79.5 24 -125.5c0 -37.333 -5.33301 -71 -16 -101s-25 -56.833 -43 -80.5s-38.833 -44.834 -62.5 -63.501s-48.167 -35.334 -73.5 -50.001v-7h164
l29 42c10 14.667 21.667 30.667 35 48l18 2c-4 -28.667 -8.5 -56.834 -13.5 -84.501s-10.167 -53.167 -15.5 -76.5h-285l-5 6c2 10.667 4.33301 21.667 7 33s5 22.333 7 33c56.667 38 96.334 82.833 119.001 134.5s34 106.5 34 164.5c0 38 -4.83301 73.5 -14.5 106.5
s-24 61.5 -43 85.5s-42.333 42.833 -70 56.5s-59.5 20.5 -95.5 20.5c-38 0 -71.5 -7.5 -100.5 -22.5s-53 -35.167 -72 -60.5s-33.333 -54.833 -43 -88.5s-14.5 -68.834 -14.5 -105.501c0 -60.667 11.833 -115.167 35.5 -163.5s60.5 -90.833 110.5 -127.5l6 -33.5
c2 -11.667 3.66699 -22.5 5 -32.5l-4 -6h-281z" />
    <glyph glyph-name="Iotadieresis" unicode="&#x3aa;" horiz-adv-x="336" 
d="M273 826c2.66699 -1.33301 6.33301 -4.00098 11 -8.00098s9.33398 -8.66699 14.001 -14s9.16699 -10.833 13.5 -16.5s7.5 -10.834 9.5 -15.501l-2 -7c-2 -4.66699 -5 -9.66699 -9 -15s-8.5 -10.5 -13.5 -15.5l-14.5 -14c-4.66699 -4.33301 -8.33398 -7.5 -11.001 -9.5
l-9 -2c-8.66699 5.33301 -17.667 13.333 -27 24s-16.333 20.334 -21 29.001l1 8c7.33301 10.667 15.833 20.834 25.5 30.501s18.167 17.167 25.5 22.5zM75.999 825.999c2.66699 -1.33301 6.33105 -4 10.998 -8s9.33398 -8.66699 14.001 -14s9 -10.833 13 -16.5
s7 -10.834 9 -15.501l-1 -7c-2 -4.66699 -5 -9.83398 -9 -15.501s-8.5 -11 -13.5 -16s-9.83301 -9.5 -14.5 -13.5s-8.66699 -7 -12 -9l-8 -2c-9.33301 5.33301 -18.666 13.333 -27.999 24s-16.333 20.334 -21 29.001l2 8c7.33301 10.667 15.833 20.834 25.5 30.501
s18.167 17.167 25.5 22.5zM50.9961 658.999c19.333 0 38.8291 -0.166016 58.4961 -0.499023s39.167 -0.5 58.5 -0.5c20.667 0 41.334 0.166992 62.001 0.5s41.334 0.5 62.001 0.5l-7 -24l-73 -29v-263c0 -83.333 0.5 -150.333 1.5 -201s2.16699 -80.334 3.5 -89.001l92 -30
l-7 -24c-19.333 0 -40 0.166992 -62 0.5s-46 0.5 -72 0.5c-25.333 0 -49.666 -0.166992 -72.999 -0.5s-44.666 -0.5 -63.999 -0.5l7 24l79 30c2 8 3.5 37.5 4.5 88.5s1.5 118.167 1.5 201.5v264l-79 29z" />
    <glyph glyph-name="Upsilondieresis" unicode="&#x3ab;" horiz-adv-x="693" 
d="M460 826c2.66699 -1.33301 6.33301 -4.00098 11 -8.00098s9.33398 -8.66699 14.001 -14s9.16699 -10.833 13.5 -16.5s7.5 -10.834 9.5 -15.501l-2 -7c-2 -4.66699 -5 -9.66699 -9 -15s-8.5 -10.5 -13.5 -15.5l-14.5 -14c-4.66699 -4.33301 -8.33398 -7.5 -11.001 -9.5
l-9 -2c-8.66699 5.33301 -17.667 13.333 -27 24s-16.333 20.334 -21 29.001l1 8c7.33301 10.667 15.833 20.834 25.5 30.501s18.167 17.167 25.5 22.5zM262.999 825.999c2.66699 -1.33301 6.33105 -4 10.998 -8s9.33398 -8.66699 14.001 -14s9 -10.833 13 -16.5
s7 -10.834 9 -15.501l-1 -7c-2 -4.66699 -5 -9.83398 -9 -15.501s-8.5 -11 -13.5 -16s-9.83301 -9.5 -14.5 -13.5s-8.66699 -7 -12 -9l-8 -2c-9.33301 5.33301 -18.666 13.333 -27.999 24s-16.333 20.334 -21 29.001l2 8c7.33301 10.667 15.833 20.834 25.5 30.501
s18.167 17.167 25.5 22.5zM291.996 53.999c2.66699 30.667 4.33691 61.334 5.00391 92.001s1 58.667 1 84c0 45.333 -3.16699 90.5 -9.5 135.5s-17.5 85.5 -33.5 121.5s-38 65.167 -66 87.5s-64 33.5 -108 33.5c-15.333 0 -29.333 -1.16699 -42 -3.5
s-22.667 -4.83301 -30 -7.5l1 24c21.333 15.333 44.833 27 70.5 35s50.167 12 73.5 12c42.667 0 76.667 -10.667 102 -32s44.666 -48.5 57.999 -81.5s22 -69.5 26 -109.5s6.33301 -78.667 7 -116h13c2.66699 40.667 9.33398 81.334 20.001 122.001s26.167 77 46.5 109
s46.166 58 77.499 78s69 30 113 30c9.33301 0 21.166 -4.83301 35.499 -14.5s25.166 -21.167 32.499 -34.5l-5 -17c-5.33301 1.33301 -11.333 2.33301 -18 3s-13.667 1 -21 1c-41.333 0 -77.833 -9.66699 -109.5 -29s-58.167 -45.833 -79.5 -79.5
s-37.666 -73.334 -48.999 -119.001s-17 -94.834 -17 -147.501c0 -23.333 0.166992 -50.833 0.5 -82.5s1.16602 -63.167 2.49902 -94.5l106 -31l-7 -24c-21.333 0 -44.833 0.166992 -70.5 0.5s-50.834 0.5 -75.501 0.5c-26 0 -51.333 -0.166992 -76 -0.5s-50 -0.5 -76 -0.5
l5 24z" />
    <glyph glyph-name="uni03AC" unicode="&#x3ac;" horiz-adv-x="556" 
d="M234 501l20.499 85.5l19.5 83.5c4.66699 0.666992 10.667 1 18 1s14.833 -0.5 22.5 -1.5s14.834 -2.5 21.501 -4.5s12 -4.33301 16 -7v-12l-93 -153zM210.999 50c8 0 17.167 2.33301 27.5 7s21.5 12.5 33.5 23.5s24.5 25.5 37.5 43.5s26.5 40.667 40.5 68
c-4 40.667 -9.16699 75 -15.5 103s-14.166 50.667 -23.499 68s-20.333 30 -33 38s-27.334 12 -44.001 12c-70 0 -105 -63.667 -105 -191c0 -57.333 8.16699 -100.333 24.5 -129s34.5 -43 54.5 -43h3zM512.999 453l5.99805 -9.99902l-49 -72
c-5.33301 -8.66699 -12.666 -22.334 -21.999 -41.001s-20 -41.667 -32 -69c9.33301 -54 17.833 -99.167 25.5 -135.5s13.834 -59.166 18.501 -68.499c7.33301 -4.66699 18.666 -8.5 33.999 -11.5s30 -4.83301 44 -5.5l-3 -17c-7.33301 -8 -20.166 -16 -38.499 -24
s-39.833 -12 -64.5 -12c-8.66699 0 -17 0.666992 -25 2s-14.667 3.66602 -20 6.99902c-2 6 -4.16699 14.167 -6.5 24.5s-4.66602 22 -6.99902 35s-4.66602 26.833 -6.99902 41.5s-4.5 29 -6.5 43h-3c-29.333 -54 -58.333 -93 -87 -117s-60 -36 -94 -36
c-21.333 0 -40.333 5.16699 -57 15.5s-30.834 24.833 -42.501 43.5s-20.834 40.667 -27.501 66s-10 53 -10 83c0 35.333 4.16699 68.5 12.5 99.5s21 58 38 81s38.5 41.167 64.5 54.5s56 20 90 20c24 0 44.5 -2.66699 61.5 -8s31.5 -13.5 43.5 -24.5s22 -25 30 -42
s15 -36.833 21 -59.5h2c10 26.667 17.833 49.667 23.5 69s10.5 38.333 14.5 57z" />
    <glyph glyph-name="uni03AD" unicode="&#x3ad;" horiz-adv-x="418" 
d="M193 501l20.499 85.5l19.5 83.5c4.66699 0.666992 10.667 1 18 1s14.833 -0.5 22.5 -1.5s14.834 -2.5 21.501 -4.5s12 -4.33301 16 -7v-12l-93 -153zM332.999 317c-6.66699 14 -12.1709 29.3311 -16.5039 45.998s-7.83301 30.667 -10.5 42
c-5.33301 2 -12.166 4 -20.499 6s-19.166 3 -32.499 3c-31.333 0 -57 -7.16699 -77 -21.5s-30 -35.166 -30 -62.499c0 -20.667 6.5 -37.667 19.5 -51s31.5 -21 55.5 -23c40.667 10 72.667 15 96 15l4 -6c-2 -8 -6.33301 -18.167 -13 -30.5s-14.667 -21.833 -24 -28.5
c-9.33301 0.666992 -20 1.83398 -32 3.50098s-23.667 3.83398 -35 6.50098c-23.333 -3.33301 -43.166 -10.833 -59.499 -22.5s-24.5 -29.834 -24.5 -54.501c0 -29.333 10.167 -53.5 30.5 -72.5s49.5 -29.167 87.5 -30.5c14 -0.666992 24.833 -0.333984 32.5 0.999023
s13.834 3 18.501 5c16.667 14.667 33.167 28.334 49.5 41.001s30.5 22.334 42.5 29.001l4 -19c-1.33301 -8 -4.66602 -16.333 -9.99902 -25s-11.166 -16.834 -17.499 -24.501s-12.833 -14.5 -19.5 -20.5s-12.334 -10 -17.001 -12
c-7.33301 -3.33301 -20.666 -8.16602 -39.999 -14.499s-44 -9.5 -74 -9.5c-27.333 0 -52 3.16699 -74 9.5s-41 15.333 -57 27s-28.333 25.667 -37 42s-13 34.5 -13 54.5c0 16.667 3.16699 31 9.5 43s14.666 22.333 24.999 31s22.166 15.667 35.499 21s27 9.66602 41 12.999
v2c-30 6.66699 -52.333 18.167 -67 34.5s-22 36.833 -22 61.5c0 19.333 4.33301 36.833 13 52.5s20.667 29 36 40s33.833 19.333 55.5 25s45.5 8.5 71.5 8.5c36.667 0 67 -5 91 -15s41.333 -19.667 52 -29c-4 -16 -8.83301 -31.5 -14.5 -46.5s-10.5 -26.833 -14.5 -35.5z
" />
    <glyph glyph-name="uni03AE" unicode="&#x3ae;" horiz-adv-x="534" 
d="M241 501l20.499 85.5l19.5 83.5c4.66699 0.666992 10.667 1 18 1s14.833 -0.5 22.5 -1.5s14.834 -2.5 21.501 -4.5s12 -4.33301 16 -7v-12l-93 -153zM88.999 372l-53.002 22.999l5 20c4 2 11.5 5 22.5 9s23.333 8 37 12s27 7.5 40 10.5s23.167 4.83301 30.5 5.5l2 -2
l-2 -74l2 -1c36 29.333 65 49.5 87 60.5s43 16.5 63 16.5c26 0 47.5 -4.66699 64.5 -14s30.667 -22 41 -38s17.666 -34.667 21.999 -56s6.5 -44 6.5 -68c0 -36 -0.5 -73.5 -1.5 -112.5l-3 -114c-1 -37 -2.16699 -72 -3.5 -105s-2.33301 -61.167 -3 -84.5l11 -76
c-9.33301 -10.667 -23 -19 -41 -25s-36.667 -9.66699 -56 -11l-5 5l8 135.5c2.66699 46.333 4.83398 91.833 6.50098 136.5s2.83398 87.5 3.50098 128.5s1 78.167 1 111.5c0 24 -2.5 44 -7.5 60s-11.833 29 -20.5 39s-18.5 17 -29.5 21s-22.833 6 -35.5 6
c-10.667 0 -21.167 -1.66699 -31.5 -5s-20.166 -7.83301 -29.499 -13.5s-18 -11.667 -26 -18s-15 -12.5 -21 -18.5v-336l-89 -13c2 36.667 3.33301 78.334 4 125.001s1 103 1 169v91z" />
    <glyph glyph-name="uni03AF" unicode="&#x3af;" horiz-adv-x="255" 
d="M91 501l20.499 85.5l19.5 83.5c4.66699 0.666992 10.667 1 18 1s14.833 -0.5 22.5 -1.5s14.834 -2.5 21.501 -4.5s12 -4.33301 16 -7v-12l-93 -153zM76.999 434c4.66699 2 10.498 3.83398 17.498 5.50098s14.5 3.33398 22.5 5.00098s15.833 3.16699 23.5 4.5
s14.5 2.33301 20.5 3v-390c2.66699 -4.66699 10.334 -9.33398 23.001 -14.001s33 -8.33398 61 -11.001l-5 -21c-10 -8.66699 -21.833 -15.667 -35.5 -21s-31.167 -8 -52.5 -8c-23.333 0 -41.666 5.5 -54.999 16.5s-20 25.833 -20 44.5v386z" />
    <glyph glyph-name="uni03B0" unicode="&#x3b0;" horiz-adv-x="497" 
d="M377 638c6 -3.33301 14.167 -10.499 24.5 -21.499s17.833 -21.167 22.5 -30.5l-2 -8c-4 -8.66699 -11.333 -18.167 -22 -28.5s-19 -17.833 -25 -22.5l-8 -2c-8.66699 5.33301 -17.5 13.166 -26.5 23.499s-16.167 19.5 -21.5 27.5l2 9c7.33301 9.33301 15.5 19 24.5 29
s17.167 17.333 24.5 22zM201 514.001l38.001 168c13.333 1.33301 27.166 0.5 41.499 -2.5s26.5 -7.16699 36.5 -12.5v-12l-89 -151zM132.001 638.001c5.33301 -3.33301 13.168 -10.499 23.501 -21.499s17.833 -21.167 22.5 -30.5l-2 -8
c-4 -8.66699 -11.333 -18.167 -22 -28.5s-19.334 -17.833 -26.001 -22.5l-7 -2c-9.33301 5.33301 -18.5 13.166 -27.5 23.499s-15.833 19.5 -20.5 27.5l2 9c6 9.33301 13.833 19 23.5 29s18.167 17.333 25.5 22zM34.0029 409.002l7.99707 18.9951
c6.66699 2.66699 16 5.5 28 8.5s24.667 5.66699 38 8s26.333 4.16602 39 5.49902s23.334 2 32.001 2l2 -3c-1.33301 -26 -3.16602 -64.667 -5.49902 -116s-3.16602 -118.666 -2.49902 -201.999c0.666992 -14.667 4 -27.5 10 -38.5s13.5 -20 22.5 -27
s19.333 -12.167 31 -15.5s23.5 -5 35.5 -5c18.667 0 35.834 3.5 51.501 10.5s29.167 18.5 40.5 34.5s20.166 36.667 26.499 62s9.5 56 9.5 92c0 13.333 -1 26.833 -3 40.5s-4.66699 26.167 -8 37.5l-35.5 54l-29.5 47l2 9c2.66699 2 7.16699 4.16699 13.5 6.5
s13.5 4.5 21.5 6.5s16.333 3.66699 25 5s16 2 22 2c8.66699 -10.667 16 -23.167 22 -37.5s10.833 -29.166 14.5 -44.499s6.33398 -30.666 8.00098 -45.999s2.5 -29.333 2.5 -42c0 -46.667 -5.33301 -88.167 -16 -124.5s-25.334 -67.166 -44.001 -92.499
s-41 -44.666 -67 -57.999s-54 -20 -84 -20c-19.333 0 -38.5 2.83301 -57.5 8.5s-36.167 14.834 -51.5 27.501c-30.667 25.333 -46 60 -46 104c0 16 0.166992 35 0.5 57s0.5 44.667 0.5 68c0 24 0.166992 47.667 0.5 71s0.5 44 0.5 62z" />
    <glyph glyph-name="alpha" unicode="&#x3b1;" horiz-adv-x="556" 
d="M211 50c8 0 17.167 2.33301 27.5 7s21.5 12.5 33.5 23.5s24.5 25.5 37.5 43.5s26.5 40.667 40.5 68c-4 40.667 -9.16699 75 -15.5 103s-14.166 50.667 -23.499 68s-20.333 30 -33 38s-27.334 12 -44.001 12c-70 0 -105 -63.667 -105 -191
c0 -57.333 8.16699 -100.333 24.5 -129s34.5 -43 54.5 -43h3zM513 453l5.99805 -9.99902l-49 -72c-5.33301 -8.66699 -12.666 -22.334 -21.999 -41.001s-20 -41.667 -32 -69c9.33301 -54 17.833 -99.167 25.5 -135.5s13.834 -59.166 18.501 -68.499
c7.33301 -4.66699 18.666 -8.5 33.999 -11.5s30 -4.83301 44 -5.5l-3 -17c-7.33301 -8 -20.166 -16 -38.499 -24s-39.833 -12 -64.5 -12c-8.66699 0 -17 0.666992 -25 2s-14.667 3.66602 -20 6.99902c-2 6 -4.16699 14.167 -6.5 24.5s-4.66602 22 -6.99902 35
s-4.66602 26.833 -6.99902 41.5s-4.5 29 -6.5 43h-3c-29.333 -54 -58.333 -93 -87 -117s-60 -36 -94 -36c-21.333 0 -40.333 5.16699 -57 15.5s-30.834 24.833 -42.501 43.5s-20.834 40.667 -27.501 66s-10 53 -10 83c0 35.333 4.16699 68.5 12.5 99.5s21 58 38 81
s38.5 41.167 64.5 54.5s56 20 90 20c24 0 44.5 -2.66699 61.5 -8s31.5 -13.5 43.5 -24.5s22 -25 30 -42s15 -36.833 21 -59.5h2c10 26.667 17.833 49.667 23.5 69s10.5 38.333 14.5 57z" />
    <glyph glyph-name="beta" unicode="&#x3b2;" horiz-adv-x="529" 
d="M77 472c0 42.667 5.3291 78.999 15.9961 108.999s25 54.5 43 73.5s38.833 33 62.5 42s48.167 13.5 73.5 13.5c24 0 46.333 -3.5 67 -10.5s38.667 -17.333 54 -31s27.5 -30.834 36.5 -51.501s13.5 -44.334 13.5 -71.001c0 -23.333 -4.16699 -44 -12.5 -62
s-18.833 -33.667 -31.5 -47s-26.667 -24.333 -42 -33s-30 -15.334 -44 -20.001v-5c17.333 -2 33.333 -5.33301 48 -10s27.667 -9.66699 39 -15c27.333 -14 49.5 -33.833 66.5 -59.5s25.5 -57.167 25.5 -94.5c0 -41.333 -8 -75.666 -24 -102.999s-35.5 -49.166 -58.5 -65.499
s-47.167 -27.833 -72.5 -34.5s-47.333 -10 -66 -10c-8 0 -19.833 2 -35.5 6s-34.167 13.333 -55.5 28l8 25c7.33301 -2.66699 15.333 -4.83398 24 -6.50098s18.667 -2.5 30 -2.5c18 0 36.5 2.83301 55.5 8.5s36.333 14.834 52 27.501s28.334 29.5 38.001 50.5
s14.5 46.833 14.5 77.5c0 23.333 -4 44.333 -12 63s-19.333 34.5 -34 47.5s-31.834 22.833 -51.501 29.5s-41.5 10 -65.5 10c-7.33301 0 -15.166 -0.166992 -23.499 -0.5s-15.5 -1.16602 -21.5 -2.49902l22 51c5.33301 -0.666992 10.333 -1 15 -1h13
c24 0.666992 43.667 5.83398 59 15.501s27.333 21.334 36 35.001s14.667 28.667 18 45s5 32.166 5 47.499c0 18.667 -2.16699 36.167 -6.5 52.5s-10.666 30.5 -18.999 42.5s-18.666 21.5 -30.999 28.5s-26.5 10.5 -42.5 10.5c-36 0 -63.167 -15.833 -81.5 -47.5
s-27.166 -74.5 -26.499 -128.5c0 -60 0.333008 -120.667 1 -182s1.5 -120.333 2.5 -177s2.33301 -109 4 -157s3.5 -89 5.5 -123l10 -77c-10 -10 -24 -18 -42 -24s-36 -9.66699 -54 -11l-5 5v719z" />
    <glyph glyph-name="gamma" unicode="&#x3b3;" horiz-adv-x="494" 
d="M-3 404c8 6 17.333 11.6631 28 16.9961s21.667 10.333 33 15s22.333 8.33398 33 11.001s20 4.33398 28 5.00098c8.66699 -3.33301 19 -11.5 31 -24.5s25 -32.5 39 -58.5c8.66699 -16 16.834 -34.667 24.501 -56s14.5 -44 20.5 -68s11.333 -48.333 16 -73
s8 -48.667 10 -72h4c5.33301 22 13 48 23 78l31 89.5l30 81l20 51.5v49l2 3c21.333 0 44.166 -2.83301 68.499 -8.5s43.833 -12.5 58.5 -20.5l-4 -14c-7.33301 -4.66699 -17.833 -9.33398 -31.5 -14.001l-37.5 -13c-16 -22 -33.167 -53.333 -51.5 -94
s-37.166 -87.334 -56.499 -140.001c-6.66699 -18 -12.5 -35.333 -17.5 -52s-9.33301 -32.167 -13 -46.5s-6.5 -26.666 -8.5 -36.999s-3.33301 -17.833 -4 -22.5c0 -8 0.166992 -20.5 0.5 -37.5s0.5 -34.833 0.5 -53.5c0 -19.333 -0.166992 -37.833 -0.5 -55.5
s-0.833008 -31.5 -1.5 -41.5c-4.66699 -6 -10.834 -11.667 -18.501 -17s-16 -10.166 -25 -14.499s-18.167 -7.83301 -27.5 -10.5s-18 -4 -26 -4l-8 8c0.666992 12.667 3 29 7 49s8.5 40.333 13.5 61l14.5 59c4.66699 18.667 8 33.334 10 44.001
c1.33301 20.667 0.5 43.834 -2.5 69.501s-7.66699 52 -14 79s-14 53.833 -23 80.5s-19.333 51.5 -31 74.5s-24.167 43.167 -37.5 60.5s-27 30.333 -41 39l-34 2l-34 2z" />
    <glyph glyph-name="delta" unicode="&#x3b4;" horiz-adv-x="518" 
d="M283 710c22.667 0 43.8281 -2.99609 63.4951 -8.99609s37.5 -13.5 53.5 -22.5s30 -18.833 42 -29.5s21.333 -20.334 28 -29.001l-1 -5c-2.66699 -4 -6.5 -8 -11.5 -12s-10.5 -7.5 -16.5 -10.5s-12.167 -5.33301 -18.5 -7s-12.166 -2.16699 -17.499 -1.5l-32.5 31
c-11 10 -22.833 19 -35.5 27s-26.5 14.5 -41.5 19.5s-31.5 7.5 -49.5 7.5c-23.333 0.666992 -40.333 -3.33301 -51 -12s-16.334 -16.667 -17.001 -24c0 -4.66699 1.33301 -10 4 -16s7.5 -13 14.5 -21s16.333 -17.5 28 -28.5s26.834 -23.833 45.501 -38.5
c40 -32 73.5 -61.167 100.5 -87.5s48.667 -51.5 65 -75.5s28 -47.667 35 -71s10.5 -48.333 10.5 -75c0 -38 -6.16699 -71.5 -18.5 -100.5s-28.666 -53.333 -48.999 -73s-43.833 -34.5 -70.5 -44.5s-54.334 -15 -83.001 -15c-33.333 0 -63.666 5.5 -90.999 16.5
s-50.666 26.333 -69.999 46s-34.5 43.167 -45.5 70.5s-16.5 57.666 -16.5 90.999c0 32 5.33301 60.5 16 85.5s25.167 47 43.5 66s39.833 35 64.5 48s50.667 23.833 78 32.5l3 2c-45.333 37.333 -78 67.833 -98 91.5s-30 44.5 -30 62.5c0 13.333 4.16699 26.666 12.5 39.999
s19.833 25.166 34.5 35.499s32.334 18.833 53.001 25.5s43.334 10 68.001 10h1zM271.994 22.0039c22.667 0 41.835 5.16895 57.502 15.502s28.5 23.833 38.5 40.5s17.167 35.5 21.5 56.5s6.5 42.5 6.5 64.5c0 25.333 -3.5 48.5 -10.5 69.5s-16.5 40.333 -28.5 58
s-25.667 34 -41 49s-31 29.167 -47 42.5h-2c-48 -16.667 -82.333 -42.834 -103 -78.501s-31 -77.5 -31 -125.5c0 -21.333 2.66699 -43.333 8 -66s13.666 -43.334 24.999 -62.001s25.666 -34 42.999 -46s38 -18 62 -18h1z" />
    <glyph glyph-name="epsilon" unicode="&#x3b5;" horiz-adv-x="418" 
d="M333 317c-6.66699 14 -12.1709 29.3311 -16.5039 45.998s-7.83301 30.667 -10.5 42c-5.33301 2 -12.166 4 -20.499 6s-19.166 3 -32.499 3c-31.333 0 -57 -7.16699 -77 -21.5s-30 -35.166 -30 -62.499c0 -20.667 6.5 -37.667 19.5 -51s31.5 -21 55.5 -23
c40.667 10 72.667 15 96 15l4 -6c-2 -8 -6.33301 -18.167 -13 -30.5s-14.667 -21.833 -24 -28.5c-9.33301 0.666992 -20 1.83398 -32 3.50098s-23.667 3.83398 -35 6.50098c-23.333 -3.33301 -43.166 -10.833 -59.499 -22.5s-24.5 -29.834 -24.5 -54.501
c0 -29.333 10.167 -53.5 30.5 -72.5s49.5 -29.167 87.5 -30.5c14 -0.666992 24.833 -0.333984 32.5 0.999023s13.834 3 18.501 5c16.667 14.667 33.167 28.334 49.5 41.001s30.5 22.334 42.5 29.001l4 -19c-1.33301 -8 -4.66602 -16.333 -9.99902 -25
s-11.166 -16.834 -17.499 -24.501s-12.833 -14.5 -19.5 -20.5s-12.334 -10 -17.001 -12c-7.33301 -3.33301 -20.666 -8.16602 -39.999 -14.499s-44 -9.5 -74 -9.5c-27.333 0 -52 3.16699 -74 9.5s-41 15.333 -57 27s-28.333 25.667 -37 42s-13 34.5 -13 54.5
c0 16.667 3.16699 31 9.5 43s14.666 22.333 24.999 31s22.166 15.667 35.499 21s27 9.66602 41 12.999v2c-30 6.66699 -52.333 18.167 -67 34.5s-22 36.833 -22 61.5c0 19.333 4.33301 36.833 13 52.5s20.667 29 36 40s33.833 19.333 55.5 25s45.5 8.5 71.5 8.5
c36.667 0 67 -5 91 -15s41.333 -19.667 52 -29c-4 -16 -8.83301 -31.5 -14.5 -46.5s-10.5 -26.833 -14.5 -35.5z" />
    <glyph glyph-name="zeta" unicode="&#x3b6;" horiz-adv-x="394" 
d="M250 -159c13.333 22 23.3311 43.167 29.998 63.5s10 38.833 10 55.5c-12.667 10.667 -50 23.334 -112 38.001c-20.667 4.66699 -39.334 11.834 -56.001 21.501s-31 23.167 -43 40.5s-21.167 39.166 -27.5 65.499s-9.5 59.166 -9.5 98.499c0 38 4.33301 74.167 13 108.5
s20.167 66.5 34.5 96.5s31 57.667 50 83s39.167 48 60.5 68v2c-38 4.66699 -65.667 11.334 -83 20.001s-31 17.667 -41 27v9c10 15.333 21.833 29.666 35.5 42.999s29.834 24.333 48.501 33h14c1.33301 -9.33301 1.33301 -20.5 0 -33.5s-3.33301 -25.167 -6 -36.5
c6.66699 -6.66699 14.834 -12.5 24.501 -17.5s21.834 -8.5 36.501 -10.5c8.66699 9.33301 19.167 18.5 31.5 27.5s25.166 17 38.499 24s26.5 12.667 39.5 17s25.167 6.5 36.5 6.5l5 -5c0 -12 -2.33301 -23.167 -7 -33.5s-10 -19.5 -16 -27.5s-12.167 -14.5 -18.5 -19.5
l-13.5 -10.5c-13.333 -5.33301 -27.333 -9.16602 -42 -11.499s-26.667 -3.5 -36 -3.5c-10 -8.66699 -22 -22.5 -36 -41.5s-27.5 -42.667 -40.5 -71s-24 -61.166 -33 -98.499s-13.5 -79 -13.5 -125c0 -30.667 2.33301 -56.334 7 -77.001s11.667 -37.834 21 -51.501
s21 -24.667 35 -33s30 -14.833 48 -19.5l22 -5.5l25 -6.5c24.667 -7.33301 44.834 -14.5 60.501 -21.5s24.834 -13.833 27.501 -20.5c0 -22.667 -4 -44 -12 -64s-17.167 -38 -27.5 -54s-20.833 -29.333 -31.5 -40s-18.334 -18 -23.001 -22z" />
    <glyph glyph-name="eta" unicode="&#x3b7;" horiz-adv-x="534" 
d="M89 372l-53.002 22.999l5 20c4 2 11.5 5 22.5 9s23.333 8 37 12s27 7.5 40 10.5s23.167 4.83301 30.5 5.5l2 -2l-2 -74l2 -1c36 29.333 65 49.5 87 60.5s43 16.5 63 16.5c26 0 47.5 -4.66699 64.5 -14s30.667 -22 41 -38s17.666 -34.667 21.999 -56s6.5 -44 6.5 -68
c0 -36 -0.5 -73.5 -1.5 -112.5l-3 -114c-1 -37 -2.16699 -72 -3.5 -105s-2.33301 -61.167 -3 -84.5l11 -76c-9.33301 -10.667 -23 -19 -41 -25s-36.667 -9.66699 -56 -11l-5 5l8 135.5c2.66699 46.333 4.83398 91.833 6.50098 136.5s2.83398 87.5 3.50098 128.5
s1 78.167 1 111.5c0 24 -2.5 44 -7.5 60s-11.833 29 -20.5 39s-18.5 17 -29.5 21s-22.833 6 -35.5 6c-10.667 0 -21.167 -1.66699 -31.5 -5s-20.166 -7.83301 -29.499 -13.5s-18 -11.667 -26 -18s-15 -12.5 -21 -18.5v-336l-89 -13c2 36.667 3.33301 78.334 4 125.001
s1 103 1 169v91z" />
    <glyph glyph-name="theta" unicode="&#x3b8;" horiz-adv-x="516" 
d="M261 710c35.333 0 66.166 -8.33301 92.499 -25s48.166 -40.667 65.499 -72s30.333 -69.166 39 -113.499s13 -93.833 13 -148.5c0 -56 -4.33301 -106.5 -13 -151.5s-22 -83.333 -40 -115s-40.667 -55.834 -68 -72.501s-59.666 -25 -96.999 -25c-34 0 -64 8.33301 -90 25
s-47.833 40.667 -65.5 72s-30.834 69.166 -39.501 113.499s-13 94.166 -13 149.499c0 56 4.83301 106.333 14.5 151s23.834 82.834 42.501 114.501s41.334 55.834 68.001 72.501s56.667 25 90 25h1zM134 337c0.666992 -44 3.66699 -84.999 9 -122.999
s13.333 -71.333 24 -100s24 -51.167 40 -67.5s35 -24.5 57 -24.5s40.5 8.16699 55.5 24.5s27.167 39.166 36.5 68.499s16 64.333 20 105s6 85.667 6 135c-8.66699 -4 -18.334 -7.33301 -29.001 -10s-21.667 -4.5 -33 -5.5s-22.166 -1.66699 -32.499 -2
s-19.5 -0.5 -27.5 -0.5h-126zM381 391.001c-1.33301 36 -3.99902 71 -7.99902 105s-10.5 64.167 -19.5 90.5s-21 47.666 -36 63.999s-33.833 24.5 -56.5 24.5c-22 0 -41 -8 -57 -24s-29 -37.167 -39 -63.5s-17.333 -56.666 -22 -90.999s-7.33398 -69.5 -8.00098 -105.5h246z
" />
    <glyph glyph-name="iota" unicode="&#x3b9;" horiz-adv-x="255" 
d="M77 434c4.66699 2 10.498 3.83398 17.498 5.50098s14.5 3.33398 22.5 5.00098s15.833 3.16699 23.5 4.5s14.5 2.33301 20.5 3v-390c2.66699 -4.66699 10.334 -9.33398 23.001 -14.001s33 -8.33398 61 -11.001l-5 -21c-10 -8.66699 -21.833 -15.667 -35.5 -21
s-31.167 -8 -52.5 -8c-23.333 0 -41.666 5.5 -54.999 16.5s-20 25.833 -20 44.5v386z" />
    <glyph glyph-name="kappa" unicode="&#x3ba;" horiz-adv-x="508" 
d="M89 376l-54.001 23l6 19c4 2 11.167 4.83301 21.5 8.5s21.833 7.16699 34.5 10.5s25.834 6.5 39.501 9.5s25.5 4.83301 35.5 5.5v-452l-88 -13c2 37.333 3.33301 79.5 4 126.5s1 103.833 1 170.5v92zM189.999 227l31.4971 34.998l47.5 53.5l47.5 55
c15 17.667 25.5 30.834 31.5 39.501c1.33301 6 2.5 12.833 3.5 20.5s2.5 14.834 4.5 21.501c4.66699 0.666992 13 0.666992 25 0s24.833 -2 38.5 -4s26.834 -4.5 39.501 -7.5s22.334 -6.16699 29.001 -9.5l-8 -18c-8 -3.33301 -18 -6.66602 -30 -9.99902l-33 -9
c-7.33301 -2 -13.166 -4 -17.499 -6s-9.16602 -5 -14.499 -9c-6 -4.66699 -12.167 -10.167 -18.5 -16.5l-23 -23.5l-32.5 -33.5l-45 -47.5l21 -25.5l37 -45l44.5 -52.5l43.5 -49l55.5 -61.5l28.5 -31.5l-11 -9c-18 0 -33.167 0.833008 -45.5 2.5
s-23.5 4.33398 -33.5 8.00098s-19.333 8.66699 -28 15s-18.334 14.166 -29.001 23.499c-8.66699 7.33301 -19.167 17.666 -31.5 30.999l-40.5 44.5l-45 52.5l-45 55z" />
    <glyph glyph-name="lambda" unicode="&#x3bb;" horiz-adv-x="507" 
d="M492 15c-7.33301 -3.33301 -16.502 -6.50293 -27.502 -9.50293s-22.667 -5.66699 -35 -8s-25.166 -4.16602 -38.499 -5.49902s-25.666 -2 -36.999 -2l-27.5 84l-29.5 95l-30.5 98.5c-10.333 33 -20.833 64.5 -31.5 94.5l-73.5 -212.5l-48.5 -141.5c-4 -2 -10 -4 -18 -6
s-16.833 -3.83301 -26.5 -5.5s-19 -3.16699 -28 -4.5l-20.5 -3l-10 16l58 58l75 166.5c24.667 57 49 118.833 73 185.5c-2 8 -5.16699 18.5 -9.5 31.5s-9.16602 25.833 -14.499 38.5c-13.333 34.667 -25.5 63 -36.5 85s-21.833 39.333 -32.5 52s-21.5 21.334 -32.5 26.001
s-23.167 7 -36.5 7c-7.33301 0 -14.333 -0.666992 -21 -2s-12.667 -2.66602 -18 -3.99902l2 26c8.66699 7.33301 20.167 14 34.5 20s30.5 9 48.5 9c19.333 0 37.166 -4.5 53.499 -13.5s32.333 -24.333 48 -46s31.5 -50.834 47.5 -87.501s33.333 -83 52 -139l84.5 -248.5
c21.667 -62.333 36.167 -100.166 43.5 -113.499c10.667 -2 22.667 -4.83301 36 -8.5s25 -7.5 35 -11.5z" />
    <glyph glyph-name="uni03BC" unicode="&#x3bc;" horiz-adv-x="542" 
d="M445 62c2.66699 -4.66699 10.3281 -9.33301 22.9951 -14s33 -8.33398 61 -11.001l-5 -21c-10 -8 -21.833 -14.833 -35.5 -20.5s-29.5 -8.5 -47.5 -8.5c-7.33301 0 -15.333 1.16699 -24 3.5s-16.834 6.5 -24.501 12.5s-14.334 14 -20.001 24s-8.83398 22.667 -9.50098 38
h-2c-18.667 -21.333 -39 -39.666 -61 -54.999s-46.667 -23 -74 -23c-14 0 -27.167 2.33301 -39.5 7s-23.166 12.334 -32.499 23.001l-2 -1c-1.33301 -22 -2.5 -45.333 -3.5 -70s-1.16699 -48.5 -0.5 -71.5s1.83398 -44.333 3.50098 -64s4.5 -36.167 8.5 -49.5l-9 -4
c-26.667 2.66699 -45.667 13.834 -57 33.501s-17 50.167 -17 91.5v286v68c0 25.333 0.166992 50.166 0.5 74.499s0.666016 47.166 0.999023 68.499s0.5 38.666 0.5 51.999c2.66699 2 7.33398 4.16699 14.001 6.5s14.334 4.5 23.001 6.5s17.667 3.83301 27 5.5s18 2.5 26 2.5
l2 -3c-1.33301 -12 -2.66602 -26.833 -3.99902 -44.5s-2.66602 -38.667 -3.99902 -63s-2.66602 -52.666 -3.99902 -84.999s-2.33301 -69.5 -3 -111.5c-0.666992 -15.333 0.833008 -28 4.5 -38s8.16699 -18.333 13.5 -25c6.66699 -8.66699 16.167 -16.334 28.5 -23.001
s27.5 -10 45.5 -10c10.667 0 21.5 1.66699 32.5 5s21.5 7.83301 31.5 13.5s19.333 12.334 28 20.001s15.667 16.167 21 25.5v318c2.66699 2 7.83398 4.16699 15.501 6.5s16.167 4.5 25.5 6.5s19.333 3.83301 30 5.5s20.334 2.5 29.001 2.5l4 -7l-10 -28l-10 -28v-327z" />
    <glyph glyph-name="nu" unicode="&#x3bd;" horiz-adv-x="472" 
d="M8 415c10 4 21.6641 8.33105 34.9971 12.998s26.833 8.83398 40.5 12.501s26.167 6.5 37.5 8.5s20 3 26 3l5 -41c11.333 -35.333 27.333 -81.333 48 -138l67 -182h2l37 67c12 22.667 22.5 44.667 31.5 66s16.333 41.5 22 60.5s8.83398 35.833 9.50098 50.5
c-3.33301 14.667 -7.16602 30.5 -11.499 47.5s-8.16602 32.833 -11.499 47.5l3 6c6 5.33301 16.167 9.66602 30.5 12.999s27.166 4.33301 38.499 3c6.66699 -5.33301 12 -13.833 16 -25.5s6 -25.167 6 -40.5c0 -22 -6.83301 -49.333 -20.5 -82s-29.834 -66.5 -48.501 -101.5
l-56.5 -101c-19 -32.333 -33.833 -59.5 -44.5 -81.5c-6 -8.66699 -12.667 -16.167 -20 -22.5s-13.666 -11.166 -18.999 -14.499h-10c-1.33301 4.66699 -5.66602 16.834 -12.999 36.501l-26 70.5l-33 89l-34 90l-29 73.5c-8.66699 21 -14.667 34.833 -18 41.5l-67 8z" />
    <glyph glyph-name="xi" unicode="&#x3be;" horiz-adv-x="447" 
d="M322 350c-6 1.33301 -13.1719 2.50195 -21.5049 3.50195s-17.833 1.5 -28.5 1.5c-21.333 0 -40.833 -3.33301 -58.5 -10s-33.167 -16.167 -46.5 -28.5s-23.666 -27.166 -30.999 -44.499s-11 -36.333 -11 -57c0 -38.667 10.167 -69.334 30.5 -92.001
s55.166 -39 104.499 -49c9.33301 -2 19.333 -4.33301 30 -7s25.667 -6 45 -10c28.667 -7.33301 49.334 -13.833 62.001 -19.5s21.667 -11.5 27 -17.5c0 -22 -4.16699 -43.167 -12.5 -63.5s-17.666 -38.666 -27.999 -54.999s-20.666 -30 -30.999 -41
s-17.833 -18.167 -22.5 -21.5l-24 12c12 23.333 20.833 44.5 26.5 63.5s7.83398 37.167 6.50098 54.5c-3.33301 2.66699 -10 5.5 -20 8.5s-21.667 6.16699 -35 9.5s-27.666 6.5 -42.999 9.5s-30.333 6.16699 -45 9.5c-56 12.667 -96 34.5 -120 65.5s-36 67.167 -36 108.5
c0 40 11.667 76.5 35 109.5s61.333 60.5 114 82.5v4c-32 8.66699 -58.5 25.667 -79.5 51s-31.5 57.666 -31.5 96.999c0 26.667 5.5 51.334 16.5 74.001s26 42.167 45 58.5s41.5 29.166 67.5 38.499s54 14 84 14c26.667 0 50.5 -3.5 71.5 -10.5s36.167 -14.833 45.5 -23.5
c0 -3.33301 -1 -8.83301 -3 -16.5s-4.66699 -16.334 -8 -26.001s-7.16602 -19.334 -11.499 -29.001s-8.5 -17.834 -12.5 -24.501l-17 -6c-4.66699 11.333 -9.5 23.833 -14.5 37.5s-11.167 32.834 -18.5 57.501c-6 2.66699 -16.333 4 -31 4c-17.333 0 -34 -2.66699 -50 -8
s-30.167 -13.5 -42.5 -24.5s-22.333 -24.667 -30 -41s-11.5 -35.5 -11.5 -57.5c0 -40 13.333 -71.167 40 -93.5s62.667 -33.5 108 -33.5c25.333 0 47.666 1 66.999 3l2 -12z" />
    <glyph glyph-name="omicron" unicode="&#x3bf;" horiz-adv-x="525" 
d="M261 417c-21.333 0 -39.834 -5.66797 -55.501 -17.001s-28.834 -26.166 -39.501 -44.499s-18.5 -39.166 -23.5 -62.499s-7.5 -47 -7.5 -71c0 -23.333 2.83301 -47 8.5 -71s14.334 -45.5 26.001 -64.5s26 -34.5 43 -46.5s36.5 -18 58.5 -18c22.667 0 41.834 6 57.501 18
s28 27.333 37 46s15.5 39.5 19.5 62.5s6 45.167 6 66.5c0 23.333 -2.66699 47 -8 71s-13.333 45.667 -24 65s-24 35.166 -40 47.499s-35 18.5 -57 18.5h-1zM265.999 451.999c30.667 0 59.5 -5.66699 86.5 -17s50.5 -27 70.5 -47s35.833 -44 47.5 -72s17.5 -58.667 17.5 -92
c0 -36 -5.83301 -68.5 -17.5 -97.5s-27.5 -53.833 -47.5 -74.5s-43.667 -36.667 -71 -48s-57 -17 -89 -17c-28 0 -55.333 5 -82 15s-50.667 24.5 -72 43.5s-38.5 42.667 -51.5 71s-19.5 60.833 -19.5 97.5c0 38 7 71.833 21 101.5s32 54.5 54 74.5s46.333 35.333 73 46
s53 16 79 16h1z" />
    <glyph glyph-name="pi" unicode="&#x3c0;" horiz-adv-x="581" 
d="M486 439l34.4951 7.5c11 2.33301 22.167 3.83301 33.5 4.5l3 -1c-0.666992 -7.33301 -2 -15.166 -4 -23.499s-4.33301 -16.166 -7 -23.499s-5.66699 -14 -9 -20s-6.66602 -10.333 -9.99902 -13l-6 -5c-4.66699 2 -11 5.5 -19 10.5s-16.333 9.5 -25 13.5h-27v-326
c2.66699 -5.33301 10.334 -10.333 23.001 -15s33 -8 61 -10l-5 -22c-10 -8 -21.833 -14.667 -35.5 -20s-31.167 -8 -52.5 -8c-23.333 0 -41.666 5.66699 -54.999 17s-20 26 -20 44v340h-160v-227c0 -44 -1.5 -77 -4.5 -99s-6.5 -36.667 -10.5 -44
c-4.66699 -4.66699 -11.167 -9 -19.5 -13s-17.833 -7.33301 -28.5 -10s-22 -4.83398 -34 -6.50098s-23.333 -2.5 -34 -2.5l-10 16c8 9.33301 18.5 19.666 31.5 30.999l29.5 26c2.66699 7.33301 4.66699 18 6 32s2 35.333 2 64v233h-28c-17.333 0 -34.166 -2.5 -50.499 -7.5
l-37.5 -11.5l-4 17c2.66699 4 7.5 9 14.5 15s16 11.667 27 17s23.833 10 38.5 14s31.334 6 50.001 6h342z" />
    <glyph glyph-name="rho" unicode="&#x3c1;" horiz-adv-x="522" 
d="M160 59c8.66699 -5.33301 19.832 -10.499 33.499 -15.499s29.167 -7.5 46.5 -7.5c20 0 39.333 4.33301 58 13s35.167 21.167 49.5 37.5s26 36.666 35 60.999s13.5 52.166 13.5 83.499c0 28.667 -3.5 54.167 -10.5 76.5s-16.5 41.333 -28.5 57s-25.833 27.667 -41.5 36
s-32.5 12.5 -50.5 12.5c-33.333 0 -59.166 -12.667 -77.499 -38s-27.5 -65.666 -27.5 -120.999v-195zM176.998 -216.999c-10 -10 -24 -18.002 -42 -24.002s-36.333 -9.66699 -55 -11l-4 4c0 34 0.166992 66.833 0.5 98.5s0.5 63.5 0.5 95.5v96v102v85
c0 28.667 3.33301 54.334 10 77.001s18.334 44.667 35.001 66c19.333 23.333 43.166 42.5 71.499 57.5s59.833 22.5 94.5 22.5c26.667 0 52 -4.83301 76 -14.5s45 -23.667 63 -42s32.167 -41 42.5 -68s15.5 -57.833 15.5 -92.5c0 -45.333 -8.16699 -83.666 -24.5 -114.999
s-36.5 -56.833 -60.5 -76.5s-49.5 -34 -76.5 -43s-51.167 -13.5 -72.5 -13.5c-24 0 -53.667 11 -89 33l-2 -1c0 -14.667 0.166992 -30 0.5 -46l1 -46c0.333008 -14.667 0.833008 -28 1.5 -40s1.66699 -21 3 -27z" />
    <glyph glyph-name="uni03C2" unicode="&#x3c2;" horiz-adv-x="426" 
d="M272 -145c14.667 24 24.501 45.667 29.501 65s7.5 36.666 7.5 51.999c-7.33301 6 -20.833 12 -40.5 18s-44.834 12.667 -75.501 20c-55.333 12 -95.166 34.167 -119.499 66.5s-36.5 73.5 -36.5 123.5c0 40.667 9.66699 78.334 29 113.001s46.666 64.334 81.999 89.001
c21.333 15.333 44.166 27.5 68.499 36.5s50.5 13.5 78.5 13.5c46 0 81 -9.66699 105 -29c0.666992 -3.33301 0 -9.16602 -2 -17.499s-4.66699 -17.333 -8 -27s-7 -19.167 -11 -28.5s-7.33301 -16.666 -10 -21.999l-17 -6c-8 16.667 -16.333 38.667 -25 66
c-7.33301 5.33301 -16.166 9.66602 -26.499 12.999s-24.166 5 -41.499 5c-25.333 0 -46.833 -4.16699 -64.5 -12.5s-32 -19.833 -43 -34.5s-19.167 -32.167 -24.5 -52.5s-8 -42.166 -8 -65.499c0 -25.333 2.66699 -46.833 8 -64.5s13.166 -32.667 23.499 -45
s22.833 -22.333 37.5 -30s31.334 -13.834 50.001 -18.501c9.33301 -2.66699 19.5 -5.33398 30.5 -8.00098s24.167 -6.33398 39.5 -11.001c25.333 -6.66699 44.5 -13 57.5 -19s21.833 -12 26.5 -18c0 -24 -4 -46.5 -12 -67.5s-17.5 -39.667 -28.5 -56
s-21.833 -29.833 -32.5 -40.5s-18.334 -17.667 -23.001 -21z" />
    <glyph glyph-name="sigma" unicode="&#x3c3;" horiz-adv-x="533" 
d="M548 464c-1.33301 -6 -3.50195 -13.002 -6.50195 -21.002s-6.66699 -16 -11 -24s-9.16602 -15.333 -14.499 -22s-10.666 -12 -15.999 -16c-6.66699 0 -15.834 0.333008 -27.501 1s-24.334 1.66699 -38.001 3s-27.5 2.5 -41.5 3.5s-26.667 2.16699 -38 3.5l-2 -2
c40.667 -22.667 69.667 -48.5 87 -77.5s26 -63.833 26 -104.5c0 -34 -5.5 -64.667 -16.5 -92s-26 -50.5 -45 -69.5s-41.5 -33.667 -67.5 -44s-54 -15.5 -84 -15.5c-36 0 -67.5 6.16699 -94.5 18.5s-49.5 28.833 -67.5 49.5s-31.5 44.334 -40.5 71.001s-13.5 54.667 -13.5 84
c0 40.667 7.66699 76 23 106s35.5 55 60.5 75s53.167 34.667 84.5 44s63 13.333 95 12c29.333 -1.33301 58.833 -1.66602 88.5 -0.999023s60.5 1 92.5 1c4.66699 1.33301 12.834 4.33301 24.501 9s23.834 8.66699 36.501 12zM266.998 391.998
c-22 0 -41.667 -4.50098 -59 -13.501s-32 -21.5 -44 -37.5s-21 -35.167 -27 -57.5s-9 -46.5 -9 -72.5c0 -28.667 3.33301 -54.667 10 -78s16 -43.333 28 -60s26.167 -29.5 42.5 -38.5s33.833 -13.5 52.5 -13.5c16 0 31.333 3.16699 46 9.5s27.5 16.833 38.5 31.5
s19.833 34.334 26.5 59.001s10 55.334 10 92.001c0 36 -5.5 67.5 -16.5 94.5s-22.833 46.167 -35.5 57.5c-9.33301 9.33301 -19 16.166 -29 20.499s-21 6.5 -33 6.5h-1z" />
    <glyph glyph-name="tau" unicode="&#x3c4;" horiz-adv-x="442" 
d="M347 439l34.499 7.50098c11 2.33301 22.167 3.83301 33.5 4.5l3 -1c0 -6.66699 -1 -14.167 -3 -22.5s-4.5 -16.333 -7.5 -24s-6.33301 -14.667 -10 -21s-6.83398 -10.833 -9.50098 -13.5l-6 -4c-4.66699 2 -11 5.5 -19 10.5s-16.333 9.5 -25 13.5h-80v-328
c2.66699 -4.66699 10.334 -9.33398 23.001 -14.001s33 -8.33398 61 -11.001l-5 -20c-9.33301 -8.66699 -21 -15.667 -35 -21s-31.667 -8 -53 -8c-23.333 0 -41.666 5.5 -54.999 16.5s-20 25.833 -20 44.5v341h-54c-23.333 0 -44.166 -2.5 -62.499 -7.5
s-31.166 -8.83301 -38.499 -11.5l-4 16c2.66699 4.66699 7.5 10 14.5 16s16.167 11.833 27.5 17.5s24.666 10.334 39.999 14.001s32.666 5.5 51.999 5.5h198z" />
    <glyph glyph-name="upsilon" unicode="&#x3c5;" horiz-adv-x="497" 
d="M34 409l7.99707 18.9951c6.66699 2.66699 16 5.5 28 8.5s24.667 5.66699 38 8s26.333 4.16602 39 5.49902s23.334 2 32.001 2l2 -3c-1.33301 -26 -3.16602 -64.667 -5.49902 -116s-3.16602 -118.666 -2.49902 -201.999c0.666992 -14.667 4 -27.5 10 -38.5
s13.5 -20 22.5 -27s19.333 -12.167 31 -15.5s23.5 -5 35.5 -5c18.667 0 35.834 3.5 51.501 10.5s29.167 18.5 40.5 34.5s20.166 36.667 26.499 62s9.5 56 9.5 92c0 13.333 -1 26.833 -3 40.5s-4.66699 26.167 -8 37.5l-35.5 54l-29.5 47l2 9
c2.66699 2 7.16699 4.16699 13.5 6.5s13.5 4.5 21.5 6.5s16.333 3.66699 25 5s16 2 22 2c8.66699 -10.667 16 -23.167 22 -37.5s10.833 -29.166 14.5 -44.499s6.33398 -30.666 8.00098 -45.999s2.5 -29.333 2.5 -42c0 -46.667 -5.33301 -88.167 -16 -124.5
s-25.334 -67.166 -44.001 -92.499s-41 -44.666 -67 -57.999s-54 -20 -84 -20c-19.333 0 -38.5 2.83301 -57.5 8.5s-36.167 14.834 -51.5 27.501c-30.667 25.333 -46 60 -46 104c0 16 0.166992 35 0.5 57s0.5 44.667 0.5 68c0 24 0.166992 47.667 0.5 71s0.5 44 0.5 62z" />
    <glyph glyph-name="phi" unicode="&#x3c6;" horiz-adv-x="610" 
d="M348 28c18 2.66699 35.499 8.33203 52.499 16.999s32 20.834 45 36.501s23.5 34.834 31.5 57.501s12 50 12 82s-4.66699 59.5 -14 82.5s-21 42.167 -35 57.5s-29.167 27.166 -45.5 35.499s-31.166 13.5 -44.499 15.5zM349.999 449.998
c32.667 -3.33301 62.4961 -10.667 89.4961 -22s50.333 -26.666 70 -45.999s35 -42.166 46 -68.499s16.5 -56.166 16.5 -89.499c0 -37.333 -6.5 -69.833 -19.5 -97.5s-30.167 -51 -51.5 -70s-45.333 -33.833 -72 -44.5s-53.334 -17.667 -80.001 -21
c-0.666992 -15.333 -1.16699 -31.666 -1.5 -48.999l-1 -50.5c-0.333008 -16.333 -0.5 -31.5 -0.5 -45.5s-0.333008 -25 -1 -33c-6 -10 -14.167 -19.667 -24.5 -29s-19.833 -15.666 -28.5 -18.999l-10 5c-1.33301 7.33301 -2.16602 19 -2.49902 35
s-0.833008 34.167 -1.5 54.5s-1.16699 41.666 -1.5 63.999s-0.5 43.833 -0.5 64.5c-35.333 2 -67.666 8.66699 -96.999 20s-54.5 26.666 -75.5 45.999s-37.333 42.666 -49 69.999s-17.5 58.333 -17.5 93c0 30 4.5 57 13.5 81s21.5 45.333 37.5 64s34.833 34.834 56.5 48.501
s44.834 25.5 69.501 35.5l17 -29c-7.33301 -4 -16.666 -10.333 -27.999 -19s-22.5 -20.167 -33.5 -34.5s-20.5 -32.333 -28.5 -54s-12 -47.834 -12 -78.501c0 -30 3.83301 -56.5 11.5 -79.5s18 -43 31 -60s28.5 -30.833 46.5 -41.5s37.333 -18.334 58 -23.001l-3 499
c3.33301 3.33301 7.83301 7 13.5 11s11.667 7.83301 18 11.5s12.833 7.16699 19.5 10.5s12.334 5.66602 17.001 6.99902l9 -3v-113z" />
    <glyph glyph-name="chi" unicode="&#x3c7;" horiz-adv-x="470" 
d="M14 415c13.333 5.33301 32.3291 11.8311 56.9961 19.498s50.334 13.5 77.001 17.5l11.5 -26l19.5 -43.5l23 -52l23.5 -52.5l20 -45l12.5 -29h2l24.5 52.5l24 54l21.5 50.5c6.66699 16 12 30 16 42l4 46l2 3c9.33301 0.666992 19.833 0.5 31.5 -0.5
s23.334 -2.33301 35.001 -4s22.667 -3.83398 33 -6.50098s18.833 -5.66699 25.5 -9l-6 -17l-75 -30c-6.66699 -10 -14.667 -23.667 -24 -41l-30 -57l-32.5 -65l-30.5 -64l27 -62.5l35 -79.5l40.5 -90l43.5 -92c6 -8.66699 14.167 -18.5 24.5 -29.5
s19.166 -21.5 26.499 -31.5l-9 -16c-8 -1.33301 -17.5 -1.33301 -28.5 0s-22.333 3.5 -34 6.5s-22.5 6.83301 -32.5 11.5s-17.667 10.334 -23 17.001c-3.33301 6.66699 -9.66602 20.834 -18.999 42.501l-31.5 73.5l-36.5 85l-33 78h-2
c-57.333 -125.333 -93.666 -207.666 -108.999 -246.999l-5 -48c-8 -2.66699 -17.167 -5.16699 -27.5 -7.5s-20.833 -4.16602 -31.5 -5.49902s-21 -2.5 -31 -3.5s-19 -1.83301 -27 -2.5l4 20l60 58l35.5 62.5l33.5 63.5l36 71l43 86l-35.5 81.5l-35.5 77l-31 63
c-9.33301 18.333 -16.666 32.166 -21.999 41.499l-42 5.5c-12.667 1.66699 -24 3.5 -34 5.5z" />
    <glyph glyph-name="psi" unicode="&#x3c8;" horiz-adv-x="622" 
d="M364 560l-4.00195 -526c16 1.33301 30.5 4.83301 43.5 10.5s24.167 14 33.5 25s17.166 25.167 23.499 42.5s11.166 38.666 14.499 63.999c2.66699 21.333 5.16699 43.833 7.5 67.5s4.33301 46.167 6 67.5s3.33398 40 5.00098 56s3.16699 27 4.5 33
c4.66699 9.33301 15.667 19.5 33 30.5s39.333 18.167 66 21.5l7 -20c-11.333 -11.333 -20.166 -24.166 -26.499 -38.499s-10.833 -29.166 -13.5 -44.499c-3.33301 -17.333 -6.33301 -35 -9 -53s-5.5 -35.833 -8.5 -53.5s-6 -34.167 -9 -49.5s-6.16699 -29 -9.5 -41
c-12 -47.333 -33 -84.833 -63 -112.5s-65.333 -44.167 -106 -49.5c-0.666992 -9.33301 -1 -23 -1 -41v-56c0 -19.333 -0.166992 -37.5 -0.5 -54.5s-1.16602 -29.5 -2.49902 -37.5c-8 -14 -17.167 -24.5 -27.5 -31.5s-19.166 -11.5 -26.499 -13.5l-8 4
c-1.33301 6 -2.33301 17.333 -3 34s-1.16699 36 -1.5 58l-1 69c-0.333008 24 -0.5 46 -0.5 66c-29.333 2.66699 -55.833 8.16699 -79.5 16.5s-44.167 21 -61.5 38s-31.333 38.833 -42 65.5s-18 59.667 -22 99c-2.66699 24.667 -5.16699 52.334 -7.5 83.001
s-6.16602 58.334 -11.499 83.001l-24 12c-9.33301 4.66699 -19 8.66699 -29 12l8 22l33.5 12c11.667 4 23 7.5 34 10.5s21.167 5.5 30.5 7.5s16.666 3.33301 21.999 4l2 -1c2.66699 -4.66699 5 -14.834 7 -30.501s3.83301 -34.167 5.5 -55.5s3.16699 -44.833 4.5 -70.5
s3 -50.834 5 -75.501c2 -30 6 -55.833 12 -77.5s14 -39.667 24 -54s22.5 -25.833 37.5 -34.5s32.5 -15 52.5 -19l-10 473c2 3.33301 5.66699 7.66602 11 12.999s11.5 10.833 18.5 16.5s14.5 11 22.5 16s15.667 8.83301 23 11.5z" />
    <glyph glyph-name="omega" unicode="&#x3c9;" horiz-adv-x="653" 
d="M241 424c-36 -21.333 -63.667 -48.998 -83 -82.998s-29 -74.667 -29 -122c0 -56.667 9.83301 -99.667 29.5 -129s43.5 -44 71.5 -44c15.333 0 30 4.5 44 13.5s25 27.167 33 54.5c-5.33301 23.333 -10.5 47.666 -15.5 72.999s-8.16699 50.333 -9.5 75
c4 3.33301 11.167 6 21.5 8s21.166 3 32.499 3s21.666 -0.833008 30.999 -2.5s15.333 -4.5 18 -8.5c-3.33301 -21.333 -7.5 -44.5 -12.5 -69.5s-11.167 -51.167 -18.5 -78.5c2.66699 -13.333 6.66699 -24.5 12 -33.5s11.333 -16 18 -21s13.834 -8.5 21.501 -10.5
s15.167 -3 22.5 -3c10.667 0 22 3 34 9s23 15.833 33 29.5s18.167 31.667 24.5 54s9.5 49.833 9.5 82.5c0 42.667 -8.33301 81.5 -25 116.5s-41.667 63.833 -75 86.5l18 28c22 -7.33301 41.333 -17 58 -29s31 -24.333 43 -37c20.667 -21.333 36.834 -46.166 48.501 -74.499
s17.5 -61.5 17.5 -99.5c0 -36 -4.5 -68 -13.5 -96s-21.333 -51.5 -37 -70.5s-33.834 -33.5 -54.501 -43.5s-43 -15 -67 -15c-29.333 0 -53.166 7.83301 -71.499 23.5s-31.166 36.167 -38.499 61.5h-5c-9.33301 -24.667 -24 -45 -44 -61s-45 -24 -75 -24
c-26 0 -49.5 5.16699 -70.5 15.5s-38.833 24.833 -53.5 43.5s-25.834 40.667 -33.501 66s-11.5 52.666 -11.5 81.999c0 38.667 5.33301 71.667 16 99s24.667 51 42 71c14.667 17.333 32.5 33.666 53.5 48.999s46.5 28.333 76.5 39z" />
    <glyph glyph-name="iotadieresis" unicode="&#x3ca;" horiz-adv-x="255" 
d="M223 643c2.66699 -1.33301 6.16602 -4.00098 10.499 -8.00098s8.83301 -8.66699 13.5 -14s9 -10.666 13 -15.999s7.33301 -10.333 10 -15l-2 -7c-4 -10 -11.5 -20.333 -22.5 -31s-19.5 -18.334 -25.5 -23.001l-8 -2c-8 5.33301 -16.833 13.333 -26.5 24
s-16.5 20.334 -20.5 29.001l1 8c6.66699 10 14.834 20 24.501 30s18.167 17.667 25.5 23zM44.999 642.999c2.66699 -1.33301 6.16992 -4.00098 10.5029 -8.00098s8.66602 -8.66699 12.999 -14l13 -16c4.33301 -5.33301 7.5 -10.333 9.5 -15l-2 -7
c-2 -4.66699 -5 -9.66699 -9 -15s-8.33301 -10.5 -13 -15.5s-9.33398 -9.66699 -14.001 -14s-8.33398 -7.5 -11.001 -9.5l-8 -2c-9.33301 5.33301 -18.5 13.333 -27.5 24s-15.833 20.334 -20.5 29.001l2 8c6 10 13.833 20.167 23.5 30.5s18.167 17.833 25.5 22.5z
M77.002 433.998c4.66699 2 10.498 3.83398 17.498 5.50098s14.5 3.33398 22.5 5.00098s15.833 3.16699 23.5 4.5s14.5 2.33301 20.5 3v-390c2.66699 -4.66699 10.334 -9.33398 23.001 -14.001s33 -8.33398 61 -11.001l-5 -21c-10 -8.66699 -21.833 -15.667 -35.5 -21
s-31.167 -8 -52.5 -8c-23.333 0 -41.666 5.5 -54.999 16.5s-20 25.833 -20 44.5v386z" />
    <glyph glyph-name="upsilondieresis" unicode="&#x3cb;" horiz-adv-x="497" 
d="M345 643c2.66699 -1.33301 6.16602 -4.00098 10.499 -8.00098s8.83301 -8.66699 13.5 -14s9 -10.666 13 -15.999s7.33301 -10.333 10 -15l-2 -7c-4 -10 -11.5 -20.333 -22.5 -31s-19.5 -18.334 -25.5 -23.001l-8 -2c-8 5.33301 -16.833 13.333 -26.5 24
s-16.5 20.334 -20.5 29.001l1 8c6.66699 10 14.834 20 24.501 30s18.167 17.667 25.5 23zM166.999 642.999c2.66699 -1.33301 6.16992 -4.00098 10.5029 -8.00098s8.66602 -8.66699 12.999 -14l13 -16c4.33301 -5.33301 7.5 -10.333 9.5 -15l-2 -7
c-2 -4.66699 -5 -9.66699 -9 -15s-8.33301 -10.5 -13 -15.5s-9.33398 -9.66699 -14.001 -14s-8.33398 -7.5 -11.001 -9.5l-8 -2c-9.33301 5.33301 -18.5 13.333 -27.5 24s-15.833 20.334 -20.5 29.001l2 8c6 10 13.833 20.167 23.5 30.5s18.167 17.833 25.5 22.5z
M34.002 408.998l7.99707 18.9951c6.66699 2.66699 16 5.5 28 8.5s24.667 5.66699 38 8s26.333 4.16602 39 5.49902s23.334 2 32.001 2l2 -3c-1.33301 -26 -3.16602 -64.667 -5.49902 -116s-3.16602 -118.666 -2.49902 -201.999c0.666992 -14.667 4 -27.5 10 -38.5
s13.5 -20 22.5 -27s19.333 -12.167 31 -15.5s23.5 -5 35.5 -5c18.667 0 35.834 3.5 51.501 10.5s29.167 18.5 40.5 34.5s20.166 36.667 26.499 62s9.5 56 9.5 92c0 13.333 -1 26.833 -3 40.5s-4.66699 26.167 -8 37.5l-35.5 54l-29.5 47l2 9
c2.66699 2 7.16699 4.16699 13.5 6.5s13.5 4.5 21.5 6.5s16.333 3.66699 25 5s16 2 22 2c8.66699 -10.667 16 -23.167 22 -37.5s10.833 -29.166 14.5 -44.499s6.33398 -30.666 8.00098 -45.999s2.5 -29.333 2.5 -42c0 -46.667 -5.33301 -88.167 -16 -124.5
s-25.334 -67.166 -44.001 -92.499s-41 -44.666 -67 -57.999s-54 -20 -84 -20c-19.333 0 -38.5 2.83301 -57.5 8.5s-36.167 14.834 -51.5 27.501c-30.667 25.333 -46 60 -46 104c0 16 0.166992 35 0.5 57s0.5 44.667 0.5 68c0 24 0.166992 47.667 0.5 71s0.5 44 0.5 62z" />
    <glyph glyph-name="uni03CC" unicode="&#x3cc;" horiz-adv-x="525" 
d="M235 501l20.499 85.5l19.5 83.5c4.66699 0.666992 10.667 1 18 1s14.833 -0.5 22.5 -1.5s14.834 -2.5 21.501 -4.5s12 -4.33301 16 -7v-12l-93 -153zM260.999 417c-21.333 0 -39.834 -5.66797 -55.501 -17.001s-28.834 -26.166 -39.501 -44.499
s-18.5 -39.166 -23.5 -62.499s-7.5 -47 -7.5 -71c0 -23.333 2.83301 -47 8.5 -71s14.334 -45.5 26.001 -64.5s26 -34.5 43 -46.5s36.5 -18 58.5 -18c22.667 0 41.834 6 57.501 18s28 27.333 37 46s15.5 39.5 19.5 62.5s6 45.167 6 66.5c0 23.333 -2.66699 47 -8 71
s-13.333 45.667 -24 65s-24 35.166 -40 47.499s-35 18.5 -57 18.5h-1zM265.998 451.999c30.667 0 59.5 -5.66699 86.5 -17s50.5 -27 70.5 -47s35.833 -44 47.5 -72s17.5 -58.667 17.5 -92c0 -36 -5.83301 -68.5 -17.5 -97.5s-27.5 -53.833 -47.5 -74.5
s-43.667 -36.667 -71 -48s-57 -17 -89 -17c-28 0 -55.333 5 -82 15s-50.667 24.5 -72 43.5s-38.5 42.667 -51.5 71s-19.5 60.833 -19.5 97.5c0 38 7 71.833 21 101.5s32 54.5 54 74.5s46.333 35.333 73 46s53 16 79 16h1z" />
    <glyph glyph-name="uni03CD" unicode="&#x3cd;" horiz-adv-x="497" 
d="M225 501l20.499 85.5l19.5 83.5c4.66699 0.666992 10.667 1 18 1s14.833 -0.5 22.5 -1.5s14.834 -2.5 21.501 -4.5s12 -4.33301 16 -7v-12l-93 -153zM33.999 409l7.99707 18.9951c6.66699 2.66699 16 5.5 28 8.5s24.667 5.66699 38 8s26.333 4.16602 39 5.49902
s23.334 2 32.001 2l2 -3c-1.33301 -26 -3.16602 -64.667 -5.49902 -116s-3.16602 -118.666 -2.49902 -201.999c0.666992 -14.667 4 -27.5 10 -38.5s13.5 -20 22.5 -27s19.333 -12.167 31 -15.5s23.5 -5 35.5 -5c18.667 0 35.834 3.5 51.501 10.5s29.167 18.5 40.5 34.5
s20.166 36.667 26.499 62s9.5 56 9.5 92c0 13.333 -1 26.833 -3 40.5s-4.66699 26.167 -8 37.5l-35.5 54l-29.5 47l2 9c2.66699 2 7.16699 4.16699 13.5 6.5s13.5 4.5 21.5 6.5s16.333 3.66699 25 5s16 2 22 2c8.66699 -10.667 16 -23.167 22 -37.5
s10.833 -29.166 14.5 -44.499s6.33398 -30.666 8.00098 -45.999s2.5 -29.333 2.5 -42c0 -46.667 -5.33301 -88.167 -16 -124.5s-25.334 -67.166 -44.001 -92.499s-41 -44.666 -67 -57.999s-54 -20 -84 -20c-19.333 0 -38.5 2.83301 -57.5 8.5s-36.167 14.834 -51.5 27.501
c-30.667 25.333 -46 60 -46 104c0 16 0.166992 35 0.5 57s0.5 44.667 0.5 68c0 24 0.166992 47.667 0.5 71s0.5 44 0.5 62z" />
    <glyph glyph-name="uni03CE" unicode="&#x3ce;" horiz-adv-x="653" 
d="M301 501l20.499 85.5l19.5 83.5c4.66699 0.666992 10.667 1 18 1s14.833 -0.5 22.5 -1.5s14.834 -2.5 21.501 -4.5s12 -4.33301 16 -7v-12l-93 -153zM240.999 424c-36 -21.333 -63.667 -48.998 -83 -82.998s-29 -74.667 -29 -122c0 -56.667 9.83301 -99.667 29.5 -129
s43.5 -44 71.5 -44c15.333 0 30 4.5 44 13.5s25 27.167 33 54.5c-5.33301 23.333 -10.5 47.666 -15.5 72.999s-8.16699 50.333 -9.5 75c4 3.33301 11.167 6 21.5 8s21.166 3 32.499 3s21.666 -0.833008 30.999 -2.5s15.333 -4.5 18 -8.5
c-3.33301 -21.333 -7.5 -44.5 -12.5 -69.5s-11.167 -51.167 -18.5 -78.5c2.66699 -13.333 6.66699 -24.5 12 -33.5s11.333 -16 18 -21s13.834 -8.5 21.501 -10.5s15.167 -3 22.5 -3c10.667 0 22 3 34 9s23 15.833 33 29.5s18.167 31.667 24.5 54s9.5 49.833 9.5 82.5
c0 42.667 -8.33301 81.5 -25 116.5s-41.667 63.833 -75 86.5l18 28c22 -7.33301 41.333 -17 58 -29s31 -24.333 43 -37c20.667 -21.333 36.834 -46.166 48.501 -74.499s17.5 -61.5 17.5 -99.5c0 -36 -4.5 -68 -13.5 -96s-21.333 -51.5 -37 -70.5
s-33.834 -33.5 -54.501 -43.5s-43 -15 -67 -15c-29.333 0 -53.166 7.83301 -71.499 23.5s-31.166 36.167 -38.499 61.5h-5c-9.33301 -24.667 -24 -45 -44 -61s-45 -24 -75 -24c-26 0 -49.5 5.16699 -70.5 15.5s-38.833 24.833 -53.5 43.5s-25.834 40.667 -33.501 66
s-11.5 52.666 -11.5 81.999c0 38.667 5.33301 71.667 16 99s24.667 51 42 71c14.667 17.333 32.5 33.666 53.5 48.999s46.5 28.333 76.5 39z" />
    <glyph glyph-name="uni03D0" unicode="&#x3d0;" horiz-adv-x="522" 
d="M160 173c0 -30 3.16699 -53.999 9.5 -71.999s14.833 -32.667 25.5 -44c20.667 -22 48 -33 82 -33c12.667 0 26 2.66699 40 8s26.833 14.666 38.5 27.999s21.167 31.333 28.5 54s11 51 11 85c0 48 -11.5 86.667 -34.5 116s-58.167 44 -105.5 44
c-32 0 -63.667 -7.66699 -95 -23v-163zM160 371.001c16.667 4.66699 33.5 9.66797 50.5 15.001s34.167 12.333 51.5 21c12 6 24.333 13.667 37 23s24 20.333 34 33s18 27.167 24 43.5s9 34.5 9 54.5c-0.666992 34 -8.5 61.333 -23.5 82s-37.5 31 -67.5 31
c-38 0 -66.667 -19.833 -86 -59.5s-29 -96.834 -29 -171.501v-72zM76 413.002c0 50.667 5.16895 94.4971 15.502 131.497s24.666 67.833 42.999 92.5s40.333 43 66 55s54.167 18 85.5 18c48 0 85.833 -13.333 113.5 -40s41.5 -62.667 41.5 -108
c0 -21.333 -3.5 -40.333 -10.5 -57s-16.5 -31.667 -28.5 -45s-26 -25.333 -42 -36s-33 -20.667 -51 -30v-3c21.333 -3.33301 39.666 -7.66602 54.999 -12.999s29.333 -11.666 42 -18.999c26 -15.333 45.667 -35.333 59 -60s20 -56 20 -94c0 -36 -6.66699 -67.5 -20 -94.5
s-30.666 -49.667 -51.999 -68s-45.333 -32.166 -72 -41.499s-53.334 -14 -80.001 -14c-19.333 0 -37.833 1.33301 -55.5 4s-34.167 7.66699 -49.5 15c-28.667 13.333 -49.167 32.333 -61.5 57s-18.5 58 -18.5 100v250z" />
    <glyph glyph-name="theta1" unicode="&#x3d1;" horiz-adv-x="519" 
d="M284 405c19.333 0 37.1699 3.16406 53.5029 9.49707s32.166 13.833 47.499 22.5c-0.666992 10 -1.83398 22.833 -3.50098 38.5s-4.5 32.334 -8.5 50.001s-9.33301 35.334 -16 53.001s-15 33.5 -25 47.5s-21.833 25.5 -35.5 34.5s-29.834 13.5 -48.501 13.5
c-28.667 0 -51.667 -11.5 -69 -34.5s-26 -54.167 -26 -93.5c0 -41.333 11.667 -75.166 35 -101.499s55 -39.5 95 -39.5h1zM20.0039 268.997l5 18.0029c8.66699 5.33301 25.334 11.5 50.001 18.5s52.334 13.167 83.001 18.5l2 -2c2 -4.66699 4 -12.834 6 -24.501
s3 -27.167 3 -46.5v-106c0 -42.667 8.33301 -73.5 25 -92.5s39 -28.5 67 -28.5c23.333 0 43.166 8.5 59.499 25.5s29.5 40.5 39.5 70.5s17.333 65.167 22 105.5s7 84.166 7 131.499c0 9.33301 -0.166992 17.666 -0.5 24.999s-0.5 14 -0.5 20l-2 1
c-10 -6.66699 -20.667 -13.167 -32 -19.5s-23 -11.833 -35 -16.5s-23.833 -8.5 -35.5 -11.5s-22.5 -4.5 -32.5 -4.5c-31.333 0 -58.333 4.66699 -81 14s-41.334 21.833 -56.001 37.5s-25.667 33.334 -33 53.001s-11 40.167 -11 61.5c0 29.333 5.33301 55.833 16 79.5
s25 43.834 43 60.501s38.667 29.5 62 38.5s48 13.5 74 13.5c68.667 0 120.667 -27.667 156 -83s53 -138 53 -248c0 -128.667 -20.167 -226 -60.5 -292s-97.5 -99 -171.5 -99c-22.667 0 -43.5 2.83301 -62.5 8.5s-35.5 14.5 -49.5 26.5s-25 27.667 -33 47
s-12 42.666 -12 69.999v59c0 27.333 -3 45.666 -9 54.999z" />
    <glyph glyph-name="uni03F0" unicode="&#x3f0;" horiz-adv-x="598" 
d="M124 57c8 11.333 16.6699 32.0029 26.0029 62.0029s14 68.333 14 115c0 22.667 -1.66699 42.667 -5 60s-7.33301 32 -12 44s-9.83398 21.667 -15.501 29s-10.834 12.666 -15.501 15.999l-83 6l4 18c7.33301 4.66699 17 9.66699 29 15s24.167 10.166 36.5 14.499
s23.833 8 34.5 11s19 4.5 25 4.5s12.5 -3.33301 19.5 -10s13.5 -15.834 19.5 -27.501s11 -25.667 15 -42s6 -34.5 6 -54.5c0 -16.667 -1 -33.834 -3 -51.501s-4.5 -35 -7.5 -52s-6.66699 -33 -11 -48s-8.83301 -28.167 -13.5 -39.5l6 -1l151.5 209c41 56 71.5 96 91.5 120
c28 0.666992 53.667 -2 77 -8s42.666 -12.333 57.999 -19l-8 -21l-84 -17c-10 -17.333 -20.5 -43.333 -31.5 -78s-16.5 -76.334 -16.5 -125.001c0 -22 1.5 -40.5 4.5 -55.5s6.83301 -27.5 11.5 -37.5s9.66699 -18 15 -24s10.333 -10.667 15 -14l88 -10l-6 -19
c-4 -3.33301 -10.167 -7.33301 -18.5 -12s-18 -9 -29 -13s-22.5 -7.5 -34.5 -10.5s-23 -4.5 -33 -4.5c-7.33301 0.666992 -15 4.16699 -23 10.5s-15.5 15 -22.5 26s-12.833 24.5 -17.5 40.5s-7 34.333 -7 55c0 32.667 4.33301 68.334 13 107.001s19 74 31 106h-4
l-78.5 -107.5l-76 -108.5l-61 -88c-17 -24.667 -27.833 -40 -32.5 -46c-15.333 0 -30 1 -44 3s-27 4.66699 -39 8s-22.667 6.83301 -32 10.5s-16.333 6.83398 -21 9.50098l8 18z" />
    <glyph glyph-name="uni0401" unicode="&#x401;" horiz-adv-x="818" 
d="M538 825l-121 -20l42 114l120 20zM280 825l-121 -20l42 114l120 20zM118 328c4.66699 -45.333 15.498 -85.667 32.498 -121s37.5 -65 61.5 -89s50.5 -42.333 79.5 -55s58.167 -19 87.5 -19c40 0 77.833 12 113.5 36s64.167 61.333 85.5 112l116 12
c-14.667 -35.333 -34.167 -66.5 -58.5 -93.5s-51.666 -49.5 -81.999 -67.5s-62.666 -31.667 -96.999 -41s-69.166 -14 -104.499 -14c-44 0 -87.167 7.33301 -129.5 22s-79.833 37.167 -112.5 67.5s-59 68.333 -79 114s-30 99.5 -30 161.5c0 58.667 10.667 110.5 32 155.5
s49.5 82.667 84.5 113s74.667 53.166 119 68.499s89.5 23 135.5 23c30.667 0 61.167 -3.66699 91.5 -11s59 -18.166 86 -32.499s51.833 -32.666 74.5 -54.999s41.667 -48.5 57 -78.5l-123 -16c-22.667 47.333 -53.167 82.666 -91.5 105.999s-78.5 35 -120.5 35
c-29.333 0 -57.833 -5.83301 -85.5 -17.5s-52.334 -29.334 -74.001 -53.001s-39 -53.167 -52 -88.5s-19.5 -76.666 -19.5 -123.999v-5l499 36l8 -117l-104 -7l-6 73z" />
    <glyph glyph-name="uni0402" unicode="&#x402;" horiz-adv-x="744" 
d="M434 656l-234.993 -0.000976562v-229c20.667 4 41.334 6 62.001 6c46 0 90.667 -8.83301 134 -26.5s81.666 -42.167 114.999 -73.5s60 -68.666 80 -111.999s30 -91 30 -143c0 -27.333 -1.33301 -51.5 -4 -72.5s-6.33398 -40 -11.001 -57s-10.334 -32.333 -17.001 -46
s-13.667 -26.5 -21 -38.5c-7.33301 -11.333 -16.333 -22.833 -27 -34.5s-22.5 -22 -35.5 -31s-26.833 -16.333 -41.5 -22s-29.334 -8.5 -44.001 -8.5h-8c-2.66699 0 -5.33398 0.333008 -8.00098 1l-156 24h-4c-7.33301 0 -16 -3.33301 -26 -10s-15 -16.667 -15 -30v-55
l-105 -17v74c0 12.667 3.66699 24.834 11 36.501s16.666 22 27.999 31s24.333 16 39 21s29.667 7.5 45 7.5h8c2.66699 0 5.66699 -0.333008 9 -1l150 -24h10c14 0 28.167 3 42.5 9s26.166 15.667 35.499 29c10 17.333 17.667 36 23 56s9.16602 39.5 11.499 58.5
s3.83301 36.667 4.5 53s1 29.166 1 38.499v11c0 37.333 -8.5 74.333 -25.5 111s-39 69.5 -66 98.5s-57.333 52.5 -91 70.5s-67.167 27 -100.5 27c-11.333 0 -22.333 -1 -33 -3v-385l-105 -11v666h-94v45h562l-65 -180l-121 -20z" />
    <glyph glyph-name="uni0403" unicode="&#x403;" horiz-adv-x="611" 
d="M205 780l-69 54l249 105l68 -53zM105 0l-105 -11v711h538l-65 -180l-121 -20l58 156h-305v-656z" />
    <glyph glyph-name="uni0404" unicode="&#x404;" horiz-adv-x="818" 
d="M118 328c4.66699 -45.333 15.498 -85.667 32.498 -121s37.5 -65 61.5 -89s50.5 -42.333 79.5 -55s58.167 -19 87.5 -19c40 0 77.833 12 113.5 36s64.167 61.333 85.5 112l116 12c-14.667 -35.333 -34.167 -66.5 -58.5 -93.5s-51.666 -49.5 -81.999 -67.5
s-62.666 -31.667 -96.999 -41s-69.166 -14 -104.499 -14c-44 0 -87.167 7.33301 -129.5 22s-79.833 37.167 -112.5 67.5s-59 68.333 -79 114s-30 99.5 -30 161.5c0 58.667 10.667 110.5 32 155.5s49.5 82.667 84.5 113s74.667 53.166 119 68.499s89.5 23 135.5 23
c30.667 0 61.167 -3.66699 91.5 -11s59 -18.166 86 -32.499s51.833 -32.666 74.5 -54.999s41.667 -48.5 57 -78.5l-123 -16c-22.667 47.333 -53.167 82.666 -91.5 105.999s-78.5 35 -120.5 35c-29.333 0 -57.833 -5.83301 -85.5 -17.5s-52.334 -29.334 -74.001 -53.001
s-39 -53.167 -52 -88.5s-19.5 -76.666 -19.5 -123.999v-5l499 36l8 -117l-104 -7l-6 73z" />
    <glyph glyph-name="uni0405" unicode="&#x405;" horiz-adv-x="770" 
d="M1 -11c0 33.333 4.49512 61.835 13.4951 85.502s21.667 43.334 38 59.001s36.166 28.167 59.499 37.5s49.333 16 78 20l116 14c-1.33301 -10 -1.66602 -20.333 -0.999023 -31s2.66699 -21.667 6 -33c5.33301 -19.333 13.166 -36.666 23.499 -51.999s22.333 -28 36 -38
s28.167 -16.833 43.5 -20.5s30.666 -3.5 45.999 0.5c14.667 4 27.834 11.5 39.501 22.5s20.834 24.167 27.501 39.5s10.667 32.333 12 51s-0.666992 37.667 -6 57s-13.166 35.666 -23.499 48.999s-22.333 24.666 -36 33.999s-28.167 16.833 -43.5 22.5
s-30.666 10.5 -45.999 14.5c-13.333 4 -30.666 9.66699 -51.999 17s-42 18.833 -62 34.5s-37.167 36.167 -51.5 61.5s-21.5 57.666 -21.5 96.999c0 24.667 5.83301 48.167 17.5 70.5s27.834 41.666 48.501 57.999s44.5 29.333 71.5 39s56.167 14.5 87.5 14.5
c30.667 0 59.667 -4.83301 87 -14.5s51.333 -22.667 72 -39s36.834 -35.666 48.501 -57.999s17.5 -45.833 17.5 -70.5l-107 -13c-0.666992 7.33301 -1.5 14.5 -2.5 21.5s-2.5 14.167 -4.5 21.5c-5.33301 19.333 -13.166 36.666 -23.499 51.999s-22.333 28 -36 38
s-28.167 16.833 -43.5 20.5s-30.666 3.5 -45.999 -0.5s-28.666 -11.5 -39.999 -22.5s-20.333 -24.167 -27 -39.5s-10.667 -32.333 -12 -51s0.666992 -37.667 6 -57s13.166 -34.833 23.499 -46.5s22.333 -21.334 36 -29.001s28.167 -14.167 43.5 -19.5s30.666 -11 45.999 -17
l63 -24c22 -8.66699 42.167 -20.667 60.5 -36s33.5 -35.5 45.5 -60.5s18 -57.5 18 -97.5c0 -25.333 -5.83301 -49 -17.5 -71s-27.834 -41.167 -48.501 -57.5s-44.667 -29.333 -72 -39s-56.333 -14.5 -87 -14.5c-28 0 -54.5 4 -79.5 12s-47.333 18.833 -67 32.5
s-36.167 29.834 -49.5 48.501s-22 38.667 -26 60c-14 -1.33301 -27 -6.83301 -39 -16.5s-22.333 -21.5 -31 -35.5s-15.5 -29 -20.5 -45s-7.5 -31 -7.5 -45z" />
    <glyph glyph-name="uni0406" unicode="&#x406;" horiz-adv-x="231" 
d="M106 0l-105 -11v711l105 11v-711z" />
    <glyph glyph-name="uni0407" unicode="&#x407;" horiz-adv-x="542" 
d="M379 825l-121 -20l42 114l120 20zM121 825l-121 -20l42 114l120 20zM241 711l-105 -11v-711l105 11v711z" />
    </font>
</defs>
</svg>
